G04*
G04 #@! TF.GenerationSoftware,Altium Limited,Altium Designer,24.1.2 (44)*
G04*
G04 Layer_Physical_Order=2*
G04 Layer_Color=16711680*
%FSLAX44Y44*%
%MOMM*%
G71*
G04*
G04 #@! TF.SameCoordinates,C9DB49E7-4425-42DB-94E5-CA624B14DC79*
G04*
G04*
G04 #@! TF.FilePolarity,Positive*
G04*
G01*
G75*
%ADD49R,1.0000X4.0000*%
%ADD50C,0.3810*%
%ADD51C,1.5300*%
%ADD52R,1.5300X1.5300*%
%ADD53C,1.6500*%
G04:AMPARAMS|DCode=54|XSize=1.65mm|YSize=1.65mm|CornerRadius=0.4125mm|HoleSize=0mm|Usage=FLASHONLY|Rotation=180.000|XOffset=0mm|YOffset=0mm|HoleType=Round|Shape=RoundedRectangle|*
%AMROUNDEDRECTD54*
21,1,1.6500,0.8250,0,0,180.0*
21,1,0.8250,1.6500,0,0,180.0*
1,1,0.8250,-0.4125,0.4125*
1,1,0.8250,0.4125,0.4125*
1,1,0.8250,0.4125,-0.4125*
1,1,0.8250,-0.4125,-0.4125*
%
%ADD54ROUNDEDRECTD54*%
%ADD55C,6.0000*%
%ADD56C,1.0000*%
%ADD57C,0.5000*%
%ADD58R,1.6000X0.8000*%
%ADD59R,3.0000X2.1000*%
G36*
X899301Y896820D02*
X902524Y896566D01*
X906937Y895507D01*
X911130Y893770D01*
X915000Y891398D01*
X918451Y888451D01*
X921398Y885000D01*
X923770Y881130D01*
X925507Y876937D01*
X926566Y872524D01*
X926912Y868129D01*
X926900Y868071D01*
Y773071D01*
X926914Y773002D01*
X926553Y771185D01*
X925484Y769586D01*
X923886Y768518D01*
X923197Y768381D01*
X922000Y768206D01*
Y768206D01*
X919118Y767827D01*
X916432Y766714D01*
X914126Y764945D01*
X912356Y762638D01*
X911244Y759953D01*
X910865Y757071D01*
X910865D01*
X910900Y755801D01*
X910900Y148000D01*
X910865D01*
X911244Y145118D01*
X912357Y142432D01*
X914126Y140126D01*
X916432Y138357D01*
X919118Y137244D01*
X922000Y136865D01*
Y136865D01*
X923197Y136690D01*
X923886Y136553D01*
X925484Y135485D01*
X926553Y133886D01*
X926914Y132069D01*
X926900Y132000D01*
Y32000D01*
X926900Y32000D01*
X926900D01*
X926825Y30761D01*
X926566Y27476D01*
X925507Y23063D01*
X923770Y18870D01*
X921398Y15000D01*
X918451Y11549D01*
X915000Y8601D01*
X911130Y6230D01*
X906937Y4493D01*
X902524Y3434D01*
X899239Y3175D01*
X898000Y3100D01*
Y3100D01*
X788000D01*
X787932Y3086D01*
X786114Y3447D01*
X784516Y4516D01*
X783447Y6114D01*
X783310Y6803D01*
X783135Y8000D01*
X783135D01*
X782756Y10882D01*
X781643Y13568D01*
X779874Y15874D01*
X777568Y17643D01*
X774882Y18756D01*
X772000Y19135D01*
Y19100D01*
X772000Y19100D01*
X728717D01*
X727540Y19324D01*
X727540Y20370D01*
Y64404D01*
X712460D01*
Y20370D01*
X712460Y19324D01*
X711283Y19100D01*
X708717D01*
X707540Y19324D01*
X707540Y20370D01*
Y64404D01*
X692460D01*
Y20370D01*
X692460Y19324D01*
X691283Y19100D01*
X688717D01*
X687540Y19324D01*
Y64404D01*
X672460D01*
Y50831D01*
X671190Y49789D01*
X669996Y50027D01*
X668810Y49791D01*
X667540Y50833D01*
Y64404D01*
X652460D01*
Y19324D01*
X651283Y19100D01*
X648717D01*
X647540Y20370D01*
Y40594D01*
X632460D01*
Y20370D01*
X632460Y19324D01*
X631283Y19100D01*
X510000Y19100D01*
X506044D01*
X506000Y19204D01*
Y20000D01*
X506000D01*
X505923Y20780D01*
X505326Y22222D01*
X504222Y23326D01*
X502780Y23923D01*
X502000Y24000D01*
X408000Y24000D01*
Y24000D01*
X407220Y23923D01*
X405778Y23326D01*
X404674Y22222D01*
X404077Y20780D01*
X404000Y20000D01*
X404000D01*
Y19204D01*
X403956Y19100D01*
X158000D01*
Y19135D01*
X155118Y18756D01*
X152432Y17643D01*
X150126Y15874D01*
X148357Y13568D01*
X147244Y10882D01*
X146865Y8000D01*
X146865D01*
X146690Y6803D01*
X146553Y6114D01*
X145484Y4516D01*
X143886Y3447D01*
X142069Y3086D01*
X142000Y3100D01*
X32000D01*
X31922Y3084D01*
X27476Y3434D01*
X23063Y4493D01*
X18870Y6230D01*
X15000Y8601D01*
X11549Y11549D01*
X8601Y15000D01*
X6230Y18870D01*
X4493Y23063D01*
X3434Y27476D01*
X3175Y30761D01*
X3100Y32000D01*
X3100D01*
X3099Y32004D01*
Y78925D01*
X4369Y79126D01*
X5544Y75509D01*
X7869Y70945D01*
X10880Y66802D01*
X14502Y63180D01*
X18645Y60169D01*
X23209Y57844D01*
X28080Y56261D01*
X33139Y55460D01*
X34430D01*
Y88000D01*
Y120540D01*
X33139D01*
X28080Y119739D01*
X23209Y118156D01*
X18645Y115831D01*
X14502Y112820D01*
X10880Y109198D01*
X7869Y105055D01*
X5544Y100491D01*
X4369Y96874D01*
X3099Y97075D01*
Y123302D01*
X3085Y123370D01*
X3447Y125187D01*
X4515Y126786D01*
X6113Y127854D01*
X7927Y128215D01*
X7992Y128202D01*
X9992Y128197D01*
X9999Y128162D01*
X12881Y128541D01*
X15567Y129654D01*
X17873Y131423D01*
X19643Y133729D01*
X20755Y136415D01*
X21134Y139297D01*
X21099D01*
Y773495D01*
X21100Y773500D01*
X21135D01*
X20756Y776382D01*
X19643Y779068D01*
X17874Y781374D01*
X15568Y783143D01*
X12882Y784256D01*
X10000Y784635D01*
Y784635D01*
X8731Y784598D01*
X8007Y784600D01*
X8000Y784600D01*
X6816Y784808D01*
X6114Y784947D01*
X4516Y786016D01*
X3447Y787614D01*
X3086Y789432D01*
X3100Y789500D01*
Y815522D01*
X4370Y815724D01*
X5544Y812109D01*
X7869Y807545D01*
X10880Y803402D01*
X14502Y799780D01*
X18645Y796769D01*
X23209Y794444D01*
X28080Y792861D01*
X33139Y792060D01*
X34430D01*
Y824600D01*
Y857140D01*
X33139D01*
X28080Y856339D01*
X23209Y854756D01*
X18645Y852431D01*
X14502Y849420D01*
X10880Y845798D01*
X7869Y841655D01*
X5544Y837091D01*
X4370Y833476D01*
X3100Y833678D01*
Y868000D01*
X3084Y868078D01*
X3434Y872524D01*
X4493Y876937D01*
X6230Y881130D01*
X8601Y885000D01*
X11549Y888451D01*
X15000Y891398D01*
X18870Y893770D01*
X23063Y895507D01*
X27476Y896566D01*
X30699Y896820D01*
X31936Y896902D01*
X32000Y896900D01*
X33187Y896900D01*
X896795D01*
X898000Y896900D01*
X898064Y896902D01*
Y896902D01*
X899301Y896820D01*
D02*
G37*
%LPC*%
G36*
X895561Y882540D02*
X894270D01*
Y851270D01*
X925540D01*
Y852561D01*
X924739Y857620D01*
X923156Y862491D01*
X920831Y867055D01*
X917820Y871198D01*
X914198Y874820D01*
X910055Y877831D01*
X905491Y880156D01*
X900620Y881739D01*
X895561Y882540D01*
D02*
G37*
G36*
X891730D02*
X890439D01*
X885380Y881739D01*
X880509Y880156D01*
X875945Y877831D01*
X871802Y874820D01*
X868180Y871198D01*
X865169Y867055D01*
X862844Y862491D01*
X861261Y857620D01*
X860460Y852561D01*
Y851270D01*
X891730D01*
Y882540D01*
D02*
G37*
G36*
X38261Y857140D02*
X36970D01*
Y825870D01*
X68240D01*
Y827161D01*
X67439Y832220D01*
X65856Y837091D01*
X63531Y841655D01*
X60520Y845798D01*
X56898Y849420D01*
X52755Y852431D01*
X48191Y854756D01*
X43320Y856339D01*
X38261Y857140D01*
D02*
G37*
G36*
X925540Y848730D02*
X894270D01*
Y817460D01*
X895561D01*
X900620Y818261D01*
X905491Y819844D01*
X910055Y822169D01*
X914198Y825180D01*
X917820Y828802D01*
X920831Y832945D01*
X923156Y837509D01*
X924739Y842380D01*
X925540Y847439D01*
Y848730D01*
D02*
G37*
G36*
X891730D02*
X860460D01*
Y847439D01*
X861261Y842380D01*
X862844Y837509D01*
X865169Y832945D01*
X868180Y828802D01*
X871802Y825180D01*
X875945Y822169D01*
X880509Y819844D01*
X885380Y818261D01*
X890439Y817460D01*
X891730D01*
Y848730D01*
D02*
G37*
G36*
X68240Y823330D02*
X36970D01*
Y792060D01*
X38261D01*
X43320Y792861D01*
X48191Y794444D01*
X52755Y796769D01*
X56898Y799780D01*
X60520Y803402D01*
X63531Y807545D01*
X65856Y812109D01*
X67439Y816980D01*
X68240Y822039D01*
Y823330D01*
D02*
G37*
G36*
X113242Y783990D02*
X110559D01*
X107967Y783296D01*
X105643Y781954D01*
X103746Y780057D01*
X102404Y777733D01*
X101710Y775142D01*
Y772458D01*
X102404Y769867D01*
X103746Y767543D01*
X105643Y765646D01*
X107967Y764304D01*
X110559Y763610D01*
X113242D01*
X115833Y764304D01*
X118157Y765646D01*
X120054Y767543D01*
X121396Y769867D01*
X122090Y772458D01*
Y775142D01*
X121396Y777733D01*
X120054Y780057D01*
X118157Y781954D01*
X115833Y783296D01*
X113242Y783990D01*
D02*
G37*
G36*
X87842D02*
X85159D01*
X82567Y783296D01*
X80243Y781954D01*
X78346Y780057D01*
X77004Y777733D01*
X76310Y775142D01*
Y772458D01*
X77004Y769867D01*
X78346Y767543D01*
X80243Y765646D01*
X82567Y764304D01*
X85159Y763610D01*
X87842D01*
X90433Y764304D01*
X92757Y765646D01*
X94654Y767543D01*
X95996Y769867D01*
X96690Y772458D01*
Y775142D01*
X95996Y777733D01*
X94654Y780057D01*
X92757Y781954D01*
X90433Y783296D01*
X87842Y783990D01*
D02*
G37*
G36*
X62442D02*
X59759D01*
X57167Y783296D01*
X54843Y781954D01*
X52946Y780057D01*
X51604Y777733D01*
X50910Y775142D01*
Y772458D01*
X51604Y769867D01*
X52946Y767543D01*
X54843Y765646D01*
X57167Y764304D01*
X59759Y763610D01*
X62442D01*
X65033Y764304D01*
X67357Y765646D01*
X69254Y767543D01*
X70596Y769867D01*
X71290Y772458D01*
Y775142D01*
X70596Y777733D01*
X69254Y780057D01*
X67357Y781954D01*
X65033Y783296D01*
X62442Y783990D01*
D02*
G37*
G36*
X37042D02*
X34358D01*
X31767Y783296D01*
X29443Y781954D01*
X27546Y780057D01*
X26204Y777733D01*
X25510Y775142D01*
Y772458D01*
X26204Y769867D01*
X27546Y767543D01*
X29443Y765646D01*
X31767Y764304D01*
X34358Y763610D01*
X37042D01*
X39633Y764304D01*
X41957Y765646D01*
X43854Y767543D01*
X45196Y769867D01*
X45890Y772458D01*
Y775142D01*
X45196Y777733D01*
X43854Y780057D01*
X41957Y781954D01*
X39633Y783296D01*
X37042Y783990D01*
D02*
G37*
G36*
X904270Y759790D02*
X888000D01*
Y748020D01*
X904270D01*
Y759790D01*
D02*
G37*
G36*
X885460D02*
X869190D01*
Y748020D01*
X885460D01*
Y759790D01*
D02*
G37*
G36*
X113242Y758590D02*
X110559D01*
X107967Y757896D01*
X105643Y756554D01*
X103746Y754657D01*
X102404Y752333D01*
X101710Y749742D01*
Y747058D01*
X102404Y744467D01*
X103746Y742143D01*
X105643Y740246D01*
X107967Y738904D01*
X110559Y738210D01*
X113242D01*
X115833Y738904D01*
X118157Y740246D01*
X120054Y742143D01*
X121396Y744467D01*
X122090Y747058D01*
Y749742D01*
X121396Y752333D01*
X120054Y754657D01*
X118157Y756554D01*
X115833Y757896D01*
X113242Y758590D01*
D02*
G37*
G36*
X87842D02*
X85159D01*
X82567Y757896D01*
X80243Y756554D01*
X78346Y754657D01*
X77004Y752333D01*
X76310Y749742D01*
Y747058D01*
X77004Y744467D01*
X78346Y742143D01*
X80243Y740246D01*
X82567Y738904D01*
X85159Y738210D01*
X87842D01*
X90433Y738904D01*
X92757Y740246D01*
X94654Y742143D01*
X95996Y744467D01*
X96690Y747058D01*
Y749742D01*
X95996Y752333D01*
X94654Y754657D01*
X92757Y756554D01*
X90433Y757896D01*
X87842Y758590D01*
D02*
G37*
G36*
X62442D02*
X59759D01*
X57167Y757896D01*
X54843Y756554D01*
X52946Y754657D01*
X51604Y752333D01*
X50910Y749742D01*
Y747058D01*
X51604Y744467D01*
X52946Y742143D01*
X54843Y740246D01*
X57167Y738904D01*
X59759Y738210D01*
X62442D01*
X65033Y738904D01*
X67357Y740246D01*
X69254Y742143D01*
X70596Y744467D01*
X71290Y747058D01*
Y749742D01*
X70596Y752333D01*
X69254Y754657D01*
X67357Y756554D01*
X65033Y757896D01*
X62442Y758590D01*
D02*
G37*
G36*
X37042D02*
X34358D01*
X31767Y757896D01*
X29443Y756554D01*
X27546Y754657D01*
X26204Y752333D01*
X25510Y749742D01*
Y747058D01*
X26204Y744467D01*
X27546Y742143D01*
X29443Y740246D01*
X31767Y738904D01*
X34358Y738210D01*
X37042D01*
X39633Y738904D01*
X41957Y740246D01*
X43854Y742143D01*
X45196Y744467D01*
X45890Y747058D01*
Y749742D01*
X45196Y752333D01*
X43854Y754657D01*
X41957Y756554D01*
X39633Y757896D01*
X37042Y758590D01*
D02*
G37*
G36*
X904270Y745480D02*
X888000D01*
Y733710D01*
X904270D01*
Y745480D01*
D02*
G37*
G36*
X885460D02*
X869190D01*
Y733710D01*
X885460D01*
Y745480D01*
D02*
G37*
G36*
X62442Y733190D02*
X62370D01*
Y724270D01*
X71290D01*
Y724342D01*
X70596Y726933D01*
X69254Y729257D01*
X67357Y731154D01*
X65033Y732496D01*
X62442Y733190D01*
D02*
G37*
G36*
X37042D02*
X36970D01*
Y724270D01*
X45890D01*
Y724342D01*
X45196Y726933D01*
X43854Y729257D01*
X41957Y731154D01*
X39633Y732496D01*
X37042Y733190D01*
D02*
G37*
G36*
X59830D02*
X59759D01*
X57167Y732496D01*
X54843Y731154D01*
X52946Y729257D01*
X51604Y726933D01*
X50910Y724342D01*
Y724270D01*
X59830D01*
Y733190D01*
D02*
G37*
G36*
X34430D02*
X34358D01*
X31767Y732496D01*
X29443Y731154D01*
X27546Y729257D01*
X26204Y726933D01*
X25510Y724342D01*
Y724270D01*
X34430D01*
Y733190D01*
D02*
G37*
G36*
X868270Y727790D02*
X859000D01*
Y722520D01*
X868270D01*
Y727790D01*
D02*
G37*
G36*
X856460D02*
X847190D01*
Y722520D01*
X856460D01*
Y727790D01*
D02*
G37*
G36*
X113242Y733190D02*
X110559D01*
X107967Y732496D01*
X105643Y731154D01*
X103746Y729257D01*
X102404Y726933D01*
X101710Y724342D01*
Y721658D01*
X102404Y719067D01*
X103746Y716743D01*
X105643Y714846D01*
X107967Y713504D01*
X110559Y712810D01*
X113242D01*
X115833Y713504D01*
X118157Y714846D01*
X120054Y716743D01*
X121396Y719067D01*
X122090Y721658D01*
Y724342D01*
X121396Y726933D01*
X120054Y729257D01*
X118157Y731154D01*
X115833Y732496D01*
X113242Y733190D01*
D02*
G37*
G36*
X87842D02*
X85159D01*
X82567Y732496D01*
X80243Y731154D01*
X78346Y729257D01*
X77004Y726933D01*
X76310Y724342D01*
Y721658D01*
X77004Y719067D01*
X78346Y716743D01*
X80243Y714846D01*
X82567Y713504D01*
X85159Y712810D01*
X87842D01*
X90433Y713504D01*
X92757Y714846D01*
X94654Y716743D01*
X95996Y719067D01*
X96690Y721658D01*
Y724342D01*
X95996Y726933D01*
X94654Y729257D01*
X92757Y731154D01*
X90433Y732496D01*
X87842Y733190D01*
D02*
G37*
G36*
X71290Y721730D02*
X62370D01*
Y712810D01*
X62442D01*
X65033Y713504D01*
X67357Y714846D01*
X69254Y716743D01*
X70596Y719067D01*
X71290Y721658D01*
Y721730D01*
D02*
G37*
G36*
X59830D02*
X50910D01*
Y721658D01*
X51604Y719067D01*
X52946Y716743D01*
X54843Y714846D01*
X57167Y713504D01*
X59759Y712810D01*
X59830D01*
Y721730D01*
D02*
G37*
G36*
X45890D02*
X36970D01*
Y712810D01*
X37042D01*
X39633Y713504D01*
X41957Y714846D01*
X43854Y716743D01*
X45196Y719067D01*
X45890Y721658D01*
Y721730D01*
D02*
G37*
G36*
X34430D02*
X25510D01*
Y721658D01*
X26204Y719067D01*
X27546Y716743D01*
X29443Y714846D01*
X31767Y713504D01*
X34358Y712810D01*
X34430D01*
Y721730D01*
D02*
G37*
G36*
X868270Y719980D02*
X857730D01*
X847190D01*
Y714710D01*
Y710020D01*
X857730D01*
X868270D01*
Y714710D01*
Y719980D01*
D02*
G37*
G36*
Y707480D02*
X857730D01*
X847190D01*
Y702210D01*
Y697520D01*
X857730D01*
X868270D01*
Y702210D01*
Y707480D01*
D02*
G37*
G36*
X113242Y707790D02*
X110559D01*
X107967Y707096D01*
X105643Y705754D01*
X103746Y703857D01*
X102404Y701533D01*
X101710Y698942D01*
Y696258D01*
X102404Y693667D01*
X103746Y691343D01*
X105643Y689446D01*
X107967Y688104D01*
X110559Y687410D01*
X113242D01*
X115833Y688104D01*
X118157Y689446D01*
X120054Y691343D01*
X121396Y693667D01*
X122090Y696258D01*
Y698942D01*
X121396Y701533D01*
X120054Y703857D01*
X118157Y705754D01*
X115833Y707096D01*
X113242Y707790D01*
D02*
G37*
G36*
X87842D02*
X85159D01*
X82567Y707096D01*
X80243Y705754D01*
X78346Y703857D01*
X77004Y701533D01*
X76310Y698942D01*
Y696258D01*
X77004Y693667D01*
X78346Y691343D01*
X80243Y689446D01*
X82567Y688104D01*
X85159Y687410D01*
X87842D01*
X90433Y688104D01*
X92757Y689446D01*
X94654Y691343D01*
X95996Y693667D01*
X96690Y696258D01*
Y698942D01*
X95996Y701533D01*
X94654Y703857D01*
X92757Y705754D01*
X90433Y707096D01*
X87842Y707790D01*
D02*
G37*
G36*
X62442D02*
X59759D01*
X57167Y707096D01*
X54843Y705754D01*
X52946Y703857D01*
X51604Y701533D01*
X50910Y698942D01*
Y696258D01*
X51604Y693667D01*
X52946Y691343D01*
X54843Y689446D01*
X57167Y688104D01*
X59759Y687410D01*
X62442D01*
X65033Y688104D01*
X67357Y689446D01*
X69254Y691343D01*
X70596Y693667D01*
X71290Y696258D01*
Y698942D01*
X70596Y701533D01*
X69254Y703857D01*
X67357Y705754D01*
X65033Y707096D01*
X62442Y707790D01*
D02*
G37*
G36*
X37042D02*
X34358D01*
X31767Y707096D01*
X29443Y705754D01*
X27546Y703857D01*
X26204Y701533D01*
X25510Y698942D01*
Y696258D01*
X26204Y693667D01*
X27546Y691343D01*
X29443Y689446D01*
X31767Y688104D01*
X34358Y687410D01*
X37042D01*
X39633Y688104D01*
X41957Y689446D01*
X43854Y691343D01*
X45196Y693667D01*
X45890Y696258D01*
Y698942D01*
X45196Y701533D01*
X43854Y703857D01*
X41957Y705754D01*
X39633Y707096D01*
X37042Y707790D01*
D02*
G37*
G36*
X868270Y694980D02*
X857730D01*
X847190D01*
Y689710D01*
Y675782D01*
X837684D01*
X837624Y675926D01*
X836207Y677344D01*
X834354Y678111D01*
X832349D01*
X830497Y677344D01*
X829079Y675926D01*
X828312Y674074D01*
Y672069D01*
X829079Y670216D01*
X830497Y668799D01*
X832273Y668063D01*
X832290Y668045D01*
X833761Y667063D01*
X835495Y666718D01*
X847190D01*
Y663896D01*
X835824D01*
X834048Y664631D01*
X832043D01*
X830191Y663864D01*
X828773Y662446D01*
X828006Y660594D01*
Y658589D01*
X828773Y656736D01*
X830191Y655319D01*
X832043Y654551D01*
X834048D01*
X834725Y654831D01*
X847190D01*
Y652210D01*
X868270D01*
Y664710D01*
Y677210D01*
Y689710D01*
Y694980D01*
D02*
G37*
G36*
X113242Y682390D02*
X110559D01*
X107967Y681696D01*
X105643Y680354D01*
X103746Y678457D01*
X102404Y676133D01*
X101710Y673542D01*
Y670858D01*
X102404Y668267D01*
X103746Y665943D01*
X105643Y664046D01*
X107967Y662704D01*
X110559Y662010D01*
X113242D01*
X115833Y662704D01*
X118157Y664046D01*
X120054Y665943D01*
X121396Y668267D01*
X122090Y670858D01*
Y673542D01*
X121396Y676133D01*
X120054Y678457D01*
X118157Y680354D01*
X115833Y681696D01*
X113242Y682390D01*
D02*
G37*
G36*
X87842D02*
X85159D01*
X82567Y681696D01*
X80243Y680354D01*
X78346Y678457D01*
X77004Y676133D01*
X76310Y673542D01*
Y670858D01*
X77004Y668267D01*
X78346Y665943D01*
X80243Y664046D01*
X82567Y662704D01*
X85159Y662010D01*
X87842D01*
X90433Y662704D01*
X92757Y664046D01*
X94654Y665943D01*
X95996Y668267D01*
X96690Y670858D01*
Y673542D01*
X95996Y676133D01*
X94654Y678457D01*
X92757Y680354D01*
X90433Y681696D01*
X87842Y682390D01*
D02*
G37*
G36*
X62442D02*
X59759D01*
X57167Y681696D01*
X54843Y680354D01*
X52946Y678457D01*
X51604Y676133D01*
X50910Y673542D01*
Y670858D01*
X51604Y668267D01*
X52946Y665943D01*
X54843Y664046D01*
X57167Y662704D01*
X59759Y662010D01*
X62442D01*
X65033Y662704D01*
X67357Y664046D01*
X69254Y665943D01*
X70596Y668267D01*
X71290Y670858D01*
Y673542D01*
X70596Y676133D01*
X69254Y678457D01*
X67357Y680354D01*
X65033Y681696D01*
X62442Y682390D01*
D02*
G37*
G36*
X37042D02*
X34358D01*
X31767Y681696D01*
X29443Y680354D01*
X27546Y678457D01*
X26204Y676133D01*
X25510Y673542D01*
Y670858D01*
X26204Y668267D01*
X27546Y665943D01*
X29443Y664046D01*
X31767Y662704D01*
X34358Y662010D01*
X37042D01*
X39633Y662704D01*
X41957Y664046D01*
X43854Y665943D01*
X45196Y668267D01*
X45890Y670858D01*
Y673542D01*
X45196Y676133D01*
X43854Y678457D01*
X41957Y680354D01*
X39633Y681696D01*
X37042Y682390D01*
D02*
G37*
G36*
X113242Y656990D02*
X110559D01*
X107967Y656296D01*
X105643Y654954D01*
X103746Y653057D01*
X102404Y650733D01*
X101710Y648142D01*
Y645458D01*
X102404Y642867D01*
X103746Y640543D01*
X105643Y638646D01*
X107967Y637304D01*
X110559Y636610D01*
X113242D01*
X115833Y637304D01*
X118157Y638646D01*
X120054Y640543D01*
X121396Y642867D01*
X122090Y645458D01*
Y648142D01*
X121396Y650733D01*
X120054Y653057D01*
X118157Y654954D01*
X115833Y656296D01*
X113242Y656990D01*
D02*
G37*
G36*
X87842D02*
X85159D01*
X82567Y656296D01*
X80243Y654954D01*
X78346Y653057D01*
X77004Y650733D01*
X76310Y648142D01*
Y645458D01*
X77004Y642867D01*
X78346Y640543D01*
X80243Y638646D01*
X82567Y637304D01*
X85159Y636610D01*
X87842D01*
X90433Y637304D01*
X92757Y638646D01*
X94654Y640543D01*
X95996Y642867D01*
X96690Y645458D01*
Y648142D01*
X95996Y650733D01*
X94654Y653057D01*
X92757Y654954D01*
X90433Y656296D01*
X87842Y656990D01*
D02*
G37*
G36*
X62442D02*
X59759D01*
X57167Y656296D01*
X54843Y654954D01*
X52946Y653057D01*
X51604Y650733D01*
X50910Y648142D01*
Y645458D01*
X51604Y642867D01*
X52946Y640543D01*
X54843Y638646D01*
X57167Y637304D01*
X59759Y636610D01*
X62442D01*
X65033Y637304D01*
X67357Y638646D01*
X69254Y640543D01*
X70596Y642867D01*
X71290Y645458D01*
Y648142D01*
X70596Y650733D01*
X69254Y653057D01*
X67357Y654954D01*
X65033Y656296D01*
X62442Y656990D01*
D02*
G37*
G36*
X37042D02*
X34358D01*
X31767Y656296D01*
X29443Y654954D01*
X27546Y653057D01*
X26204Y650733D01*
X25510Y648142D01*
Y645458D01*
X26204Y642867D01*
X27546Y640543D01*
X29443Y638646D01*
X31767Y637304D01*
X34358Y636610D01*
X37042D01*
X39633Y637304D01*
X41957Y638646D01*
X43854Y640543D01*
X45196Y642867D01*
X45890Y645458D01*
Y648142D01*
X45196Y650733D01*
X43854Y653057D01*
X41957Y654954D01*
X39633Y656296D01*
X37042Y656990D01*
D02*
G37*
G36*
X904270Y646290D02*
X888000D01*
Y634520D01*
X904270D01*
Y646290D01*
D02*
G37*
G36*
X885460D02*
X869190D01*
Y634520D01*
X885460D01*
Y646290D01*
D02*
G37*
G36*
X904270Y631980D02*
X888000D01*
Y620210D01*
X904270D01*
Y631980D01*
D02*
G37*
G36*
X885460D02*
X869190D01*
Y620210D01*
X885460D01*
Y631980D01*
D02*
G37*
G36*
X113242Y631590D02*
X110559D01*
X107967Y630896D01*
X105643Y629554D01*
X103746Y627657D01*
X102404Y625333D01*
X101710Y622742D01*
Y620058D01*
X102404Y617467D01*
X103746Y615143D01*
X105643Y613246D01*
X107967Y611904D01*
X110559Y611210D01*
X113242D01*
X115833Y611904D01*
X118157Y613246D01*
X120054Y615143D01*
X121396Y617467D01*
X122090Y620058D01*
Y622742D01*
X121396Y625333D01*
X120054Y627657D01*
X118157Y629554D01*
X115833Y630896D01*
X113242Y631590D01*
D02*
G37*
G36*
X87842D02*
X85159D01*
X82567Y630896D01*
X80243Y629554D01*
X78346Y627657D01*
X77004Y625333D01*
X76310Y622742D01*
Y620058D01*
X77004Y617467D01*
X78346Y615143D01*
X80243Y613246D01*
X82567Y611904D01*
X85159Y611210D01*
X87842D01*
X90433Y611904D01*
X92757Y613246D01*
X94654Y615143D01*
X95996Y617467D01*
X96690Y620058D01*
Y622742D01*
X95996Y625333D01*
X94654Y627657D01*
X92757Y629554D01*
X90433Y630896D01*
X87842Y631590D01*
D02*
G37*
G36*
X62442D02*
X59759D01*
X57167Y630896D01*
X54843Y629554D01*
X52946Y627657D01*
X51604Y625333D01*
X50910Y622742D01*
Y620058D01*
X51604Y617467D01*
X52946Y615143D01*
X54843Y613246D01*
X57167Y611904D01*
X59759Y611210D01*
X62442D01*
X65033Y611904D01*
X67357Y613246D01*
X69254Y615143D01*
X70596Y617467D01*
X71290Y620058D01*
Y622742D01*
X70596Y625333D01*
X69254Y627657D01*
X67357Y629554D01*
X65033Y630896D01*
X62442Y631590D01*
D02*
G37*
G36*
X37042D02*
X34358D01*
X31767Y630896D01*
X29443Y629554D01*
X27546Y627657D01*
X26204Y625333D01*
X25510Y622742D01*
Y620058D01*
X26204Y617467D01*
X27546Y615143D01*
X29443Y613246D01*
X31767Y611904D01*
X34358Y611210D01*
X37042D01*
X39633Y611904D01*
X41957Y613246D01*
X43854Y615143D01*
X45196Y617467D01*
X45890Y620058D01*
Y622742D01*
X45196Y625333D01*
X43854Y627657D01*
X41957Y629554D01*
X39633Y630896D01*
X37042Y631590D01*
D02*
G37*
G36*
X113242Y606190D02*
X110559D01*
X107967Y605496D01*
X105643Y604154D01*
X103746Y602257D01*
X102404Y599933D01*
X101710Y597342D01*
Y594658D01*
X102404Y592067D01*
X103746Y589743D01*
X105643Y587846D01*
X107967Y586504D01*
X110559Y585810D01*
X113242D01*
X115833Y586504D01*
X118157Y587846D01*
X120054Y589743D01*
X121396Y592067D01*
X122090Y594658D01*
Y597342D01*
X121396Y599933D01*
X120054Y602257D01*
X118157Y604154D01*
X115833Y605496D01*
X113242Y606190D01*
D02*
G37*
G36*
X87842D02*
X85159D01*
X82567Y605496D01*
X80243Y604154D01*
X78346Y602257D01*
X77004Y599933D01*
X76310Y597342D01*
Y594658D01*
X77004Y592067D01*
X78346Y589743D01*
X80243Y587846D01*
X82567Y586504D01*
X85159Y585810D01*
X87842D01*
X90433Y586504D01*
X92757Y587846D01*
X94654Y589743D01*
X95996Y592067D01*
X96690Y594658D01*
Y597342D01*
X95996Y599933D01*
X94654Y602257D01*
X92757Y604154D01*
X90433Y605496D01*
X87842Y606190D01*
D02*
G37*
G36*
X62442D02*
X59759D01*
X57167Y605496D01*
X54843Y604154D01*
X52946Y602257D01*
X51604Y599933D01*
X50910Y597342D01*
Y594658D01*
X51604Y592067D01*
X52946Y589743D01*
X54843Y587846D01*
X57167Y586504D01*
X59759Y585810D01*
X62442D01*
X65033Y586504D01*
X67357Y587846D01*
X69254Y589743D01*
X70596Y592067D01*
X71290Y594658D01*
Y597342D01*
X70596Y599933D01*
X69254Y602257D01*
X67357Y604154D01*
X65033Y605496D01*
X62442Y606190D01*
D02*
G37*
G36*
X37042D02*
X34358D01*
X31767Y605496D01*
X29443Y604154D01*
X27546Y602257D01*
X26204Y599933D01*
X25510Y597342D01*
Y594658D01*
X26204Y592067D01*
X27546Y589743D01*
X29443Y587846D01*
X31767Y586504D01*
X34358Y585810D01*
X37042D01*
X39633Y586504D01*
X41957Y587846D01*
X43854Y589743D01*
X45196Y592067D01*
X45890Y594658D01*
Y597342D01*
X45196Y599933D01*
X43854Y602257D01*
X41957Y604154D01*
X39633Y605496D01*
X37042Y606190D01*
D02*
G37*
G36*
X113242Y580790D02*
X110559D01*
X107967Y580096D01*
X105643Y578754D01*
X103746Y576857D01*
X102404Y574533D01*
X101710Y571942D01*
Y569258D01*
X102404Y566667D01*
X103746Y564343D01*
X105643Y562446D01*
X107967Y561104D01*
X110559Y560410D01*
X113242D01*
X115833Y561104D01*
X118157Y562446D01*
X120054Y564343D01*
X121396Y566667D01*
X122090Y569258D01*
Y571942D01*
X121396Y574533D01*
X120054Y576857D01*
X118157Y578754D01*
X115833Y580096D01*
X113242Y580790D01*
D02*
G37*
G36*
X87842D02*
X85159D01*
X82567Y580096D01*
X80243Y578754D01*
X78346Y576857D01*
X77004Y574533D01*
X76310Y571942D01*
Y569258D01*
X77004Y566667D01*
X78346Y564343D01*
X80243Y562446D01*
X82567Y561104D01*
X85159Y560410D01*
X87842D01*
X90433Y561104D01*
X92757Y562446D01*
X94654Y564343D01*
X95996Y566667D01*
X96690Y569258D01*
Y571942D01*
X95996Y574533D01*
X94654Y576857D01*
X92757Y578754D01*
X90433Y580096D01*
X87842Y580790D01*
D02*
G37*
G36*
X62442D02*
X59759D01*
X57167Y580096D01*
X54843Y578754D01*
X52946Y576857D01*
X51604Y574533D01*
X50910Y571942D01*
Y569258D01*
X51604Y566667D01*
X52946Y564343D01*
X54843Y562446D01*
X57167Y561104D01*
X59759Y560410D01*
X62442D01*
X65033Y561104D01*
X67357Y562446D01*
X69254Y564343D01*
X70596Y566667D01*
X71290Y569258D01*
Y571942D01*
X70596Y574533D01*
X69254Y576857D01*
X67357Y578754D01*
X65033Y580096D01*
X62442Y580790D01*
D02*
G37*
G36*
X37042D02*
X34358D01*
X31767Y580096D01*
X29443Y578754D01*
X27546Y576857D01*
X26204Y574533D01*
X25510Y571942D01*
Y569258D01*
X26204Y566667D01*
X27546Y564343D01*
X29443Y562446D01*
X31767Y561104D01*
X34358Y560410D01*
X37042D01*
X39633Y561104D01*
X41957Y562446D01*
X43854Y564343D01*
X45196Y566667D01*
X45890Y569258D01*
Y571942D01*
X45196Y574533D01*
X43854Y576857D01*
X41957Y578754D01*
X39633Y580096D01*
X37042Y580790D01*
D02*
G37*
G36*
X904235Y568540D02*
X887965D01*
Y556770D01*
X904235D01*
Y568540D01*
D02*
G37*
G36*
X885425D02*
X869155D01*
Y556770D01*
X885425D01*
Y568540D01*
D02*
G37*
G36*
X904235Y554230D02*
X887965D01*
Y542460D01*
X904235D01*
Y554230D01*
D02*
G37*
G36*
X885425D02*
X869155D01*
Y542460D01*
X885425D01*
Y554230D01*
D02*
G37*
G36*
X113242Y555390D02*
X110559D01*
X107967Y554696D01*
X105643Y553354D01*
X103746Y551457D01*
X102404Y549133D01*
X101710Y546542D01*
Y543858D01*
X102404Y541267D01*
X103746Y538943D01*
X105643Y537046D01*
X107967Y535704D01*
X110559Y535010D01*
X113242D01*
X115833Y535704D01*
X118157Y537046D01*
X120054Y538943D01*
X121396Y541267D01*
X122090Y543858D01*
Y546542D01*
X121396Y549133D01*
X120054Y551457D01*
X118157Y553354D01*
X115833Y554696D01*
X113242Y555390D01*
D02*
G37*
G36*
X87842D02*
X85159D01*
X82567Y554696D01*
X80243Y553354D01*
X78346Y551457D01*
X77004Y549133D01*
X76310Y546542D01*
Y543858D01*
X77004Y541267D01*
X78346Y538943D01*
X80243Y537046D01*
X82567Y535704D01*
X85159Y535010D01*
X87842D01*
X90433Y535704D01*
X92757Y537046D01*
X94654Y538943D01*
X95996Y541267D01*
X96690Y543858D01*
Y546542D01*
X95996Y549133D01*
X94654Y551457D01*
X92757Y553354D01*
X90433Y554696D01*
X87842Y555390D01*
D02*
G37*
G36*
X62442D02*
X59759D01*
X57167Y554696D01*
X54843Y553354D01*
X52946Y551457D01*
X51604Y549133D01*
X50910Y546542D01*
Y543858D01*
X51604Y541267D01*
X52946Y538943D01*
X54843Y537046D01*
X57167Y535704D01*
X59759Y535010D01*
X62442D01*
X65033Y535704D01*
X67357Y537046D01*
X69254Y538943D01*
X70596Y541267D01*
X71290Y543858D01*
Y546542D01*
X70596Y549133D01*
X69254Y551457D01*
X67357Y553354D01*
X65033Y554696D01*
X62442Y555390D01*
D02*
G37*
G36*
X37042D02*
X34358D01*
X31767Y554696D01*
X29443Y553354D01*
X27546Y551457D01*
X26204Y549133D01*
X25510Y546542D01*
Y543858D01*
X26204Y541267D01*
X27546Y538943D01*
X29443Y537046D01*
X31767Y535704D01*
X34358Y535010D01*
X37042D01*
X39633Y535704D01*
X41957Y537046D01*
X43854Y538943D01*
X45196Y541267D01*
X45890Y543858D01*
Y546542D01*
X45196Y549133D01*
X43854Y551457D01*
X41957Y553354D01*
X39633Y554696D01*
X37042Y555390D01*
D02*
G37*
G36*
X835360Y540860D02*
X833355D01*
X831502Y540092D01*
X830084Y538675D01*
X829317Y536822D01*
Y534817D01*
X830084Y532965D01*
X831502Y531547D01*
X832728Y531039D01*
X836972Y526795D01*
X836972Y526795D01*
X838442Y525813D01*
X840177Y525468D01*
X840177Y525468D01*
X847155D01*
Y522032D01*
X839624D01*
X838478Y523178D01*
X838198Y523855D01*
X836780Y525273D01*
X834928Y526040D01*
X832923D01*
X831070Y525273D01*
X829652Y523855D01*
X828885Y522002D01*
Y519997D01*
X829652Y518145D01*
X831070Y516727D01*
X832846Y515992D01*
X834542Y514295D01*
X834542Y514295D01*
X836013Y513313D01*
X837747Y512968D01*
X837747Y512968D01*
X847155D01*
Y509617D01*
X838432D01*
X838198Y510183D01*
X836780Y511601D01*
X834928Y512368D01*
X832923D01*
X831070Y511601D01*
X829652Y510183D01*
X828885Y508331D01*
Y506326D01*
X829652Y504473D01*
X831070Y503055D01*
X832846Y502320D01*
X833285Y501880D01*
X834756Y500898D01*
X836490Y500553D01*
X847155D01*
Y497032D01*
X843990D01*
X843990Y497032D01*
X842256Y496687D01*
X840785Y495705D01*
X840785Y495705D01*
X838557Y493476D01*
X819050D01*
X817823Y493984D01*
X815818D01*
X813966Y493216D01*
X812548Y491799D01*
X811781Y489946D01*
Y487941D01*
X812548Y486089D01*
X813966Y484671D01*
X815818Y483904D01*
X817823D01*
X819050Y484412D01*
X840434D01*
X842168Y484757D01*
X843638Y485739D01*
X845867Y487968D01*
X847155D01*
Y473460D01*
Y459532D01*
X835877D01*
X827738Y467671D01*
X826268Y468653D01*
X824534Y468998D01*
X822329D01*
X821103Y469506D01*
X819098D01*
X817245Y468739D01*
X815828Y467321D01*
X815060Y465469D01*
Y463464D01*
X815828Y461612D01*
X817245Y460194D01*
X819098Y459426D01*
X821103D01*
X822329Y459934D01*
X822656D01*
X830795Y451795D01*
X832266Y450813D01*
X834000Y450468D01*
X834000Y450468D01*
X847155D01*
Y443770D01*
X857695D01*
X868235D01*
Y448460D01*
Y460960D01*
Y473460D01*
Y485960D01*
Y498460D01*
Y510960D01*
Y523460D01*
Y536540D01*
X847155D01*
Y534532D01*
X842054D01*
X839138Y537448D01*
X838630Y538675D01*
X837212Y540092D01*
X835360Y540860D01*
D02*
G37*
G36*
X62442Y529990D02*
X62370D01*
Y521070D01*
X71290D01*
Y521142D01*
X70596Y523733D01*
X69254Y526057D01*
X67357Y527954D01*
X65033Y529296D01*
X62442Y529990D01*
D02*
G37*
G36*
X37042D02*
X36970D01*
Y521070D01*
X45890D01*
Y521142D01*
X45196Y523733D01*
X43854Y526057D01*
X41957Y527954D01*
X39633Y529296D01*
X37042Y529990D01*
D02*
G37*
G36*
X59830D02*
X59759D01*
X57167Y529296D01*
X54843Y527954D01*
X52946Y526057D01*
X51604Y523733D01*
X50910Y521142D01*
Y521070D01*
X59830D01*
Y529990D01*
D02*
G37*
G36*
X34430D02*
X34358D01*
X31767Y529296D01*
X29443Y527954D01*
X27546Y526057D01*
X26204Y523733D01*
X25510Y521142D01*
Y521070D01*
X34430D01*
Y529990D01*
D02*
G37*
G36*
X113242D02*
X110559D01*
X107967Y529296D01*
X105643Y527954D01*
X103746Y526057D01*
X102404Y523733D01*
X101710Y521142D01*
Y518458D01*
X102404Y515867D01*
X103746Y513543D01*
X105643Y511646D01*
X107967Y510304D01*
X110559Y509610D01*
X113242D01*
X115833Y510304D01*
X118157Y511646D01*
X120054Y513543D01*
X121396Y515867D01*
X122090Y518458D01*
Y521142D01*
X121396Y523733D01*
X120054Y526057D01*
X118157Y527954D01*
X115833Y529296D01*
X113242Y529990D01*
D02*
G37*
G36*
X87842D02*
X85159D01*
X82567Y529296D01*
X80243Y527954D01*
X78346Y526057D01*
X77004Y523733D01*
X76310Y521142D01*
Y518458D01*
X77004Y515867D01*
X78346Y513543D01*
X80243Y511646D01*
X82567Y510304D01*
X85159Y509610D01*
X87842D01*
X90433Y510304D01*
X92757Y511646D01*
X94654Y513543D01*
X95996Y515867D01*
X96690Y518458D01*
Y521142D01*
X95996Y523733D01*
X94654Y526057D01*
X92757Y527954D01*
X90433Y529296D01*
X87842Y529990D01*
D02*
G37*
G36*
X71290Y518530D02*
X62370D01*
Y509610D01*
X62442D01*
X65033Y510304D01*
X67357Y511646D01*
X69254Y513543D01*
X70596Y515867D01*
X71290Y518458D01*
Y518530D01*
D02*
G37*
G36*
X59830D02*
X50910D01*
Y518458D01*
X51604Y515867D01*
X52946Y513543D01*
X54843Y511646D01*
X57167Y510304D01*
X59759Y509610D01*
X59830D01*
Y518530D01*
D02*
G37*
G36*
X45890D02*
X36970D01*
Y509610D01*
X37042D01*
X39633Y510304D01*
X41957Y511646D01*
X43854Y513543D01*
X45196Y515867D01*
X45890Y518458D01*
Y518530D01*
D02*
G37*
G36*
X34430D02*
X25510D01*
Y518458D01*
X26204Y515867D01*
X27546Y513543D01*
X29443Y511646D01*
X31767Y510304D01*
X34358Y509610D01*
X34430D01*
Y518530D01*
D02*
G37*
G36*
X62442Y504590D02*
X62370D01*
Y495670D01*
X71290D01*
Y495742D01*
X70596Y498333D01*
X69254Y500657D01*
X67357Y502554D01*
X65033Y503896D01*
X62442Y504590D01*
D02*
G37*
G36*
X37042D02*
X36970D01*
Y495670D01*
X45890D01*
Y495742D01*
X45196Y498333D01*
X43854Y500657D01*
X41957Y502554D01*
X39633Y503896D01*
X37042Y504590D01*
D02*
G37*
G36*
X59830D02*
X59759D01*
X57167Y503896D01*
X54843Y502554D01*
X52946Y500657D01*
X51604Y498333D01*
X50910Y495742D01*
Y495670D01*
X59830D01*
Y504590D01*
D02*
G37*
G36*
X34430D02*
X34358D01*
X31767Y503896D01*
X29443Y502554D01*
X27546Y500657D01*
X26204Y498333D01*
X25510Y495742D01*
Y495670D01*
X34430D01*
Y504590D01*
D02*
G37*
G36*
X113242D02*
X110559D01*
X107967Y503896D01*
X105643Y502554D01*
X103746Y500657D01*
X102404Y498333D01*
X101710Y495742D01*
Y493058D01*
X102404Y490467D01*
X103746Y488143D01*
X105643Y486246D01*
X107967Y484904D01*
X110559Y484210D01*
X113242D01*
X115833Y484904D01*
X118157Y486246D01*
X120054Y488143D01*
X121396Y490467D01*
X122090Y493058D01*
Y495742D01*
X121396Y498333D01*
X120054Y500657D01*
X118157Y502554D01*
X115833Y503896D01*
X113242Y504590D01*
D02*
G37*
G36*
X87842D02*
X85159D01*
X82567Y503896D01*
X80243Y502554D01*
X78346Y500657D01*
X77004Y498333D01*
X76310Y495742D01*
Y493058D01*
X77004Y490467D01*
X78346Y488143D01*
X80243Y486246D01*
X82567Y484904D01*
X85159Y484210D01*
X87842D01*
X90433Y484904D01*
X92757Y486246D01*
X94654Y488143D01*
X95996Y490467D01*
X96690Y493058D01*
Y495742D01*
X95996Y498333D01*
X94654Y500657D01*
X92757Y502554D01*
X90433Y503896D01*
X87842Y504590D01*
D02*
G37*
G36*
X71290Y493130D02*
X62370D01*
Y484210D01*
X62442D01*
X65033Y484904D01*
X67357Y486246D01*
X69254Y488143D01*
X70596Y490467D01*
X71290Y493058D01*
Y493130D01*
D02*
G37*
G36*
X59830D02*
X50910D01*
Y493058D01*
X51604Y490467D01*
X52946Y488143D01*
X54843Y486246D01*
X57167Y484904D01*
X59759Y484210D01*
X59830D01*
Y493130D01*
D02*
G37*
G36*
X45890D02*
X36970D01*
Y484210D01*
X37042D01*
X39633Y484904D01*
X41957Y486246D01*
X43854Y488143D01*
X45196Y490467D01*
X45890Y493058D01*
Y493130D01*
D02*
G37*
G36*
X34430D02*
X25510D01*
Y493058D01*
X26204Y490467D01*
X27546Y488143D01*
X29443Y486246D01*
X31767Y484904D01*
X34358Y484210D01*
X34430D01*
Y493130D01*
D02*
G37*
G36*
X113242Y479190D02*
X110559D01*
X107967Y478496D01*
X105643Y477154D01*
X103746Y475257D01*
X102404Y472933D01*
X101710Y470342D01*
Y467658D01*
X102404Y465067D01*
X103746Y462743D01*
X105643Y460846D01*
X107967Y459504D01*
X110559Y458810D01*
X113242D01*
X115833Y459504D01*
X118157Y460846D01*
X120054Y462743D01*
X121396Y465067D01*
X122090Y467658D01*
Y470342D01*
X121396Y472933D01*
X120054Y475257D01*
X118157Y477154D01*
X115833Y478496D01*
X113242Y479190D01*
D02*
G37*
G36*
X87842D02*
X85159D01*
X82567Y478496D01*
X80243Y477154D01*
X78346Y475257D01*
X77004Y472933D01*
X76310Y470342D01*
Y467658D01*
X77004Y465067D01*
X78346Y462743D01*
X80243Y460846D01*
X82567Y459504D01*
X85159Y458810D01*
X87842D01*
X90433Y459504D01*
X92757Y460846D01*
X94654Y462743D01*
X95996Y465067D01*
X96690Y467658D01*
Y470342D01*
X95996Y472933D01*
X94654Y475257D01*
X92757Y477154D01*
X90433Y478496D01*
X87842Y479190D01*
D02*
G37*
G36*
X62442D02*
X59759D01*
X57167Y478496D01*
X54843Y477154D01*
X52946Y475257D01*
X51604Y472933D01*
X50910Y470342D01*
Y467658D01*
X51604Y465067D01*
X52946Y462743D01*
X54843Y460846D01*
X57167Y459504D01*
X59759Y458810D01*
X62442D01*
X65033Y459504D01*
X67357Y460846D01*
X69254Y462743D01*
X70596Y465067D01*
X71290Y467658D01*
Y470342D01*
X70596Y472933D01*
X69254Y475257D01*
X67357Y477154D01*
X65033Y478496D01*
X62442Y479190D01*
D02*
G37*
G36*
X37042D02*
X34358D01*
X31767Y478496D01*
X29443Y477154D01*
X27546Y475257D01*
X26204Y472933D01*
X25510Y470342D01*
Y467658D01*
X26204Y465067D01*
X27546Y462743D01*
X29443Y460846D01*
X31767Y459504D01*
X34358Y458810D01*
X37042D01*
X39633Y459504D01*
X41957Y460846D01*
X43854Y462743D01*
X45196Y465067D01*
X45890Y467658D01*
Y470342D01*
X45196Y472933D01*
X43854Y475257D01*
X41957Y477154D01*
X39633Y478496D01*
X37042Y479190D01*
D02*
G37*
G36*
X113242Y453790D02*
X110559D01*
X107967Y453096D01*
X105643Y451754D01*
X103746Y449857D01*
X102404Y447533D01*
X101710Y444942D01*
Y442258D01*
X102404Y439667D01*
X103746Y437343D01*
X105643Y435446D01*
X107967Y434104D01*
X110559Y433410D01*
X113242D01*
X115833Y434104D01*
X118157Y435446D01*
X120054Y437343D01*
X121396Y439667D01*
X122090Y442258D01*
Y444942D01*
X121396Y447533D01*
X120054Y449857D01*
X118157Y451754D01*
X115833Y453096D01*
X113242Y453790D01*
D02*
G37*
G36*
X87842D02*
X85159D01*
X82567Y453096D01*
X80243Y451754D01*
X78346Y449857D01*
X77004Y447533D01*
X76310Y444942D01*
Y442258D01*
X77004Y439667D01*
X78346Y437343D01*
X80243Y435446D01*
X82567Y434104D01*
X85159Y433410D01*
X87842D01*
X90433Y434104D01*
X92757Y435446D01*
X94654Y437343D01*
X95996Y439667D01*
X96690Y442258D01*
Y444942D01*
X95996Y447533D01*
X94654Y449857D01*
X92757Y451754D01*
X90433Y453096D01*
X87842Y453790D01*
D02*
G37*
G36*
X62442D02*
X59759D01*
X57167Y453096D01*
X54843Y451754D01*
X52946Y449857D01*
X51604Y447533D01*
X50910Y444942D01*
Y442258D01*
X51604Y439667D01*
X52946Y437343D01*
X54843Y435446D01*
X57167Y434104D01*
X59759Y433410D01*
X62442D01*
X65033Y434104D01*
X67357Y435446D01*
X69254Y437343D01*
X70596Y439667D01*
X71290Y442258D01*
Y444942D01*
X70596Y447533D01*
X69254Y449857D01*
X67357Y451754D01*
X65033Y453096D01*
X62442Y453790D01*
D02*
G37*
G36*
X37042D02*
X34358D01*
X31767Y453096D01*
X29443Y451754D01*
X27546Y449857D01*
X26204Y447533D01*
X25510Y444942D01*
Y442258D01*
X26204Y439667D01*
X27546Y437343D01*
X29443Y435446D01*
X31767Y434104D01*
X34358Y433410D01*
X37042D01*
X39633Y434104D01*
X41957Y435446D01*
X43854Y437343D01*
X45196Y439667D01*
X45890Y442258D01*
Y444942D01*
X45196Y447533D01*
X43854Y449857D01*
X41957Y451754D01*
X39633Y453096D01*
X37042Y453790D01*
D02*
G37*
G36*
X868235Y441230D02*
X857695D01*
X847155D01*
Y434532D01*
X837696D01*
X835962Y434187D01*
X834491Y433205D01*
X834491Y433205D01*
X832103Y430816D01*
X830327Y430081D01*
X828910Y428663D01*
X828142Y426811D01*
Y424806D01*
X828910Y422953D01*
X830327Y421535D01*
X832180Y420768D01*
X834185D01*
X836037Y421535D01*
X837455Y422953D01*
X837735Y423630D01*
X839573Y425468D01*
X847155D01*
Y423460D01*
X868235D01*
Y435960D01*
Y441230D01*
D02*
G37*
G36*
X113242Y428390D02*
X110559D01*
X107967Y427696D01*
X105643Y426354D01*
X103746Y424457D01*
X102404Y422133D01*
X101710Y419542D01*
Y416858D01*
X102404Y414267D01*
X103746Y411943D01*
X105643Y410046D01*
X107967Y408704D01*
X110559Y408010D01*
X113242D01*
X115833Y408704D01*
X118157Y410046D01*
X120054Y411943D01*
X121396Y414267D01*
X122090Y416858D01*
Y419542D01*
X121396Y422133D01*
X120054Y424457D01*
X118157Y426354D01*
X115833Y427696D01*
X113242Y428390D01*
D02*
G37*
G36*
X87842D02*
X85159D01*
X82567Y427696D01*
X80243Y426354D01*
X78346Y424457D01*
X77004Y422133D01*
X76310Y419542D01*
Y416858D01*
X77004Y414267D01*
X78346Y411943D01*
X80243Y410046D01*
X82567Y408704D01*
X85159Y408010D01*
X87842D01*
X90433Y408704D01*
X92757Y410046D01*
X94654Y411943D01*
X95996Y414267D01*
X96690Y416858D01*
Y419542D01*
X95996Y422133D01*
X94654Y424457D01*
X92757Y426354D01*
X90433Y427696D01*
X87842Y428390D01*
D02*
G37*
G36*
X62442D02*
X59759D01*
X57167Y427696D01*
X54843Y426354D01*
X52946Y424457D01*
X51604Y422133D01*
X50910Y419542D01*
Y416858D01*
X51604Y414267D01*
X52946Y411943D01*
X54843Y410046D01*
X57167Y408704D01*
X59759Y408010D01*
X62442D01*
X65033Y408704D01*
X67357Y410046D01*
X69254Y411943D01*
X70596Y414267D01*
X71290Y416858D01*
Y419542D01*
X70596Y422133D01*
X69254Y424457D01*
X67357Y426354D01*
X65033Y427696D01*
X62442Y428390D01*
D02*
G37*
G36*
X37042D02*
X34358D01*
X31767Y427696D01*
X29443Y426354D01*
X27546Y424457D01*
X26204Y422133D01*
X25510Y419542D01*
Y416858D01*
X26204Y414267D01*
X27546Y411943D01*
X29443Y410046D01*
X31767Y408704D01*
X34358Y408010D01*
X37042D01*
X39633Y408704D01*
X41957Y410046D01*
X43854Y411943D01*
X45196Y414267D01*
X45890Y416858D01*
Y419542D01*
X45196Y422133D01*
X43854Y424457D01*
X41957Y426354D01*
X39633Y427696D01*
X37042Y428390D01*
D02*
G37*
G36*
X904235Y417540D02*
X887965D01*
Y405770D01*
X904235D01*
Y417540D01*
D02*
G37*
G36*
X885425D02*
X869155D01*
Y405770D01*
X885425D01*
Y417540D01*
D02*
G37*
G36*
X904235Y403230D02*
X887965D01*
Y391460D01*
X904235D01*
Y403230D01*
D02*
G37*
G36*
X885425D02*
X869155D01*
Y391460D01*
X885425D01*
Y403230D01*
D02*
G37*
G36*
X113242Y402990D02*
X110559D01*
X107967Y402296D01*
X105643Y400954D01*
X103746Y399057D01*
X102404Y396733D01*
X101710Y394142D01*
Y391459D01*
X102404Y388867D01*
X103746Y386543D01*
X105643Y384646D01*
X107967Y383304D01*
X110559Y382610D01*
X113242D01*
X115833Y383304D01*
X118157Y384646D01*
X120054Y386543D01*
X121396Y388867D01*
X122090Y391459D01*
Y394142D01*
X121396Y396733D01*
X120054Y399057D01*
X118157Y400954D01*
X115833Y402296D01*
X113242Y402990D01*
D02*
G37*
G36*
X87842D02*
X85159D01*
X82567Y402296D01*
X80243Y400954D01*
X78346Y399057D01*
X77004Y396733D01*
X76310Y394142D01*
Y391459D01*
X77004Y388867D01*
X78346Y386543D01*
X80243Y384646D01*
X82567Y383304D01*
X85159Y382610D01*
X87842D01*
X90433Y383304D01*
X92757Y384646D01*
X94654Y386543D01*
X95996Y388867D01*
X96690Y391459D01*
Y394142D01*
X95996Y396733D01*
X94654Y399057D01*
X92757Y400954D01*
X90433Y402296D01*
X87842Y402990D01*
D02*
G37*
G36*
X62442D02*
X59759D01*
X57167Y402296D01*
X54843Y400954D01*
X52946Y399057D01*
X51604Y396733D01*
X50910Y394142D01*
Y391459D01*
X51604Y388867D01*
X52946Y386543D01*
X54843Y384646D01*
X57167Y383304D01*
X59759Y382610D01*
X62442D01*
X65033Y383304D01*
X67357Y384646D01*
X69254Y386543D01*
X70596Y388867D01*
X71290Y391459D01*
Y394142D01*
X70596Y396733D01*
X69254Y399057D01*
X67357Y400954D01*
X65033Y402296D01*
X62442Y402990D01*
D02*
G37*
G36*
X37042D02*
X34358D01*
X31767Y402296D01*
X29443Y400954D01*
X27546Y399057D01*
X26204Y396733D01*
X25510Y394142D01*
Y391459D01*
X26204Y388867D01*
X27546Y386543D01*
X29443Y384646D01*
X31767Y383304D01*
X34358Y382610D01*
X37042D01*
X39633Y383304D01*
X41957Y384646D01*
X43854Y386543D01*
X45196Y388867D01*
X45890Y391459D01*
Y394142D01*
X45196Y396733D01*
X43854Y399057D01*
X41957Y400954D01*
X39633Y402296D01*
X37042Y402990D01*
D02*
G37*
G36*
X113242Y377590D02*
X110559D01*
X107967Y376896D01*
X105643Y375554D01*
X103746Y373657D01*
X102404Y371333D01*
X101710Y368742D01*
Y366059D01*
X102404Y363467D01*
X103746Y361143D01*
X105643Y359246D01*
X107967Y357904D01*
X110559Y357210D01*
X113242D01*
X115833Y357904D01*
X118157Y359246D01*
X120054Y361143D01*
X121396Y363467D01*
X122090Y366059D01*
Y368742D01*
X121396Y371333D01*
X120054Y373657D01*
X118157Y375554D01*
X115833Y376896D01*
X113242Y377590D01*
D02*
G37*
G36*
X87842D02*
X85159D01*
X82567Y376896D01*
X80243Y375554D01*
X78346Y373657D01*
X77004Y371333D01*
X76310Y368742D01*
Y366059D01*
X77004Y363467D01*
X78346Y361143D01*
X80243Y359246D01*
X82567Y357904D01*
X85159Y357210D01*
X87842D01*
X90433Y357904D01*
X92757Y359246D01*
X94654Y361143D01*
X95996Y363467D01*
X96690Y366059D01*
Y368742D01*
X95996Y371333D01*
X94654Y373657D01*
X92757Y375554D01*
X90433Y376896D01*
X87842Y377590D01*
D02*
G37*
G36*
X62442D02*
X59759D01*
X57167Y376896D01*
X54843Y375554D01*
X52946Y373657D01*
X51604Y371333D01*
X50910Y368742D01*
Y366059D01*
X51604Y363467D01*
X52946Y361143D01*
X54843Y359246D01*
X57167Y357904D01*
X59759Y357210D01*
X62442D01*
X65033Y357904D01*
X67357Y359246D01*
X69254Y361143D01*
X70596Y363467D01*
X71290Y366059D01*
Y368742D01*
X70596Y371333D01*
X69254Y373657D01*
X67357Y375554D01*
X65033Y376896D01*
X62442Y377590D01*
D02*
G37*
G36*
X37042D02*
X34358D01*
X31767Y376896D01*
X29443Y375554D01*
X27546Y373657D01*
X26204Y371333D01*
X25510Y368742D01*
Y366059D01*
X26204Y363467D01*
X27546Y361143D01*
X29443Y359246D01*
X31767Y357904D01*
X34358Y357210D01*
X37042D01*
X39633Y357904D01*
X41957Y359246D01*
X43854Y361143D01*
X45196Y363467D01*
X45890Y366059D01*
Y368742D01*
X45196Y371333D01*
X43854Y373657D01*
X41957Y375554D01*
X39633Y376896D01*
X37042Y377590D01*
D02*
G37*
G36*
X113242Y352190D02*
X110559D01*
X107967Y351496D01*
X105643Y350154D01*
X103746Y348257D01*
X102404Y345933D01*
X101710Y343342D01*
Y340658D01*
X102404Y338067D01*
X103746Y335743D01*
X105643Y333846D01*
X107967Y332504D01*
X110559Y331810D01*
X113242D01*
X115833Y332504D01*
X118157Y333846D01*
X120054Y335743D01*
X121396Y338067D01*
X122090Y340658D01*
Y343342D01*
X121396Y345933D01*
X120054Y348257D01*
X118157Y350154D01*
X115833Y351496D01*
X113242Y352190D01*
D02*
G37*
G36*
X87842D02*
X85159D01*
X82567Y351496D01*
X80243Y350154D01*
X78346Y348257D01*
X77004Y345933D01*
X76310Y343342D01*
Y340658D01*
X77004Y338067D01*
X78346Y335743D01*
X80243Y333846D01*
X82567Y332504D01*
X85159Y331810D01*
X87842D01*
X90433Y332504D01*
X92757Y333846D01*
X94654Y335743D01*
X95996Y338067D01*
X96690Y340658D01*
Y343342D01*
X95996Y345933D01*
X94654Y348257D01*
X92757Y350154D01*
X90433Y351496D01*
X87842Y352190D01*
D02*
G37*
G36*
X62442D02*
X59759D01*
X57167Y351496D01*
X54843Y350154D01*
X52946Y348257D01*
X51604Y345933D01*
X50910Y343342D01*
Y340658D01*
X51604Y338067D01*
X52946Y335743D01*
X54843Y333846D01*
X57167Y332504D01*
X59759Y331810D01*
X62442D01*
X65033Y332504D01*
X67357Y333846D01*
X69254Y335743D01*
X70596Y338067D01*
X71290Y340658D01*
Y343342D01*
X70596Y345933D01*
X69254Y348257D01*
X67357Y350154D01*
X65033Y351496D01*
X62442Y352190D01*
D02*
G37*
G36*
X37042D02*
X34358D01*
X31767Y351496D01*
X29443Y350154D01*
X27546Y348257D01*
X26204Y345933D01*
X25510Y343342D01*
Y340658D01*
X26204Y338067D01*
X27546Y335743D01*
X29443Y333846D01*
X31767Y332504D01*
X34358Y331810D01*
X37042D01*
X39633Y332504D01*
X41957Y333846D01*
X43854Y335743D01*
X45196Y338067D01*
X45890Y340658D01*
Y343342D01*
X45196Y345933D01*
X43854Y348257D01*
X41957Y350154D01*
X39633Y351496D01*
X37042Y352190D01*
D02*
G37*
G36*
X904235Y328540D02*
X887965D01*
Y316770D01*
X904235D01*
Y328540D01*
D02*
G37*
G36*
X885425D02*
X869155D01*
Y316770D01*
X885425D01*
Y328540D01*
D02*
G37*
G36*
X113242Y326790D02*
X110559D01*
X107967Y326096D01*
X105643Y324754D01*
X103746Y322857D01*
X102404Y320533D01*
X101710Y317942D01*
Y315259D01*
X102404Y312667D01*
X103746Y310343D01*
X105643Y308446D01*
X107967Y307104D01*
X110559Y306410D01*
X113242D01*
X115833Y307104D01*
X118157Y308446D01*
X120054Y310343D01*
X121396Y312667D01*
X122090Y315259D01*
Y317942D01*
X121396Y320533D01*
X120054Y322857D01*
X118157Y324754D01*
X115833Y326096D01*
X113242Y326790D01*
D02*
G37*
G36*
X87842D02*
X85159D01*
X82567Y326096D01*
X80243Y324754D01*
X78346Y322857D01*
X77004Y320533D01*
X76310Y317942D01*
Y315259D01*
X77004Y312667D01*
X78346Y310343D01*
X80243Y308446D01*
X82567Y307104D01*
X85159Y306410D01*
X87842D01*
X90433Y307104D01*
X92757Y308446D01*
X94654Y310343D01*
X95996Y312667D01*
X96690Y315259D01*
Y317942D01*
X95996Y320533D01*
X94654Y322857D01*
X92757Y324754D01*
X90433Y326096D01*
X87842Y326790D01*
D02*
G37*
G36*
X62442D02*
X59759D01*
X57167Y326096D01*
X54843Y324754D01*
X52946Y322857D01*
X51604Y320533D01*
X50910Y317942D01*
Y315259D01*
X51604Y312667D01*
X52946Y310343D01*
X54843Y308446D01*
X57167Y307104D01*
X59759Y306410D01*
X62442D01*
X65033Y307104D01*
X67357Y308446D01*
X69254Y310343D01*
X70596Y312667D01*
X71290Y315259D01*
Y317942D01*
X70596Y320533D01*
X69254Y322857D01*
X67357Y324754D01*
X65033Y326096D01*
X62442Y326790D01*
D02*
G37*
G36*
X37042D02*
X34358D01*
X31767Y326096D01*
X29443Y324754D01*
X27546Y322857D01*
X26204Y320533D01*
X25510Y317942D01*
Y315259D01*
X26204Y312667D01*
X27546Y310343D01*
X29443Y308446D01*
X31767Y307104D01*
X34358Y306410D01*
X37042D01*
X39633Y307104D01*
X41957Y308446D01*
X43854Y310343D01*
X45196Y312667D01*
X45890Y315259D01*
Y317942D01*
X45196Y320533D01*
X43854Y322857D01*
X41957Y324754D01*
X39633Y326096D01*
X37042Y326790D01*
D02*
G37*
G36*
X904235Y314230D02*
X887965D01*
Y302460D01*
X904235D01*
Y314230D01*
D02*
G37*
G36*
X885425D02*
X869155D01*
Y302460D01*
X885425D01*
Y314230D01*
D02*
G37*
G36*
X834003Y305040D02*
X831998D01*
X830145Y304273D01*
X828727Y302855D01*
X827960Y301003D01*
Y298997D01*
X828727Y297145D01*
X830145Y295727D01*
X831371Y295219D01*
X836006Y290585D01*
X835286Y289508D01*
X834003Y290040D01*
X831998D01*
X830145Y289273D01*
X828727Y287855D01*
X827960Y286003D01*
Y283997D01*
X828727Y282145D01*
X830145Y280727D01*
X831371Y280219D01*
X836006Y275585D01*
X835286Y274508D01*
X834003Y275040D01*
X831998D01*
X830145Y274273D01*
X828727Y272855D01*
X827960Y271003D01*
Y268997D01*
X828727Y267145D01*
X830145Y265727D01*
X831921Y264992D01*
X835117Y261795D01*
X836588Y260813D01*
X838322Y260468D01*
X838322Y260468D01*
X847155D01*
Y257032D01*
X837699D01*
X837553Y257178D01*
X837273Y257855D01*
X835855Y259273D01*
X834003Y260040D01*
X831998D01*
X830145Y259273D01*
X828727Y257855D01*
X827960Y256003D01*
Y253997D01*
X828727Y252145D01*
X830145Y250727D01*
X831921Y249992D01*
X832617Y249295D01*
X834088Y248313D01*
X835822Y247968D01*
X835822Y247968D01*
X847155D01*
Y241270D01*
X857695D01*
X868235D01*
Y245960D01*
Y258460D01*
Y270960D01*
Y283460D01*
Y296540D01*
X847155D01*
Y294532D01*
X844877D01*
X837781Y301629D01*
X837273Y302855D01*
X835855Y304273D01*
X834003Y305040D01*
D02*
G37*
G36*
X113242Y301390D02*
X110559D01*
X107967Y300696D01*
X105643Y299354D01*
X103746Y297457D01*
X102404Y295133D01*
X101710Y292542D01*
Y289858D01*
X102404Y287267D01*
X103746Y284943D01*
X105643Y283046D01*
X107967Y281704D01*
X110559Y281010D01*
X113242D01*
X115833Y281704D01*
X118157Y283046D01*
X120054Y284943D01*
X121396Y287267D01*
X122090Y289858D01*
Y292542D01*
X121396Y295133D01*
X120054Y297457D01*
X118157Y299354D01*
X115833Y300696D01*
X113242Y301390D01*
D02*
G37*
G36*
X87842D02*
X85159D01*
X82567Y300696D01*
X80243Y299354D01*
X78346Y297457D01*
X77004Y295133D01*
X76310Y292542D01*
Y289858D01*
X77004Y287267D01*
X78346Y284943D01*
X80243Y283046D01*
X82567Y281704D01*
X85159Y281010D01*
X87842D01*
X90433Y281704D01*
X92757Y283046D01*
X94654Y284943D01*
X95996Y287267D01*
X96690Y289858D01*
Y292542D01*
X95996Y295133D01*
X94654Y297457D01*
X92757Y299354D01*
X90433Y300696D01*
X87842Y301390D01*
D02*
G37*
G36*
X62442D02*
X59759D01*
X57167Y300696D01*
X54843Y299354D01*
X52946Y297457D01*
X51604Y295133D01*
X50910Y292542D01*
Y289858D01*
X51604Y287267D01*
X52946Y284943D01*
X54843Y283046D01*
X57167Y281704D01*
X59759Y281010D01*
X62442D01*
X65033Y281704D01*
X67357Y283046D01*
X69254Y284943D01*
X70596Y287267D01*
X71290Y289858D01*
Y292542D01*
X70596Y295133D01*
X69254Y297457D01*
X67357Y299354D01*
X65033Y300696D01*
X62442Y301390D01*
D02*
G37*
G36*
X37042D02*
X34358D01*
X31767Y300696D01*
X29443Y299354D01*
X27546Y297457D01*
X26204Y295133D01*
X25510Y292542D01*
Y289858D01*
X26204Y287267D01*
X27546Y284943D01*
X29443Y283046D01*
X31767Y281704D01*
X34358Y281010D01*
X37042D01*
X39633Y281704D01*
X41957Y283046D01*
X43854Y284943D01*
X45196Y287267D01*
X45890Y289858D01*
Y292542D01*
X45196Y295133D01*
X43854Y297457D01*
X41957Y299354D01*
X39633Y300696D01*
X37042Y301390D01*
D02*
G37*
G36*
X113242Y275990D02*
X110559D01*
X107967Y275296D01*
X105643Y273954D01*
X103746Y272057D01*
X102404Y269733D01*
X101710Y267142D01*
Y264459D01*
X102404Y261867D01*
X103746Y259543D01*
X105643Y257646D01*
X107967Y256304D01*
X110559Y255610D01*
X113242D01*
X115833Y256304D01*
X118157Y257646D01*
X120054Y259543D01*
X121396Y261867D01*
X122090Y264459D01*
Y267142D01*
X121396Y269733D01*
X120054Y272057D01*
X118157Y273954D01*
X115833Y275296D01*
X113242Y275990D01*
D02*
G37*
G36*
X87842D02*
X85159D01*
X82567Y275296D01*
X80243Y273954D01*
X78346Y272057D01*
X77004Y269733D01*
X76310Y267142D01*
Y264459D01*
X77004Y261867D01*
X78346Y259543D01*
X80243Y257646D01*
X82567Y256304D01*
X85159Y255610D01*
X87842D01*
X90433Y256304D01*
X92757Y257646D01*
X94654Y259543D01*
X95996Y261867D01*
X96690Y264459D01*
Y267142D01*
X95996Y269733D01*
X94654Y272057D01*
X92757Y273954D01*
X90433Y275296D01*
X87842Y275990D01*
D02*
G37*
G36*
X62442D02*
X59759D01*
X57167Y275296D01*
X54843Y273954D01*
X52946Y272057D01*
X51604Y269733D01*
X50910Y267142D01*
Y264459D01*
X51604Y261867D01*
X52946Y259543D01*
X54843Y257646D01*
X57167Y256304D01*
X59759Y255610D01*
X62442D01*
X65033Y256304D01*
X67357Y257646D01*
X69254Y259543D01*
X70596Y261867D01*
X71290Y264459D01*
Y267142D01*
X70596Y269733D01*
X69254Y272057D01*
X67357Y273954D01*
X65033Y275296D01*
X62442Y275990D01*
D02*
G37*
G36*
X37042D02*
X34358D01*
X31767Y275296D01*
X29443Y273954D01*
X27546Y272057D01*
X26204Y269733D01*
X25510Y267142D01*
Y264459D01*
X26204Y261867D01*
X27546Y259543D01*
X29443Y257646D01*
X31767Y256304D01*
X34358Y255610D01*
X37042D01*
X39633Y256304D01*
X41957Y257646D01*
X43854Y259543D01*
X45196Y261867D01*
X45890Y264459D01*
Y267142D01*
X45196Y269733D01*
X43854Y272057D01*
X41957Y273954D01*
X39633Y275296D01*
X37042Y275990D01*
D02*
G37*
G36*
X868235Y238730D02*
X857695D01*
X847155D01*
Y232032D01*
X835822D01*
X835822Y232032D01*
X834088Y231687D01*
X832617Y230705D01*
X831921Y230008D01*
X830145Y229273D01*
X828727Y227855D01*
X827960Y226003D01*
Y223997D01*
X828727Y222145D01*
X830145Y220727D01*
X831998Y219960D01*
X834003D01*
X835855Y220727D01*
X837273Y222145D01*
X837553Y222822D01*
X837699Y222968D01*
X847155D01*
Y219532D01*
X838322D01*
X838322Y219532D01*
X836588Y219187D01*
X835117Y218205D01*
X831921Y215008D01*
X830145Y214273D01*
X828727Y212855D01*
X827960Y211003D01*
Y208997D01*
X828727Y207145D01*
X830145Y205727D01*
X831998Y204960D01*
X834003D01*
X835286Y205492D01*
X836006Y204415D01*
X831371Y199781D01*
X830145Y199273D01*
X828727Y197855D01*
X827960Y196003D01*
Y193997D01*
X828727Y192145D01*
X830145Y190727D01*
X831998Y189960D01*
X834003D01*
X835286Y190492D01*
X836006Y189415D01*
X831371Y184781D01*
X830145Y184273D01*
X828727Y182855D01*
X827960Y181003D01*
Y178997D01*
X828727Y177145D01*
X830145Y175727D01*
X831998Y174960D01*
X834003D01*
X835855Y175727D01*
X837273Y177145D01*
X837781Y178371D01*
X844877Y185468D01*
X847155D01*
Y183460D01*
X868235D01*
Y195960D01*
Y208460D01*
Y220960D01*
Y233460D01*
Y238730D01*
D02*
G37*
G36*
X113242Y250590D02*
X110559D01*
X107967Y249896D01*
X105643Y248554D01*
X103746Y246657D01*
X102404Y244333D01*
X101710Y241742D01*
Y239058D01*
X102404Y236467D01*
X103746Y234143D01*
X105643Y232246D01*
X107967Y230904D01*
X110559Y230210D01*
X113242D01*
X115833Y230904D01*
X118157Y232246D01*
X120054Y234143D01*
X121396Y236467D01*
X122090Y239058D01*
Y241742D01*
X121396Y244333D01*
X120054Y246657D01*
X118157Y248554D01*
X115833Y249896D01*
X113242Y250590D01*
D02*
G37*
G36*
X87842D02*
X85159D01*
X82567Y249896D01*
X80243Y248554D01*
X78346Y246657D01*
X77004Y244333D01*
X76310Y241742D01*
Y239058D01*
X77004Y236467D01*
X78346Y234143D01*
X80243Y232246D01*
X82567Y230904D01*
X85159Y230210D01*
X87842D01*
X90433Y230904D01*
X92757Y232246D01*
X94654Y234143D01*
X95996Y236467D01*
X96690Y239058D01*
Y241742D01*
X95996Y244333D01*
X94654Y246657D01*
X92757Y248554D01*
X90433Y249896D01*
X87842Y250590D01*
D02*
G37*
G36*
X62442D02*
X59759D01*
X57167Y249896D01*
X54843Y248554D01*
X52946Y246657D01*
X51604Y244333D01*
X50910Y241742D01*
Y239058D01*
X51604Y236467D01*
X52946Y234143D01*
X54843Y232246D01*
X57167Y230904D01*
X59759Y230210D01*
X62442D01*
X65033Y230904D01*
X67357Y232246D01*
X69254Y234143D01*
X70596Y236467D01*
X71290Y239058D01*
Y241742D01*
X70596Y244333D01*
X69254Y246657D01*
X67357Y248554D01*
X65033Y249896D01*
X62442Y250590D01*
D02*
G37*
G36*
X37042D02*
X34358D01*
X31767Y249896D01*
X29443Y248554D01*
X27546Y246657D01*
X26204Y244333D01*
X25510Y241742D01*
Y239058D01*
X26204Y236467D01*
X27546Y234143D01*
X29443Y232246D01*
X31767Y230904D01*
X34358Y230210D01*
X37042D01*
X39633Y230904D01*
X41957Y232246D01*
X43854Y234143D01*
X45196Y236467D01*
X45890Y239058D01*
Y241742D01*
X45196Y244333D01*
X43854Y246657D01*
X41957Y248554D01*
X39633Y249896D01*
X37042Y250590D01*
D02*
G37*
G36*
X113242Y225190D02*
X110559D01*
X107967Y224496D01*
X105643Y223154D01*
X103746Y221257D01*
X102404Y218933D01*
X101710Y216342D01*
Y213658D01*
X102404Y211067D01*
X103746Y208743D01*
X105643Y206846D01*
X107967Y205504D01*
X110559Y204810D01*
X113242D01*
X115833Y205504D01*
X118157Y206846D01*
X120054Y208743D01*
X121396Y211067D01*
X122090Y213658D01*
Y216342D01*
X121396Y218933D01*
X120054Y221257D01*
X118157Y223154D01*
X115833Y224496D01*
X113242Y225190D01*
D02*
G37*
G36*
X87842D02*
X85159D01*
X82567Y224496D01*
X80243Y223154D01*
X78346Y221257D01*
X77004Y218933D01*
X76310Y216342D01*
Y213658D01*
X77004Y211067D01*
X78346Y208743D01*
X80243Y206846D01*
X82567Y205504D01*
X85159Y204810D01*
X87842D01*
X90433Y205504D01*
X92757Y206846D01*
X94654Y208743D01*
X95996Y211067D01*
X96690Y213658D01*
Y216342D01*
X95996Y218933D01*
X94654Y221257D01*
X92757Y223154D01*
X90433Y224496D01*
X87842Y225190D01*
D02*
G37*
G36*
X62442D02*
X59759D01*
X57167Y224496D01*
X54843Y223154D01*
X52946Y221257D01*
X51604Y218933D01*
X50910Y216342D01*
Y213658D01*
X51604Y211067D01*
X52946Y208743D01*
X54843Y206846D01*
X57167Y205504D01*
X59759Y204810D01*
X62442D01*
X65033Y205504D01*
X67357Y206846D01*
X69254Y208743D01*
X70596Y211067D01*
X71290Y213658D01*
Y216342D01*
X70596Y218933D01*
X69254Y221257D01*
X67357Y223154D01*
X65033Y224496D01*
X62442Y225190D01*
D02*
G37*
G36*
X37042D02*
X34358D01*
X31767Y224496D01*
X29443Y223154D01*
X27546Y221257D01*
X26204Y218933D01*
X25510Y216342D01*
Y213658D01*
X26204Y211067D01*
X27546Y208743D01*
X29443Y206846D01*
X31767Y205504D01*
X34358Y204810D01*
X37042D01*
X39633Y205504D01*
X41957Y206846D01*
X43854Y208743D01*
X45196Y211067D01*
X45890Y213658D01*
Y216342D01*
X45196Y218933D01*
X43854Y221257D01*
X41957Y223154D01*
X39633Y224496D01*
X37042Y225190D01*
D02*
G37*
G36*
X113242Y199790D02*
X110559D01*
X107967Y199096D01*
X105643Y197754D01*
X103746Y195857D01*
X102404Y193533D01*
X101710Y190942D01*
Y188258D01*
X102404Y185667D01*
X103746Y183343D01*
X105643Y181446D01*
X107967Y180104D01*
X110559Y179410D01*
X113242D01*
X115833Y180104D01*
X118157Y181446D01*
X120054Y183343D01*
X121396Y185667D01*
X122090Y188258D01*
Y190942D01*
X121396Y193533D01*
X120054Y195857D01*
X118157Y197754D01*
X115833Y199096D01*
X113242Y199790D01*
D02*
G37*
G36*
X87842D02*
X85159D01*
X82567Y199096D01*
X80243Y197754D01*
X78346Y195857D01*
X77004Y193533D01*
X76310Y190942D01*
Y188258D01*
X77004Y185667D01*
X78346Y183343D01*
X80243Y181446D01*
X82567Y180104D01*
X85159Y179410D01*
X87842D01*
X90433Y180104D01*
X92757Y181446D01*
X94654Y183343D01*
X95996Y185667D01*
X96690Y188258D01*
Y190942D01*
X95996Y193533D01*
X94654Y195857D01*
X92757Y197754D01*
X90433Y199096D01*
X87842Y199790D01*
D02*
G37*
G36*
X62442D02*
X59759D01*
X57167Y199096D01*
X54843Y197754D01*
X52946Y195857D01*
X51604Y193533D01*
X50910Y190942D01*
Y188258D01*
X51604Y185667D01*
X52946Y183343D01*
X54843Y181446D01*
X57167Y180104D01*
X59759Y179410D01*
X62442D01*
X65033Y180104D01*
X67357Y181446D01*
X69254Y183343D01*
X70596Y185667D01*
X71290Y188258D01*
Y190942D01*
X70596Y193533D01*
X69254Y195857D01*
X67357Y197754D01*
X65033Y199096D01*
X62442Y199790D01*
D02*
G37*
G36*
X37042D02*
X34358D01*
X31767Y199096D01*
X29443Y197754D01*
X27546Y195857D01*
X26204Y193533D01*
X25510Y190942D01*
Y188258D01*
X26204Y185667D01*
X27546Y183343D01*
X29443Y181446D01*
X31767Y180104D01*
X34358Y179410D01*
X37042D01*
X39633Y180104D01*
X41957Y181446D01*
X43854Y183343D01*
X45196Y185667D01*
X45890Y188258D01*
Y190942D01*
X45196Y193533D01*
X43854Y195857D01*
X41957Y197754D01*
X39633Y199096D01*
X37042Y199790D01*
D02*
G37*
G36*
X904235Y177540D02*
X887965D01*
Y165770D01*
X904235D01*
Y177540D01*
D02*
G37*
G36*
X885425D02*
X869155D01*
Y165770D01*
X885425D01*
Y177540D01*
D02*
G37*
G36*
X113242Y174390D02*
X110559D01*
X107967Y173696D01*
X105643Y172354D01*
X103746Y170457D01*
X102404Y168133D01*
X101710Y165542D01*
Y162858D01*
X102404Y160267D01*
X103746Y157943D01*
X105643Y156046D01*
X107967Y154704D01*
X110559Y154010D01*
X113242D01*
X115833Y154704D01*
X118157Y156046D01*
X120054Y157943D01*
X121396Y160267D01*
X122090Y162858D01*
Y165542D01*
X121396Y168133D01*
X120054Y170457D01*
X118157Y172354D01*
X115833Y173696D01*
X113242Y174390D01*
D02*
G37*
G36*
X87842D02*
X85159D01*
X82567Y173696D01*
X80243Y172354D01*
X78346Y170457D01*
X77004Y168133D01*
X76310Y165542D01*
Y162858D01*
X77004Y160267D01*
X78346Y157943D01*
X80243Y156046D01*
X82567Y154704D01*
X85159Y154010D01*
X87842D01*
X90433Y154704D01*
X92757Y156046D01*
X94654Y157943D01*
X95996Y160267D01*
X96690Y162858D01*
Y165542D01*
X95996Y168133D01*
X94654Y170457D01*
X92757Y172354D01*
X90433Y173696D01*
X87842Y174390D01*
D02*
G37*
G36*
X62442D02*
X59759D01*
X57167Y173696D01*
X54843Y172354D01*
X52946Y170457D01*
X51604Y168133D01*
X50910Y165542D01*
Y162858D01*
X51604Y160267D01*
X52946Y157943D01*
X54843Y156046D01*
X57167Y154704D01*
X59759Y154010D01*
X62442D01*
X65033Y154704D01*
X67357Y156046D01*
X69254Y157943D01*
X70596Y160267D01*
X71290Y162858D01*
Y165542D01*
X70596Y168133D01*
X69254Y170457D01*
X67357Y172354D01*
X65033Y173696D01*
X62442Y174390D01*
D02*
G37*
G36*
X37042D02*
X34358D01*
X31767Y173696D01*
X29443Y172354D01*
X27546Y170457D01*
X26204Y168133D01*
X25510Y165542D01*
Y162858D01*
X26204Y160267D01*
X27546Y157943D01*
X29443Y156046D01*
X31767Y154704D01*
X34358Y154010D01*
X37042D01*
X39633Y154704D01*
X41957Y156046D01*
X43854Y157943D01*
X45196Y160267D01*
X45890Y162858D01*
Y165542D01*
X45196Y168133D01*
X43854Y170457D01*
X41957Y172354D01*
X39633Y173696D01*
X37042Y174390D01*
D02*
G37*
G36*
X904235Y163230D02*
X887965D01*
Y151460D01*
X904235D01*
Y163230D01*
D02*
G37*
G36*
X885425D02*
X869155D01*
Y151460D01*
X885425D01*
Y163230D01*
D02*
G37*
G36*
X122090Y148990D02*
X101710D01*
Y128610D01*
X122090D01*
Y148990D01*
D02*
G37*
G36*
X87842D02*
X85159D01*
X82567Y148296D01*
X80243Y146954D01*
X78346Y145057D01*
X77004Y142733D01*
X76310Y140142D01*
Y137458D01*
X77004Y134867D01*
X78346Y132543D01*
X80243Y130646D01*
X82567Y129304D01*
X85159Y128610D01*
X87842D01*
X90433Y129304D01*
X92757Y130646D01*
X94654Y132543D01*
X95996Y134867D01*
X96690Y137458D01*
Y140142D01*
X95996Y142733D01*
X94654Y145057D01*
X92757Y146954D01*
X90433Y148296D01*
X87842Y148990D01*
D02*
G37*
G36*
X71290D02*
X50910D01*
Y128610D01*
X71290D01*
Y148990D01*
D02*
G37*
G36*
X37042D02*
X34358D01*
X31767Y148296D01*
X29443Y146954D01*
X27546Y145057D01*
X26204Y142733D01*
X25510Y140142D01*
Y137458D01*
X26204Y134867D01*
X27546Y132543D01*
X29443Y130646D01*
X31767Y129304D01*
X34358Y128610D01*
X37042D01*
X39633Y129304D01*
X41957Y130646D01*
X43854Y132543D01*
X45196Y134867D01*
X45890Y137458D01*
Y140142D01*
X45196Y142733D01*
X43854Y145057D01*
X41957Y146954D01*
X39633Y148296D01*
X37042Y148990D01*
D02*
G37*
G36*
X631087Y129916D02*
X630936D01*
Y120396D01*
X640456D01*
Y120547D01*
X639721Y123291D01*
X638300Y125751D01*
X636291Y127760D01*
X633831Y129181D01*
X631087Y129916D01*
D02*
G37*
G36*
X628396D02*
X628246D01*
X625501Y129181D01*
X623041Y127760D01*
X621032Y125751D01*
X619611Y123291D01*
X618876Y120547D01*
Y120396D01*
X628396D01*
Y129916D01*
D02*
G37*
G36*
X707287D02*
X704445D01*
X701701Y129181D01*
X699241Y127760D01*
X697232Y125751D01*
X695811Y123291D01*
X695076Y120547D01*
Y117705D01*
X695811Y114961D01*
X697232Y112501D01*
X699241Y110492D01*
X701701Y109071D01*
X704445Y108336D01*
X707287D01*
X710031Y109071D01*
X712491Y110492D01*
X714500Y112501D01*
X715921Y114961D01*
X716656Y117705D01*
Y120547D01*
X715921Y123291D01*
X714500Y125751D01*
X712491Y127760D01*
X710031Y129181D01*
X707287Y129916D01*
D02*
G37*
G36*
X681887D02*
X679045D01*
X676301Y129181D01*
X673841Y127760D01*
X671832Y125751D01*
X670411Y123291D01*
X669676Y120547D01*
Y117705D01*
X670411Y114961D01*
X671832Y112501D01*
X673841Y110492D01*
X676301Y109071D01*
X679045Y108336D01*
X681887D01*
X684631Y109071D01*
X687091Y110492D01*
X689100Y112501D01*
X690521Y114961D01*
X691256Y117705D01*
Y120547D01*
X690521Y123291D01*
X689100Y125751D01*
X687091Y127760D01*
X684631Y129181D01*
X681887Y129916D01*
D02*
G37*
G36*
X656487D02*
X653645D01*
X650901Y129181D01*
X648441Y127760D01*
X646432Y125751D01*
X645011Y123291D01*
X644276Y120547D01*
Y117705D01*
X645011Y114961D01*
X646432Y112501D01*
X648441Y110492D01*
X650901Y109071D01*
X653645Y108336D01*
X656487D01*
X659231Y109071D01*
X661691Y110492D01*
X663700Y112501D01*
X665121Y114961D01*
X665856Y117705D01*
Y120547D01*
X665121Y123291D01*
X663700Y125751D01*
X661691Y127760D01*
X659231Y129181D01*
X656487Y129916D01*
D02*
G37*
G36*
X640456Y117856D02*
X630936D01*
Y108336D01*
X631087D01*
X633831Y109071D01*
X636291Y110492D01*
X638300Y112501D01*
X639721Y114961D01*
X640456Y117705D01*
Y117856D01*
D02*
G37*
G36*
X628396D02*
X618876D01*
Y117705D01*
X619611Y114961D01*
X621032Y112501D01*
X623041Y110492D01*
X625501Y109071D01*
X628246Y108336D01*
X628396D01*
Y117856D01*
D02*
G37*
G36*
X735391Y129973D02*
X727141D01*
X725401Y129744D01*
X723780Y129073D01*
X722387Y128005D01*
X721319Y126612D01*
X720648Y124991D01*
X720418Y123251D01*
Y115001D01*
X720648Y113261D01*
X721319Y111640D01*
X722387Y110247D01*
X723780Y109179D01*
X725401Y108508D01*
X727141Y108279D01*
X735391D01*
X737131Y108508D01*
X738752Y109179D01*
X740145Y110247D01*
X741213Y111640D01*
X741884Y113261D01*
X742113Y115001D01*
Y123251D01*
X741884Y124991D01*
X741213Y126612D01*
X740145Y128005D01*
X738752Y129073D01*
X737131Y129744D01*
X735391Y129973D01*
D02*
G37*
G36*
X450374Y115022D02*
X448369D01*
X446517Y114255D01*
X445099Y112837D01*
X444332Y110984D01*
Y108980D01*
X445099Y107127D01*
X446517Y105709D01*
X448369Y104942D01*
X450374D01*
X452227Y105709D01*
X453645Y107127D01*
X454412Y108980D01*
Y110984D01*
X453645Y112837D01*
X452227Y114255D01*
X450374Y115022D01*
D02*
G37*
G36*
X469002Y114700D02*
X466997D01*
X465145Y113933D01*
X463727Y112515D01*
X462960Y110662D01*
Y108658D01*
X463727Y106805D01*
X465145Y105387D01*
X466997Y104620D01*
X469002D01*
X470855Y105387D01*
X472273Y106805D01*
X473040Y108658D01*
Y110662D01*
X472273Y112515D01*
X470855Y113933D01*
X469002Y114700D01*
D02*
G37*
G36*
X38261Y120540D02*
X36970D01*
Y89270D01*
X68240D01*
Y90561D01*
X67439Y95620D01*
X65856Y100491D01*
X63531Y105055D01*
X60520Y109198D01*
X56898Y112820D01*
X52755Y115831D01*
X48191Y118156D01*
X43320Y119739D01*
X38261Y120540D01*
D02*
G37*
G36*
X732686Y104516D02*
X729846D01*
X727101Y103781D01*
X724641Y102360D01*
X722632Y100351D01*
X721211Y97891D01*
X720476Y95147D01*
Y92305D01*
X721211Y89561D01*
X722632Y87101D01*
X724641Y85092D01*
X727101Y83671D01*
X729846Y82936D01*
X732686D01*
X735431Y83671D01*
X737891Y85092D01*
X739900Y87101D01*
X741321Y89561D01*
X742056Y92305D01*
Y95147D01*
X741321Y97891D01*
X739900Y100351D01*
X737891Y102360D01*
X735431Y103781D01*
X732686Y104516D01*
D02*
G37*
G36*
X707287D02*
X704445D01*
X701701Y103781D01*
X699241Y102360D01*
X697232Y100351D01*
X695811Y97891D01*
X695076Y95147D01*
Y92305D01*
X695811Y89561D01*
X697232Y87101D01*
X699241Y85092D01*
X701701Y83671D01*
X704445Y82936D01*
X707287D01*
X710031Y83671D01*
X712491Y85092D01*
X714500Y87101D01*
X715921Y89561D01*
X716656Y92305D01*
Y95147D01*
X715921Y97891D01*
X714500Y100351D01*
X712491Y102360D01*
X710031Y103781D01*
X707287Y104516D01*
D02*
G37*
G36*
X681887D02*
X679045D01*
X676301Y103781D01*
X673841Y102360D01*
X671832Y100351D01*
X670411Y97891D01*
X669676Y95147D01*
Y92305D01*
X670411Y89561D01*
X671832Y87101D01*
X673841Y85092D01*
X676301Y83671D01*
X679045Y82936D01*
X681887D01*
X684631Y83671D01*
X687091Y85092D01*
X689100Y87101D01*
X690521Y89561D01*
X691256Y92305D01*
Y95147D01*
X690521Y97891D01*
X689100Y100351D01*
X687091Y102360D01*
X684631Y103781D01*
X681887Y104516D01*
D02*
G37*
G36*
X656487D02*
X653645D01*
X650901Y103781D01*
X648441Y102360D01*
X646432Y100351D01*
X645011Y97891D01*
X644276Y95147D01*
Y92305D01*
X645011Y89561D01*
X646432Y87101D01*
X648441Y85092D01*
X650901Y83671D01*
X653645Y82936D01*
X656487D01*
X659231Y83671D01*
X661691Y85092D01*
X663700Y87101D01*
X665121Y89561D01*
X665856Y92305D01*
Y95147D01*
X665121Y97891D01*
X663700Y100351D01*
X661691Y102360D01*
X659231Y103781D01*
X656487Y104516D01*
D02*
G37*
G36*
X631087D02*
X628246D01*
X625501Y103781D01*
X623041Y102360D01*
X621032Y100351D01*
X619611Y97891D01*
X618876Y95147D01*
Y92305D01*
X619611Y89561D01*
X621032Y87101D01*
X623041Y85092D01*
X625501Y83671D01*
X628246Y82936D01*
X631087D01*
X633831Y83671D01*
X636291Y85092D01*
X638300Y87101D01*
X639721Y89561D01*
X640456Y92305D01*
Y95147D01*
X639721Y97891D01*
X638300Y100351D01*
X636291Y102360D01*
X633831Y103781D01*
X631087Y104516D01*
D02*
G37*
G36*
X68240Y86730D02*
X36970D01*
Y55460D01*
X38261D01*
X43320Y56261D01*
X48191Y57844D01*
X52755Y60169D01*
X56898Y63180D01*
X60520Y66802D01*
X63531Y70945D01*
X65856Y75509D01*
X67439Y80380D01*
X68240Y85439D01*
Y86730D01*
D02*
G37*
G36*
X895561Y82540D02*
X894270D01*
Y51270D01*
X925540D01*
Y52561D01*
X924739Y57620D01*
X923156Y62491D01*
X920831Y67055D01*
X917820Y71198D01*
X914198Y74820D01*
X910055Y77831D01*
X905491Y80156D01*
X900620Y81739D01*
X895561Y82540D01*
D02*
G37*
G36*
X891730D02*
X890439D01*
X885380Y81739D01*
X880509Y80156D01*
X875945Y77831D01*
X871802Y74820D01*
X868180Y71198D01*
X865169Y67055D01*
X862844Y62491D01*
X861261Y57620D01*
X860460Y52561D01*
Y51270D01*
X891730D01*
Y82540D01*
D02*
G37*
G36*
X647540Y64404D02*
X641270D01*
Y43134D01*
X647540D01*
Y64404D01*
D02*
G37*
G36*
X638730D02*
X632460D01*
Y43134D01*
X638730D01*
Y64404D01*
D02*
G37*
G36*
X925540Y48730D02*
X894270D01*
Y17460D01*
X895561D01*
X900620Y18261D01*
X905491Y19844D01*
X910055Y22169D01*
X914198Y25180D01*
X917820Y28802D01*
X920831Y32945D01*
X923156Y37509D01*
X924739Y42380D01*
X925540Y47439D01*
Y48730D01*
D02*
G37*
G36*
X891730D02*
X860460D01*
Y47439D01*
X861261Y42380D01*
X862844Y37509D01*
X865169Y32945D01*
X868180Y28802D01*
X871802Y25180D01*
X875945Y22169D01*
X880509Y19844D01*
X885380Y18261D01*
X890439Y17460D01*
X891730D01*
Y48730D01*
D02*
G37*
%LPD*%
D49*
X640000Y41864D02*
D03*
X660000D02*
D03*
X680000D02*
D03*
X700000D02*
D03*
X720000D02*
D03*
D50*
X820422Y464466D02*
X824534D01*
X834000Y455000D01*
X857695D01*
X816821Y488944D02*
X840434D01*
X843990Y492500D01*
X857695D02*
X861500D01*
X843990D02*
X857695D01*
X861500D02*
X862000Y492000D01*
X833000Y180000D02*
X843000Y190000D01*
X857695D01*
X833000Y195000D02*
X840500Y202500D01*
X857695D01*
X833000Y210000D02*
X833322D01*
X838322Y215000D02*
X857695D01*
X833322Y210000D02*
X838322Y215000D01*
X833322Y225000D02*
X835822Y227500D01*
X857695D01*
X833000Y225000D02*
X833322D01*
X833000Y255000D02*
X833322D01*
X835822Y252500D02*
X857695D01*
X833322Y255000D02*
X835822Y252500D01*
X833322Y270000D02*
X838322Y265000D01*
X833000Y270000D02*
X833322D01*
X838322Y265000D02*
X857695D01*
X833000Y285000D02*
X840500Y277500D01*
X857695D01*
X843000Y290000D02*
X857695D01*
X833000Y300000D02*
X843000Y290000D01*
X857116Y659364D02*
X857730Y658750D01*
X833273Y659364D02*
X857116D01*
X833046Y659591D02*
X833273Y659364D01*
X835495Y671250D02*
X857730D01*
X833352Y673071D02*
X833674D01*
X835495Y671250D01*
X833504Y425808D02*
X837696Y430000D01*
X857695D01*
X833182Y425808D02*
X833504D01*
X834357Y535820D02*
X840177Y530000D01*
X857695D01*
X833925Y521000D02*
X834247D01*
X837747Y517500D01*
X857695D01*
X834247Y507328D02*
X836490Y505085D01*
X857610D01*
X833925Y507328D02*
X834247D01*
X857695Y240000D02*
X875965D01*
X857695Y442500D02*
X875965D01*
X857730Y696250D02*
X876000D01*
X857730Y708750D02*
X876000D01*
X857730Y721250D02*
X876000D01*
X856480Y720000D02*
X857730Y721250D01*
D51*
X61100Y291200D02*
D03*
Y316600D02*
D03*
X35700D02*
D03*
X61100Y342000D02*
D03*
X35700D02*
D03*
X61100Y367400D02*
D03*
X35700D02*
D03*
X61100Y392800D02*
D03*
X35700D02*
D03*
X61100Y418200D02*
D03*
X35700Y443600D02*
D03*
Y418200D02*
D03*
Y469000D02*
D03*
X61100Y443600D02*
D03*
Y469000D02*
D03*
Y494400D02*
D03*
X35700D02*
D03*
X61100Y519800D02*
D03*
X35700D02*
D03*
X61100Y545200D02*
D03*
X35700D02*
D03*
X61100Y570600D02*
D03*
Y596000D02*
D03*
X35700D02*
D03*
Y570600D02*
D03*
Y621400D02*
D03*
X61100D02*
D03*
Y646800D02*
D03*
X35700D02*
D03*
X61100Y672200D02*
D03*
X35700D02*
D03*
X61100Y697600D02*
D03*
X35700D02*
D03*
X61100Y723000D02*
D03*
X35700D02*
D03*
X61100Y748400D02*
D03*
X35700D02*
D03*
X61100Y773800D02*
D03*
X35700D02*
D03*
Y138800D02*
D03*
X61100Y164200D02*
D03*
X35700D02*
D03*
X61100Y189600D02*
D03*
X35700D02*
D03*
X61100Y215000D02*
D03*
X35700D02*
D03*
X61100Y240400D02*
D03*
Y265800D02*
D03*
X35700D02*
D03*
Y291200D02*
D03*
Y240400D02*
D03*
X86500D02*
D03*
Y291200D02*
D03*
Y265800D02*
D03*
X111900D02*
D03*
Y240400D02*
D03*
X86500Y215000D02*
D03*
X111900D02*
D03*
X86500Y189600D02*
D03*
X111900D02*
D03*
X86500Y164200D02*
D03*
X111900D02*
D03*
X86500Y138800D02*
D03*
Y773800D02*
D03*
X111900D02*
D03*
X86500Y748400D02*
D03*
X111900D02*
D03*
X86500Y723000D02*
D03*
X111900D02*
D03*
X86500Y697600D02*
D03*
X111900D02*
D03*
X86500Y672200D02*
D03*
X111900D02*
D03*
X86500Y646800D02*
D03*
X111900D02*
D03*
Y621400D02*
D03*
X86500D02*
D03*
Y570600D02*
D03*
Y596000D02*
D03*
X111900D02*
D03*
Y570600D02*
D03*
X86500Y545200D02*
D03*
X111900D02*
D03*
X86500Y519800D02*
D03*
X111900D02*
D03*
X86500Y494400D02*
D03*
X111900D02*
D03*
Y469000D02*
D03*
Y443600D02*
D03*
X86500Y469000D02*
D03*
Y418200D02*
D03*
Y443600D02*
D03*
X111900Y418200D02*
D03*
X86500Y392800D02*
D03*
X111900D02*
D03*
X86500Y367400D02*
D03*
X111900D02*
D03*
X86500Y342000D02*
D03*
X111900D02*
D03*
X86500Y316600D02*
D03*
X111900D02*
D03*
Y291200D02*
D03*
D52*
X61100Y138800D02*
D03*
X111900D02*
D03*
D53*
X705866Y93726D02*
D03*
Y119126D02*
D03*
X731266Y93726D02*
D03*
X680466Y119126D02*
D03*
Y93726D02*
D03*
X655066Y119126D02*
D03*
X629666D02*
D03*
X655066Y93726D02*
D03*
X629666D02*
D03*
D54*
X731266Y119126D02*
D03*
D55*
X893000Y50000D02*
D03*
Y850000D02*
D03*
X35700Y88000D02*
D03*
Y824600D02*
D03*
D56*
X893000Y73250D02*
D03*
X869750Y50000D02*
D03*
X893000Y27140D02*
D03*
X916250Y50000D02*
D03*
X909440Y66440D02*
D03*
X876560Y33560D02*
D03*
X909440D02*
D03*
X876560Y66440D02*
D03*
X893000Y873250D02*
D03*
X869750Y850000D02*
D03*
X893000Y827140D02*
D03*
X916250Y850000D02*
D03*
X909440Y866440D02*
D03*
X876560Y833560D02*
D03*
X909440D02*
D03*
X876560Y866440D02*
D03*
X35700Y111250D02*
D03*
X12450Y88000D02*
D03*
X35700Y65140D02*
D03*
X58950Y88000D02*
D03*
X52140Y104440D02*
D03*
X19260Y71560D02*
D03*
X52140D02*
D03*
X19260Y104440D02*
D03*
Y841040D02*
D03*
X52140Y808160D02*
D03*
X19260D02*
D03*
X52140Y841040D02*
D03*
X58950Y824600D02*
D03*
X35700Y801740D02*
D03*
X12450Y824600D02*
D03*
X35700Y847850D02*
D03*
D57*
X441792Y94184D02*
D03*
X449372Y109982D02*
D03*
X468000Y109660D02*
D03*
X820100Y464466D02*
D03*
X861678Y455000D02*
D03*
Y467500D02*
D03*
X816821Y488944D02*
D03*
X862000Y492000D02*
D03*
Y480000D02*
D03*
X833046Y659591D02*
D03*
X833352Y673071D02*
D03*
X833016Y440647D02*
D03*
X833182Y425808D02*
D03*
X834357Y535820D02*
D03*
X833925Y521000D02*
D03*
Y507328D02*
D03*
X875965Y240000D02*
D03*
Y442500D02*
D03*
X876000Y696250D02*
D03*
Y708750D02*
D03*
Y721250D02*
D03*
X833000Y705000D02*
D03*
Y720000D02*
D03*
X260000Y97000D02*
D03*
X833000Y180000D02*
D03*
Y195000D02*
D03*
Y210000D02*
D03*
Y225000D02*
D03*
Y240000D02*
D03*
Y255000D02*
D03*
Y270000D02*
D03*
Y285000D02*
D03*
Y300000D02*
D03*
D58*
X857730Y721250D02*
D03*
Y708750D02*
D03*
Y696250D02*
D03*
Y683750D02*
D03*
Y671250D02*
D03*
Y658750D02*
D03*
X857695Y290000D02*
D03*
Y277500D02*
D03*
Y265000D02*
D03*
Y252500D02*
D03*
Y240000D02*
D03*
Y227500D02*
D03*
Y215000D02*
D03*
Y202500D02*
D03*
Y190000D02*
D03*
Y530000D02*
D03*
Y517500D02*
D03*
Y505000D02*
D03*
Y492500D02*
D03*
Y480000D02*
D03*
Y467500D02*
D03*
Y455000D02*
D03*
Y442500D02*
D03*
Y430000D02*
D03*
D59*
X886730Y633250D02*
D03*
Y746750D02*
D03*
X886695Y164500D02*
D03*
Y315500D02*
D03*
Y404500D02*
D03*
Y555500D02*
D03*
M02*
