M48
;Layer_Color=9474304
;FILE_FORMAT=4:2
METRIC,TZ
;TYPE=PLATED
T01F00S00C0.20
T02F00S00C0.50
T03F00S00C0.90
T04F00S00C1.10
T05F00S00C3.30
%
T01
X2600Y970
X4418Y942
X4494Y1100
X4680Y1097
X8330Y1800
Y1950
Y2100
Y2250
Y2400
Y2550
Y2700
Y2850
X8760Y2400
X8330Y3000
X8332Y4258
X8330Y4406
X8201Y4645
X8168Y4889
X8339Y5073
Y5210
X8344Y5358
X8620Y4920
Y4800
X8617Y4675
Y4550
X8760Y4425
X8330Y6596
X8334Y6731
X8330Y7050
Y7200
X8760Y7212
Y7088
Y6962
T02
X193Y716
X357Y651
X521Y716
X589Y880
X521Y1044
X357Y1112
X193Y1044
X125Y880
X8766Y664
X8930Y732
X9094Y664
X9162Y500
X9094Y336
X8930Y271
X8766Y336
X8697Y500
X521Y8082
X357Y8017
X193Y8082
X125Y8246
X193Y8410
X357Y8479
X521Y8410
X589Y8246
X8766Y8336
X8930Y8271
X9094Y8336
X9162Y8500
X9094Y8664
X8930Y8732
X8766Y8664
X8697Y8500
T03
X357Y1388
X611
Y1642
X357
Y1896
X611
Y2150
X357
Y2404
X611
Y2658
Y2912
X357
Y2658
X865
Y2404
X1119
Y2658
Y2912
X865
Y2150
X1119
Y1896
X865
Y1642
X1119
Y1388
X865
Y3166
X611
X357
Y3420
X611
Y3674
X357
Y3928
X611
Y4182
X357
Y4436
Y4690
X611
Y4436
X865
X1119
Y4690
Y4944
Y5198
Y5452
Y5706
X865
X611
Y5452
Y5198
Y4944
X357
Y5198
Y5452
Y5706
Y5960
X611
Y6214
X357
Y6468
X611
Y6722
X357
X865
X1119
Y6468
X865
Y6214
X1119
Y5960
X865
Y5452
Y5198
Y4944
Y4690
Y4182
X1119
Y3928
X865
Y3674
X1119
Y3420
X865
X1119Y3166
Y6976
Y7230
Y7484
Y7738
X865
X611
Y7484
Y7230
Y6976
X357
Y7230
Y7484
Y7738
X865Y7484
Y7230
Y6976
T04
X6297Y937
Y1191
X6551
X6805
Y937
X6551
X7059
Y1191
X7313
Y937
T05
X357Y880
X8930Y500
X357Y8246
X8930Y8500
M30
