M48
;Layer_Color=9474304
;FILE_FORMAT=4:2
METRIC,TZ
;TYPE=PLATED
T01F00S00C0.20
T02F00S00C0.50
T03F00S00C0.90
T04F00S00C1.10
T05F00S00C3.30
%
T01
X2043Y940
X2403
X2763Y940
X2862Y372
X2848Y2118
X2927
X2553Y2115
X2567Y2020
X2631Y2036
X2614Y1976
X2057Y1746
X2084Y1582
X2091Y1456
X1703Y1453
Y1583
X1424Y1594
X1757Y1289
X2005Y2163
X1993Y2493
X2819Y2858
X2864Y2899
X3011Y2752
X3007Y2692
Y2614
X2972Y2565
X3213Y2547
X3214Y2683
X3213Y2826
Y2966
X3860Y2952
X3862Y2880
X3868Y2633
X3955Y2513
X4087Y2523
X4125Y2834
X4126Y2916
X4208Y2916
X4209Y2832
X4367Y2834
X4445Y2832
X4447Y2754
X4447Y2674
X4367
X4447Y2594
X4606Y2588
X4565Y2500
X4712Y2512
X4756Y2541
X4809Y2537
X4888Y2576
X4914Y2523
X4927Y2754
X5007
X5010Y2915
X4928Y2915
X4847Y2914
X4846Y2834
X4766Y2912
X4687Y2915
Y2836
X4608Y2831
Y2754
X4767Y2673
X4689Y2450
X4695Y2107
X4555
X4415Y2108
X4276
X4283Y1999
X4281Y1830
Y1652
Y1474
X3965
Y1301
X3650
X3651Y1131
X3416Y1138
Y1303
X3416Y1480
X3416Y1658
X3264Y1592
X3262Y1434
X3651Y1474
Y1652
Y1830
X3650Y2001
X3717Y2108
X3857
X3996
X4135
X3965Y1829
Y1652
X4597Y1652
Y1833
X4911Y1830
X4913Y2000
X4974Y2108
X4834
X5207Y2184
X5114Y2331
X5168Y2596
X5166Y2677
X5301Y2675
X5347Y2714
X5427Y2872
X5454Y2318
X5956Y2553
X6237Y2565
X6020Y2871
X6147Y1905
X6186Y1650
X6239Y1600
X5957Y1383
X5733Y1361
X5758Y1676
X5709Y1717
X5182Y1833
X5190Y1377
X5127Y1313
X5063Y1250
X5000Y1186
X4936Y1123
X4873Y1059
X4809Y996
X4746Y932
X4782Y852
X5254Y1440
X6277Y692
X3591Y852
X3123Y940
X3226Y368
X3064Y2341
X3005Y2337
X3570Y2457
X4365Y2916
X4446Y2918
X8344Y2708
X8375Y2324
X8344Y2108
X7648Y967
X7321Y687
X7382Y3603
X7446Y3667
X7509Y3730
X7573Y3794
X7636Y3857
X7700Y3921
X7763Y3984
X7827Y4048
X7890Y4111
X7861Y4432
X7925
X7823Y4508
X7728
X7645
X7557Y4507
X7500Y4524
X7250Y4524
X7192Y4518
X7175Y4465
X7103Y4507
X7051Y4328
X6970Y4178
X7022Y4040
X7022Y3981
X7000Y4853
X7166
X7252Y4859
X7321Y5255
X7423Y5257
X7620Y5333
X7723Y5354
X7722Y5283
X7887Y5423
X7763Y5673
X7572Y5669
X7569Y5572
X7372Y5573
X7179Y5572
Y5674
X7170Y5766
X7277Y5872
Y6072
X7177
X7077
Y5972
X6977
Y6072
Y6172
X7077
X7177
X7277
X7466Y6171
X7566
X7666
Y6071
X7566
X7466
X7666Y5971
X7766
Y6071
Y6171
X7722Y6642
X7582
X7442
X7303
X7163
X7023
X7165Y6272
X6975Y5672
X7023Y5353
X7023Y5279
X7122Y5335
X7570Y5769
X7728Y4937
Y4864
X7861
X7947Y4863
X8408Y4887
X8408Y4789
X8408Y4621
Y4524
X8404Y4343
X8703Y4425
X8738Y4267
X8816Y4336
X8712Y3684
Y3529
X8248Y3380
X8399Y5018
X8345Y5151
Y5204
X8603Y5399
X8738Y6553
Y6680
X8816Y6622
Y6749
X6268Y6185
X6223Y6139
X6042Y6142
X6026Y6193
X6094Y6201
X6223Y5948
X6268Y5987
X6313Y5929
X6223Y5863
X6229Y5780
X6282Y5732
X6332Y5656
X6285Y5608
X6282Y5507
X6358Y5500
X6380Y5311
X6311Y5305
X6629Y5145
X6629Y5079
X6514Y5014
X6473Y4961
Y4855
Y4785
X6666Y4836
X6667Y4689
X6795Y4524
X6856Y4518
X6923Y4521
X6859Y4408
X6913Y4039
X6914Y3986
X6907Y3814
X6908Y3752
X6795Y3774
Y3706
X6850Y3660
X6161Y3801
X6161Y3991
X5950Y4092
X5987Y4135
X5982Y4267
X5956Y4369
X5860Y3711
X5899Y3448
X5933Y3318
X5410Y3327
X5413Y3476
X5167Y3471
Y3317
X5247
X5089Y3236
Y3154
Y3072
X5086Y2996
X5166Y3071
X5303Y3000
X4931Y3076
X4928Y3154
X4816Y3193
X4813Y3351
Y3433
X4929Y3393
X4929Y3315
X4932Y3471
X4926Y3552
X4848Y3558
X4847Y3634
X4767Y3634
X4931Y3634
Y3714
X4928Y3794
X5008Y3795
X5089Y3794
X5167Y3795
Y3714
X5250Y3713
X5288Y3753
X5247Y3877
X5169Y3876
X5087Y3875
X4928Y3876
X4924Y3953
X4771Y3952
X4767Y3874
X4745Y4071
X4657Y4061
X4687Y4116
X4719Y4165
X4968Y4096
X5010Y4051
X5111Y4081
X5171Y4098
X5174Y4033
X5128Y4009
X5010Y3637
X5009Y3551
X5007Y3398
X4684Y3388
X4687Y3317
X4608Y3314
X4527
X4447
X4367
X4365Y3237
X4295Y3236
X4365Y3154
X4447
Y3074
X4407Y3034
X4487
X4527Y2996
Y3074
Y3154
X4608Y3154
Y3078
X4690
Y3152
Y3236
X4608Y3230
Y3400
X4527Y3394
X4447
X4367
Y3474
X4447
X4526
X4529Y3553
X4522Y3634
X4611Y3715
X4367Y3714
X4288Y3713
X4284Y3634
X4127
X4052Y3634
X4124Y3717
Y3798
X4206Y3715
X4207Y3554
Y3474
X4127
Y3553
X4128Y3395
X4207Y3394
Y3314
X4128Y3314
X4127Y3237
X4049Y3236
X4047Y3153
X4126Y3150
X4131Y3079
X4209Y3153
X4292Y3077
X4287Y2998
X4051
X3965Y2996
Y3154
X3886Y3151
X3888Y3470
X3967Y3473
X4047
X3967Y3555
X3887Y3554
X4045Y3950
X4085Y4022
X4071Y4091
X3995Y4031
X4167Y4011
X4242Y4121
X4380Y4151
X4469Y4080
X4426Y4019
X4367Y3874
X4367Y3796
X4380Y4479
X4312Y4477
X4240Y4479
X4173Y4479
X4100Y4479
X3960
X3977Y4630
X3988Y5080
Y5316
X4321Y5385
X4437Y5384
X4469Y5204
X4532Y5225
X4683Y5406
X4723Y5454
X4767Y5526
X4676Y5640
X4673Y5719
X4596Y5720
X4513Y5798
X4436Y5800
Y5723
X4436Y5640
X4356
X4276
X4198Y5641
X4117Y5716
X4035Y5719
X4196Y5805
X4277Y5799
X4235Y5925
X4359Y5884
X4435Y5882
X4593Y5892
X4676Y5890
X4760Y5936
X4814Y5962
X4843Y5894
X4834Y6121
X4750Y6122
X4676Y6125
X4676Y6280
X4596Y6281
X4518Y6282
X4438
Y6201
X4436Y6125
X4355Y6122
X4160Y6086
X4080Y6084
X3835Y6121
X3875Y6175
X3921Y6224
X4153Y6404
X4235Y6407
X4316Y6407
X4396Y6407
X4476Y6407
X4517Y6361
X4596Y6360
X4570Y6452
X4710Y6401
X4797Y6397
X4878Y6402
X4952Y6402
X4994Y6201
X5075Y6201
X5151Y6198
X5397Y6199
Y5973
X5249Y5821
X5072Y5720
X4924Y5712
X4913Y5650
X4516Y5640
X4712Y6506
X4862Y6763
X5005Y6763
X5427Y6762
X5486Y6769
X5586Y6763
Y6707
Y6579
X5659Y6574
X5782Y6557
X5777Y6498
X5750Y6391
X5689Y6386
X5575Y6392
X5575Y6323
X5586Y6460
X5313Y6409
X5765Y6655
X4674Y6901
X4420Y6744
X4280
X4140
X3522Y6191
X3512Y6058
X3340Y4803
X3011Y4678
X3213Y4227
Y4088
X3003Y3925
Y3835
Y3672
Y3596
X3008Y3106
X3061Y3137
X3025Y3011
X2969Y3006
X3469Y3172
X3463Y3336
X3673Y4088
X4448Y4476
X4519Y4479
X4665Y4484
X4940Y4479
X6016Y5070
X5982Y5114
X6833Y4853
X6845Y5429
X4605Y2996
X2807Y3467
X2743Y3404
X2600Y3401
X2598Y3338
X2426Y3378
X2449Y3429
X2139Y3753
X2140Y3823
X2133Y3880
X2195Y3881
X2133Y3947
X2113Y4232
X2042
X1991Y4437
X2397Y4470
Y4529
X2549Y4505
Y4445
X2544Y4152
X2603Y4153
X2807Y4014
X2864
X2953Y3879
X2964Y3779
Y3724
X2284Y4115
X2288Y4192
X2311Y5055
X2366Y5095
X1972Y5031
X1389Y4712
X1387Y4366
X1575Y4394
X1590Y3897
X1596Y3573
X1585Y5588
X1575Y5937
X1715
X2095Y5955
Y5880
X2181Y6000
X2248Y5994
Y6101
X2489Y6414
Y6769
X2606Y7636
X2367Y7633
X2098Y7569
X1946Y7585
X1844
X1750
X1749Y7743
X1843
X1944
X1943Y7902
X1841
X1748
X1746Y8060
X1840
X1942
X1940Y8218
X1839
X1745
X1744Y8376
X1837
X1939
X1938Y8534
X1836
X1743
X1741Y8693
X1835
X1936
X2098Y7938
X3591Y7887
Y7757
X3721
X3851
X3981
Y7887
X3851
X3721
X3976Y8331
Y8534
X3722Y8725
X4244Y8166
X4473Y8268
X4689Y8255
X4981Y8192
X5045
X5057Y8141
X5108Y8192
X5095Y8242
X5159
X5032
X5232Y8420
X5337Y8572
X5121Y8572
X4906Y8572
X4689Y7861
Y7442
X4473
X4244
X4178Y7308
Y7150
X4674Y6998
X4813
X4805Y6945
X4905Y7455
X5121
X5563Y7436
X5337Y7747
X5762Y7810
X5667Y8268
X6700Y8110
X6850
X6760Y7876
X6583
Y7535
X6857Y7713
X6977Y8089
X7044Y8089
X7096
X7167Y8088
X7300Y8110
X7450
X7600
X7788Y8058
X7856Y8058
X7909
X7978Y8056
X8010Y7535
X7670Y7713
X7565Y7876
X7387Y7878
Y7535
X7210
T02
X193Y716
X357Y651
X521Y716
X589Y880
X521Y1044
X357Y1112
X193Y1044
X125Y880
X8766Y664
X8930Y732
X9094Y664
X9162Y500
X9094Y336
X8930Y271
X8766Y336
X8697Y500
X521Y8082
X357Y8017
X193Y8082
X125Y8246
X193Y8410
X357Y8479
X521Y8410
X589Y8246
X8766Y8336
X8930Y8271
X9094Y8336
X9162Y8500
X9094Y8664
X8930Y8732
X8766Y8664
X8697Y8500
T03
X357Y1388
X611
Y1642
X357
Y1896
X611
Y2150
X357
Y2404
X611
Y2658
Y2912
X357
Y2658
X865
X1119
Y2912
X865
Y2404
Y2150
Y1896
Y1642
X1119
Y1388
X865
X1119Y1896
Y2150
Y2404
Y3166
X865
X611
X357
Y3420
X611
Y3674
X357
Y3928
X611
Y4182
X357
Y4436
Y4690
X611
Y4436
X865
Y4182
Y3928
Y3674
Y3420
X1119
Y3674
Y3928
Y4182
Y4436
Y4690
X865
Y4944
X611
Y5198
Y5452
X357
Y5706
X611
Y5960
X357
Y6214
X611
Y6468
X357
Y6722
X611
X865
Y6468
X1119
Y6722
Y6214
Y5960
Y5706
Y5452
Y5198
Y4944
X865Y5198
Y5452
Y5706
Y5960
Y6214
X357Y5198
Y4944
Y6976
X611
Y7230
Y7484
X357
Y7738
X611
X865
Y7484
Y7230
Y6976
X1119
Y7230
Y7484
Y7738
X357Y7230
T04
X6297Y937
Y1191
X6551
Y937
X6805
Y1191
X7059
X7313
Y937
X7059
T05
X357Y880
X8930Y500
X357Y8246
X8930Y8500
M30
