G04*
G04 #@! TF.GenerationSoftware,Altium Limited,Altium Designer,24.1.2 (44)*
G04*
G04 Layer_Color=8388736*
%FSLAX44Y44*%
%MOMM*%
G71*
G04*
G04 #@! TF.SameCoordinates,A01663C4-2129-4C4F-A198-2F760A56CFF4*
G04*
G04*
G04 #@! TF.FilePolarity,Negative*
G04*
G01*
G75*
%ADD50R,0.5588X1.4605*%
%ADD55R,1.0160X0.4572*%
%ADD56R,3.2035X1.5578*%
%ADD57R,1.2446X0.8636*%
%ADD58C,0.6132*%
%ADD59C,1.7032*%
%ADD60R,2.0032X1.2032*%
%ADD61R,0.4532X0.8532*%
%ADD62R,0.5032X0.8532*%
%ADD63R,0.8532X0.4532*%
%ADD64R,2.6032X0.5032*%
%ADD65C,0.6932*%
G04:AMPARAMS|DCode=66|XSize=1.6532mm|YSize=0.7932mm|CornerRadius=0.1754mm|HoleSize=0mm|Usage=FLASHONLY|Rotation=90.000|XOffset=0mm|YOffset=0mm|HoleType=Round|Shape=RoundedRectangle|*
%AMROUNDEDRECTD66*
21,1,1.6532,0.4425,0,0,90.0*
21,1,1.3025,0.7932,0,0,90.0*
1,1,0.3507,0.2213,0.6513*
1,1,0.3507,0.2213,-0.6513*
1,1,0.3507,-0.2213,-0.6513*
1,1,0.3507,-0.2213,0.6513*
%
%ADD66ROUNDEDRECTD66*%
G04:AMPARAMS|DCode=67|XSize=1.1532mm|YSize=1.0532mm|CornerRadius=0.3141mm|HoleSize=0mm|Usage=FLASHONLY|Rotation=90.000|XOffset=0mm|YOffset=0mm|HoleType=Round|Shape=RoundedRectangle|*
%AMROUNDEDRECTD67*
21,1,1.1532,0.4250,0,0,90.0*
21,1,0.5250,1.0532,0,0,90.0*
1,1,0.6282,0.2125,0.2625*
1,1,0.6282,0.2125,-0.2625*
1,1,0.6282,-0.2125,-0.2625*
1,1,0.6282,-0.2125,0.2625*
%
%ADD67ROUNDEDRECTD67*%
%ADD68R,1.8032X1.6032*%
%ADD69R,1.6532X1.5032*%
%ADD70R,2.1032X2.1032*%
%ADD71R,0.6032X1.5532*%
G04:AMPARAMS|DCode=72|XSize=1.5232mm|YSize=0.8032mm|CornerRadius=0.1766mm|HoleSize=0mm|Usage=FLASHONLY|Rotation=90.000|XOffset=0mm|YOffset=0mm|HoleType=Round|Shape=RoundedRectangle|*
%AMROUNDEDRECTD72*
21,1,1.5232,0.4500,0,0,90.0*
21,1,1.1700,0.8032,0,0,90.0*
1,1,0.3532,0.2250,0.5850*
1,1,0.3532,0.2250,-0.5850*
1,1,0.3532,-0.2250,-0.5850*
1,1,0.3532,-0.2250,0.5850*
%
%ADD72ROUNDEDRECTD72*%
G04:AMPARAMS|DCode=73|XSize=1.1532mm|YSize=1.0532mm|CornerRadius=0.3141mm|HoleSize=0mm|Usage=FLASHONLY|Rotation=0.000|XOffset=0mm|YOffset=0mm|HoleType=Round|Shape=RoundedRectangle|*
%AMROUNDEDRECTD73*
21,1,1.1532,0.4250,0,0,0.0*
21,1,0.5250,1.0532,0,0,0.0*
1,1,0.6282,0.2625,-0.2125*
1,1,0.6282,-0.2625,-0.2125*
1,1,0.6282,-0.2625,0.2125*
1,1,0.6282,0.2625,0.2125*
%
%ADD73ROUNDEDRECTD73*%
%ADD74R,3.1532X3.7032*%
G04:AMPARAMS|DCode=75|XSize=1.8532mm|YSize=2.7532mm|CornerRadius=0.3491mm|HoleSize=0mm|Usage=FLASHONLY|Rotation=90.000|XOffset=0mm|YOffset=0mm|HoleType=Round|Shape=RoundedRectangle|*
%AMROUNDEDRECTD75*
21,1,1.8532,2.0550,0,0,90.0*
21,1,1.1550,2.7532,0,0,90.0*
1,1,0.6982,1.0275,0.5775*
1,1,0.6982,1.0275,-0.5775*
1,1,0.6982,-1.0275,-0.5775*
1,1,0.6982,-1.0275,0.5775*
%
%ADD75ROUNDEDRECTD75*%
%ADD76R,5.1032X3.1532*%
%ADD77R,1.4986X2.0574*%
%ADD78R,0.8636X1.2446*%
%ADD79R,2.0574X1.4986*%
%ADD80R,0.9032X1.8532*%
G04:AMPARAMS|DCode=81|XSize=2.1732mm|YSize=0.8032mm|CornerRadius=0.1766mm|HoleSize=0mm|Usage=FLASHONLY|Rotation=180.000|XOffset=0mm|YOffset=0mm|HoleType=Round|Shape=RoundedRectangle|*
%AMROUNDEDRECTD81*
21,1,2.1732,0.4500,0,0,180.0*
21,1,1.8200,0.8032,0,0,180.0*
1,1,0.3532,-0.9100,0.2250*
1,1,0.3532,0.9100,0.2250*
1,1,0.3532,0.9100,-0.2250*
1,1,0.3532,-0.9100,-0.2250*
%
%ADD81ROUNDEDRECTD81*%
%ADD82R,1.5032X1.3032*%
%ADD83C,0.5732*%
%ADD84R,1.2032X4.2032*%
%ADD85R,1.4032X1.0032*%
%ADD86C,1.7332*%
%ADD87R,1.7332X1.7332*%
%ADD88C,1.8532*%
G04:AMPARAMS|DCode=89|XSize=1.8532mm|YSize=1.8532mm|CornerRadius=0.5141mm|HoleSize=0mm|Usage=FLASHONLY|Rotation=180.000|XOffset=0mm|YOffset=0mm|HoleType=Round|Shape=RoundedRectangle|*
%AMROUNDEDRECTD89*
21,1,1.8532,0.8250,0,0,180.0*
21,1,0.8250,1.8532,0,0,180.0*
1,1,1.0282,-0.4125,0.4125*
1,1,1.0282,0.4125,0.4125*
1,1,1.0282,0.4125,-0.4125*
1,1,1.0282,-0.4125,-0.4125*
%
%ADD89ROUNDEDRECTD89*%
%ADD90C,6.2032*%
%ADD91C,1.2032*%
G36*
X468849Y874446D02*
X468882D01*
X468915Y874442D01*
X468949Y874439D01*
X468981Y874433D01*
X469014Y874429D01*
X469425Y874347D01*
X469457Y874338D01*
X469490Y874332D01*
X469521Y874321D01*
X469553Y874312D01*
X469584Y874300D01*
X469616Y874289D01*
X470003Y874129D01*
X470032Y874114D01*
X470063Y874101D01*
X470092Y874085D01*
X470122Y874070D01*
X470150Y874051D01*
X470179Y874035D01*
X470527Y873802D01*
X470553Y873782D01*
X470581Y873763D01*
X470606Y873742D01*
X470632Y873721D01*
X470656Y873697D01*
X470681Y873676D01*
X470977Y873380D01*
X470999Y873354D01*
X471022Y873331D01*
X471043Y873305D01*
X471065Y873279D01*
X471083Y873252D01*
X471104Y873225D01*
X471336Y872877D01*
X471353Y872848D01*
X471371Y872821D01*
X471386Y872791D01*
X471403Y872762D01*
X471415Y872731D01*
X471430Y872701D01*
X471590Y872315D01*
X471601Y872283D01*
X471614Y872252D01*
X471623Y872220D01*
X471633Y872188D01*
X471640Y872156D01*
X471648Y872123D01*
X471730Y871713D01*
X471734Y871680D01*
X471741Y871647D01*
X471743Y871614D01*
X471747Y871581D01*
Y871548D01*
X471750Y871514D01*
Y871305D01*
Y866055D01*
Y865846D01*
X471747Y865812D01*
Y865779D01*
X471743Y865746D01*
X471741Y865713D01*
X471734Y865680D01*
X471730Y865647D01*
X471648Y865237D01*
X471640Y865204D01*
X471633Y865172D01*
X471623Y865140D01*
X471614Y865108D01*
X471601Y865077D01*
X471590Y865046D01*
X471430Y864659D01*
X471415Y864629D01*
X471403Y864598D01*
X471386Y864569D01*
X471371Y864539D01*
X471353Y864512D01*
X471336Y864483D01*
X471104Y864135D01*
X471083Y864108D01*
X471065Y864081D01*
X471043Y864056D01*
X471022Y864029D01*
X470999Y864005D01*
X470977Y863980D01*
X470681Y863684D01*
X470656Y863662D01*
X470632Y863639D01*
X470606Y863619D01*
X470581Y863597D01*
X470553Y863578D01*
X470527Y863558D01*
X470179Y863325D01*
X470150Y863309D01*
X470122Y863290D01*
X470092Y863275D01*
X470063Y863259D01*
X470032Y863246D01*
X470003Y863231D01*
X469616Y863071D01*
X469584Y863060D01*
X469553Y863048D01*
X469521Y863039D01*
X469490Y863028D01*
X469457Y863022D01*
X469425Y863013D01*
X469014Y862931D01*
X468981Y862927D01*
X468949Y862921D01*
X468915Y862918D01*
X468882Y862914D01*
X468849D01*
X468816Y862912D01*
X462175D01*
X462173Y862912D01*
X462171Y862912D01*
X462105Y862916D01*
X462042Y862921D01*
X462040Y862921D01*
X462038Y862921D01*
X461974Y862934D01*
X461912Y862946D01*
X461910Y862947D01*
X461908Y862947D01*
X461847Y862969D01*
X461786Y862989D01*
X461784Y862990D01*
X461782Y862991D01*
X461722Y863021D01*
X461666Y863048D01*
X461665Y863049D01*
X461663Y863050D01*
X461608Y863087D01*
X461555Y863122D01*
X461554Y863123D01*
X461552Y863125D01*
X461503Y863168D01*
X461455Y863210D01*
X461454Y863212D01*
X461452Y863213D01*
X460699Y863972D01*
X460701Y863930D01*
X460693Y863797D01*
X460667Y863666D01*
X460624Y863540D01*
X460565Y863421D01*
X460491Y863310D01*
X460403Y863210D01*
X460303Y863122D01*
X460192Y863048D01*
X460073Y862989D01*
X459947Y862946D01*
X459816Y862921D01*
X459683Y862912D01*
X448986Y862912D01*
X448777D01*
X448744Y862914D01*
X448711D01*
X448677Y862918D01*
X448644Y862921D01*
X448611Y862927D01*
X448578Y862931D01*
X448168Y863013D01*
X448136Y863022D01*
X448103Y863028D01*
X448072Y863039D01*
X448039Y863048D01*
X448008Y863060D01*
X447977Y863071D01*
X447590Y863231D01*
X447560Y863246D01*
X447529Y863259D01*
X447501Y863275D01*
X447471Y863290D01*
X447443Y863309D01*
X447414Y863325D01*
X447066Y863558D01*
X447039Y863578D01*
X447012Y863597D01*
X446987Y863618D01*
X446960Y863639D01*
X446937Y863663D01*
X446912Y863684D01*
X446616Y863980D01*
X446594Y864006D01*
X446570Y864029D01*
X446550Y864055D01*
X446528Y864081D01*
X446510Y864108D01*
X446489Y864135D01*
X446257Y864483D01*
X446240Y864512D01*
X446222Y864539D01*
X446207Y864569D01*
X446190Y864598D01*
X446177Y864629D01*
X446163Y864659D01*
X446002Y865045D01*
X445992Y865077D01*
X445979Y865108D01*
X445970Y865140D01*
X445960Y865172D01*
X445953Y865204D01*
X445945Y865237D01*
X445863Y865647D01*
X445858Y865680D01*
X445852Y865713D01*
X445850Y865746D01*
X445845Y865779D01*
Y865812D01*
X445843Y865846D01*
Y866055D01*
Y866055D01*
Y871305D01*
Y871514D01*
X445845Y871548D01*
Y871581D01*
X445850Y871614D01*
X445852Y871647D01*
X445858Y871680D01*
X445863Y871713D01*
X445945Y872123D01*
X445953Y872156D01*
X445960Y872188D01*
X445970Y872220D01*
X445979Y872252D01*
X445992Y872283D01*
X446002Y872314D01*
X446163Y872701D01*
X446177Y872731D01*
X446190Y872762D01*
X446207Y872791D01*
X446222Y872821D01*
X446240Y872848D01*
X446257Y872877D01*
X446489Y873225D01*
X446510Y873252D01*
X446528Y873279D01*
X446550Y873304D01*
X446570Y873331D01*
X446594Y873355D01*
X446616Y873380D01*
X446912Y873676D01*
X446937Y873698D01*
X446960Y873721D01*
X446987Y873741D01*
X447012Y873763D01*
X447040Y873782D01*
X447066Y873802D01*
X447414Y874035D01*
X447443Y874051D01*
X447471Y874070D01*
X447501Y874085D01*
X447529Y874101D01*
X447560Y874114D01*
X447590Y874129D01*
X447977Y874289D01*
X448009Y874300D01*
X448039Y874312D01*
X448071Y874321D01*
X448103Y874332D01*
X448136Y874338D01*
X448168Y874347D01*
X448578Y874429D01*
X448611Y874433D01*
X448644Y874439D01*
X448677Y874442D01*
X448711Y874446D01*
X448744D01*
X448777Y874448D01*
X459729D01*
X459862Y874439D01*
X459993Y874414D01*
X460119Y874371D01*
X460238Y874312D01*
X460349Y874238D01*
X460449Y874150D01*
X460537Y874050D01*
X460611Y873939D01*
X460670Y873820D01*
X460713Y873693D01*
X460739Y873563D01*
X460747Y873436D01*
X461452Y874147D01*
X461454Y874148D01*
X461455Y874150D01*
X461505Y874193D01*
X461552Y874235D01*
X461554Y874237D01*
X461555Y874238D01*
X461609Y874274D01*
X461663Y874310D01*
X461665Y874311D01*
X461666Y874312D01*
X461723Y874340D01*
X461782Y874369D01*
X461784Y874370D01*
X461786Y874371D01*
X461847Y874391D01*
X461908Y874413D01*
X461910Y874413D01*
X461912Y874414D01*
X461978Y874427D01*
X462038Y874439D01*
X462040Y874439D01*
X462042Y874439D01*
X462112Y874444D01*
X462171Y874448D01*
X462173Y874448D01*
X462175Y874448D01*
X468816D01*
X468849Y874446D01*
D02*
G37*
G36*
X400901Y817610D02*
X400921D01*
X400951Y817600D01*
X400971D01*
X401001Y817590D01*
X401021Y817580D01*
X401051Y817570D01*
X401071Y817550D01*
X401091Y817540D01*
X401111Y817520D01*
X401131Y817510D01*
X401151Y817490D01*
X401171Y817470D01*
X401191Y817450D01*
X401211Y817430D01*
X401221Y817410D01*
X401241Y817390D01*
X401251Y817370D01*
X401271Y817350D01*
X401281Y817320D01*
X401291Y817300D01*
X401301Y817270D01*
Y817250D01*
X401311Y817220D01*
Y817200D01*
X401321Y817170D01*
Y801170D01*
X401311Y801140D01*
Y801120D01*
X401301Y801090D01*
Y801070D01*
X401291Y801040D01*
X401281Y801020D01*
X401271Y800990D01*
X401251Y800970D01*
X401241Y800950D01*
X401221Y800930D01*
X401211Y800910D01*
X401191Y800890D01*
X401171Y800870D01*
X401151Y800850D01*
X401131Y800830D01*
X401111Y800820D01*
X401091Y800800D01*
X401071Y800790D01*
X401051Y800770D01*
X401021Y800760D01*
X401001Y800750D01*
X400971Y800740D01*
X400951D01*
X400921Y800730D01*
X400901D01*
X400871Y800720D01*
X394371D01*
X394341Y800730D01*
X394321D01*
X394291Y800740D01*
X394271D01*
X394241Y800750D01*
X394221Y800760D01*
X394191Y800770D01*
X394171Y800790D01*
X394151Y800800D01*
X394131Y800820D01*
X394111Y800830D01*
X394091Y800850D01*
X394071Y800870D01*
X394051Y800890D01*
X394031Y800910D01*
X394021Y800930D01*
X394001Y800950D01*
X393991Y800970D01*
X393971Y800990D01*
X393961Y801020D01*
X393951Y801040D01*
X393941Y801070D01*
Y801090D01*
X393931Y801120D01*
Y801140D01*
X393921Y801170D01*
Y817170D01*
X393931Y817200D01*
Y817220D01*
X393941Y817250D01*
Y817270D01*
X393951Y817300D01*
X393961Y817320D01*
X393971Y817350D01*
X393991Y817370D01*
X394001Y817390D01*
X394021Y817410D01*
X394031Y817430D01*
X394051Y817450D01*
X394071Y817470D01*
X394091Y817490D01*
X394111Y817510D01*
X394131Y817520D01*
X394151Y817540D01*
X394171Y817550D01*
X394191Y817570D01*
X394221Y817580D01*
X394241Y817590D01*
X394271Y817600D01*
X394291D01*
X394321Y817610D01*
X394341D01*
X394371Y817620D01*
X400871D01*
X400901Y817610D01*
D02*
G37*
G36*
X388201D02*
X388221D01*
X388251Y817600D01*
X388271D01*
X388301Y817590D01*
X388321Y817580D01*
X388351Y817570D01*
X388371Y817550D01*
X388391Y817540D01*
X388411Y817520D01*
X388431Y817510D01*
X388451Y817490D01*
X388471Y817470D01*
X388491Y817450D01*
X388511Y817430D01*
X388521Y817410D01*
X388541Y817390D01*
X388551Y817370D01*
X388571Y817350D01*
X388581Y817320D01*
X388591Y817300D01*
X388601Y817270D01*
Y817250D01*
X388611Y817220D01*
Y817200D01*
X388621Y817170D01*
Y801170D01*
X388611Y801140D01*
Y801120D01*
X388601Y801090D01*
Y801070D01*
X388591Y801040D01*
X388581Y801020D01*
X388571Y800990D01*
X388551Y800970D01*
X388541Y800950D01*
X388521Y800930D01*
X388511Y800910D01*
X388491Y800890D01*
X388471Y800870D01*
X388451Y800850D01*
X388431Y800830D01*
X388411Y800820D01*
X388391Y800800D01*
X388371Y800790D01*
X388351Y800770D01*
X388321Y800760D01*
X388301Y800750D01*
X388271Y800740D01*
X388251D01*
X388221Y800730D01*
X388201D01*
X388171Y800720D01*
X381671D01*
X381641Y800730D01*
X381621D01*
X381591Y800740D01*
X381571D01*
X381541Y800750D01*
X381521Y800760D01*
X381491Y800770D01*
X381471Y800790D01*
X381451Y800800D01*
X381431Y800820D01*
X381411Y800830D01*
X381391Y800850D01*
X381371Y800870D01*
X381351Y800890D01*
X381331Y800910D01*
X381321Y800930D01*
X381301Y800950D01*
X381291Y800970D01*
X381271Y800990D01*
X381261Y801020D01*
X381251Y801040D01*
X381241Y801070D01*
Y801090D01*
X381231Y801120D01*
Y801140D01*
X381221Y801170D01*
Y817170D01*
X381231Y817200D01*
Y817220D01*
X381241Y817250D01*
Y817270D01*
X381251Y817300D01*
X381261Y817320D01*
X381271Y817350D01*
X381291Y817370D01*
X381301Y817390D01*
X381321Y817410D01*
X381331Y817430D01*
X381351Y817450D01*
X381371Y817470D01*
X381391Y817490D01*
X381411Y817510D01*
X381431Y817520D01*
X381451Y817540D01*
X381471Y817550D01*
X381491Y817570D01*
X381521Y817580D01*
X381541Y817590D01*
X381571Y817600D01*
X381591D01*
X381621Y817610D01*
X381641D01*
X381671Y817620D01*
X388171D01*
X388201Y817610D01*
D02*
G37*
G36*
X375501D02*
X375521D01*
X375551Y817600D01*
X375571D01*
X375601Y817590D01*
X375621Y817580D01*
X375651Y817570D01*
X375671Y817550D01*
X375691Y817540D01*
X375711Y817520D01*
X375731Y817510D01*
X375751Y817490D01*
X375771Y817470D01*
X375791Y817450D01*
X375811Y817430D01*
X375821Y817410D01*
X375841Y817390D01*
X375851Y817370D01*
X375871Y817350D01*
X375881Y817320D01*
X375891Y817300D01*
X375901Y817270D01*
Y817250D01*
X375911Y817220D01*
Y817200D01*
X375921Y817170D01*
Y801170D01*
X375911Y801140D01*
Y801120D01*
X375901Y801090D01*
Y801070D01*
X375891Y801040D01*
X375881Y801020D01*
X375871Y800990D01*
X375851Y800970D01*
X375841Y800950D01*
X375821Y800930D01*
X375811Y800910D01*
X375791Y800890D01*
X375771Y800870D01*
X375751Y800850D01*
X375731Y800830D01*
X375711Y800820D01*
X375691Y800800D01*
X375671Y800790D01*
X375651Y800770D01*
X375621Y800760D01*
X375601Y800750D01*
X375571Y800740D01*
X375551D01*
X375521Y800730D01*
X375501D01*
X375471Y800720D01*
X368971D01*
X368941Y800730D01*
X368921D01*
X368891Y800740D01*
X368871D01*
X368841Y800750D01*
X368821Y800760D01*
X368791Y800770D01*
X368771Y800790D01*
X368751Y800800D01*
X368731Y800820D01*
X368711Y800830D01*
X368691Y800850D01*
X368671Y800870D01*
X368651Y800890D01*
X368631Y800910D01*
X368621Y800930D01*
X368601Y800950D01*
X368591Y800970D01*
X368571Y800990D01*
X368561Y801020D01*
X368551Y801040D01*
X368541Y801070D01*
Y801090D01*
X368531Y801120D01*
Y801140D01*
X368521Y801170D01*
Y817170D01*
X368531Y817200D01*
Y817220D01*
X368541Y817250D01*
Y817270D01*
X368551Y817300D01*
X368561Y817320D01*
X368571Y817350D01*
X368591Y817370D01*
X368601Y817390D01*
X368621Y817410D01*
X368631Y817430D01*
X368651Y817450D01*
X368671Y817470D01*
X368691Y817490D01*
X368711Y817510D01*
X368731Y817520D01*
X368751Y817540D01*
X368771Y817550D01*
X368791Y817570D01*
X368821Y817580D01*
X368841Y817590D01*
X368871Y817600D01*
X368891D01*
X368921Y817610D01*
X368941D01*
X368971Y817620D01*
X375471D01*
X375501Y817610D01*
D02*
G37*
G36*
X362801D02*
X362821D01*
X362851Y817600D01*
X362871D01*
X362901Y817590D01*
X362921Y817580D01*
X362951Y817570D01*
X362971Y817550D01*
X362991Y817540D01*
X363011Y817520D01*
X363031Y817510D01*
X363051Y817490D01*
X363071Y817470D01*
X363091Y817450D01*
X363111Y817430D01*
X363121Y817410D01*
X363141Y817390D01*
X363151Y817370D01*
X363171Y817350D01*
X363181Y817320D01*
X363191Y817300D01*
X363201Y817270D01*
Y817250D01*
X363211Y817220D01*
Y817200D01*
X363221Y817170D01*
Y801170D01*
X363211Y801140D01*
Y801120D01*
X363201Y801090D01*
Y801070D01*
X363191Y801040D01*
X363181Y801020D01*
X363171Y800990D01*
X363151Y800970D01*
X363141Y800950D01*
X363121Y800930D01*
X363111Y800910D01*
X363091Y800890D01*
X363071Y800870D01*
X363051Y800850D01*
X363031Y800830D01*
X363011Y800820D01*
X362991Y800800D01*
X362971Y800790D01*
X362951Y800770D01*
X362921Y800760D01*
X362901Y800750D01*
X362871Y800740D01*
X362851D01*
X362821Y800730D01*
X362801D01*
X362771Y800720D01*
X356271D01*
X356241Y800730D01*
X356221D01*
X356191Y800740D01*
X356171D01*
X356141Y800750D01*
X356121Y800760D01*
X356091Y800770D01*
X356071Y800790D01*
X356051Y800800D01*
X356031Y800820D01*
X356011Y800830D01*
X355991Y800850D01*
X355971Y800870D01*
X355951Y800890D01*
X355931Y800910D01*
X355921Y800930D01*
X355901Y800950D01*
X355891Y800970D01*
X355871Y800990D01*
X355861Y801020D01*
X355851Y801040D01*
X355841Y801070D01*
Y801090D01*
X355831Y801120D01*
Y801140D01*
X355821Y801170D01*
Y817170D01*
X355831Y817200D01*
Y817220D01*
X355841Y817250D01*
Y817270D01*
X355851Y817300D01*
X355861Y817320D01*
X355871Y817350D01*
X355891Y817370D01*
X355901Y817390D01*
X355921Y817410D01*
X355931Y817430D01*
X355951Y817450D01*
X355971Y817470D01*
X355991Y817490D01*
X356011Y817510D01*
X356031Y817520D01*
X356051Y817540D01*
X356071Y817550D01*
X356091Y817570D01*
X356121Y817580D01*
X356141Y817590D01*
X356171Y817600D01*
X356191D01*
X356221Y817610D01*
X356241D01*
X356271Y817620D01*
X362771D01*
X362801Y817610D01*
D02*
G37*
G36*
X394071Y769170D02*
X363071D01*
Y795170D01*
X394071D01*
Y769170D01*
D02*
G37*
G36*
X400901Y763610D02*
X400921D01*
X400951Y763600D01*
X400971D01*
X401001Y763590D01*
X401021Y763580D01*
X401051Y763570D01*
X401071Y763550D01*
X401091Y763540D01*
X401111Y763520D01*
X401131Y763510D01*
X401151Y763490D01*
X401171Y763470D01*
X401191Y763450D01*
X401211Y763430D01*
X401221Y763410D01*
X401241Y763390D01*
X401251Y763370D01*
X401271Y763350D01*
X401281Y763320D01*
X401291Y763300D01*
X401301Y763270D01*
Y763250D01*
X401311Y763220D01*
Y763200D01*
X401321Y763170D01*
Y747170D01*
X401311Y747140D01*
Y747120D01*
X401301Y747090D01*
Y747070D01*
X401291Y747040D01*
X401281Y747020D01*
X401271Y746990D01*
X401251Y746970D01*
X401241Y746950D01*
X401221Y746930D01*
X401211Y746910D01*
X401191Y746890D01*
X401171Y746870D01*
X401151Y746850D01*
X401131Y746830D01*
X401111Y746820D01*
X401091Y746800D01*
X401071Y746790D01*
X401051Y746770D01*
X401021Y746760D01*
X401001Y746750D01*
X400971Y746740D01*
X400951D01*
X400921Y746730D01*
X400901D01*
X400871Y746720D01*
X394371D01*
X394341Y746730D01*
X394321D01*
X394291Y746740D01*
X394271D01*
X394241Y746750D01*
X394221Y746760D01*
X394191Y746770D01*
X394171Y746790D01*
X394151Y746800D01*
X394131Y746820D01*
X394111Y746830D01*
X394091Y746850D01*
X394071Y746870D01*
X394051Y746890D01*
X394031Y746910D01*
X394021Y746930D01*
X394001Y746950D01*
X393991Y746970D01*
X393971Y746990D01*
X393961Y747020D01*
X393951Y747040D01*
X393941Y747070D01*
Y747090D01*
X393931Y747120D01*
Y747140D01*
X393921Y747170D01*
Y763170D01*
X393931Y763200D01*
Y763220D01*
X393941Y763250D01*
Y763270D01*
X393951Y763300D01*
X393961Y763320D01*
X393971Y763350D01*
X393991Y763370D01*
X394001Y763390D01*
X394021Y763410D01*
X394031Y763430D01*
X394051Y763450D01*
X394071Y763470D01*
X394091Y763490D01*
X394111Y763510D01*
X394131Y763520D01*
X394151Y763540D01*
X394171Y763550D01*
X394191Y763570D01*
X394221Y763580D01*
X394241Y763590D01*
X394271Y763600D01*
X394291D01*
X394321Y763610D01*
X394341D01*
X394371Y763620D01*
X400871D01*
X400901Y763610D01*
D02*
G37*
G36*
X388201D02*
X388221D01*
X388251Y763600D01*
X388271D01*
X388301Y763590D01*
X388321Y763580D01*
X388351Y763570D01*
X388371Y763550D01*
X388391Y763540D01*
X388411Y763520D01*
X388431Y763510D01*
X388451Y763490D01*
X388471Y763470D01*
X388491Y763450D01*
X388511Y763430D01*
X388521Y763410D01*
X388541Y763390D01*
X388551Y763370D01*
X388571Y763350D01*
X388581Y763320D01*
X388591Y763300D01*
X388601Y763270D01*
Y763250D01*
X388611Y763220D01*
Y763200D01*
X388621Y763170D01*
Y747170D01*
X388611Y747140D01*
Y747120D01*
X388601Y747090D01*
Y747070D01*
X388591Y747040D01*
X388581Y747020D01*
X388571Y746990D01*
X388551Y746970D01*
X388541Y746950D01*
X388521Y746930D01*
X388511Y746910D01*
X388491Y746890D01*
X388471Y746870D01*
X388451Y746850D01*
X388431Y746830D01*
X388411Y746820D01*
X388391Y746800D01*
X388371Y746790D01*
X388351Y746770D01*
X388321Y746760D01*
X388301Y746750D01*
X388271Y746740D01*
X388251D01*
X388221Y746730D01*
X388201D01*
X388171Y746720D01*
X381671D01*
X381641Y746730D01*
X381621D01*
X381591Y746740D01*
X381571D01*
X381541Y746750D01*
X381521Y746760D01*
X381491Y746770D01*
X381471Y746790D01*
X381451Y746800D01*
X381431Y746820D01*
X381411Y746830D01*
X381391Y746850D01*
X381371Y746870D01*
X381351Y746890D01*
X381331Y746910D01*
X381321Y746930D01*
X381301Y746950D01*
X381291Y746970D01*
X381271Y746990D01*
X381261Y747020D01*
X381251Y747040D01*
X381241Y747070D01*
Y747090D01*
X381231Y747120D01*
Y747140D01*
X381221Y747170D01*
Y763170D01*
X381231Y763200D01*
Y763220D01*
X381241Y763250D01*
Y763270D01*
X381251Y763300D01*
X381261Y763320D01*
X381271Y763350D01*
X381291Y763370D01*
X381301Y763390D01*
X381321Y763410D01*
X381331Y763430D01*
X381351Y763450D01*
X381371Y763470D01*
X381391Y763490D01*
X381411Y763510D01*
X381431Y763520D01*
X381451Y763540D01*
X381471Y763550D01*
X381491Y763570D01*
X381521Y763580D01*
X381541Y763590D01*
X381571Y763600D01*
X381591D01*
X381621Y763610D01*
X381641D01*
X381671Y763620D01*
X388171D01*
X388201Y763610D01*
D02*
G37*
G36*
X375501D02*
X375521D01*
X375551Y763600D01*
X375571D01*
X375601Y763590D01*
X375621Y763580D01*
X375651Y763570D01*
X375671Y763550D01*
X375691Y763540D01*
X375711Y763520D01*
X375731Y763510D01*
X375751Y763490D01*
X375771Y763470D01*
X375791Y763450D01*
X375811Y763430D01*
X375821Y763410D01*
X375841Y763390D01*
X375851Y763370D01*
X375871Y763350D01*
X375881Y763320D01*
X375891Y763300D01*
X375901Y763270D01*
Y763250D01*
X375911Y763220D01*
Y763200D01*
X375921Y763170D01*
Y747170D01*
X375911Y747140D01*
Y747120D01*
X375901Y747090D01*
Y747070D01*
X375891Y747040D01*
X375881Y747020D01*
X375871Y746990D01*
X375851Y746970D01*
X375841Y746950D01*
X375821Y746930D01*
X375811Y746910D01*
X375791Y746890D01*
X375771Y746870D01*
X375751Y746850D01*
X375731Y746830D01*
X375711Y746820D01*
X375691Y746800D01*
X375671Y746790D01*
X375651Y746770D01*
X375621Y746760D01*
X375601Y746750D01*
X375571Y746740D01*
X375551D01*
X375521Y746730D01*
X375501D01*
X375471Y746720D01*
X368971D01*
X368941Y746730D01*
X368921D01*
X368891Y746740D01*
X368871D01*
X368841Y746750D01*
X368821Y746760D01*
X368791Y746770D01*
X368771Y746790D01*
X368751Y746800D01*
X368731Y746820D01*
X368711Y746830D01*
X368691Y746850D01*
X368671Y746870D01*
X368651Y746890D01*
X368631Y746910D01*
X368621Y746930D01*
X368601Y746950D01*
X368591Y746970D01*
X368571Y746990D01*
X368561Y747020D01*
X368551Y747040D01*
X368541Y747070D01*
Y747090D01*
X368531Y747120D01*
Y747140D01*
X368521Y747170D01*
Y763170D01*
X368531Y763200D01*
Y763220D01*
X368541Y763250D01*
Y763270D01*
X368551Y763300D01*
X368561Y763320D01*
X368571Y763350D01*
X368591Y763370D01*
X368601Y763390D01*
X368621Y763410D01*
X368631Y763430D01*
X368651Y763450D01*
X368671Y763470D01*
X368691Y763490D01*
X368711Y763510D01*
X368731Y763520D01*
X368751Y763540D01*
X368771Y763550D01*
X368791Y763570D01*
X368821Y763580D01*
X368841Y763590D01*
X368871Y763600D01*
X368891D01*
X368921Y763610D01*
X368941D01*
X368971Y763620D01*
X375471D01*
X375501Y763610D01*
D02*
G37*
G36*
X362801D02*
X362821D01*
X362851Y763600D01*
X362871D01*
X362901Y763590D01*
X362921Y763580D01*
X362951Y763570D01*
X362971Y763550D01*
X362991Y763540D01*
X363011Y763520D01*
X363031Y763510D01*
X363051Y763490D01*
X363071Y763470D01*
X363091Y763450D01*
X363111Y763430D01*
X363121Y763410D01*
X363141Y763390D01*
X363151Y763370D01*
X363171Y763350D01*
X363181Y763320D01*
X363191Y763300D01*
X363201Y763270D01*
Y763250D01*
X363211Y763220D01*
Y763200D01*
X363221Y763170D01*
Y747170D01*
X363211Y747140D01*
Y747120D01*
X363201Y747090D01*
Y747070D01*
X363191Y747040D01*
X363181Y747020D01*
X363171Y746990D01*
X363151Y746970D01*
X363141Y746950D01*
X363121Y746930D01*
X363111Y746910D01*
X363091Y746890D01*
X363071Y746870D01*
X363051Y746850D01*
X363031Y746830D01*
X363011Y746820D01*
X362991Y746800D01*
X362971Y746790D01*
X362951Y746770D01*
X362921Y746760D01*
X362901Y746750D01*
X362871Y746740D01*
X362851D01*
X362821Y746730D01*
X362801D01*
X362771Y746720D01*
X356271D01*
X356241Y746730D01*
X356221D01*
X356191Y746740D01*
X356171D01*
X356141Y746750D01*
X356121Y746760D01*
X356091Y746770D01*
X356071Y746790D01*
X356051Y746800D01*
X356031Y746820D01*
X356011Y746830D01*
X355991Y746850D01*
X355971Y746870D01*
X355951Y746890D01*
X355931Y746910D01*
X355921Y746930D01*
X355901Y746950D01*
X355891Y746970D01*
X355871Y746990D01*
X355861Y747020D01*
X355851Y747040D01*
X355841Y747070D01*
Y747090D01*
X355831Y747120D01*
Y747140D01*
X355821Y747170D01*
Y763170D01*
X355831Y763200D01*
Y763220D01*
X355841Y763250D01*
Y763270D01*
X355851Y763300D01*
X355861Y763320D01*
X355871Y763350D01*
X355891Y763370D01*
X355901Y763390D01*
X355921Y763410D01*
X355931Y763430D01*
X355951Y763450D01*
X355971Y763470D01*
X355991Y763490D01*
X356011Y763510D01*
X356031Y763520D01*
X356051Y763540D01*
X356071Y763550D01*
X356091Y763570D01*
X356121Y763580D01*
X356141Y763590D01*
X356171Y763600D01*
X356191D01*
X356221Y763610D01*
X356241D01*
X356271Y763620D01*
X362771D01*
X362801Y763610D01*
D02*
G37*
G36*
X593758Y210606D02*
X593791D01*
X593824Y210602D01*
X593857Y210599D01*
X593890Y210593D01*
X593923Y210589D01*
X594333Y210507D01*
X594366Y210498D01*
X594398Y210492D01*
X594430Y210481D01*
X594462Y210473D01*
X594493Y210460D01*
X594524Y210449D01*
X594911Y210289D01*
X594941Y210274D01*
X594972Y210261D01*
X595001Y210245D01*
X595031Y210230D01*
X595058Y210211D01*
X595087Y210195D01*
X595435Y209962D01*
X595462Y209942D01*
X595489Y209923D01*
X595514Y209902D01*
X595541Y209881D01*
X595565Y209857D01*
X595590Y209835D01*
X595886Y209540D01*
X595908Y209514D01*
X595931Y209491D01*
X595951Y209465D01*
X595973Y209439D01*
X595992Y209412D01*
X596012Y209385D01*
X596245Y209037D01*
X596261Y209008D01*
X596280Y208981D01*
X596295Y208951D01*
X596311Y208922D01*
X596324Y208891D01*
X596339Y208861D01*
X596499Y208475D01*
X596510Y208443D01*
X596522Y208412D01*
X596531Y208380D01*
X596542Y208348D01*
X596548Y208316D01*
X596557Y208284D01*
X596639Y207873D01*
X596643Y207840D01*
X596650Y207807D01*
X596652Y207774D01*
X596656Y207741D01*
Y207708D01*
X596658Y207674D01*
Y207465D01*
Y201034D01*
X596658Y201032D01*
X596658Y201030D01*
X596654Y200963D01*
X596650Y200901D01*
X596649Y200899D01*
X596649Y200897D01*
X596636Y200833D01*
X596623Y200770D01*
X596623Y200769D01*
X596623Y200767D01*
X596601Y200705D01*
X596581Y200644D01*
X596580Y200643D01*
X596579Y200641D01*
X596549Y200581D01*
X596522Y200525D01*
X596521Y200523D01*
X596520Y200521D01*
X596483Y200466D01*
X596448Y200414D01*
X596446Y200413D01*
X596445Y200411D01*
X596402Y200361D01*
X596360Y200314D01*
X596358Y200313D01*
X596357Y200311D01*
X595598Y199557D01*
X595640Y199560D01*
X595773Y199551D01*
X595904Y199525D01*
X596030Y199483D01*
X596149Y199424D01*
X596260Y199350D01*
X596360Y199262D01*
X596448Y199162D01*
X596522Y199051D01*
X596581Y198932D01*
X596623Y198805D01*
X596650Y198675D01*
X596658Y198542D01*
X596658Y187845D01*
Y187636D01*
X596656Y187602D01*
Y187569D01*
X596652Y187536D01*
X596650Y187503D01*
X596643Y187470D01*
X596639Y187437D01*
X596557Y187027D01*
X596548Y186994D01*
X596542Y186962D01*
X596531Y186930D01*
X596522Y186898D01*
X596510Y186867D01*
X596499Y186836D01*
X596339Y186449D01*
X596324Y186419D01*
X596311Y186388D01*
X596295Y186359D01*
X596280Y186329D01*
X596261Y186302D01*
X596245Y186273D01*
X596012Y185925D01*
X595992Y185898D01*
X595973Y185871D01*
X595951Y185846D01*
X595931Y185819D01*
X595907Y185795D01*
X595886Y185770D01*
X595590Y185474D01*
X595564Y185452D01*
X595541Y185429D01*
X595515Y185409D01*
X595489Y185387D01*
X595462Y185368D01*
X595435Y185348D01*
X595087Y185115D01*
X595058Y185099D01*
X595031Y185080D01*
X595001Y185065D01*
X594972Y185049D01*
X594941Y185036D01*
X594911Y185021D01*
X594524Y184861D01*
X594493Y184850D01*
X594462Y184838D01*
X594430Y184829D01*
X594398Y184818D01*
X594366Y184812D01*
X594333Y184803D01*
X593923Y184721D01*
X593890Y184717D01*
X593857Y184711D01*
X593824Y184708D01*
X593791Y184704D01*
X593758D01*
X593724Y184702D01*
X588056D01*
X588022Y184704D01*
X587989D01*
X587956Y184708D01*
X587923Y184711D01*
X587890Y184717D01*
X587857Y184721D01*
X587447Y184803D01*
X587414Y184812D01*
X587382Y184818D01*
X587350Y184829D01*
X587318Y184838D01*
X587287Y184850D01*
X587256Y184861D01*
X586869Y185021D01*
X586839Y185036D01*
X586808Y185049D01*
X586779Y185065D01*
X586749Y185080D01*
X586722Y185099D01*
X586693Y185115D01*
X586345Y185348D01*
X586318Y185368D01*
X586291Y185387D01*
X586266Y185408D01*
X586239Y185429D01*
X586215Y185453D01*
X586190Y185474D01*
X585895Y185770D01*
X585872Y185796D01*
X585849Y185819D01*
X585829Y185845D01*
X585807Y185871D01*
X585788Y185898D01*
X585768Y185925D01*
X585535Y186273D01*
X585519Y186302D01*
X585500Y186329D01*
X585485Y186359D01*
X585469Y186388D01*
X585456Y186419D01*
X585441Y186449D01*
X585281Y186835D01*
X585270Y186867D01*
X585258Y186898D01*
X585249Y186930D01*
X585238Y186962D01*
X585232Y186994D01*
X585223Y187027D01*
X585141Y187437D01*
X585137Y187470D01*
X585131Y187503D01*
X585128Y187536D01*
X585124Y187569D01*
Y187602D01*
X585122Y187636D01*
Y187845D01*
Y187845D01*
Y198588D01*
X585131Y198721D01*
X585157Y198851D01*
X585199Y198978D01*
X585258Y199097D01*
X585332Y199208D01*
X585420Y199308D01*
X585520Y199396D01*
X585631Y199470D01*
X585750Y199529D01*
X585877Y199571D01*
X586007Y199597D01*
X586134Y199606D01*
X585423Y200311D01*
X585422Y200312D01*
X585420Y200314D01*
X585377Y200363D01*
X585335Y200411D01*
X585334Y200413D01*
X585332Y200414D01*
X585296Y200468D01*
X585260Y200521D01*
X585259Y200523D01*
X585258Y200525D01*
X585230Y200582D01*
X585201Y200641D01*
X585200Y200643D01*
X585199Y200644D01*
X585179Y200705D01*
X585158Y200767D01*
X585157Y200769D01*
X585157Y200770D01*
X585143Y200836D01*
X585131Y200897D01*
X585131Y200899D01*
X585131Y200901D01*
X585126Y200970D01*
X585122Y201030D01*
X585122Y201032D01*
X585122Y201034D01*
Y207465D01*
Y207674D01*
X585124Y207708D01*
Y207741D01*
X585128Y207774D01*
X585131Y207807D01*
X585137Y207840D01*
X585141Y207873D01*
X585223Y208284D01*
X585232Y208316D01*
X585238Y208348D01*
X585249Y208380D01*
X585258Y208412D01*
X585270Y208443D01*
X585281Y208474D01*
X585441Y208861D01*
X585456Y208891D01*
X585469Y208922D01*
X585485Y208951D01*
X585500Y208981D01*
X585519Y209008D01*
X585535Y209037D01*
X585768Y209385D01*
X585788Y209412D01*
X585807Y209439D01*
X585829Y209464D01*
X585849Y209491D01*
X585873Y209515D01*
X585895Y209540D01*
X586190Y209835D01*
X586216Y209858D01*
X586239Y209881D01*
X586265Y209901D01*
X586291Y209923D01*
X586318Y209942D01*
X586345Y209962D01*
X586693Y210195D01*
X586722Y210211D01*
X586749Y210230D01*
X586779Y210245D01*
X586808Y210261D01*
X586839Y210274D01*
X586869Y210289D01*
X587256Y210449D01*
X587287Y210460D01*
X587318Y210473D01*
X587350Y210481D01*
X587382Y210492D01*
X587414Y210498D01*
X587447Y210507D01*
X587857Y210589D01*
X587890Y210593D01*
X587923Y210599D01*
X587956Y210602D01*
X587989Y210606D01*
X588022D01*
X588056Y210608D01*
X593724D01*
X593758Y210606D01*
D02*
G37*
%LPC*%
G36*
X456445Y868706D02*
X456396Y868657D01*
X456448Y868605D01*
X456448Y868610D01*
X456443Y868676D01*
X456443Y868680D01*
X456443Y868684D01*
X456445Y868706D01*
D02*
G37*
G36*
X590965Y195307D02*
X590960Y195306D01*
X590894Y195302D01*
X590890Y195302D01*
X590886Y195302D01*
X590864Y195303D01*
X590913Y195255D01*
X590965Y195307D01*
D02*
G37*
%LPD*%
D50*
X197226Y489859D02*
D03*
X159126D02*
D03*
X171826D02*
D03*
X184526D02*
D03*
X197226Y544342D02*
D03*
X184526D02*
D03*
X171826D02*
D03*
X159126D02*
D03*
D55*
X142283Y151788D02*
D03*
X163111Y158288D02*
D03*
Y145288D02*
D03*
D56*
X464958Y62571D02*
D03*
D57*
X849580Y202500D02*
D03*
Y217500D02*
D03*
Y232500D02*
D03*
Y247500D02*
D03*
Y262500D02*
D03*
Y277500D02*
D03*
X849580Y660000D02*
D03*
Y675000D02*
D03*
Y690000D02*
D03*
Y705000D02*
D03*
Y720000D02*
D03*
X849580Y420000D02*
D03*
Y435000D02*
D03*
Y450000D02*
D03*
Y465000D02*
D03*
Y480000D02*
D03*
Y495000D02*
D03*
Y510000D02*
D03*
Y525000D02*
D03*
Y540000D02*
D03*
D58*
X431567Y632015D02*
D03*
X415567D02*
D03*
X423567D02*
D03*
X439567D02*
D03*
X399567Y568015D02*
D03*
Y576015D02*
D03*
Y616015D02*
D03*
Y624015D02*
D03*
Y632015D02*
D03*
X407567Y568015D02*
D03*
Y576015D02*
D03*
Y616015D02*
D03*
Y632015D02*
D03*
X415567Y576015D02*
D03*
Y584015D02*
D03*
Y616015D02*
D03*
Y624015D02*
D03*
X423567Y576015D02*
D03*
Y584015D02*
D03*
Y616015D02*
D03*
Y624015D02*
D03*
X431567Y568015D02*
D03*
Y576015D02*
D03*
Y584015D02*
D03*
Y616015D02*
D03*
Y624015D02*
D03*
X439567Y576015D02*
D03*
Y584015D02*
D03*
Y616015D02*
D03*
Y624015D02*
D03*
X447567Y568015D02*
D03*
Y576015D02*
D03*
Y584015D02*
D03*
Y616015D02*
D03*
Y624015D02*
D03*
Y632015D02*
D03*
X455567Y568015D02*
D03*
Y576015D02*
D03*
Y584015D02*
D03*
Y616015D02*
D03*
Y624015D02*
D03*
Y632015D02*
D03*
X463567Y568015D02*
D03*
Y576015D02*
D03*
Y584015D02*
D03*
Y616015D02*
D03*
Y624015D02*
D03*
Y632015D02*
D03*
X471567Y568015D02*
D03*
Y576015D02*
D03*
Y584015D02*
D03*
Y616015D02*
D03*
Y624015D02*
D03*
Y632015D02*
D03*
X479567Y568015D02*
D03*
Y576015D02*
D03*
Y616015D02*
D03*
Y624015D02*
D03*
X487567Y576015D02*
D03*
Y584015D02*
D03*
Y616015D02*
D03*
Y624015D02*
D03*
Y632015D02*
D03*
X495567Y576015D02*
D03*
Y584015D02*
D03*
Y616015D02*
D03*
Y624015D02*
D03*
Y632015D02*
D03*
X503567Y568015D02*
D03*
Y576015D02*
D03*
Y616015D02*
D03*
Y632015D02*
D03*
X511567Y568015D02*
D03*
Y576015D02*
D03*
Y616015D02*
D03*
Y624015D02*
D03*
Y632015D02*
D03*
Y584015D02*
D03*
X503567Y624015D02*
D03*
Y584015D02*
D03*
X495567Y568015D02*
D03*
X487567D02*
D03*
X479567Y632015D02*
D03*
Y584015D02*
D03*
X439567Y568015D02*
D03*
X423567D02*
D03*
X415567D02*
D03*
X407567Y624015D02*
D03*
Y584015D02*
D03*
X399567D02*
D03*
D59*
X209811Y840740D02*
D03*
X566681D02*
D03*
X424441D02*
D03*
D60*
X349095Y392453D02*
D03*
Y367453D02*
D03*
D61*
X489228Y791658D02*
D03*
X493720Y791629D02*
D03*
X489228Y810128D02*
D03*
X493720D02*
D03*
D62*
X484472Y791658D02*
D03*
X498471Y810128D02*
D03*
Y791629D02*
D03*
X484472Y810128D02*
D03*
D63*
X482722Y793658D02*
D03*
Y808128D02*
D03*
X500222Y808128D02*
D03*
Y793629D02*
D03*
D64*
X491461Y803388D02*
D03*
X491472Y798388D02*
D03*
D65*
X782150Y511810D02*
D03*
X772150D02*
D03*
X702150D02*
D03*
X692150D02*
D03*
X782150Y521810D02*
D03*
X692150D02*
D03*
X772150Y541810D02*
D03*
X762150D02*
D03*
X752150D02*
D03*
X742150D02*
D03*
X732150D02*
D03*
X722150D02*
D03*
X712150D02*
D03*
X702150D02*
D03*
X772150Y551810D02*
D03*
X762150D02*
D03*
X752150D02*
D03*
X742150D02*
D03*
X732150D02*
D03*
X722150D02*
D03*
X712150D02*
D03*
X702150D02*
D03*
X772150Y561810D02*
D03*
X762150D02*
D03*
X752150D02*
D03*
X742150D02*
D03*
X732150D02*
D03*
X722150D02*
D03*
X712150D02*
D03*
X702150D02*
D03*
X772150Y571810D02*
D03*
X762150D02*
D03*
X752150D02*
D03*
X742150D02*
D03*
X732150D02*
D03*
X722150D02*
D03*
X712150D02*
D03*
X702150D02*
D03*
X772150Y581810D02*
D03*
X762150D02*
D03*
X752150D02*
D03*
X742150D02*
D03*
X732150D02*
D03*
X722150D02*
D03*
X712150D02*
D03*
X702150D02*
D03*
X772150Y591810D02*
D03*
X762150D02*
D03*
X752150D02*
D03*
X742150D02*
D03*
X732150D02*
D03*
X722150D02*
D03*
X712150D02*
D03*
X702150D02*
D03*
X772150Y601810D02*
D03*
X762150D02*
D03*
X752150D02*
D03*
X742150D02*
D03*
X732150D02*
D03*
X722150D02*
D03*
X712150D02*
D03*
X702150D02*
D03*
X772150Y611810D02*
D03*
X762150D02*
D03*
X752150D02*
D03*
X742150D02*
D03*
X732150D02*
D03*
X722150D02*
D03*
X712150D02*
D03*
X702150D02*
D03*
X772150Y621810D02*
D03*
X762150D02*
D03*
X752150D02*
D03*
X742150D02*
D03*
X732150D02*
D03*
X722150D02*
D03*
X712150D02*
D03*
X702150D02*
D03*
X772150Y631810D02*
D03*
X762150D02*
D03*
X752150D02*
D03*
X742150D02*
D03*
X732150D02*
D03*
X722150D02*
D03*
X712150D02*
D03*
X702150D02*
D03*
X772150Y641810D02*
D03*
X762150D02*
D03*
X752150D02*
D03*
X742150D02*
D03*
X732150D02*
D03*
X722150D02*
D03*
X712150D02*
D03*
X702150D02*
D03*
X782150Y661810D02*
D03*
X692150D02*
D03*
X782150Y671810D02*
D03*
X772150D02*
D03*
X702150D02*
D03*
X692150D02*
D03*
D66*
X565490Y186040D02*
D03*
X555990Y209140D02*
D03*
X565490D02*
D03*
X574990D02*
D03*
Y186040D02*
D03*
X555990D02*
D03*
D67*
X341425Y267939D02*
D03*
X356925D02*
D03*
X341307Y253377D02*
D03*
X356807D02*
D03*
X357000Y282650D02*
D03*
X341500D02*
D03*
X357000Y296620D02*
D03*
X341500D02*
D03*
X357000Y191770D02*
D03*
X341500D02*
D03*
X357000Y173990D02*
D03*
X341500D02*
D03*
X357000Y156210D02*
D03*
X341500D02*
D03*
X357000Y138430D02*
D03*
X341500D02*
D03*
Y121920D02*
D03*
X357000D02*
D03*
X388522D02*
D03*
X373022D02*
D03*
X388522Y138430D02*
D03*
X373022D02*
D03*
Y156210D02*
D03*
X388522D02*
D03*
X373022Y173990D02*
D03*
X388522D02*
D03*
X373022Y191770D02*
D03*
X388522D02*
D03*
X404544D02*
D03*
X420044D02*
D03*
X451566D02*
D03*
X436066D02*
D03*
X467588D02*
D03*
X483088D02*
D03*
X514610D02*
D03*
X499110D02*
D03*
X467588Y173990D02*
D03*
X483088D02*
D03*
X451566D02*
D03*
X436066D02*
D03*
X404544D02*
D03*
X420044D02*
D03*
X404544Y156210D02*
D03*
X420044D02*
D03*
X451566D02*
D03*
X436066D02*
D03*
X404544Y138430D02*
D03*
X420044D02*
D03*
X372241Y833120D02*
D03*
X387741D02*
D03*
Y853440D02*
D03*
X372241D02*
D03*
X357000Y352500D02*
D03*
X341500D02*
D03*
X327750Y367221D02*
D03*
X312250D02*
D03*
X327750Y392453D02*
D03*
X312250D02*
D03*
X341500Y408792D02*
D03*
X357000D02*
D03*
X341500Y422762D02*
D03*
X357000D02*
D03*
X556130Y332740D02*
D03*
X571630D02*
D03*
X556130Y346710D02*
D03*
X571630D02*
D03*
X556130Y367030D02*
D03*
X571630D02*
D03*
X556130Y381000D02*
D03*
X571630D02*
D03*
Y394970D02*
D03*
X556130D02*
D03*
Y409170D02*
D03*
X571630D02*
D03*
X556130Y422910D02*
D03*
X571630D02*
D03*
Y436880D02*
D03*
X556130D02*
D03*
X775453Y96668D02*
D03*
X790953D02*
D03*
X808473D02*
D03*
X823973D02*
D03*
X556130Y287020D02*
D03*
X571630D02*
D03*
X183047Y159408D02*
D03*
X198547D02*
D03*
Y144168D02*
D03*
X183047D02*
D03*
X182917Y128928D02*
D03*
X198417D02*
D03*
X144973D02*
D03*
X160473D02*
D03*
X198547Y174648D02*
D03*
X183047D02*
D03*
X144973D02*
D03*
X160473D02*
D03*
D68*
X497000Y60320D02*
D03*
X433000D02*
D03*
D69*
X499250Y35820D02*
D03*
X430750D02*
D03*
D70*
X477000D02*
D03*
X453000D02*
D03*
D71*
X478000Y62570D02*
D03*
X471500D02*
D03*
X465000D02*
D03*
X458500D02*
D03*
X452000D02*
D03*
D72*
X557181Y793910D02*
D03*
X576181D02*
D03*
X566681Y813910D02*
D03*
D73*
X424441Y793620D02*
D03*
Y809120D02*
D03*
X209811Y802510D02*
D03*
Y818010D02*
D03*
Y765680D02*
D03*
Y781180D02*
D03*
X533661Y849760D02*
D03*
Y834260D02*
D03*
X511978Y849760D02*
D03*
Y834260D02*
D03*
X490544Y849760D02*
D03*
Y834260D02*
D03*
X468860Y834260D02*
D03*
Y849760D02*
D03*
X447426Y834260D02*
D03*
Y849760D02*
D03*
X578111Y751710D02*
D03*
Y767210D02*
D03*
X556521Y751710D02*
D03*
Y767210D02*
D03*
X533661D02*
D03*
Y751710D02*
D03*
X512071D02*
D03*
Y767210D02*
D03*
X490481Y751710D02*
D03*
Y767210D02*
D03*
X468891D02*
D03*
Y751710D02*
D03*
X447301Y767210D02*
D03*
Y751710D02*
D03*
X424441D02*
D03*
Y767210D02*
D03*
X331731Y771020D02*
D03*
Y755520D02*
D03*
X316230Y158880D02*
D03*
Y143380D02*
D03*
X298747Y159538D02*
D03*
Y144038D02*
D03*
X494030Y439550D02*
D03*
Y424050D02*
D03*
X480060D02*
D03*
Y439550D02*
D03*
X466090D02*
D03*
Y424050D02*
D03*
X452120D02*
D03*
Y439550D02*
D03*
X438150Y424050D02*
D03*
Y439550D02*
D03*
X424180Y424050D02*
D03*
Y439550D02*
D03*
X317500Y318080D02*
D03*
Y333580D02*
D03*
X800100Y476250D02*
D03*
Y460750D02*
D03*
X782139Y476250D02*
D03*
Y460750D02*
D03*
X764177Y476250D02*
D03*
Y460750D02*
D03*
X746216Y476250D02*
D03*
Y460750D02*
D03*
X728254Y476250D02*
D03*
Y460750D02*
D03*
X710293Y476250D02*
D03*
Y460750D02*
D03*
X692332Y476250D02*
D03*
Y460750D02*
D03*
X674370Y476250D02*
D03*
Y460750D02*
D03*
X557870Y233020D02*
D03*
Y248520D02*
D03*
X573110Y233020D02*
D03*
Y248520D02*
D03*
X588350Y233020D02*
D03*
Y248520D02*
D03*
Y160890D02*
D03*
Y145390D02*
D03*
X573110Y160890D02*
D03*
Y145390D02*
D03*
X557870Y160890D02*
D03*
Y145390D02*
D03*
X348260Y85210D02*
D03*
Y69710D02*
D03*
X348385Y52200D02*
D03*
Y36700D02*
D03*
X312406D02*
D03*
Y52200D02*
D03*
X312281Y69710D02*
D03*
Y85210D02*
D03*
X276427Y52200D02*
D03*
Y36700D02*
D03*
X276303Y69710D02*
D03*
Y85210D02*
D03*
X240324Y85210D02*
D03*
Y69710D02*
D03*
X240449Y36700D02*
D03*
Y52200D02*
D03*
X204470D02*
D03*
Y36700D02*
D03*
X204345Y85210D02*
D03*
Y69710D02*
D03*
X200636Y381530D02*
D03*
Y366030D02*
D03*
X186541Y381530D02*
D03*
Y366030D02*
D03*
X172571Y381530D02*
D03*
Y366030D02*
D03*
X158601Y381530D02*
D03*
Y366030D02*
D03*
X511474Y218435D02*
D03*
Y233935D02*
D03*
X497399Y218435D02*
D03*
Y233935D02*
D03*
X483429D02*
D03*
Y218435D02*
D03*
X469484Y218310D02*
D03*
Y233810D02*
D03*
X455514D02*
D03*
Y218310D02*
D03*
X441544Y218435D02*
D03*
Y233935D02*
D03*
X427574Y218435D02*
D03*
Y233935D02*
D03*
X413544Y218435D02*
D03*
Y233935D02*
D03*
X399634Y218435D02*
D03*
Y233935D02*
D03*
X385664Y218435D02*
D03*
Y233935D02*
D03*
X371694D02*
D03*
Y218435D02*
D03*
X200511Y223790D02*
D03*
Y239290D02*
D03*
X186541Y223790D02*
D03*
Y239290D02*
D03*
X172571Y223790D02*
D03*
Y239290D02*
D03*
X158601Y223790D02*
D03*
Y239290D02*
D03*
X199390Y569040D02*
D03*
Y584540D02*
D03*
X185420Y569040D02*
D03*
Y584540D02*
D03*
X171450D02*
D03*
Y569040D02*
D03*
X157480Y584540D02*
D03*
Y569040D02*
D03*
X199390Y450930D02*
D03*
Y466430D02*
D03*
X157355Y450930D02*
D03*
Y466430D02*
D03*
X171450D02*
D03*
Y450930D02*
D03*
X185420Y466430D02*
D03*
Y450930D02*
D03*
D74*
X248601Y824230D02*
D03*
X303101D02*
D03*
D75*
X255351Y763270D02*
D03*
X296351D02*
D03*
D76*
X378571Y782170D02*
D03*
D77*
X813050Y871480D02*
D03*
X646950D02*
D03*
D78*
X670000Y819580D02*
D03*
X685000D02*
D03*
X700000D02*
D03*
X715000D02*
D03*
X730000D02*
D03*
X745000D02*
D03*
X760000D02*
D03*
X775000D02*
D03*
X790000D02*
D03*
D79*
X901480Y743050D02*
D03*
Y636950D02*
D03*
X901480Y563050D02*
D03*
Y396950D02*
D03*
D80*
X160666Y266660D02*
D03*
X173366D02*
D03*
X186066D02*
D03*
X198766D02*
D03*
Y338660D02*
D03*
X186066D02*
D03*
X173366D02*
D03*
X160666D02*
D03*
D81*
X273917Y145438D02*
D03*
Y132738D02*
D03*
Y158138D02*
D03*
Y170838D02*
D03*
X224517D02*
D03*
Y158138D02*
D03*
Y145438D02*
D03*
Y132738D02*
D03*
D82*
X335210Y316830D02*
D03*
X358210Y334830D02*
D03*
X335210D02*
D03*
X358210Y316830D02*
D03*
D83*
X512691Y263390D02*
D03*
X504691D02*
D03*
X496690D02*
D03*
X488691D02*
D03*
X480691D02*
D03*
X472691D02*
D03*
X464691D02*
D03*
X456691D02*
D03*
X448690D02*
D03*
X440691D02*
D03*
X432691D02*
D03*
X424691D02*
D03*
X416691D02*
D03*
X408690D02*
D03*
X400691D02*
D03*
X520691Y271390D02*
D03*
X512691D02*
D03*
X504691D02*
D03*
X496690D02*
D03*
X488691D02*
D03*
X472691D02*
D03*
X464691D02*
D03*
X456691D02*
D03*
X448690D02*
D03*
X440691D02*
D03*
X432691D02*
D03*
X416691D02*
D03*
X408690D02*
D03*
X400691D02*
D03*
X392691D02*
D03*
X520691Y279390D02*
D03*
X512691D02*
D03*
X504691D02*
D03*
X496690D02*
D03*
X488691D02*
D03*
X480691D02*
D03*
X472691D02*
D03*
X464691D02*
D03*
X456691D02*
D03*
X440691D02*
D03*
X432691D02*
D03*
X424691D02*
D03*
X408690D02*
D03*
X400691D02*
D03*
X392691D02*
D03*
X520691Y287390D02*
D03*
X512691D02*
D03*
X504691D02*
D03*
X496690D02*
D03*
X488691D02*
D03*
X480691D02*
D03*
X472691D02*
D03*
X464691D02*
D03*
X456691D02*
D03*
X448690D02*
D03*
X440691D02*
D03*
X432691D02*
D03*
X424691D02*
D03*
X416691D02*
D03*
X408690D02*
D03*
X400691D02*
D03*
X520691Y295390D02*
D03*
X504691D02*
D03*
X496690D02*
D03*
X488691D02*
D03*
X480691D02*
D03*
X472691D02*
D03*
X464691D02*
D03*
X456691D02*
D03*
X448690D02*
D03*
X440691D02*
D03*
X432691D02*
D03*
X424691D02*
D03*
X416691D02*
D03*
X408690D02*
D03*
X400691D02*
D03*
X520691Y303390D02*
D03*
X512691D02*
D03*
X496690D02*
D03*
X488691D02*
D03*
X424691D02*
D03*
X416691D02*
D03*
X408690D02*
D03*
X400691D02*
D03*
X392691D02*
D03*
X520691Y311390D02*
D03*
X512691D02*
D03*
X496690D02*
D03*
X488691D02*
D03*
X424691D02*
D03*
X416691D02*
D03*
X408690D02*
D03*
X392691D02*
D03*
X520691Y319390D02*
D03*
X512691D02*
D03*
X496690D02*
D03*
X488691D02*
D03*
X424691D02*
D03*
X416691D02*
D03*
X408690D02*
D03*
X400691D02*
D03*
X392691D02*
D03*
X504691Y327390D02*
D03*
X496690D02*
D03*
X488691D02*
D03*
X424691D02*
D03*
X416691D02*
D03*
X400691D02*
D03*
X392691D02*
D03*
X520691Y335390D02*
D03*
X512691D02*
D03*
X504691D02*
D03*
X496690D02*
D03*
X488691D02*
D03*
X424691D02*
D03*
X416691D02*
D03*
X408690D02*
D03*
X400691D02*
D03*
X392691D02*
D03*
X520691Y343390D02*
D03*
X504691D02*
D03*
X496690D02*
D03*
X488691D02*
D03*
X424691D02*
D03*
X416691D02*
D03*
X408690D02*
D03*
X400691D02*
D03*
X392691D02*
D03*
X520691Y351390D02*
D03*
X512691D02*
D03*
X504691D02*
D03*
X496690D02*
D03*
X488691D02*
D03*
X424691D02*
D03*
X416691D02*
D03*
X408690D02*
D03*
X392691D02*
D03*
X520691Y359390D02*
D03*
X512691D02*
D03*
X504691D02*
D03*
X496690D02*
D03*
X488691D02*
D03*
X480691D02*
D03*
X472691D02*
D03*
X464691D02*
D03*
X456691D02*
D03*
X448690D02*
D03*
X440691D02*
D03*
X432691D02*
D03*
X424691D02*
D03*
X416691D02*
D03*
X408690D02*
D03*
X400691D02*
D03*
X392691D02*
D03*
X520691Y367390D02*
D03*
X512691D02*
D03*
X504691D02*
D03*
X496690D02*
D03*
X488691D02*
D03*
X480691D02*
D03*
X472691D02*
D03*
X464691D02*
D03*
X456691D02*
D03*
X448690D02*
D03*
X440691D02*
D03*
X432691D02*
D03*
X424691D02*
D03*
X416691D02*
D03*
X408690D02*
D03*
X400691D02*
D03*
X392691D02*
D03*
X520691Y375390D02*
D03*
X504691D02*
D03*
X496690D02*
D03*
X480691D02*
D03*
X472691D02*
D03*
X456691D02*
D03*
X448690D02*
D03*
X440691D02*
D03*
X432691D02*
D03*
X424691D02*
D03*
X416691D02*
D03*
X408690D02*
D03*
X400691D02*
D03*
X392691D02*
D03*
X520691Y383390D02*
D03*
X512691D02*
D03*
X504691D02*
D03*
X496690D02*
D03*
X488691D02*
D03*
X480691D02*
D03*
X472691D02*
D03*
X464691D02*
D03*
X456691D02*
D03*
X448690D02*
D03*
X440691D02*
D03*
X424691D02*
D03*
X416691D02*
D03*
X408690D02*
D03*
X392691D02*
D03*
X512691Y391390D02*
D03*
X504691D02*
D03*
X496690D02*
D03*
X488691D02*
D03*
X480691D02*
D03*
X472691D02*
D03*
X464691D02*
D03*
X456691D02*
D03*
X448690D02*
D03*
X440691D02*
D03*
X432691D02*
D03*
X424691D02*
D03*
X416691D02*
D03*
X408690D02*
D03*
X400691D02*
D03*
X392691D02*
D03*
X520691D02*
D03*
X400691Y383390D02*
D03*
X432691D02*
D03*
X464691Y375390D02*
D03*
X488691D02*
D03*
X512691D02*
D03*
X400691Y351390D02*
D03*
X440691Y343390D02*
D03*
X448690D02*
D03*
X456691D02*
D03*
X464691D02*
D03*
X472691D02*
D03*
X512691D02*
D03*
X440691Y335390D02*
D03*
X448690D02*
D03*
X456691D02*
D03*
X464691D02*
D03*
X472691D02*
D03*
X408690Y327390D02*
D03*
X440691D02*
D03*
X448690D02*
D03*
X456691D02*
D03*
X464691D02*
D03*
X472691D02*
D03*
X512691D02*
D03*
X520691D02*
D03*
X440691Y319390D02*
D03*
X448690D02*
D03*
X456691D02*
D03*
X464691D02*
D03*
X472691D02*
D03*
X504691D02*
D03*
X440691Y311390D02*
D03*
X448690D02*
D03*
X456691D02*
D03*
X464691D02*
D03*
X472691D02*
D03*
X504691D02*
D03*
Y303390D02*
D03*
X392691Y295390D02*
D03*
X512691D02*
D03*
X392691Y287390D02*
D03*
X416691Y279390D02*
D03*
X448690D02*
D03*
X480691Y271390D02*
D03*
X392691Y263390D02*
D03*
X520691D02*
D03*
X424691Y271390D02*
D03*
X400691Y311390D02*
D03*
D84*
X640000Y41864D02*
D03*
X720000D02*
D03*
X700000D02*
D03*
X680000D02*
D03*
X660000D02*
D03*
D85*
X764819Y63140D02*
D03*
X834819D02*
D03*
D86*
X61100Y291200D02*
D03*
Y316600D02*
D03*
X35700D02*
D03*
X61100Y342000D02*
D03*
X35700D02*
D03*
X61100Y367400D02*
D03*
X35700D02*
D03*
X61100Y392800D02*
D03*
X35700D02*
D03*
X61100Y418200D02*
D03*
X35700Y443600D02*
D03*
Y418200D02*
D03*
Y469000D02*
D03*
X61100Y443600D02*
D03*
Y469000D02*
D03*
Y545200D02*
D03*
X35700D02*
D03*
X61100Y570600D02*
D03*
Y596000D02*
D03*
X35700D02*
D03*
Y570600D02*
D03*
Y621400D02*
D03*
X61100D02*
D03*
Y646800D02*
D03*
X35700D02*
D03*
X61100Y672200D02*
D03*
X35700D02*
D03*
X61100Y697600D02*
D03*
X35700D02*
D03*
X61100Y748400D02*
D03*
X35700D02*
D03*
X61100Y773800D02*
D03*
X35700D02*
D03*
Y138800D02*
D03*
X61100Y164200D02*
D03*
X35700D02*
D03*
X61100Y189600D02*
D03*
X35700D02*
D03*
X61100Y215000D02*
D03*
X35700D02*
D03*
X61100Y240400D02*
D03*
Y265800D02*
D03*
X35700D02*
D03*
Y291200D02*
D03*
Y240400D02*
D03*
Y723000D02*
D03*
X61100D02*
D03*
X35700Y519800D02*
D03*
X61100D02*
D03*
X35700Y494400D02*
D03*
X61100D02*
D03*
X111900Y164200D02*
D03*
X86500Y646800D02*
D03*
Y672200D02*
D03*
X111900D02*
D03*
Y646800D02*
D03*
Y291200D02*
D03*
Y316600D02*
D03*
X86500D02*
D03*
X111900Y342000D02*
D03*
X86500D02*
D03*
X111900Y367400D02*
D03*
X86500D02*
D03*
X111900Y392800D02*
D03*
X86500D02*
D03*
X111900Y418200D02*
D03*
X86500Y443600D02*
D03*
Y418200D02*
D03*
Y469000D02*
D03*
X111900Y443600D02*
D03*
Y469000D02*
D03*
Y494400D02*
D03*
X86500D02*
D03*
X111900Y519800D02*
D03*
X86500D02*
D03*
X111900Y545200D02*
D03*
X86500D02*
D03*
X111900Y570600D02*
D03*
Y596000D02*
D03*
X86500D02*
D03*
Y570600D02*
D03*
Y621400D02*
D03*
X111900D02*
D03*
Y697600D02*
D03*
X86500D02*
D03*
X111900Y723000D02*
D03*
X86500D02*
D03*
X111900Y748400D02*
D03*
X86500D02*
D03*
X111900Y773800D02*
D03*
X86500D02*
D03*
Y138800D02*
D03*
Y164200D02*
D03*
X111900Y189600D02*
D03*
X86500D02*
D03*
X111900Y215000D02*
D03*
X86500D02*
D03*
X111900Y240400D02*
D03*
Y265800D02*
D03*
X86500D02*
D03*
Y291200D02*
D03*
Y240400D02*
D03*
D87*
X61100Y138800D02*
D03*
X111900D02*
D03*
D88*
X629666Y119126D02*
D03*
X705866D02*
D03*
X655066Y93726D02*
D03*
Y119126D02*
D03*
X680466Y93726D02*
D03*
Y119126D02*
D03*
X705866Y93726D02*
D03*
X731266D02*
D03*
X629666D02*
D03*
D89*
X731266Y119126D02*
D03*
D90*
X893000Y50000D02*
D03*
Y850000D02*
D03*
X35700Y88000D02*
D03*
Y824600D02*
D03*
D91*
X893000Y73250D02*
D03*
X869750Y50000D02*
D03*
X893000Y27140D02*
D03*
X916250Y50000D02*
D03*
X909440Y66440D02*
D03*
X876560Y33560D02*
D03*
X909440D02*
D03*
X876560Y66440D02*
D03*
X893000Y873250D02*
D03*
X869750Y850000D02*
D03*
X893000Y827140D02*
D03*
X916250Y850000D02*
D03*
X909440Y866440D02*
D03*
X876560Y833560D02*
D03*
X909440D02*
D03*
X876560Y866440D02*
D03*
X35700Y111250D02*
D03*
X12450Y88000D02*
D03*
X35700Y65140D02*
D03*
X58950Y88000D02*
D03*
X52140Y104440D02*
D03*
X19260Y71560D02*
D03*
X52140D02*
D03*
X19260Y104440D02*
D03*
Y841040D02*
D03*
X52140Y808160D02*
D03*
X19260D02*
D03*
X52140Y841040D02*
D03*
X58950Y824600D02*
D03*
X35700Y801740D02*
D03*
X12450Y824600D02*
D03*
X35700Y847850D02*
D03*
M02*
