G04*
G04 #@! TF.GenerationSoftware,Altium Limited,Altium Designer,24.1.2 (44)*
G04*
G04 Layer_Physical_Order=1*
G04 Layer_Color=255*
%FSLAX44Y44*%
%MOMM*%
G71*
G04*
G04 #@! TF.SameCoordinates,C9DB49E7-4425-42DB-94E5-CA624B14DC79*
G04*
G04*
G04 #@! TF.FilePolarity,Positive*
G04*
G01*
G75*
%ADD20R,1.6000X1.4000*%
%ADD21R,1.4500X1.3000*%
%ADD22R,1.9000X1.9000*%
%ADD23R,0.4000X1.3500*%
%ADD24C,0.3700*%
G04:AMPARAMS|DCode=25|XSize=0.95mm|YSize=0.85mm|CornerRadius=0.2125mm|HoleSize=0mm|Usage=FLASHONLY|Rotation=270.000|XOffset=0mm|YOffset=0mm|HoleType=Round|Shape=RoundedRectangle|*
%AMROUNDEDRECTD25*
21,1,0.9500,0.4250,0,0,270.0*
21,1,0.5250,0.8500,0,0,270.0*
1,1,0.4250,-0.2125,-0.2625*
1,1,0.4250,-0.2125,0.2625*
1,1,0.4250,0.2125,0.2625*
1,1,0.4250,0.2125,-0.2625*
%
%ADD25ROUNDEDRECTD25*%
G04:AMPARAMS|DCode=26|XSize=0.95mm|YSize=0.85mm|CornerRadius=0.2125mm|HoleSize=0mm|Usage=FLASHONLY|Rotation=0.000|XOffset=0mm|YOffset=0mm|HoleType=Round|Shape=RoundedRectangle|*
%AMROUNDEDRECTD26*
21,1,0.9500,0.4250,0,0,0.0*
21,1,0.5250,0.8500,0,0,0.0*
1,1,0.4250,0.2625,-0.2125*
1,1,0.4250,-0.2625,-0.2125*
1,1,0.4250,-0.2625,0.2125*
1,1,0.4250,0.2625,0.2125*
%
%ADD26ROUNDEDRECTD26*%
%ADD27R,1.8542X1.2954*%
%ADD28R,1.0414X0.6604*%
%ADD29R,0.6604X1.0414*%
%ADD30R,1.2954X1.8542*%
%ADD49R,1.0000X4.0000*%
%ADD50C,0.3810*%
%ADD51C,1.5300*%
%ADD52R,1.5300X1.5300*%
%ADD53C,1.6500*%
G04:AMPARAMS|DCode=54|XSize=1.65mm|YSize=1.65mm|CornerRadius=0.4125mm|HoleSize=0mm|Usage=FLASHONLY|Rotation=180.000|XOffset=0mm|YOffset=0mm|HoleType=Round|Shape=RoundedRectangle|*
%AMROUNDEDRECTD54*
21,1,1.6500,0.8250,0,0,180.0*
21,1,0.8250,1.6500,0,0,180.0*
1,1,0.8250,-0.4125,0.4125*
1,1,0.8250,0.4125,0.4125*
1,1,0.8250,0.4125,-0.4125*
1,1,0.8250,-0.4125,-0.4125*
%
%ADD54ROUNDEDRECTD54*%
%ADD55C,6.0000*%
%ADD56C,1.0000*%
%ADD57C,0.5000*%
G36*
X899301Y896820D02*
X902524Y896566D01*
X906937Y895507D01*
X911130Y893770D01*
X915000Y891398D01*
X918451Y888451D01*
X921398Y885000D01*
X923770Y881130D01*
X925507Y876937D01*
X926566Y872524D01*
X926912Y868129D01*
X926900Y868071D01*
Y773071D01*
X926914Y773002D01*
X926553Y771185D01*
X925484Y769586D01*
X923886Y768518D01*
X923197Y768381D01*
X922000Y768206D01*
Y768206D01*
X919118Y767827D01*
X916432Y766714D01*
X914126Y764945D01*
X912356Y762638D01*
X911244Y759953D01*
X910865Y757071D01*
X910865D01*
X910900Y755801D01*
Y752067D01*
X902750D01*
Y743050D01*
Y734033D01*
X910900D01*
X910900Y645967D01*
X902750D01*
Y636950D01*
Y627933D01*
X910900D01*
X910900Y572067D01*
X902750D01*
Y563050D01*
Y554033D01*
X910900D01*
X910900Y405967D01*
X902750D01*
Y396950D01*
Y387933D01*
X910900D01*
Y332067D01*
X902750D01*
Y323050D01*
Y314033D01*
X910900D01*
X910900Y165967D01*
X902750D01*
Y156950D01*
Y147933D01*
X910874D01*
X911244Y145118D01*
X912357Y142432D01*
X914126Y140126D01*
X916432Y138357D01*
X919118Y137244D01*
X922000Y136865D01*
Y136865D01*
X923197Y136690D01*
X923886Y136553D01*
X925484Y135485D01*
X926553Y133886D01*
X926914Y132069D01*
X926900Y132000D01*
Y32000D01*
X926900Y32000D01*
X926900D01*
X926825Y30761D01*
X926566Y27476D01*
X925507Y23063D01*
X923770Y18870D01*
X921398Y15000D01*
X918451Y11549D01*
X915000Y8601D01*
X911130Y6230D01*
X906937Y4493D01*
X902524Y3434D01*
X899239Y3175D01*
X898000Y3100D01*
Y3100D01*
X788000D01*
X787932Y3086D01*
X786114Y3447D01*
X784516Y4516D01*
X783447Y6114D01*
X783310Y6803D01*
X783135Y8000D01*
X783135D01*
X782756Y10882D01*
X781643Y13568D01*
X779874Y15874D01*
X777568Y17643D01*
X774882Y18756D01*
X772000Y19135D01*
Y19100D01*
X772000Y19100D01*
X728717D01*
X727540Y19324D01*
X727540Y20370D01*
Y64404D01*
X712460D01*
Y20370D01*
X712460Y19324D01*
X711283Y19100D01*
X708717D01*
X707540Y19324D01*
X707540Y20370D01*
Y64404D01*
X692460D01*
Y20370D01*
X692460Y19324D01*
X691283Y19100D01*
X688717D01*
X687540Y19324D01*
Y64404D01*
X672460D01*
Y50831D01*
X671190Y49789D01*
X669996Y50027D01*
X668810Y49791D01*
X667540Y50833D01*
Y64404D01*
X652460D01*
Y19324D01*
X651283Y19100D01*
X648717D01*
X647540Y20370D01*
Y64404D01*
X632460D01*
Y20370D01*
X632460Y19324D01*
X631283Y19100D01*
X510000Y19100D01*
X506044D01*
X506000Y19204D01*
Y20000D01*
X506000D01*
X505923Y20780D01*
X505326Y22222D01*
X504222Y23326D01*
X502780Y23923D01*
X502000Y24000D01*
X479040D01*
Y25686D01*
X479460Y26782D01*
X480310Y26782D01*
X487980D01*
Y35822D01*
Y44862D01*
X480310D01*
X479460Y44862D01*
X479040Y45958D01*
Y47862D01*
X468270D01*
Y35822D01*
X465730D01*
Y47862D01*
X444270D01*
Y35822D01*
X441730D01*
Y47862D01*
X430960D01*
Y45958D01*
X430540Y44862D01*
X429690Y44862D01*
X422020D01*
Y35822D01*
Y26782D01*
X429690D01*
X430540Y26782D01*
X430960Y25686D01*
Y24000D01*
X408000D01*
Y24000D01*
X407220Y23923D01*
X405778Y23326D01*
X404674Y22222D01*
X404077Y20780D01*
X404000Y20000D01*
X404000D01*
Y19204D01*
X403956Y19100D01*
X352067D01*
Y27250D01*
X343050D01*
X334033D01*
Y19100D01*
X185967D01*
Y27250D01*
X176950D01*
X167933D01*
Y19100D01*
X158000D01*
Y19135D01*
X155118Y18756D01*
X152432Y17643D01*
X150126Y15874D01*
X148357Y13568D01*
X147244Y10882D01*
X146865Y8000D01*
X146865D01*
X146690Y6803D01*
X146553Y6114D01*
X145484Y4516D01*
X143886Y3447D01*
X142069Y3086D01*
X142000Y3100D01*
X32000D01*
X31922Y3084D01*
X27476Y3434D01*
X23063Y4493D01*
X18870Y6230D01*
X15000Y8601D01*
X11549Y11549D01*
X8601Y15000D01*
X6230Y18870D01*
X4493Y23063D01*
X3434Y27476D01*
X3175Y30761D01*
X3100Y32000D01*
X3100D01*
X3099Y32004D01*
Y78925D01*
X4369Y79126D01*
X5544Y75509D01*
X7869Y70945D01*
X10880Y66802D01*
X14502Y63180D01*
X18645Y60169D01*
X23209Y57844D01*
X28080Y56261D01*
X33139Y55460D01*
X34430D01*
Y88000D01*
Y120540D01*
X33139D01*
X28080Y119739D01*
X23209Y118156D01*
X18645Y115831D01*
X14502Y112820D01*
X10880Y109198D01*
X7869Y105055D01*
X5544Y100491D01*
X4369Y96874D01*
X3099Y97075D01*
Y123302D01*
X3085Y123370D01*
X3447Y125187D01*
X4515Y126786D01*
X6113Y127854D01*
X7927Y128215D01*
X7992Y128202D01*
X9992Y128197D01*
X9999Y128162D01*
X12881Y128541D01*
X15567Y129654D01*
X17873Y131423D01*
X19643Y133729D01*
X20755Y136415D01*
X21134Y139297D01*
X21099D01*
Y773495D01*
X21100Y773500D01*
X21135D01*
X20756Y776382D01*
X19643Y779068D01*
X17874Y781374D01*
X15568Y783143D01*
X12882Y784256D01*
X10000Y784635D01*
Y784635D01*
X8731Y784598D01*
X8007Y784600D01*
X8000Y784600D01*
X6816Y784808D01*
X6114Y784947D01*
X4516Y786016D01*
X3447Y787614D01*
X3086Y789432D01*
X3100Y789500D01*
Y815522D01*
X4370Y815724D01*
X5544Y812109D01*
X7869Y807545D01*
X10880Y803402D01*
X14502Y799780D01*
X18645Y796769D01*
X23209Y794444D01*
X28080Y792861D01*
X33139Y792060D01*
X34430D01*
Y824600D01*
Y857140D01*
X33139D01*
X28080Y856339D01*
X23209Y854756D01*
X18645Y852431D01*
X14502Y849420D01*
X10880Y845798D01*
X7869Y841655D01*
X5544Y837091D01*
X4370Y833476D01*
X3100Y833678D01*
Y868000D01*
X3084Y868078D01*
X3434Y872524D01*
X4493Y876937D01*
X6230Y881130D01*
X8601Y885000D01*
X11549Y888451D01*
X15000Y891398D01*
X18870Y893770D01*
X23063Y895507D01*
X27476Y896566D01*
X30699Y896820D01*
X31936Y896902D01*
X32000Y896900D01*
X33187Y896900D01*
X896795D01*
X898000Y896900D01*
X898064Y896902D01*
Y896902D01*
X899301Y896820D01*
D02*
G37*
%LPC*%
G36*
X895561Y882540D02*
X894270D01*
Y851270D01*
X925540D01*
Y852561D01*
X924739Y857620D01*
X923156Y862491D01*
X920831Y867055D01*
X917820Y871198D01*
X914198Y874820D01*
X910055Y877831D01*
X905491Y880156D01*
X900620Y881739D01*
X895561Y882540D01*
D02*
G37*
G36*
X891730D02*
X890439D01*
X885380Y881739D01*
X880509Y880156D01*
X875945Y877831D01*
X871802Y874820D01*
X868180Y871198D01*
X865169Y867055D01*
X862844Y862491D01*
X861261Y857620D01*
X860460Y852561D01*
Y851270D01*
X891730D01*
Y882540D01*
D02*
G37*
G36*
X38261Y857140D02*
X36970D01*
Y825870D01*
X68240D01*
Y827161D01*
X67439Y832220D01*
X65856Y837091D01*
X63531Y841655D01*
X60520Y845798D01*
X56898Y849420D01*
X52755Y852431D01*
X48191Y854756D01*
X43320Y856339D01*
X38261Y857140D01*
D02*
G37*
G36*
X925540Y848730D02*
X894270D01*
Y817460D01*
X895561D01*
X900620Y818261D01*
X905491Y819844D01*
X910055Y822169D01*
X914198Y825180D01*
X917820Y828802D01*
X920831Y832945D01*
X923156Y837509D01*
X924739Y842380D01*
X925540Y847439D01*
Y848730D01*
D02*
G37*
G36*
X891730D02*
X860460D01*
Y847439D01*
X861261Y842380D01*
X862844Y837509D01*
X865169Y832945D01*
X868180Y828802D01*
X871802Y825180D01*
X875945Y822169D01*
X880509Y819844D01*
X885380Y818261D01*
X890439Y817460D01*
X891730D01*
Y848730D01*
D02*
G37*
G36*
X68240Y823330D02*
X36970D01*
Y792060D01*
X38261D01*
X43320Y792861D01*
X48191Y794444D01*
X52755Y796769D01*
X56898Y799780D01*
X60520Y803402D01*
X63531Y807545D01*
X65856Y812109D01*
X67439Y816980D01*
X68240Y822039D01*
Y823330D01*
D02*
G37*
G36*
X113242Y783990D02*
X110559D01*
X107967Y783296D01*
X105643Y781954D01*
X103746Y780057D01*
X102404Y777733D01*
X101710Y775142D01*
Y772458D01*
X102404Y769867D01*
X103746Y767543D01*
X105643Y765646D01*
X107967Y764304D01*
X110559Y763610D01*
X113242D01*
X115833Y764304D01*
X118157Y765646D01*
X120054Y767543D01*
X121396Y769867D01*
X122090Y772458D01*
Y775142D01*
X121396Y777733D01*
X120054Y780057D01*
X118157Y781954D01*
X115833Y783296D01*
X113242Y783990D01*
D02*
G37*
G36*
X87842D02*
X85159D01*
X82567Y783296D01*
X80243Y781954D01*
X78346Y780057D01*
X77004Y777733D01*
X76310Y775142D01*
Y772458D01*
X77004Y769867D01*
X78346Y767543D01*
X80243Y765646D01*
X82567Y764304D01*
X85159Y763610D01*
X87842D01*
X90433Y764304D01*
X92757Y765646D01*
X94654Y767543D01*
X95996Y769867D01*
X96690Y772458D01*
Y775142D01*
X95996Y777733D01*
X94654Y780057D01*
X92757Y781954D01*
X90433Y783296D01*
X87842Y783990D01*
D02*
G37*
G36*
X62442D02*
X59759D01*
X57167Y783296D01*
X54843Y781954D01*
X52946Y780057D01*
X51604Y777733D01*
X50910Y775142D01*
Y772458D01*
X51604Y769867D01*
X52946Y767543D01*
X54843Y765646D01*
X57167Y764304D01*
X59759Y763610D01*
X62442D01*
X65033Y764304D01*
X67357Y765646D01*
X69254Y767543D01*
X70596Y769867D01*
X71290Y772458D01*
Y775142D01*
X70596Y777733D01*
X69254Y780057D01*
X67357Y781954D01*
X65033Y783296D01*
X62442Y783990D01*
D02*
G37*
G36*
X37042D02*
X34358D01*
X31767Y783296D01*
X29443Y781954D01*
X27546Y780057D01*
X26204Y777733D01*
X25510Y775142D01*
Y772458D01*
X26204Y769867D01*
X27546Y767543D01*
X29443Y765646D01*
X31767Y764304D01*
X34358Y763610D01*
X37042D01*
X39633Y764304D01*
X41957Y765646D01*
X43854Y767543D01*
X45196Y769867D01*
X45890Y772458D01*
Y775142D01*
X45196Y777733D01*
X43854Y780057D01*
X41957Y781954D01*
X39633Y783296D01*
X37042Y783990D01*
D02*
G37*
G36*
X900210Y752067D02*
X889669D01*
Y744320D01*
X900210D01*
Y752067D01*
D02*
G37*
G36*
X113242Y758590D02*
X110559D01*
X107967Y757896D01*
X105643Y756554D01*
X103746Y754657D01*
X102404Y752333D01*
X101710Y749742D01*
Y747058D01*
X102404Y744467D01*
X103746Y742143D01*
X105643Y740246D01*
X107967Y738904D01*
X110559Y738210D01*
X113242D01*
X115833Y738904D01*
X118157Y740246D01*
X120054Y742143D01*
X121396Y744467D01*
X122090Y747058D01*
Y749742D01*
X121396Y752333D01*
X120054Y754657D01*
X118157Y756554D01*
X115833Y757896D01*
X113242Y758590D01*
D02*
G37*
G36*
X87842D02*
X85159D01*
X82567Y757896D01*
X80243Y756554D01*
X78346Y754657D01*
X77004Y752333D01*
X76310Y749742D01*
Y747058D01*
X77004Y744467D01*
X78346Y742143D01*
X80243Y740246D01*
X82567Y738904D01*
X85159Y738210D01*
X87842D01*
X90433Y738904D01*
X92757Y740246D01*
X94654Y742143D01*
X95996Y744467D01*
X96690Y747058D01*
Y749742D01*
X95996Y752333D01*
X94654Y754657D01*
X92757Y756554D01*
X90433Y757896D01*
X87842Y758590D01*
D02*
G37*
G36*
X62442D02*
X59759D01*
X57167Y757896D01*
X54843Y756554D01*
X52946Y754657D01*
X51604Y752333D01*
X50910Y749742D01*
Y747058D01*
X51604Y744467D01*
X52946Y742143D01*
X54843Y740246D01*
X57167Y738904D01*
X59759Y738210D01*
X62442D01*
X65033Y738904D01*
X67357Y740246D01*
X69254Y742143D01*
X70596Y744467D01*
X71290Y747058D01*
Y749742D01*
X70596Y752333D01*
X69254Y754657D01*
X67357Y756554D01*
X65033Y757896D01*
X62442Y758590D01*
D02*
G37*
G36*
X37042D02*
X34358D01*
X31767Y757896D01*
X29443Y756554D01*
X27546Y754657D01*
X26204Y752333D01*
X25510Y749742D01*
Y747058D01*
X26204Y744467D01*
X27546Y742143D01*
X29443Y740246D01*
X31767Y738904D01*
X34358Y738210D01*
X37042D01*
X39633Y738904D01*
X41957Y740246D01*
X43854Y742143D01*
X45196Y744467D01*
X45890Y747058D01*
Y749742D01*
X45196Y752333D01*
X43854Y754657D01*
X41957Y756554D01*
X39633Y757896D01*
X37042Y758590D01*
D02*
G37*
G36*
X900210Y741780D02*
X889669D01*
Y734033D01*
X900210D01*
Y741780D01*
D02*
G37*
G36*
X62442Y733190D02*
X62370D01*
Y724270D01*
X71290D01*
Y724342D01*
X70596Y726933D01*
X69254Y729257D01*
X67357Y731154D01*
X65033Y732496D01*
X62442Y733190D01*
D02*
G37*
G36*
X37042D02*
X36970D01*
Y724270D01*
X45890D01*
Y724342D01*
X45196Y726933D01*
X43854Y729257D01*
X41957Y731154D01*
X39633Y732496D01*
X37042Y733190D01*
D02*
G37*
G36*
X59830D02*
X59759D01*
X57167Y732496D01*
X54843Y731154D01*
X52946Y729257D01*
X51604Y726933D01*
X50910Y724342D01*
Y724270D01*
X59830D01*
Y733190D01*
D02*
G37*
G36*
X34430D02*
X34358D01*
X31767Y732496D01*
X29443Y731154D01*
X27546Y729257D01*
X26204Y726933D01*
X25510Y724342D01*
Y724270D01*
X34430D01*
Y733190D01*
D02*
G37*
G36*
X857327Y725842D02*
X850850D01*
Y721270D01*
X857327D01*
Y725842D01*
D02*
G37*
G36*
X848310D02*
X841833D01*
Y721270D01*
X848310D01*
Y725842D01*
D02*
G37*
G36*
X857327Y718730D02*
X850850D01*
Y714158D01*
X857327D01*
Y718730D01*
D02*
G37*
G36*
X848310D02*
X841833D01*
Y714158D01*
X848310D01*
Y718730D01*
D02*
G37*
G36*
X113242Y733190D02*
X110559D01*
X107967Y732496D01*
X105643Y731154D01*
X103746Y729257D01*
X102404Y726933D01*
X101710Y724342D01*
Y721658D01*
X102404Y719067D01*
X103746Y716743D01*
X105643Y714846D01*
X107967Y713504D01*
X110559Y712810D01*
X113242D01*
X115833Y713504D01*
X118157Y714846D01*
X120054Y716743D01*
X121396Y719067D01*
X122090Y721658D01*
Y724342D01*
X121396Y726933D01*
X120054Y729257D01*
X118157Y731154D01*
X115833Y732496D01*
X113242Y733190D01*
D02*
G37*
G36*
X87842D02*
X85159D01*
X82567Y732496D01*
X80243Y731154D01*
X78346Y729257D01*
X77004Y726933D01*
X76310Y724342D01*
Y721658D01*
X77004Y719067D01*
X78346Y716743D01*
X80243Y714846D01*
X82567Y713504D01*
X85159Y712810D01*
X87842D01*
X90433Y713504D01*
X92757Y714846D01*
X94654Y716743D01*
X95996Y719067D01*
X96690Y721658D01*
Y724342D01*
X95996Y726933D01*
X94654Y729257D01*
X92757Y731154D01*
X90433Y732496D01*
X87842Y733190D01*
D02*
G37*
G36*
X71290Y721730D02*
X62370D01*
Y712810D01*
X62442D01*
X65033Y713504D01*
X67357Y714846D01*
X69254Y716743D01*
X70596Y719067D01*
X71290Y721658D01*
Y721730D01*
D02*
G37*
G36*
X59830D02*
X50910D01*
Y721658D01*
X51604Y719067D01*
X52946Y716743D01*
X54843Y714846D01*
X57167Y713504D01*
X59759Y712810D01*
X59830D01*
Y721730D01*
D02*
G37*
G36*
X45890D02*
X36970D01*
Y712810D01*
X37042D01*
X39633Y713504D01*
X41957Y714846D01*
X43854Y716743D01*
X45196Y719067D01*
X45890Y721658D01*
Y721730D01*
D02*
G37*
G36*
X34430D02*
X25510D01*
Y721658D01*
X26204Y719067D01*
X27546Y716743D01*
X29443Y714846D01*
X31767Y713504D01*
X34358Y712810D01*
X34430D01*
Y721730D01*
D02*
G37*
G36*
X857327Y710842D02*
X850850D01*
Y706270D01*
X857327D01*
Y710842D01*
D02*
G37*
G36*
X848310D02*
X841833D01*
Y706270D01*
X848310D01*
Y710842D01*
D02*
G37*
G36*
X857327Y703730D02*
X850850D01*
Y699158D01*
X857327D01*
Y703730D01*
D02*
G37*
G36*
X848310D02*
X841833D01*
Y699158D01*
X848310D01*
Y703730D01*
D02*
G37*
G36*
X113242Y707790D02*
X110559D01*
X107967Y707096D01*
X105643Y705754D01*
X103746Y703857D01*
X102404Y701533D01*
X101710Y698942D01*
Y696258D01*
X102404Y693667D01*
X103746Y691343D01*
X105643Y689446D01*
X107967Y688104D01*
X110559Y687410D01*
X113242D01*
X115833Y688104D01*
X118157Y689446D01*
X120054Y691343D01*
X121396Y693667D01*
X122090Y696258D01*
Y698942D01*
X121396Y701533D01*
X120054Y703857D01*
X118157Y705754D01*
X115833Y707096D01*
X113242Y707790D01*
D02*
G37*
G36*
X87842D02*
X85159D01*
X82567Y707096D01*
X80243Y705754D01*
X78346Y703857D01*
X77004Y701533D01*
X76310Y698942D01*
Y696258D01*
X77004Y693667D01*
X78346Y691343D01*
X80243Y689446D01*
X82567Y688104D01*
X85159Y687410D01*
X87842D01*
X90433Y688104D01*
X92757Y689446D01*
X94654Y691343D01*
X95996Y693667D01*
X96690Y696258D01*
Y698942D01*
X95996Y701533D01*
X94654Y703857D01*
X92757Y705754D01*
X90433Y707096D01*
X87842Y707790D01*
D02*
G37*
G36*
X62442D02*
X59759D01*
X57167Y707096D01*
X54843Y705754D01*
X52946Y703857D01*
X51604Y701533D01*
X50910Y698942D01*
Y696258D01*
X51604Y693667D01*
X52946Y691343D01*
X54843Y689446D01*
X57167Y688104D01*
X59759Y687410D01*
X62442D01*
X65033Y688104D01*
X67357Y689446D01*
X69254Y691343D01*
X70596Y693667D01*
X71290Y696258D01*
Y698942D01*
X70596Y701533D01*
X69254Y703857D01*
X67357Y705754D01*
X65033Y707096D01*
X62442Y707790D01*
D02*
G37*
G36*
X37042D02*
X34358D01*
X31767Y707096D01*
X29443Y705754D01*
X27546Y703857D01*
X26204Y701533D01*
X25510Y698942D01*
Y696258D01*
X26204Y693667D01*
X27546Y691343D01*
X29443Y689446D01*
X31767Y688104D01*
X34358Y687410D01*
X37042D01*
X39633Y688104D01*
X41957Y689446D01*
X43854Y691343D01*
X45196Y693667D01*
X45890Y696258D01*
Y698942D01*
X45196Y701533D01*
X43854Y703857D01*
X41957Y705754D01*
X39633Y707096D01*
X37042Y707790D01*
D02*
G37*
G36*
X146375Y687381D02*
X142125D01*
X140305Y687019D01*
X138762Y685988D01*
X138457Y685532D01*
X132908D01*
X131174Y685187D01*
X129704Y684205D01*
X122233Y676734D01*
X120998Y676822D01*
X120054Y678457D01*
X118157Y680354D01*
X115833Y681696D01*
X113242Y682390D01*
X110559D01*
X107967Y681696D01*
X105643Y680354D01*
X103746Y678457D01*
X102404Y676133D01*
X101710Y673542D01*
Y670858D01*
X102404Y668267D01*
X103746Y665943D01*
X104667Y665022D01*
X104141Y663752D01*
X101357D01*
X96175Y668935D01*
X96690Y670858D01*
Y673542D01*
X95996Y676133D01*
X94654Y678457D01*
X92757Y680354D01*
X90433Y681696D01*
X87842Y682390D01*
X85159D01*
X82567Y681696D01*
X80243Y680354D01*
X78346Y678457D01*
X77004Y676133D01*
X76310Y673542D01*
Y670858D01*
X77004Y668267D01*
X78346Y665943D01*
X80243Y664046D01*
X82567Y662704D01*
X85159Y662010D01*
X87842D01*
X89765Y662525D01*
X96275Y656015D01*
X97746Y655033D01*
X99480Y654688D01*
X103718D01*
X104204Y653515D01*
X103746Y653057D01*
X102404Y650733D01*
X101710Y648142D01*
Y645458D01*
X102404Y642867D01*
X103746Y640543D01*
X104544Y639745D01*
X104018Y638475D01*
X101234D01*
X96175Y643535D01*
X96690Y645458D01*
Y648142D01*
X95996Y650733D01*
X94654Y653057D01*
X92757Y654954D01*
X90433Y656296D01*
X87842Y656990D01*
X85159D01*
X82567Y656296D01*
X80243Y654954D01*
X78346Y653057D01*
X77004Y650733D01*
X76310Y648142D01*
Y645458D01*
X77004Y642867D01*
X78346Y640543D01*
X80243Y638646D01*
X82567Y637304D01*
X85159Y636610D01*
X87842D01*
X89765Y637125D01*
X96152Y630739D01*
X96152Y630738D01*
X97622Y629756D01*
X99357Y629411D01*
X99357Y629411D01*
X103841D01*
X104327Y628238D01*
X103746Y627657D01*
X102404Y625333D01*
X101710Y622742D01*
Y620058D01*
X102404Y617467D01*
X103746Y615143D01*
X105643Y613246D01*
X107967Y611904D01*
X110559Y611210D01*
X113242D01*
X115833Y611904D01*
X118157Y613246D01*
X120054Y615143D01*
X121396Y617467D01*
X122090Y620058D01*
Y622742D01*
X121396Y625333D01*
X120054Y627657D01*
X119473Y628238D01*
X119959Y629411D01*
X129039D01*
X130773Y629756D01*
X132243Y630738D01*
X134973Y633468D01*
X137789D01*
X138762Y632012D01*
X140305Y630981D01*
X142125Y630619D01*
X146375D01*
X148195Y630981D01*
X149738Y632012D01*
X150769Y633555D01*
X151131Y635375D01*
Y640625D01*
X150769Y642445D01*
X149738Y643988D01*
X149174Y644365D01*
Y645635D01*
X149738Y646012D01*
X150769Y647555D01*
X151131Y649375D01*
Y654625D01*
X150769Y656445D01*
X149738Y657988D01*
X149174Y658365D01*
Y659635D01*
X149738Y660012D01*
X150769Y661555D01*
X151131Y663375D01*
Y668625D01*
X150769Y670445D01*
X149738Y671988D01*
X149174Y672365D01*
Y673635D01*
X149738Y674012D01*
X150769Y675555D01*
X151131Y677375D01*
Y682625D01*
X150769Y684445D01*
X149738Y685988D01*
X148195Y687019D01*
X146375Y687381D01*
D02*
G37*
G36*
X62442Y682390D02*
X59759D01*
X57167Y681696D01*
X54843Y680354D01*
X52946Y678457D01*
X51604Y676133D01*
X50910Y673542D01*
Y670858D01*
X51604Y668267D01*
X52946Y665943D01*
X54843Y664046D01*
X57167Y662704D01*
X59759Y662010D01*
X62442D01*
X65033Y662704D01*
X67357Y664046D01*
X69254Y665943D01*
X70596Y668267D01*
X71290Y670858D01*
Y673542D01*
X70596Y676133D01*
X69254Y678457D01*
X67357Y680354D01*
X65033Y681696D01*
X62442Y682390D01*
D02*
G37*
G36*
X37042D02*
X34358D01*
X31767Y681696D01*
X29443Y680354D01*
X27546Y678457D01*
X26204Y676133D01*
X25510Y673542D01*
Y670858D01*
X26204Y668267D01*
X27546Y665943D01*
X29443Y664046D01*
X31767Y662704D01*
X34358Y662010D01*
X37042D01*
X39633Y662704D01*
X41957Y664046D01*
X43854Y665943D01*
X45196Y668267D01*
X45890Y670858D01*
Y673542D01*
X45196Y676133D01*
X43854Y678457D01*
X41957Y680354D01*
X39633Y681696D01*
X37042Y682390D01*
D02*
G37*
G36*
X62442Y656990D02*
X59759D01*
X57167Y656296D01*
X54843Y654954D01*
X52946Y653057D01*
X51604Y650733D01*
X50910Y648142D01*
Y645458D01*
X51604Y642867D01*
X52946Y640543D01*
X54843Y638646D01*
X57167Y637304D01*
X59759Y636610D01*
X62442D01*
X65033Y637304D01*
X67357Y638646D01*
X69254Y640543D01*
X70596Y642867D01*
X71290Y645458D01*
Y648142D01*
X70596Y650733D01*
X69254Y653057D01*
X67357Y654954D01*
X65033Y656296D01*
X62442Y656990D01*
D02*
G37*
G36*
X37042D02*
X34358D01*
X31767Y656296D01*
X29443Y654954D01*
X27546Y653057D01*
X26204Y650733D01*
X25510Y648142D01*
Y645458D01*
X26204Y642867D01*
X27546Y640543D01*
X29443Y638646D01*
X31767Y637304D01*
X34358Y636610D01*
X37042D01*
X39633Y637304D01*
X41957Y638646D01*
X43854Y640543D01*
X45196Y642867D01*
X45890Y645458D01*
Y648142D01*
X45196Y650733D01*
X43854Y653057D01*
X41957Y654954D01*
X39633Y656296D01*
X37042Y656990D01*
D02*
G37*
G36*
X87842Y631590D02*
X85159D01*
X82567Y630896D01*
X80243Y629554D01*
X78346Y627657D01*
X77004Y625333D01*
X76310Y622742D01*
Y620058D01*
X77004Y617467D01*
X78346Y615143D01*
X80243Y613246D01*
X82567Y611904D01*
X85159Y611210D01*
X87842D01*
X90433Y611904D01*
X92757Y613246D01*
X94654Y615143D01*
X95996Y617467D01*
X96690Y620058D01*
Y622742D01*
X95996Y625333D01*
X94654Y627657D01*
X92757Y629554D01*
X90433Y630896D01*
X87842Y631590D01*
D02*
G37*
G36*
X62442D02*
X59759D01*
X57167Y630896D01*
X54843Y629554D01*
X52946Y627657D01*
X51604Y625333D01*
X50910Y622742D01*
Y620058D01*
X51604Y617467D01*
X52946Y615143D01*
X54843Y613246D01*
X57167Y611904D01*
X59759Y611210D01*
X62442D01*
X65033Y611904D01*
X67357Y613246D01*
X69254Y615143D01*
X70596Y617467D01*
X71290Y620058D01*
Y622742D01*
X70596Y625333D01*
X69254Y627657D01*
X67357Y629554D01*
X65033Y630896D01*
X62442Y631590D01*
D02*
G37*
G36*
X37042D02*
X34358D01*
X31767Y630896D01*
X29443Y629554D01*
X27546Y627657D01*
X26204Y625333D01*
X25510Y622742D01*
Y620058D01*
X26204Y617467D01*
X27546Y615143D01*
X29443Y613246D01*
X31767Y611904D01*
X34358Y611210D01*
X37042D01*
X39633Y611904D01*
X41957Y613246D01*
X43854Y615143D01*
X45196Y617467D01*
X45890Y620058D01*
Y622742D01*
X45196Y625333D01*
X43854Y627657D01*
X41957Y629554D01*
X39633Y630896D01*
X37042Y631590D01*
D02*
G37*
G36*
X113242Y606190D02*
X110559D01*
X107967Y605496D01*
X105643Y604154D01*
X103746Y602257D01*
X102404Y599933D01*
X101710Y597342D01*
Y594658D01*
X102404Y592067D01*
X103746Y589743D01*
X105643Y587846D01*
X107967Y586504D01*
X110559Y585810D01*
X113242D01*
X115833Y586504D01*
X118157Y587846D01*
X120054Y589743D01*
X121396Y592067D01*
X122090Y594658D01*
Y597342D01*
X121396Y599933D01*
X120054Y602257D01*
X118157Y604154D01*
X115833Y605496D01*
X113242Y606190D01*
D02*
G37*
G36*
X87842D02*
X85159D01*
X82567Y605496D01*
X80243Y604154D01*
X78346Y602257D01*
X77004Y599933D01*
X76310Y597342D01*
Y594658D01*
X77004Y592067D01*
X78346Y589743D01*
X80243Y587846D01*
X82567Y586504D01*
X85159Y585810D01*
X87842D01*
X90433Y586504D01*
X92757Y587846D01*
X94654Y589743D01*
X95996Y592067D01*
X96690Y594658D01*
Y597342D01*
X95996Y599933D01*
X94654Y602257D01*
X92757Y604154D01*
X90433Y605496D01*
X87842Y606190D01*
D02*
G37*
G36*
X62442D02*
X59759D01*
X57167Y605496D01*
X54843Y604154D01*
X52946Y602257D01*
X51604Y599933D01*
X50910Y597342D01*
Y594658D01*
X51604Y592067D01*
X52946Y589743D01*
X54843Y587846D01*
X57167Y586504D01*
X59759Y585810D01*
X62442D01*
X65033Y586504D01*
X67357Y587846D01*
X69254Y589743D01*
X70596Y592067D01*
X71290Y594658D01*
Y597342D01*
X70596Y599933D01*
X69254Y602257D01*
X67357Y604154D01*
X65033Y605496D01*
X62442Y606190D01*
D02*
G37*
G36*
X37042D02*
X34358D01*
X31767Y605496D01*
X29443Y604154D01*
X27546Y602257D01*
X26204Y599933D01*
X25510Y597342D01*
Y594658D01*
X26204Y592067D01*
X27546Y589743D01*
X29443Y587846D01*
X31767Y586504D01*
X34358Y585810D01*
X37042D01*
X39633Y586504D01*
X41957Y587846D01*
X43854Y589743D01*
X45196Y592067D01*
X45890Y594658D01*
Y597342D01*
X45196Y599933D01*
X43854Y602257D01*
X41957Y604154D01*
X39633Y605496D01*
X37042Y606190D01*
D02*
G37*
G36*
X113242Y580790D02*
X110559D01*
X107967Y580096D01*
X105643Y578754D01*
X103746Y576857D01*
X102404Y574533D01*
X101710Y571942D01*
Y569258D01*
X102404Y566667D01*
X103746Y564343D01*
X105643Y562446D01*
X107967Y561104D01*
X110559Y560410D01*
X113242D01*
X115833Y561104D01*
X118157Y562446D01*
X120054Y564343D01*
X121396Y566667D01*
X122090Y569258D01*
Y571942D01*
X121396Y574533D01*
X120054Y576857D01*
X118157Y578754D01*
X115833Y580096D01*
X113242Y580790D01*
D02*
G37*
G36*
X87842D02*
X85159D01*
X82567Y580096D01*
X80243Y578754D01*
X78346Y576857D01*
X77004Y574533D01*
X76310Y571942D01*
Y569258D01*
X77004Y566667D01*
X78346Y564343D01*
X80243Y562446D01*
X82567Y561104D01*
X85159Y560410D01*
X87842D01*
X90433Y561104D01*
X92757Y562446D01*
X94654Y564343D01*
X95996Y566667D01*
X96690Y569258D01*
Y571942D01*
X95996Y574533D01*
X94654Y576857D01*
X92757Y578754D01*
X90433Y580096D01*
X87842Y580790D01*
D02*
G37*
G36*
X62442D02*
X59759D01*
X57167Y580096D01*
X54843Y578754D01*
X52946Y576857D01*
X51604Y574533D01*
X50910Y571942D01*
Y569258D01*
X51604Y566667D01*
X52946Y564343D01*
X54843Y562446D01*
X57167Y561104D01*
X59759Y560410D01*
X62442D01*
X65033Y561104D01*
X67357Y562446D01*
X69254Y564343D01*
X70596Y566667D01*
X71290Y569258D01*
Y571942D01*
X70596Y574533D01*
X69254Y576857D01*
X67357Y578754D01*
X65033Y580096D01*
X62442Y580790D01*
D02*
G37*
G36*
X37042D02*
X34358D01*
X31767Y580096D01*
X29443Y578754D01*
X27546Y576857D01*
X26204Y574533D01*
X25510Y571942D01*
Y569258D01*
X26204Y566667D01*
X27546Y564343D01*
X29443Y562446D01*
X31767Y561104D01*
X34358Y560410D01*
X37042D01*
X39633Y561104D01*
X41957Y562446D01*
X43854Y564343D01*
X45196Y566667D01*
X45890Y569258D01*
Y571942D01*
X45196Y574533D01*
X43854Y576857D01*
X41957Y578754D01*
X39633Y580096D01*
X37042Y580790D01*
D02*
G37*
G36*
X517210Y559461D02*
X515855D01*
X514035Y559099D01*
X512492Y558068D01*
X511533Y556633D01*
X510860Y556569D01*
X510187Y556633D01*
X509228Y558068D01*
X507685Y559099D01*
X505865Y559461D01*
X504510D01*
Y552580D01*
Y545699D01*
X505865D01*
X507685Y546061D01*
X509228Y547092D01*
X510187Y548527D01*
X510860Y548591D01*
X511533Y548527D01*
X512492Y547092D01*
X514035Y546061D01*
X515855Y545699D01*
X517210D01*
Y552580D01*
Y559461D01*
D02*
G37*
G36*
X501970D02*
X500615D01*
X498795Y559099D01*
X497252Y558068D01*
X496293Y556633D01*
X495620Y556569D01*
X494947Y556633D01*
X493988Y558068D01*
X492445Y559099D01*
X490625Y559461D01*
X489270D01*
Y552580D01*
Y545699D01*
X490625D01*
X492445Y546061D01*
X493988Y547092D01*
X494947Y548527D01*
X495620Y548591D01*
X496293Y548527D01*
X497252Y547092D01*
X498795Y546061D01*
X500615Y545699D01*
X501970D01*
Y552580D01*
Y559461D01*
D02*
G37*
G36*
X486730D02*
X485375D01*
X483555Y559099D01*
X482012Y558068D01*
X481053Y556633D01*
X480380Y556569D01*
X479707Y556633D01*
X478748Y558068D01*
X477205Y559099D01*
X475385Y559461D01*
X474030D01*
Y552580D01*
Y545699D01*
X475385D01*
X477205Y546061D01*
X478748Y547092D01*
X479707Y548527D01*
X480380Y548591D01*
X481053Y548527D01*
X482012Y547092D01*
X483555Y546061D01*
X485375Y545699D01*
X486730D01*
Y552580D01*
Y559461D01*
D02*
G37*
G36*
X471490D02*
X470135D01*
X468315Y559099D01*
X466772Y558068D01*
X465813Y556633D01*
X465140Y556569D01*
X464467Y556633D01*
X463508Y558068D01*
X461965Y559099D01*
X460145Y559461D01*
X458790D01*
Y552580D01*
Y545699D01*
X460145D01*
X461965Y546061D01*
X463508Y547092D01*
X464467Y548527D01*
X465140Y548591D01*
X465813Y548527D01*
X466772Y547092D01*
X468315Y546061D01*
X470135Y545699D01*
X471490D01*
Y552580D01*
Y559461D01*
D02*
G37*
G36*
X521105D02*
X519750D01*
Y553850D01*
X525861D01*
Y554705D01*
X525499Y556525D01*
X524468Y558068D01*
X522925Y559099D01*
X521105Y559461D01*
D02*
G37*
G36*
X456250D02*
X454895D01*
X453075Y559099D01*
X451532Y558068D01*
X450501Y556525D01*
X450139Y554705D01*
Y553850D01*
X456250D01*
Y559461D01*
D02*
G37*
G36*
X525861Y551310D02*
X519750D01*
Y545699D01*
X521105D01*
X522925Y546061D01*
X524468Y547092D01*
X525499Y548635D01*
X525861Y550455D01*
Y551310D01*
D02*
G37*
G36*
X456250D02*
X450139D01*
Y550455D01*
X450501Y548635D01*
X451532Y547092D01*
X453075Y546061D01*
X454895Y545699D01*
X456250D01*
Y551310D01*
D02*
G37*
G36*
X857327Y545842D02*
X841833D01*
Y544532D01*
X838658D01*
X838658Y544532D01*
X836924Y544187D01*
X835453Y543205D01*
X835453Y543205D01*
X832934Y540685D01*
X831502Y540092D01*
X830084Y538675D01*
X829317Y536822D01*
Y534817D01*
X830084Y532965D01*
X831502Y531547D01*
X833355Y530780D01*
X835360D01*
X837212Y531547D01*
X838630Y532965D01*
X839053Y533985D01*
X840535Y535468D01*
X841833D01*
Y534158D01*
X857327D01*
Y545842D01*
D02*
G37*
G36*
X521105Y543961D02*
X515855D01*
X514035Y543599D01*
X512492Y542568D01*
X511533Y541133D01*
X510860Y541069D01*
X510187Y541133D01*
X509228Y542568D01*
X507685Y543599D01*
X505865Y543961D01*
X500615D01*
X498795Y543599D01*
X497252Y542568D01*
X496293Y541133D01*
X495620Y541069D01*
X494947Y541133D01*
X493988Y542568D01*
X492445Y543599D01*
X490625Y543961D01*
X485375D01*
X483555Y543599D01*
X482012Y542568D01*
X481053Y541133D01*
X480380Y541069D01*
X479707Y541133D01*
X478748Y542568D01*
X477205Y543599D01*
X475385Y543961D01*
X470135D01*
X468315Y543599D01*
X466772Y542568D01*
X465813Y541133D01*
X465140Y541069D01*
X464467Y541133D01*
X463508Y542568D01*
X461965Y543599D01*
X460145Y543961D01*
X454895D01*
X453075Y543599D01*
X451532Y542568D01*
X450501Y541025D01*
X450139Y539205D01*
Y534955D01*
X450501Y533135D01*
X451532Y531592D01*
X453075Y530561D01*
X454895Y530199D01*
X460145D01*
X461965Y530561D01*
X463508Y531592D01*
X464467Y533027D01*
X465140Y533091D01*
X465813Y533027D01*
X466772Y531592D01*
X468315Y530561D01*
X470135Y530199D01*
X475385D01*
X477205Y530561D01*
X478748Y531592D01*
X479707Y533027D01*
X480380Y533091D01*
X481053Y533027D01*
X482012Y531592D01*
X483555Y530561D01*
X485375Y530199D01*
X490625D01*
X492445Y530561D01*
X493988Y531592D01*
X494947Y533027D01*
X495620Y533091D01*
X496293Y533027D01*
X497252Y531592D01*
X498795Y530561D01*
X500615Y530199D01*
X505865D01*
X507685Y530561D01*
X509228Y531592D01*
X510187Y533027D01*
X510860Y533091D01*
X511533Y533027D01*
X512492Y531592D01*
X514035Y530561D01*
X515855Y530199D01*
X521105D01*
X522925Y530561D01*
X524468Y531592D01*
X525499Y533135D01*
X525861Y534955D01*
Y539205D01*
X525499Y541025D01*
X524468Y542568D01*
X522925Y543599D01*
X521105Y543961D01*
D02*
G37*
G36*
X113242Y555390D02*
X110559D01*
X107967Y554696D01*
X105643Y553354D01*
X103746Y551457D01*
X102404Y549133D01*
X101710Y546542D01*
Y543858D01*
X102404Y541267D01*
X103746Y538943D01*
X105643Y537046D01*
X107967Y535704D01*
X110559Y535010D01*
X113242D01*
X115833Y535704D01*
X118157Y537046D01*
X120054Y538943D01*
X121396Y541267D01*
X122090Y543858D01*
Y546542D01*
X121396Y549133D01*
X120054Y551457D01*
X118157Y553354D01*
X115833Y554696D01*
X113242Y555390D01*
D02*
G37*
G36*
X87842D02*
X85159D01*
X82567Y554696D01*
X80243Y553354D01*
X78346Y551457D01*
X77004Y549133D01*
X76310Y546542D01*
Y543858D01*
X77004Y541267D01*
X78346Y538943D01*
X80243Y537046D01*
X82567Y535704D01*
X85159Y535010D01*
X87842D01*
X90433Y535704D01*
X92757Y537046D01*
X94654Y538943D01*
X95996Y541267D01*
X96690Y543858D01*
Y546542D01*
X95996Y549133D01*
X94654Y551457D01*
X92757Y553354D01*
X90433Y554696D01*
X87842Y555390D01*
D02*
G37*
G36*
X62442D02*
X59759D01*
X57167Y554696D01*
X54843Y553354D01*
X52946Y551457D01*
X51604Y549133D01*
X50910Y546542D01*
Y543858D01*
X51604Y541267D01*
X52946Y538943D01*
X54843Y537046D01*
X57167Y535704D01*
X59759Y535010D01*
X62442D01*
X65033Y535704D01*
X67357Y537046D01*
X69254Y538943D01*
X70596Y541267D01*
X71290Y543858D01*
Y546542D01*
X70596Y549133D01*
X69254Y551457D01*
X67357Y553354D01*
X65033Y554696D01*
X62442Y555390D01*
D02*
G37*
G36*
X37042D02*
X34358D01*
X31767Y554696D01*
X29443Y553354D01*
X27546Y551457D01*
X26204Y549133D01*
X25510Y546542D01*
Y543858D01*
X26204Y541267D01*
X27546Y538943D01*
X29443Y537046D01*
X31767Y535704D01*
X34358Y535010D01*
X37042D01*
X39633Y535704D01*
X41957Y537046D01*
X43854Y538943D01*
X45196Y541267D01*
X45890Y543858D01*
Y546542D01*
X45196Y549133D01*
X43854Y551457D01*
X41957Y553354D01*
X39633Y554696D01*
X37042Y555390D01*
D02*
G37*
G36*
X857327Y530842D02*
X841833D01*
Y529532D01*
X838247D01*
X838247Y529532D01*
X836513Y529187D01*
X835042Y528205D01*
X835042Y528205D01*
X832846Y526008D01*
X831070Y525273D01*
X829652Y523855D01*
X828885Y522002D01*
Y519997D01*
X829652Y518145D01*
X831070Y516727D01*
X832923Y515960D01*
X834928D01*
X836780Y516727D01*
X838198Y518145D01*
X838478Y518821D01*
X840124Y520468D01*
X841833D01*
Y519158D01*
X857327D01*
Y530842D01*
D02*
G37*
G36*
X62442Y529990D02*
X62370D01*
Y521070D01*
X71290D01*
Y521142D01*
X70596Y523733D01*
X69254Y526057D01*
X67357Y527954D01*
X65033Y529296D01*
X62442Y529990D01*
D02*
G37*
G36*
X37042D02*
X36970D01*
Y521070D01*
X45890D01*
Y521142D01*
X45196Y523733D01*
X43854Y526057D01*
X41957Y527954D01*
X39633Y529296D01*
X37042Y529990D01*
D02*
G37*
G36*
X59830D02*
X59759D01*
X57167Y529296D01*
X54843Y527954D01*
X52946Y526057D01*
X51604Y523733D01*
X50910Y521142D01*
Y521070D01*
X59830D01*
Y529990D01*
D02*
G37*
G36*
X34430D02*
X34358D01*
X31767Y529296D01*
X29443Y527954D01*
X27546Y526057D01*
X26204Y523733D01*
X25510Y521142D01*
Y521070D01*
X34430D01*
Y529990D01*
D02*
G37*
G36*
X544873Y520390D02*
X543127D01*
X541513Y519722D01*
X540830Y519038D01*
X540000Y518625D01*
X539170Y519038D01*
X538487Y519722D01*
X536873Y520390D01*
X535127D01*
X533513Y519722D01*
X532830Y519038D01*
X532000Y518625D01*
X531170Y519038D01*
X530487Y519722D01*
X528873Y520390D01*
X527127D01*
X525513Y519722D01*
X524830Y519038D01*
X524000Y518625D01*
X523170Y519038D01*
X522487Y519722D01*
X520873Y520390D01*
X519127D01*
X517513Y519722D01*
X516830Y519038D01*
X516000Y518625D01*
X515170Y519038D01*
X514487Y519722D01*
X512873Y520390D01*
X511127D01*
X509513Y519722D01*
X508830Y519038D01*
X508000Y518625D01*
X507170Y519038D01*
X506487Y519722D01*
X504873Y520390D01*
X503127D01*
X501513Y519722D01*
X500830Y519038D01*
X500000Y518625D01*
X499170Y519038D01*
X498487Y519722D01*
X496873Y520390D01*
X495127D01*
X493513Y519722D01*
X492830Y519038D01*
X492000Y518625D01*
X491170Y519038D01*
X490487Y519722D01*
X488873Y520390D01*
X487127D01*
X485513Y519722D01*
X484830Y519038D01*
X484000Y518625D01*
X483170Y519038D01*
X482487Y519722D01*
X480873Y520390D01*
X479127D01*
X477513Y519722D01*
X476830Y519038D01*
X476000Y518625D01*
X475170Y519038D01*
X474487Y519722D01*
X472873Y520390D01*
X471127D01*
X469513Y519722D01*
X468830Y519038D01*
X468000Y518625D01*
X467170Y519038D01*
X466487Y519722D01*
X464873Y520390D01*
X463127D01*
X461513Y519722D01*
X460830Y519038D01*
X460000Y518625D01*
X459170Y519038D01*
X458487Y519722D01*
X456873Y520390D01*
X455127D01*
X453513Y519722D01*
X452830Y519038D01*
X452000Y518625D01*
X451170Y519038D01*
X450487Y519722D01*
X448873Y520390D01*
X447127D01*
X445513Y519722D01*
X444830Y519038D01*
X444000Y518625D01*
X443170Y519038D01*
X442487Y519722D01*
X440873Y520390D01*
X439127D01*
X437513Y519722D01*
X436830Y519038D01*
X436000Y518625D01*
X435170Y519038D01*
X434487Y519722D01*
X432873Y520390D01*
X431127D01*
X429513Y519722D01*
X428830Y519038D01*
X428000Y518625D01*
X427170Y519038D01*
X426487Y519722D01*
X425270Y520226D01*
Y516000D01*
X424000D01*
Y514730D01*
X419774D01*
X420278Y513513D01*
X420962Y512830D01*
X421375Y512000D01*
X420962Y511170D01*
X420278Y510487D01*
X419610Y508873D01*
Y507127D01*
X420278Y505513D01*
X420962Y504830D01*
X421375Y504000D01*
X420962Y503170D01*
X420278Y502487D01*
X419610Y500873D01*
Y499127D01*
X420278Y497513D01*
X420962Y496830D01*
X421375Y496000D01*
X420962Y495170D01*
X420278Y494487D01*
X419610Y492873D01*
Y491127D01*
X420278Y489513D01*
X420962Y488830D01*
X421375Y488000D01*
X420962Y487170D01*
X420278Y486487D01*
X419610Y484873D01*
Y483127D01*
X420278Y481513D01*
X420962Y480830D01*
X421375Y480000D01*
X420962Y479170D01*
X420278Y478487D01*
X419610Y476873D01*
Y475127D01*
X420278Y473513D01*
X420962Y472830D01*
X421375Y472000D01*
X420962Y471170D01*
X420278Y470487D01*
X419610Y468873D01*
Y467127D01*
X420278Y465513D01*
X420962Y464830D01*
X421375Y464000D01*
X420962Y463170D01*
X420278Y462487D01*
X419610Y460873D01*
Y459127D01*
X420278Y457513D01*
X420962Y456830D01*
X421375Y456000D01*
X420962Y455170D01*
X420278Y454487D01*
X419610Y452873D01*
Y451127D01*
X420278Y449513D01*
X420962Y448830D01*
X421375Y448000D01*
X420962Y447170D01*
X420278Y446487D01*
X419610Y444873D01*
Y443127D01*
X420278Y441513D01*
X420962Y440830D01*
X421375Y440000D01*
X420962Y439170D01*
X420278Y438487D01*
X419610Y436873D01*
Y435127D01*
X420278Y433513D01*
X420962Y432830D01*
X421375Y432000D01*
X420962Y431170D01*
X420278Y430487D01*
X419610Y428873D01*
Y427127D01*
X420278Y425513D01*
X420962Y424830D01*
X421375Y424000D01*
X420962Y423170D01*
X420278Y422487D01*
X419774Y421270D01*
X424000D01*
Y418730D01*
X419774D01*
X420278Y417513D01*
X420962Y416830D01*
X421375Y416000D01*
X420962Y415170D01*
X420278Y414487D01*
X419774Y413270D01*
X424000D01*
Y410730D01*
X419774D01*
X420278Y409513D01*
X420962Y408830D01*
X421375Y408000D01*
X420962Y407170D01*
X420278Y406487D01*
X419610Y404873D01*
Y403127D01*
X420278Y401513D01*
X420962Y400830D01*
X421375Y400000D01*
X420962Y399170D01*
X420278Y398487D01*
X419610Y396873D01*
Y395127D01*
X420278Y393513D01*
X420962Y392830D01*
X421375Y392000D01*
X420962Y391170D01*
X420278Y390487D01*
X419774Y389270D01*
X424000D01*
Y388000D01*
X425270D01*
Y383774D01*
X426487Y384278D01*
X427170Y384962D01*
X428000Y385375D01*
X428830Y384962D01*
X429513Y384278D01*
X431127Y383610D01*
X432873D01*
X434487Y384278D01*
X435170Y384962D01*
X436000Y385375D01*
X436830Y384962D01*
X437513Y384278D01*
X439127Y383610D01*
X440873D01*
X442487Y384278D01*
X443170Y384962D01*
X444000Y385375D01*
X444830Y384962D01*
X445513Y384278D01*
X447127Y383610D01*
X448873D01*
X450487Y384278D01*
X451170Y384962D01*
X452000Y385375D01*
X452830Y384962D01*
X453513Y384278D01*
X455127Y383610D01*
X456873D01*
X458487Y384278D01*
X459170Y384962D01*
X460000Y385375D01*
X460830Y384962D01*
X461513Y384278D01*
X463127Y383610D01*
X464873D01*
X466487Y384278D01*
X467170Y384962D01*
X468000Y385375D01*
X468830Y384962D01*
X469513Y384278D01*
X471127Y383610D01*
X472873D01*
X474487Y384278D01*
X475170Y384962D01*
X476000Y385375D01*
X476830Y384962D01*
X477513Y384278D01*
X479127Y383610D01*
X480873D01*
X482487Y384278D01*
X483170Y384962D01*
X484000Y385375D01*
X484830Y384962D01*
X485513Y384278D01*
X487127Y383610D01*
X488873D01*
X490487Y384278D01*
X491170Y384962D01*
X492000Y385375D01*
X492830Y384962D01*
X493513Y384278D01*
X495127Y383610D01*
X496873D01*
X498487Y384278D01*
X499170Y384962D01*
X500000Y385375D01*
X500830Y384962D01*
X501513Y384278D01*
X503127Y383610D01*
X504873D01*
X506487Y384278D01*
X507170Y384962D01*
X508000Y385375D01*
X508830Y384962D01*
X509513Y384278D01*
X511127Y383610D01*
X512873D01*
X514487Y384278D01*
X515170Y384962D01*
X516000Y385375D01*
X516830Y384962D01*
X517513Y384278D01*
X519127Y383610D01*
X520873D01*
X522487Y384278D01*
X523170Y384962D01*
X524000Y385375D01*
X524830Y384962D01*
X525513Y384278D01*
X527127Y383610D01*
X528873D01*
X530487Y384278D01*
X531170Y384962D01*
X532000Y385375D01*
X532830Y384962D01*
X533513Y384278D01*
X535127Y383610D01*
X536873D01*
X538487Y384278D01*
X539170Y384962D01*
X540000Y385375D01*
X540830Y384962D01*
X541513Y384278D01*
X543127Y383610D01*
X544873D01*
X546487Y384278D01*
X547170Y384962D01*
X548000Y385375D01*
X548830Y384962D01*
X549513Y384278D01*
X550730Y383774D01*
Y388000D01*
X552000D01*
Y389270D01*
X556226D01*
X555722Y390487D01*
X555038Y391170D01*
X554625Y392000D01*
X555038Y392830D01*
X555722Y393513D01*
X556390Y395127D01*
Y396873D01*
X555722Y398487D01*
X555038Y399170D01*
X554625Y400000D01*
X555038Y400830D01*
X555722Y401513D01*
X556390Y403127D01*
Y404873D01*
X555722Y406487D01*
X555038Y407170D01*
X554625Y408000D01*
X555038Y408830D01*
X555722Y409513D01*
X556390Y411127D01*
Y412873D01*
X555722Y414487D01*
X555038Y415170D01*
X554625Y416000D01*
X555038Y416830D01*
X555722Y417513D01*
X556390Y419127D01*
Y420873D01*
X555722Y422487D01*
X555038Y423170D01*
X554625Y424000D01*
X555038Y424830D01*
X555722Y425513D01*
X556390Y427127D01*
Y428873D01*
X555722Y430487D01*
X555038Y431170D01*
X554625Y432000D01*
X555038Y432830D01*
X555722Y433513D01*
X556390Y435127D01*
Y436873D01*
X555722Y438487D01*
X555038Y439170D01*
X554625Y440000D01*
X555038Y440830D01*
X555722Y441513D01*
X556390Y443127D01*
Y444873D01*
X555722Y446487D01*
X555038Y447170D01*
X554625Y448000D01*
X555038Y448830D01*
X555722Y449513D01*
X556226Y450730D01*
X552000D01*
Y453270D01*
X556226D01*
X555722Y454487D01*
X555038Y455170D01*
X554625Y456000D01*
X555038Y456830D01*
X555722Y457513D01*
X556390Y459127D01*
Y460873D01*
X555722Y462487D01*
X555038Y463170D01*
X554625Y464000D01*
X555038Y464830D01*
X555722Y465513D01*
X556390Y467127D01*
Y468873D01*
X555722Y470487D01*
X555038Y471170D01*
X554625Y472000D01*
X555038Y472830D01*
X555722Y473513D01*
X556390Y475127D01*
Y476873D01*
X555722Y478487D01*
X555038Y479170D01*
X554625Y480000D01*
X555038Y480830D01*
X555722Y481513D01*
X556390Y483127D01*
Y484873D01*
X555722Y486487D01*
X555038Y487170D01*
X554625Y488000D01*
X555038Y488830D01*
X555722Y489513D01*
X556390Y491127D01*
Y492873D01*
X555722Y494487D01*
X555038Y495170D01*
X554625Y496000D01*
X555038Y496830D01*
X555722Y497513D01*
X556390Y499127D01*
Y500873D01*
X555722Y502487D01*
X555038Y503170D01*
X554625Y504000D01*
X555038Y504830D01*
X555722Y505513D01*
X556390Y507127D01*
Y508873D01*
X555722Y510487D01*
X555038Y511170D01*
X554625Y512000D01*
X555038Y512830D01*
X555722Y513513D01*
X556226Y514730D01*
X552000D01*
Y516000D01*
X550730D01*
Y520226D01*
X549513Y519722D01*
X548830Y519038D01*
X548000Y518625D01*
X547170Y519038D01*
X546487Y519722D01*
X544873Y520390D01*
D02*
G37*
G36*
X553270Y520226D02*
Y517270D01*
X556226D01*
X555722Y518487D01*
X554487Y519722D01*
X553270Y520226D01*
D02*
G37*
G36*
X422730D02*
X421513Y519722D01*
X420278Y518487D01*
X419774Y517270D01*
X422730D01*
Y520226D01*
D02*
G37*
G36*
X113242Y529990D02*
X110559D01*
X107967Y529296D01*
X105643Y527954D01*
X103746Y526057D01*
X102404Y523733D01*
X101710Y521142D01*
Y518458D01*
X102404Y515867D01*
X103746Y513543D01*
X105643Y511646D01*
X107967Y510304D01*
X110559Y509610D01*
X113242D01*
X115833Y510304D01*
X118157Y511646D01*
X120054Y513543D01*
X121396Y515867D01*
X122090Y518458D01*
Y521142D01*
X121396Y523733D01*
X120054Y526057D01*
X118157Y527954D01*
X115833Y529296D01*
X113242Y529990D01*
D02*
G37*
G36*
X87842D02*
X85159D01*
X82567Y529296D01*
X80243Y527954D01*
X78346Y526057D01*
X77004Y523733D01*
X76310Y521142D01*
Y518458D01*
X77004Y515867D01*
X78346Y513543D01*
X80243Y511646D01*
X82567Y510304D01*
X85159Y509610D01*
X87842D01*
X90433Y510304D01*
X92757Y511646D01*
X94654Y513543D01*
X95996Y515867D01*
X96690Y518458D01*
Y521142D01*
X95996Y523733D01*
X94654Y526057D01*
X92757Y527954D01*
X90433Y529296D01*
X87842Y529990D01*
D02*
G37*
G36*
X71290Y518530D02*
X62370D01*
Y509610D01*
X62442D01*
X65033Y510304D01*
X67357Y511646D01*
X69254Y513543D01*
X70596Y515867D01*
X71290Y518458D01*
Y518530D01*
D02*
G37*
G36*
X59830D02*
X50910D01*
Y518458D01*
X51604Y515867D01*
X52946Y513543D01*
X54843Y511646D01*
X57167Y510304D01*
X59759Y509610D01*
X59830D01*
Y518530D01*
D02*
G37*
G36*
X45890D02*
X36970D01*
Y509610D01*
X37042D01*
X39633Y510304D01*
X41957Y511646D01*
X43854Y513543D01*
X45196Y515867D01*
X45890Y518458D01*
Y518530D01*
D02*
G37*
G36*
X34430D02*
X25510D01*
Y518458D01*
X26204Y515867D01*
X27546Y513543D01*
X29443Y511646D01*
X31767Y510304D01*
X34358Y509610D01*
X34430D01*
Y518530D01*
D02*
G37*
G36*
X857327Y515842D02*
X841833D01*
Y514532D01*
X836919D01*
X835184Y514187D01*
X833714Y513205D01*
X832846Y512337D01*
X831070Y511601D01*
X829652Y510183D01*
X828885Y508331D01*
Y506326D01*
X829652Y504473D01*
X831070Y503055D01*
X832923Y502288D01*
X834928D01*
X836780Y503055D01*
X838198Y504473D01*
X838478Y505150D01*
X838796Y505468D01*
X841833D01*
Y504158D01*
X857327D01*
Y515842D01*
D02*
G37*
G36*
X857327Y695842D02*
X841833D01*
Y684590D01*
X827000D01*
X826009Y684393D01*
X825169Y683831D01*
X824607Y682991D01*
X824410Y682000D01*
Y651000D01*
X824607Y650009D01*
X825169Y649169D01*
X826009Y648607D01*
X827000Y648410D01*
X865410Y648410D01*
Y497377D01*
X864140Y496569D01*
X863079Y497008D01*
X861883Y498205D01*
X860412Y499187D01*
X858678Y499532D01*
X857327D01*
Y500842D01*
X841833D01*
Y489158D01*
X857327D01*
X858338Y488534D01*
X859145Y487727D01*
X860997Y486960D01*
X863002D01*
X864140Y487431D01*
X865410Y486623D01*
Y485377D01*
X864140Y484569D01*
X863002Y485040D01*
X860997D01*
X859771Y484532D01*
X857327D01*
Y485842D01*
X841833D01*
Y484532D01*
X838661D01*
X822988Y500205D01*
X821518Y501187D01*
X819783Y501532D01*
X802097D01*
X637521Y666107D01*
X636051Y667090D01*
X634317Y667435D01*
X199152D01*
X190341Y676246D01*
X188871Y677228D01*
X187136Y677573D01*
X176490D01*
X170858Y683205D01*
X169388Y684187D01*
X167654Y684532D01*
X166211D01*
X165238Y685988D01*
X163695Y687019D01*
X161875Y687381D01*
X157625D01*
X155805Y687019D01*
X154262Y685988D01*
X153231Y684445D01*
X152869Y682625D01*
Y677375D01*
X153231Y675555D01*
X154262Y674012D01*
X154825Y673635D01*
Y672365D01*
X154262Y671988D01*
X153231Y670445D01*
X152869Y668625D01*
Y663375D01*
X153231Y661555D01*
X154262Y660012D01*
X154825Y659635D01*
Y658365D01*
X154262Y657988D01*
X153231Y656445D01*
X152869Y654625D01*
Y649375D01*
X153231Y647555D01*
X154262Y646012D01*
X154825Y645635D01*
Y644365D01*
X154262Y643988D01*
X153231Y642445D01*
X152869Y640625D01*
Y635375D01*
X153231Y633555D01*
X154262Y632012D01*
X155805Y630981D01*
X157625Y630619D01*
X161875D01*
X163695Y630981D01*
X165238Y632012D01*
X166269Y633555D01*
X166304Y633727D01*
X167483D01*
X169217Y634072D01*
X170688Y635055D01*
X176142Y640509D01*
X187136D01*
X188871Y640854D01*
X190341Y641836D01*
X199649Y651144D01*
X629446D01*
X794852Y485739D01*
X796322Y484757D01*
X798056Y484412D01*
X814592D01*
X815818Y483904D01*
X817823D01*
X819676Y484671D01*
X821094Y486089D01*
X821502Y487076D01*
X823000Y487374D01*
X833579Y476795D01*
X833579Y476795D01*
X835049Y475813D01*
X836783Y475468D01*
X841833D01*
Y474158D01*
X857327D01*
Y475468D01*
X859771D01*
X860997Y474960D01*
X863002D01*
X864140Y475431D01*
X865410Y474623D01*
Y472555D01*
X864140Y471935D01*
X862681Y472540D01*
X860676D01*
X858823Y471773D01*
X858391Y471340D01*
X857327Y470842D01*
X841833D01*
Y469532D01*
X833703D01*
X831969Y469187D01*
X830498Y468205D01*
X826410Y464117D01*
X825140Y464643D01*
Y465469D01*
X824373Y467321D01*
X822955Y468739D01*
X821103Y469506D01*
X819098D01*
X817245Y468739D01*
X815828Y467321D01*
X815320Y466095D01*
X790249Y441024D01*
X789266Y439554D01*
X788921Y437819D01*
Y330207D01*
X617937Y159223D01*
X181065D01*
X178883Y161405D01*
X177413Y162387D01*
X175679Y162732D01*
X166211D01*
X165238Y164188D01*
X163695Y165219D01*
X161875Y165581D01*
X157625D01*
X155805Y165219D01*
X154262Y164188D01*
X153231Y162645D01*
X152869Y160825D01*
Y155575D01*
X153231Y153755D01*
X154262Y152212D01*
X154783Y151864D01*
Y150336D01*
X154262Y149988D01*
X153231Y148445D01*
X152869Y146625D01*
Y141375D01*
X153231Y139555D01*
X154262Y138012D01*
X155805Y136981D01*
X157625Y136619D01*
X161875D01*
X163695Y136981D01*
X165238Y138012D01*
X166211Y139468D01*
X176000D01*
X177734Y139813D01*
X179205Y140795D01*
X180877Y142468D01*
X623000D01*
X624734Y142813D01*
X626205Y143795D01*
X803479Y321070D01*
X803479Y321070D01*
X804461Y322540D01*
X804806Y324274D01*
Y324422D01*
X805530Y325504D01*
X805875Y327239D01*
X805874Y327239D01*
Y430762D01*
X835580Y460468D01*
X841833D01*
Y459158D01*
X856912D01*
X857517Y457967D01*
X857405Y457855D01*
X857125Y457178D01*
X855876Y455929D01*
X850977D01*
X850977Y455929D01*
X850539Y455842D01*
X841833D01*
Y444158D01*
X857327D01*
Y446865D01*
X857753D01*
X859487Y447210D01*
X860958Y448192D01*
X862757Y449992D01*
X864140Y450565D01*
X865410Y449945D01*
Y429590D01*
X857327D01*
Y433730D01*
X849580D01*
X841833D01*
Y429590D01*
X836528D01*
X836037Y430081D01*
X834185Y430848D01*
X832180D01*
X830327Y430081D01*
X829836Y429590D01*
X827000D01*
X826009Y429393D01*
X825169Y428831D01*
X824607Y427991D01*
X824410Y427000D01*
Y411000D01*
X824607Y410009D01*
X825169Y409169D01*
X826009Y408607D01*
X827000Y408410D01*
X888000D01*
X888991Y408607D01*
X889831Y409169D01*
X890393Y410009D01*
X890590Y411000D01*
Y554033D01*
X900210D01*
Y563050D01*
Y572067D01*
X890590D01*
Y627933D01*
X900210D01*
Y636950D01*
Y645967D01*
X890590D01*
Y682000D01*
X890393Y682991D01*
X889831Y683831D01*
X888991Y684393D01*
X888000Y684590D01*
X857327D01*
Y695842D01*
D02*
G37*
G36*
X62442Y504590D02*
X62370D01*
Y495670D01*
X71290D01*
Y495742D01*
X70596Y498333D01*
X69254Y500657D01*
X67357Y502554D01*
X65033Y503896D01*
X62442Y504590D01*
D02*
G37*
G36*
X37042D02*
X36970D01*
Y495670D01*
X45890D01*
Y495742D01*
X45196Y498333D01*
X43854Y500657D01*
X41957Y502554D01*
X39633Y503896D01*
X37042Y504590D01*
D02*
G37*
G36*
X59830D02*
X59759D01*
X57167Y503896D01*
X54843Y502554D01*
X52946Y500657D01*
X51604Y498333D01*
X50910Y495742D01*
Y495670D01*
X59830D01*
Y504590D01*
D02*
G37*
G36*
X34430D02*
X34358D01*
X31767Y503896D01*
X29443Y502554D01*
X27546Y500657D01*
X26204Y498333D01*
X25510Y495742D01*
Y495670D01*
X34430D01*
Y504590D01*
D02*
G37*
G36*
X383315Y492781D02*
X382460D01*
Y486670D01*
X388071D01*
Y488025D01*
X387709Y489845D01*
X386678Y491388D01*
X385135Y492419D01*
X383315Y492781D01*
D02*
G37*
G36*
X379920D02*
X379065D01*
X377245Y492419D01*
X375702Y491388D01*
X374671Y489845D01*
X374309Y488025D01*
Y486670D01*
X379920D01*
Y492781D01*
D02*
G37*
G36*
X594875Y491771D02*
X594020D01*
Y485660D01*
X599631D01*
Y487015D01*
X599269Y488835D01*
X598238Y490378D01*
X596695Y491409D01*
X594875Y491771D01*
D02*
G37*
G36*
X591480D02*
X590625D01*
X588805Y491409D01*
X587262Y490378D01*
X586231Y488835D01*
X585869Y487015D01*
Y485660D01*
X591480D01*
Y491771D01*
D02*
G37*
G36*
X113242Y504590D02*
X110559D01*
X107967Y503896D01*
X105643Y502554D01*
X103746Y500657D01*
X102404Y498333D01*
X101710Y495742D01*
Y493058D01*
X102404Y490467D01*
X103746Y488143D01*
X105643Y486246D01*
X107967Y484904D01*
X110559Y484210D01*
X113242D01*
X115833Y484904D01*
X118157Y486246D01*
X120054Y488143D01*
X121396Y490467D01*
X122090Y493058D01*
Y495742D01*
X121396Y498333D01*
X120054Y500657D01*
X118157Y502554D01*
X115833Y503896D01*
X113242Y504590D01*
D02*
G37*
G36*
X87842D02*
X85159D01*
X82567Y503896D01*
X80243Y502554D01*
X78346Y500657D01*
X77004Y498333D01*
X76310Y495742D01*
Y493058D01*
X77004Y490467D01*
X78346Y488143D01*
X80243Y486246D01*
X82567Y484904D01*
X85159Y484210D01*
X87842D01*
X90433Y484904D01*
X92757Y486246D01*
X94654Y488143D01*
X95996Y490467D01*
X96690Y493058D01*
Y495742D01*
X95996Y498333D01*
X94654Y500657D01*
X92757Y502554D01*
X90433Y503896D01*
X87842Y504590D01*
D02*
G37*
G36*
X71290Y493130D02*
X62370D01*
Y484210D01*
X62442D01*
X65033Y484904D01*
X67357Y486246D01*
X69254Y488143D01*
X70596Y490467D01*
X71290Y493058D01*
Y493130D01*
D02*
G37*
G36*
X59830D02*
X50910D01*
Y493058D01*
X51604Y490467D01*
X52946Y488143D01*
X54843Y486246D01*
X57167Y484904D01*
X59759Y484210D01*
X59830D01*
Y493130D01*
D02*
G37*
G36*
X45890D02*
X36970D01*
Y484210D01*
X37042D01*
X39633Y484904D01*
X41957Y486246D01*
X43854Y488143D01*
X45196Y490467D01*
X45890Y493058D01*
Y493130D01*
D02*
G37*
G36*
X34430D02*
X25510D01*
Y493058D01*
X26204Y490467D01*
X27546Y488143D01*
X29443Y486246D01*
X31767Y484904D01*
X34358Y484210D01*
X34430D01*
Y493130D01*
D02*
G37*
G36*
X388071Y484130D02*
X381190D01*
X374309D01*
Y482775D01*
X374671Y480955D01*
X375702Y479412D01*
X377245Y478381D01*
X377732Y478284D01*
Y476989D01*
X377245Y476892D01*
X375702Y475861D01*
X374671Y474318D01*
X374309Y472497D01*
Y471143D01*
X381190D01*
X388071D01*
Y472497D01*
X387709Y474318D01*
X386678Y475861D01*
X385135Y476892D01*
X384648Y476989D01*
Y478284D01*
X385135Y478381D01*
X386678Y479412D01*
X387709Y480955D01*
X388071Y482775D01*
Y484130D01*
D02*
G37*
G36*
X599631Y483120D02*
X592750D01*
X585869D01*
Y481765D01*
X586231Y479945D01*
X587262Y478401D01*
X588805Y477370D01*
X589292Y477273D01*
Y475979D01*
X588805Y475882D01*
X587262Y474851D01*
X586231Y473307D01*
X585869Y471487D01*
Y470132D01*
X592750D01*
X599631D01*
Y471487D01*
X599269Y473307D01*
X598238Y474851D01*
X596695Y475882D01*
X596208Y475979D01*
Y477273D01*
X596695Y477370D01*
X598238Y478401D01*
X599269Y479945D01*
X599631Y481765D01*
Y483120D01*
D02*
G37*
G36*
X113242Y479190D02*
X110559D01*
X107967Y478496D01*
X105643Y477154D01*
X103746Y475257D01*
X102404Y472933D01*
X101710Y470342D01*
Y467658D01*
X102404Y465067D01*
X103746Y462743D01*
X105643Y460846D01*
X107967Y459504D01*
X110559Y458810D01*
X113242D01*
X115833Y459504D01*
X118157Y460846D01*
X120054Y462743D01*
X121396Y465067D01*
X122090Y467658D01*
Y470342D01*
X121396Y472933D01*
X120054Y475257D01*
X118157Y477154D01*
X115833Y478496D01*
X113242Y479190D01*
D02*
G37*
G36*
X87842D02*
X85159D01*
X82567Y478496D01*
X80243Y477154D01*
X78346Y475257D01*
X77004Y472933D01*
X76310Y470342D01*
Y467658D01*
X77004Y465067D01*
X78346Y462743D01*
X80243Y460846D01*
X82567Y459504D01*
X85159Y458810D01*
X87842D01*
X90433Y459504D01*
X92757Y460846D01*
X94654Y462743D01*
X95996Y465067D01*
X96690Y467658D01*
Y470342D01*
X95996Y472933D01*
X94654Y475257D01*
X92757Y477154D01*
X90433Y478496D01*
X87842Y479190D01*
D02*
G37*
G36*
X62442D02*
X59759D01*
X57167Y478496D01*
X54843Y477154D01*
X52946Y475257D01*
X51604Y472933D01*
X50910Y470342D01*
Y467658D01*
X51604Y465067D01*
X52946Y462743D01*
X54843Y460846D01*
X57167Y459504D01*
X59759Y458810D01*
X62442D01*
X65033Y459504D01*
X67357Y460846D01*
X69254Y462743D01*
X70596Y465067D01*
X71290Y467658D01*
Y470342D01*
X70596Y472933D01*
X69254Y475257D01*
X67357Y477154D01*
X65033Y478496D01*
X62442Y479190D01*
D02*
G37*
G36*
X37042D02*
X34358D01*
X31767Y478496D01*
X29443Y477154D01*
X27546Y475257D01*
X26204Y472933D01*
X25510Y470342D01*
Y467658D01*
X26204Y465067D01*
X27546Y462743D01*
X29443Y460846D01*
X31767Y459504D01*
X34358Y458810D01*
X37042D01*
X39633Y459504D01*
X41957Y460846D01*
X43854Y462743D01*
X45196Y465067D01*
X45890Y467658D01*
Y470342D01*
X45196Y472933D01*
X43854Y475257D01*
X41957Y477154D01*
X39633Y478496D01*
X37042Y479190D01*
D02*
G37*
G36*
X388071Y468602D02*
X381190D01*
X374309D01*
Y467248D01*
X374671Y465427D01*
X375702Y463884D01*
X377245Y462853D01*
X377732Y462756D01*
Y461461D01*
X377245Y461364D01*
X375702Y460333D01*
X374671Y458790D01*
X374309Y456970D01*
Y455615D01*
X381190D01*
X388071D01*
Y456970D01*
X387709Y458790D01*
X386678Y460333D01*
X385135Y461364D01*
X384648Y461461D01*
Y462756D01*
X385135Y462853D01*
X386678Y463884D01*
X387709Y465427D01*
X388071Y467248D01*
Y468602D01*
D02*
G37*
G36*
X599631Y467592D02*
X592750D01*
X585869D01*
Y466237D01*
X586231Y464417D01*
X587262Y462874D01*
X588805Y461843D01*
X589292Y461746D01*
Y460451D01*
X588805Y460354D01*
X587262Y459323D01*
X586231Y457780D01*
X585869Y455960D01*
Y454605D01*
X592750D01*
X599631D01*
Y455960D01*
X599269Y457780D01*
X598238Y459323D01*
X596695Y460354D01*
X596208Y460451D01*
Y461746D01*
X596695Y461843D01*
X598238Y462874D01*
X599269Y464417D01*
X599631Y466237D01*
Y467592D01*
D02*
G37*
G36*
X388071Y453075D02*
X381190D01*
X374309D01*
Y451720D01*
X374671Y449900D01*
X375702Y448357D01*
X377245Y447326D01*
X377732Y447229D01*
Y445934D01*
X377245Y445837D01*
X375702Y444806D01*
X374671Y443263D01*
X374309Y441443D01*
Y440088D01*
X381190D01*
X388071D01*
Y441443D01*
X387709Y443263D01*
X386678Y444806D01*
X385135Y445837D01*
X384648Y445934D01*
Y447229D01*
X385135Y447326D01*
X386678Y448357D01*
X387709Y449900D01*
X388071Y451720D01*
Y453075D01*
D02*
G37*
G36*
X599631Y452065D02*
X592750D01*
X585869D01*
Y450710D01*
X586231Y448890D01*
X587262Y447347D01*
X588805Y446316D01*
X589292Y446219D01*
Y444924D01*
X588805Y444827D01*
X587262Y443796D01*
X586231Y442253D01*
X585869Y440432D01*
Y439077D01*
X592750D01*
X599631D01*
Y440432D01*
X599269Y442253D01*
X598238Y443796D01*
X596695Y444827D01*
X596208Y444924D01*
Y446219D01*
X596695Y446316D01*
X598238Y447347D01*
X599269Y448890D01*
X599631Y450710D01*
Y452065D01*
D02*
G37*
G36*
X857327Y440842D02*
X850850D01*
Y436270D01*
X857327D01*
Y440842D01*
D02*
G37*
G36*
X848310D02*
X841833D01*
Y436270D01*
X848310D01*
Y440842D01*
D02*
G37*
G36*
X113242Y453790D02*
X110559D01*
X107967Y453096D01*
X105643Y451754D01*
X103746Y449857D01*
X102404Y447533D01*
X101710Y444942D01*
Y442258D01*
X102404Y439667D01*
X103746Y437343D01*
X105643Y435446D01*
X107967Y434104D01*
X110559Y433410D01*
X113242D01*
X115833Y434104D01*
X118157Y435446D01*
X120054Y437343D01*
X121396Y439667D01*
X122090Y442258D01*
Y444942D01*
X121396Y447533D01*
X120054Y449857D01*
X118157Y451754D01*
X115833Y453096D01*
X113242Y453790D01*
D02*
G37*
G36*
X87842D02*
X85159D01*
X82567Y453096D01*
X80243Y451754D01*
X78346Y449857D01*
X77004Y447533D01*
X76310Y444942D01*
Y442258D01*
X77004Y439667D01*
X78346Y437343D01*
X80243Y435446D01*
X82567Y434104D01*
X85159Y433410D01*
X87842D01*
X90433Y434104D01*
X92757Y435446D01*
X94654Y437343D01*
X95996Y439667D01*
X96690Y442258D01*
Y444942D01*
X95996Y447533D01*
X94654Y449857D01*
X92757Y451754D01*
X90433Y453096D01*
X87842Y453790D01*
D02*
G37*
G36*
X62442D02*
X59759D01*
X57167Y453096D01*
X54843Y451754D01*
X52946Y449857D01*
X51604Y447533D01*
X50910Y444942D01*
Y442258D01*
X51604Y439667D01*
X52946Y437343D01*
X54843Y435446D01*
X57167Y434104D01*
X59759Y433410D01*
X62442D01*
X65033Y434104D01*
X67357Y435446D01*
X69254Y437343D01*
X70596Y439667D01*
X71290Y442258D01*
Y444942D01*
X70596Y447533D01*
X69254Y449857D01*
X67357Y451754D01*
X65033Y453096D01*
X62442Y453790D01*
D02*
G37*
G36*
X37042D02*
X34358D01*
X31767Y453096D01*
X29443Y451754D01*
X27546Y449857D01*
X26204Y447533D01*
X25510Y444942D01*
Y442258D01*
X26204Y439667D01*
X27546Y437343D01*
X29443Y435446D01*
X31767Y434104D01*
X34358Y433410D01*
X37042D01*
X39633Y434104D01*
X41957Y435446D01*
X43854Y437343D01*
X45196Y439667D01*
X45890Y442258D01*
Y444942D01*
X45196Y447533D01*
X43854Y449857D01*
X41957Y451754D01*
X39633Y453096D01*
X37042Y453790D01*
D02*
G37*
G36*
X388071Y437548D02*
X381190D01*
X374309D01*
Y436193D01*
X374671Y434372D01*
X375702Y432829D01*
X377245Y431798D01*
X377732Y431701D01*
Y430406D01*
X377245Y430309D01*
X375702Y429278D01*
X374671Y427735D01*
X374309Y425915D01*
Y424560D01*
X381190D01*
X388071D01*
Y425915D01*
X387709Y427735D01*
X386678Y429278D01*
X385135Y430309D01*
X384648Y430406D01*
Y431701D01*
X385135Y431798D01*
X386678Y432829D01*
X387709Y434372D01*
X388071Y436193D01*
Y437548D01*
D02*
G37*
G36*
X599631Y436538D02*
X592750D01*
X585869D01*
Y435182D01*
X586231Y433362D01*
X587262Y431819D01*
X588805Y430788D01*
X589292Y430691D01*
Y429396D01*
X588805Y429299D01*
X587262Y428268D01*
X586231Y426725D01*
X585869Y424905D01*
Y423550D01*
X592750D01*
X599631D01*
Y424905D01*
X599269Y426725D01*
X598238Y428268D01*
X596695Y429299D01*
X596208Y429396D01*
Y430691D01*
X596695Y430788D01*
X598238Y431819D01*
X599269Y433362D01*
X599631Y435182D01*
Y436538D01*
D02*
G37*
G36*
X398815Y492781D02*
X394565D01*
X392745Y492419D01*
X391202Y491388D01*
X390171Y489845D01*
X389809Y488025D01*
Y482775D01*
X390171Y480955D01*
X391202Y479412D01*
X392745Y478381D01*
X393232Y478284D01*
Y476989D01*
X392745Y476892D01*
X391202Y475861D01*
X390171Y474318D01*
X389809Y472497D01*
Y467248D01*
X390171Y465427D01*
X391202Y463884D01*
X392745Y462853D01*
X393232Y462756D01*
Y461461D01*
X392745Y461364D01*
X391202Y460333D01*
X390171Y458790D01*
X389809Y456970D01*
Y451720D01*
X390171Y449900D01*
X391202Y448357D01*
X392745Y447326D01*
X393232Y447229D01*
Y445934D01*
X392745Y445837D01*
X391202Y444806D01*
X390171Y443263D01*
X389809Y441443D01*
Y436193D01*
X390171Y434372D01*
X391202Y432829D01*
X392745Y431798D01*
X393232Y431701D01*
Y430406D01*
X392745Y430309D01*
X391202Y429278D01*
X390171Y427735D01*
X389809Y425915D01*
Y420665D01*
X390171Y418845D01*
X391202Y417302D01*
X392745Y416271D01*
X394565Y415909D01*
X398815D01*
X400635Y416271D01*
X402178Y417302D01*
X403209Y418845D01*
X403571Y420665D01*
Y425915D01*
X403209Y427735D01*
X402178Y429278D01*
X400635Y430309D01*
X400148Y430406D01*
Y431701D01*
X400635Y431798D01*
X402178Y432829D01*
X403209Y434372D01*
X403571Y436193D01*
Y441443D01*
X403209Y443263D01*
X402178Y444806D01*
X400635Y445837D01*
X400148Y445934D01*
Y447229D01*
X400635Y447326D01*
X402178Y448357D01*
X403209Y449900D01*
X403571Y451720D01*
Y456970D01*
X403209Y458790D01*
X402178Y460333D01*
X400635Y461364D01*
X400148Y461461D01*
Y462756D01*
X400635Y462853D01*
X402178Y463884D01*
X403209Y465427D01*
X403571Y467248D01*
Y472497D01*
X403209Y474318D01*
X402178Y475861D01*
X400635Y476892D01*
X400148Y476989D01*
Y478284D01*
X400635Y478381D01*
X402178Y479412D01*
X403209Y480955D01*
X403571Y482775D01*
Y488025D01*
X403209Y489845D01*
X402178Y491388D01*
X400635Y492419D01*
X398815Y492781D01*
D02*
G37*
G36*
X388071Y422020D02*
X382460D01*
Y415909D01*
X383315D01*
X385135Y416271D01*
X386678Y417302D01*
X387709Y418845D01*
X388071Y420665D01*
Y422020D01*
D02*
G37*
G36*
X379920D02*
X374309D01*
Y420665D01*
X374671Y418845D01*
X375702Y417302D01*
X377245Y416271D01*
X379065Y415909D01*
X379920D01*
Y422020D01*
D02*
G37*
G36*
X599631Y421010D02*
X594020D01*
Y414899D01*
X594875D01*
X596695Y415261D01*
X598238Y416292D01*
X599269Y417835D01*
X599631Y419655D01*
Y421010D01*
D02*
G37*
G36*
X591480D02*
X585869D01*
Y419655D01*
X586231Y417835D01*
X587262Y416292D01*
X588805Y415261D01*
X590625Y414899D01*
X591480D01*
Y421010D01*
D02*
G37*
G36*
X579375Y491771D02*
X575125D01*
X573305Y491409D01*
X571762Y490378D01*
X570731Y488835D01*
X570369Y487015D01*
Y481765D01*
X570731Y479945D01*
X571762Y478401D01*
X573305Y477370D01*
X573792Y477273D01*
Y475979D01*
X573305Y475882D01*
X571762Y474851D01*
X570731Y473307D01*
X570369Y471487D01*
Y466237D01*
X570731Y464417D01*
X571762Y462874D01*
X573305Y461843D01*
X573792Y461746D01*
Y460451D01*
X573305Y460354D01*
X571762Y459323D01*
X570731Y457780D01*
X570369Y455960D01*
Y450710D01*
X570731Y448890D01*
X571762Y447347D01*
X573305Y446316D01*
X573792Y446219D01*
Y444924D01*
X573305Y444827D01*
X571762Y443796D01*
X570731Y442253D01*
X570369Y440432D01*
Y435182D01*
X570731Y433362D01*
X571762Y431819D01*
X573305Y430788D01*
X573792Y430691D01*
Y429396D01*
X573305Y429299D01*
X571762Y428268D01*
X570731Y426725D01*
X570369Y424905D01*
Y419655D01*
X570731Y417835D01*
X571762Y416292D01*
X573305Y415261D01*
X575125Y414899D01*
X579375D01*
X581195Y415261D01*
X582738Y416292D01*
X583769Y417835D01*
X584131Y419655D01*
Y424905D01*
X583769Y426725D01*
X582738Y428268D01*
X581195Y429299D01*
X580708Y429396D01*
Y430691D01*
X581195Y430788D01*
X582738Y431819D01*
X583769Y433362D01*
X584131Y435182D01*
Y440432D01*
X583769Y442253D01*
X582738Y443796D01*
X581195Y444827D01*
X580708Y444924D01*
Y446219D01*
X581195Y446316D01*
X582738Y447347D01*
X583769Y448890D01*
X584131Y450710D01*
Y455960D01*
X583769Y457780D01*
X582738Y459323D01*
X581195Y460354D01*
X580708Y460451D01*
Y461746D01*
X581195Y461843D01*
X582738Y462874D01*
X583769Y464417D01*
X584131Y466237D01*
Y471487D01*
X583769Y473307D01*
X582738Y474851D01*
X581195Y475882D01*
X580708Y475979D01*
Y477273D01*
X581195Y477370D01*
X582738Y478401D01*
X583769Y479945D01*
X584131Y481765D01*
Y487015D01*
X583769Y488835D01*
X582738Y490378D01*
X581195Y491409D01*
X579375Y491771D01*
D02*
G37*
G36*
X113242Y428390D02*
X110559D01*
X107967Y427696D01*
X105643Y426354D01*
X103746Y424457D01*
X102404Y422133D01*
X101710Y419542D01*
Y416858D01*
X102404Y414267D01*
X103746Y411943D01*
X105643Y410046D01*
X107967Y408704D01*
X110559Y408010D01*
X113242D01*
X115833Y408704D01*
X118157Y410046D01*
X120054Y411943D01*
X121396Y414267D01*
X122090Y416858D01*
Y419542D01*
X121396Y422133D01*
X120054Y424457D01*
X118157Y426354D01*
X115833Y427696D01*
X113242Y428390D01*
D02*
G37*
G36*
X87842D02*
X85159D01*
X82567Y427696D01*
X80243Y426354D01*
X78346Y424457D01*
X77004Y422133D01*
X76310Y419542D01*
Y416858D01*
X77004Y414267D01*
X78346Y411943D01*
X80243Y410046D01*
X82567Y408704D01*
X85159Y408010D01*
X87842D01*
X90433Y408704D01*
X92757Y410046D01*
X94654Y411943D01*
X95996Y414267D01*
X96690Y416858D01*
Y419542D01*
X95996Y422133D01*
X94654Y424457D01*
X92757Y426354D01*
X90433Y427696D01*
X87842Y428390D01*
D02*
G37*
G36*
X62442D02*
X59759D01*
X57167Y427696D01*
X54843Y426354D01*
X52946Y424457D01*
X51604Y422133D01*
X50910Y419542D01*
Y416858D01*
X51604Y414267D01*
X52946Y411943D01*
X54843Y410046D01*
X57167Y408704D01*
X59759Y408010D01*
X62442D01*
X65033Y408704D01*
X67357Y410046D01*
X69254Y411943D01*
X70596Y414267D01*
X71290Y416858D01*
Y419542D01*
X70596Y422133D01*
X69254Y424457D01*
X67357Y426354D01*
X65033Y427696D01*
X62442Y428390D01*
D02*
G37*
G36*
X37042D02*
X34358D01*
X31767Y427696D01*
X29443Y426354D01*
X27546Y424457D01*
X26204Y422133D01*
X25510Y419542D01*
Y416858D01*
X26204Y414267D01*
X27546Y411943D01*
X29443Y410046D01*
X31767Y408704D01*
X34358Y408010D01*
X37042D01*
X39633Y408704D01*
X41957Y410046D01*
X43854Y411943D01*
X45196Y414267D01*
X45890Y416858D01*
Y419542D01*
X45196Y422133D01*
X43854Y424457D01*
X41957Y426354D01*
X39633Y427696D01*
X37042Y428390D01*
D02*
G37*
G36*
X900210Y405967D02*
X889669D01*
Y398220D01*
X900210D01*
Y405967D01*
D02*
G37*
G36*
Y395680D02*
X889669D01*
Y387933D01*
X900210D01*
Y395680D01*
D02*
G37*
G36*
X556226Y386730D02*
X553270D01*
Y383774D01*
X554487Y384278D01*
X555722Y385513D01*
X556226Y386730D01*
D02*
G37*
G36*
X422730D02*
X419774D01*
X420278Y385513D01*
X421513Y384278D01*
X422730Y383774D01*
Y386730D01*
D02*
G37*
G36*
X113242Y402990D02*
X110559D01*
X107967Y402296D01*
X105643Y400954D01*
X103746Y399057D01*
X102404Y396733D01*
X101710Y394142D01*
Y391459D01*
X102404Y388867D01*
X103746Y386543D01*
X105643Y384646D01*
X107967Y383304D01*
X110559Y382610D01*
X113242D01*
X115833Y383304D01*
X118157Y384646D01*
X120054Y386543D01*
X121396Y388867D01*
X122090Y391459D01*
Y394142D01*
X121396Y396733D01*
X120054Y399057D01*
X118157Y400954D01*
X115833Y402296D01*
X113242Y402990D01*
D02*
G37*
G36*
X87842D02*
X85159D01*
X82567Y402296D01*
X80243Y400954D01*
X78346Y399057D01*
X77004Y396733D01*
X76310Y394142D01*
Y391459D01*
X77004Y388867D01*
X78346Y386543D01*
X80243Y384646D01*
X82567Y383304D01*
X85159Y382610D01*
X87842D01*
X90433Y383304D01*
X92757Y384646D01*
X94654Y386543D01*
X95996Y388867D01*
X96690Y391459D01*
Y394142D01*
X95996Y396733D01*
X94654Y399057D01*
X92757Y400954D01*
X90433Y402296D01*
X87842Y402990D01*
D02*
G37*
G36*
X62442D02*
X59759D01*
X57167Y402296D01*
X54843Y400954D01*
X52946Y399057D01*
X51604Y396733D01*
X50910Y394142D01*
Y391459D01*
X51604Y388867D01*
X52946Y386543D01*
X54843Y384646D01*
X57167Y383304D01*
X59759Y382610D01*
X62442D01*
X65033Y383304D01*
X67357Y384646D01*
X69254Y386543D01*
X70596Y388867D01*
X71290Y391459D01*
Y394142D01*
X70596Y396733D01*
X69254Y399057D01*
X67357Y400954D01*
X65033Y402296D01*
X62442Y402990D01*
D02*
G37*
G36*
X37042D02*
X34358D01*
X31767Y402296D01*
X29443Y400954D01*
X27546Y399057D01*
X26204Y396733D01*
X25510Y394142D01*
Y391459D01*
X26204Y388867D01*
X27546Y386543D01*
X29443Y384646D01*
X31767Y383304D01*
X34358Y382610D01*
X37042D01*
X39633Y383304D01*
X41957Y384646D01*
X43854Y386543D01*
X45196Y388867D01*
X45890Y391459D01*
Y394142D01*
X45196Y396733D01*
X43854Y399057D01*
X41957Y400954D01*
X39633Y402296D01*
X37042Y402990D01*
D02*
G37*
G36*
X521105Y367631D02*
X515855D01*
X514035Y367269D01*
X512492Y366238D01*
X511533Y364803D01*
X510860Y364739D01*
X510187Y364803D01*
X509228Y366238D01*
X507685Y367269D01*
X505865Y367631D01*
X500615D01*
X498795Y367269D01*
X497252Y366238D01*
X496293Y364803D01*
X495620Y364739D01*
X494947Y364803D01*
X493988Y366238D01*
X492445Y367269D01*
X490625Y367631D01*
X485375D01*
X483555Y367269D01*
X482012Y366238D01*
X481053Y364803D01*
X480380Y364739D01*
X479707Y364803D01*
X478748Y366238D01*
X477205Y367269D01*
X475385Y367631D01*
X470135D01*
X468315Y367269D01*
X466772Y366238D01*
X465813Y364803D01*
X465140Y364739D01*
X464467Y364803D01*
X463508Y366238D01*
X461965Y367269D01*
X460145Y367631D01*
X454895D01*
X453075Y367269D01*
X451532Y366238D01*
X450501Y364695D01*
X450139Y362875D01*
Y358625D01*
X450501Y356805D01*
X451532Y355262D01*
X453075Y354231D01*
X454895Y353869D01*
X460145D01*
X461965Y354231D01*
X463508Y355262D01*
X464467Y356697D01*
X465140Y356761D01*
X465813Y356697D01*
X466772Y355262D01*
X468315Y354231D01*
X470135Y353869D01*
X475385D01*
X477205Y354231D01*
X478748Y355262D01*
X479707Y356697D01*
X480380Y356761D01*
X481053Y356697D01*
X482012Y355262D01*
X483555Y354231D01*
X485375Y353869D01*
X490625D01*
X492445Y354231D01*
X493988Y355262D01*
X494947Y356697D01*
X495620Y356761D01*
X496293Y356697D01*
X497252Y355262D01*
X498795Y354231D01*
X500615Y353869D01*
X505865D01*
X507685Y354231D01*
X509228Y355262D01*
X510187Y356697D01*
X510860Y356761D01*
X511533Y356697D01*
X512492Y355262D01*
X514035Y354231D01*
X515855Y353869D01*
X521105D01*
X522925Y354231D01*
X524468Y355262D01*
X525499Y356805D01*
X525861Y358625D01*
Y362875D01*
X525499Y364695D01*
X524468Y366238D01*
X522925Y367269D01*
X521105Y367631D01*
D02*
G37*
G36*
X113242Y377590D02*
X110559D01*
X107967Y376896D01*
X105643Y375554D01*
X103746Y373657D01*
X102404Y371333D01*
X101710Y368742D01*
Y366059D01*
X102404Y363467D01*
X103746Y361143D01*
X105643Y359246D01*
X107967Y357904D01*
X110559Y357210D01*
X113242D01*
X115833Y357904D01*
X118157Y359246D01*
X120054Y361143D01*
X121396Y363467D01*
X122090Y366059D01*
Y368742D01*
X121396Y371333D01*
X120054Y373657D01*
X118157Y375554D01*
X115833Y376896D01*
X113242Y377590D01*
D02*
G37*
G36*
X87842D02*
X85159D01*
X82567Y376896D01*
X80243Y375554D01*
X78346Y373657D01*
X77004Y371333D01*
X76310Y368742D01*
Y366059D01*
X77004Y363467D01*
X78346Y361143D01*
X80243Y359246D01*
X82567Y357904D01*
X85159Y357210D01*
X87842D01*
X90433Y357904D01*
X92757Y359246D01*
X94654Y361143D01*
X95996Y363467D01*
X96690Y366059D01*
Y368742D01*
X95996Y371333D01*
X94654Y373657D01*
X92757Y375554D01*
X90433Y376896D01*
X87842Y377590D01*
D02*
G37*
G36*
X62442D02*
X59759D01*
X57167Y376896D01*
X54843Y375554D01*
X52946Y373657D01*
X51604Y371333D01*
X50910Y368742D01*
Y366059D01*
X51604Y363467D01*
X52946Y361143D01*
X54843Y359246D01*
X57167Y357904D01*
X59759Y357210D01*
X62442D01*
X65033Y357904D01*
X67357Y359246D01*
X69254Y361143D01*
X70596Y363467D01*
X71290Y366059D01*
Y368742D01*
X70596Y371333D01*
X69254Y373657D01*
X67357Y375554D01*
X65033Y376896D01*
X62442Y377590D01*
D02*
G37*
G36*
X37042D02*
X34358D01*
X31767Y376896D01*
X29443Y375554D01*
X27546Y373657D01*
X26204Y371333D01*
X25510Y368742D01*
Y366059D01*
X26204Y363467D01*
X27546Y361143D01*
X29443Y359246D01*
X31767Y357904D01*
X34358Y357210D01*
X37042D01*
X39633Y357904D01*
X41957Y359246D01*
X43854Y361143D01*
X45196Y363467D01*
X45890Y366059D01*
Y368742D01*
X45196Y371333D01*
X43854Y373657D01*
X41957Y375554D01*
X39633Y376896D01*
X37042Y377590D01*
D02*
G37*
G36*
X517210Y352131D02*
X515855D01*
X514035Y351769D01*
X512492Y350738D01*
X511533Y349303D01*
X510860Y349239D01*
X510187Y349303D01*
X509228Y350738D01*
X507685Y351769D01*
X505865Y352131D01*
X504510D01*
Y345250D01*
Y338369D01*
X505865D01*
X507685Y338731D01*
X509228Y339762D01*
X510187Y341197D01*
X510860Y341261D01*
X511533Y341197D01*
X512492Y339762D01*
X514035Y338731D01*
X515855Y338369D01*
X517210D01*
Y345250D01*
Y352131D01*
D02*
G37*
G36*
X501970D02*
X500615D01*
X498795Y351769D01*
X497252Y350738D01*
X496293Y349303D01*
X495620Y349239D01*
X494947Y349303D01*
X493988Y350738D01*
X492445Y351769D01*
X490625Y352131D01*
X489270D01*
Y345250D01*
Y338369D01*
X490625D01*
X492445Y338731D01*
X493988Y339762D01*
X494947Y341197D01*
X495620Y341261D01*
X496293Y341197D01*
X497252Y339762D01*
X498795Y338731D01*
X500615Y338369D01*
X501970D01*
Y345250D01*
Y352131D01*
D02*
G37*
G36*
X486730D02*
X485375D01*
X483555Y351769D01*
X482012Y350738D01*
X481053Y349303D01*
X480380Y349239D01*
X479707Y349303D01*
X478748Y350738D01*
X477205Y351769D01*
X475385Y352131D01*
X474030D01*
Y345250D01*
Y338369D01*
X475385D01*
X477205Y338731D01*
X478748Y339762D01*
X479707Y341197D01*
X480380Y341261D01*
X481053Y341197D01*
X482012Y339762D01*
X483555Y338731D01*
X485375Y338369D01*
X486730D01*
Y345250D01*
Y352131D01*
D02*
G37*
G36*
X471490D02*
X470135D01*
X468315Y351769D01*
X466772Y350738D01*
X465813Y349303D01*
X465140Y349239D01*
X464467Y349303D01*
X463508Y350738D01*
X461965Y351769D01*
X460145Y352131D01*
X458790D01*
Y345250D01*
Y338369D01*
X460145D01*
X461965Y338731D01*
X463508Y339762D01*
X464467Y341197D01*
X465140Y341261D01*
X465813Y341197D01*
X466772Y339762D01*
X468315Y338731D01*
X470135Y338369D01*
X471490D01*
Y345250D01*
Y352131D01*
D02*
G37*
G36*
X521105D02*
X519750D01*
Y346520D01*
X525861D01*
Y347375D01*
X525499Y349195D01*
X524468Y350738D01*
X522925Y351769D01*
X521105Y352131D01*
D02*
G37*
G36*
X456250D02*
X454895D01*
X453075Y351769D01*
X451532Y350738D01*
X450501Y349195D01*
X450139Y347375D01*
Y346520D01*
X456250D01*
Y352131D01*
D02*
G37*
G36*
X525861Y343980D02*
X519750D01*
Y338369D01*
X521105D01*
X522925Y338731D01*
X524468Y339762D01*
X525499Y341305D01*
X525861Y343125D01*
Y343980D01*
D02*
G37*
G36*
X456250D02*
X450139D01*
Y343125D01*
X450501Y341305D01*
X451532Y339762D01*
X453075Y338731D01*
X454895Y338369D01*
X456250D01*
Y343980D01*
D02*
G37*
G36*
X113242Y352190D02*
X110559D01*
X107967Y351496D01*
X105643Y350154D01*
X103746Y348257D01*
X102404Y345933D01*
X101710Y343342D01*
Y340658D01*
X102404Y338067D01*
X103746Y335743D01*
X105643Y333846D01*
X107967Y332504D01*
X110559Y331810D01*
X113242D01*
X115833Y332504D01*
X118157Y333846D01*
X120054Y335743D01*
X121396Y338067D01*
X122090Y340658D01*
Y343342D01*
X121396Y345933D01*
X120054Y348257D01*
X118157Y350154D01*
X115833Y351496D01*
X113242Y352190D01*
D02*
G37*
G36*
X87842D02*
X85159D01*
X82567Y351496D01*
X80243Y350154D01*
X78346Y348257D01*
X77004Y345933D01*
X76310Y343342D01*
Y340658D01*
X77004Y338067D01*
X78346Y335743D01*
X80243Y333846D01*
X82567Y332504D01*
X85159Y331810D01*
X87842D01*
X90433Y332504D01*
X92757Y333846D01*
X94654Y335743D01*
X95996Y338067D01*
X96690Y340658D01*
Y343342D01*
X95996Y345933D01*
X94654Y348257D01*
X92757Y350154D01*
X90433Y351496D01*
X87842Y352190D01*
D02*
G37*
G36*
X62442D02*
X59759D01*
X57167Y351496D01*
X54843Y350154D01*
X52946Y348257D01*
X51604Y345933D01*
X50910Y343342D01*
Y340658D01*
X51604Y338067D01*
X52946Y335743D01*
X54843Y333846D01*
X57167Y332504D01*
X59759Y331810D01*
X62442D01*
X65033Y332504D01*
X67357Y333846D01*
X69254Y335743D01*
X70596Y338067D01*
X71290Y340658D01*
Y343342D01*
X70596Y345933D01*
X69254Y348257D01*
X67357Y350154D01*
X65033Y351496D01*
X62442Y352190D01*
D02*
G37*
G36*
X37042D02*
X34358D01*
X31767Y351496D01*
X29443Y350154D01*
X27546Y348257D01*
X26204Y345933D01*
X25510Y343342D01*
Y340658D01*
X26204Y338067D01*
X27546Y335743D01*
X29443Y333846D01*
X31767Y332504D01*
X34358Y331810D01*
X37042D01*
X39633Y332504D01*
X41957Y333846D01*
X43854Y335743D01*
X45196Y338067D01*
X45890Y340658D01*
Y343342D01*
X45196Y345933D01*
X43854Y348257D01*
X41957Y350154D01*
X39633Y351496D01*
X37042Y352190D01*
D02*
G37*
G36*
X900210Y332067D02*
X889669D01*
Y324320D01*
X900210D01*
Y332067D01*
D02*
G37*
G36*
Y321780D02*
X889669D01*
Y314033D01*
X900210D01*
Y321780D01*
D02*
G37*
G36*
X113242Y326790D02*
X110559D01*
X107967Y326096D01*
X105643Y324754D01*
X103746Y322857D01*
X102404Y320533D01*
X101710Y317942D01*
Y315259D01*
X102404Y312667D01*
X103746Y310343D01*
X105643Y308446D01*
X107967Y307104D01*
X110559Y306410D01*
X113242D01*
X115833Y307104D01*
X118157Y308446D01*
X120054Y310343D01*
X121396Y312667D01*
X122090Y315259D01*
Y317942D01*
X121396Y320533D01*
X120054Y322857D01*
X118157Y324754D01*
X115833Y326096D01*
X113242Y326790D01*
D02*
G37*
G36*
X87842D02*
X85159D01*
X82567Y326096D01*
X80243Y324754D01*
X78346Y322857D01*
X77004Y320533D01*
X76310Y317942D01*
Y315259D01*
X77004Y312667D01*
X78346Y310343D01*
X80243Y308446D01*
X82567Y307104D01*
X85159Y306410D01*
X87842D01*
X90433Y307104D01*
X92757Y308446D01*
X94654Y310343D01*
X95996Y312667D01*
X96690Y315259D01*
Y317942D01*
X95996Y320533D01*
X94654Y322857D01*
X92757Y324754D01*
X90433Y326096D01*
X87842Y326790D01*
D02*
G37*
G36*
X62442D02*
X59759D01*
X57167Y326096D01*
X54843Y324754D01*
X52946Y322857D01*
X51604Y320533D01*
X50910Y317942D01*
Y315259D01*
X51604Y312667D01*
X52946Y310343D01*
X54843Y308446D01*
X57167Y307104D01*
X59759Y306410D01*
X62442D01*
X65033Y307104D01*
X67357Y308446D01*
X69254Y310343D01*
X70596Y312667D01*
X71290Y315259D01*
Y317942D01*
X70596Y320533D01*
X69254Y322857D01*
X67357Y324754D01*
X65033Y326096D01*
X62442Y326790D01*
D02*
G37*
G36*
X37042D02*
X34358D01*
X31767Y326096D01*
X29443Y324754D01*
X27546Y322857D01*
X26204Y320533D01*
X25510Y317942D01*
Y315259D01*
X26204Y312667D01*
X27546Y310343D01*
X29443Y308446D01*
X31767Y307104D01*
X34358Y306410D01*
X37042D01*
X39633Y307104D01*
X41957Y308446D01*
X43854Y310343D01*
X45196Y312667D01*
X45890Y315259D01*
Y317942D01*
X45196Y320533D01*
X43854Y322857D01*
X41957Y324754D01*
X39633Y326096D01*
X37042Y326790D01*
D02*
G37*
G36*
X857327Y305842D02*
X841833D01*
Y304532D01*
X835229D01*
X834003Y305040D01*
X831998D01*
X830145Y304273D01*
X828727Y302855D01*
X827960Y301003D01*
Y298997D01*
X828727Y297145D01*
X830145Y295727D01*
X831998Y294960D01*
X834003D01*
X835229Y295468D01*
X841833D01*
Y294158D01*
X857327D01*
Y305842D01*
D02*
G37*
G36*
Y290842D02*
X841833D01*
Y289532D01*
X835229D01*
X834003Y290040D01*
X831998D01*
X830145Y289273D01*
X828727Y287855D01*
X827960Y286003D01*
Y283997D01*
X828727Y282145D01*
X830145Y280727D01*
X831998Y279960D01*
X834003D01*
X835229Y280468D01*
X841833D01*
Y279158D01*
X857327D01*
Y290842D01*
D02*
G37*
G36*
X113242Y301390D02*
X110559D01*
X107967Y300696D01*
X105643Y299354D01*
X103746Y297457D01*
X102404Y295133D01*
X101710Y292542D01*
Y289858D01*
X102404Y287267D01*
X103746Y284943D01*
X105643Y283046D01*
X107967Y281704D01*
X110559Y281010D01*
X113242D01*
X115833Y281704D01*
X118157Y283046D01*
X120054Y284943D01*
X121396Y287267D01*
X122090Y289858D01*
Y292542D01*
X121396Y295133D01*
X120054Y297457D01*
X118157Y299354D01*
X115833Y300696D01*
X113242Y301390D01*
D02*
G37*
G36*
X87842D02*
X85159D01*
X82567Y300696D01*
X80243Y299354D01*
X78346Y297457D01*
X77004Y295133D01*
X76310Y292542D01*
Y289858D01*
X77004Y287267D01*
X78346Y284943D01*
X80243Y283046D01*
X82567Y281704D01*
X85159Y281010D01*
X87842D01*
X90433Y281704D01*
X92757Y283046D01*
X94654Y284943D01*
X95996Y287267D01*
X96690Y289858D01*
Y292542D01*
X95996Y295133D01*
X94654Y297457D01*
X92757Y299354D01*
X90433Y300696D01*
X87842Y301390D01*
D02*
G37*
G36*
X62442D02*
X59759D01*
X57167Y300696D01*
X54843Y299354D01*
X52946Y297457D01*
X51604Y295133D01*
X50910Y292542D01*
Y289858D01*
X51604Y287267D01*
X52946Y284943D01*
X54843Y283046D01*
X57167Y281704D01*
X59759Y281010D01*
X62442D01*
X65033Y281704D01*
X67357Y283046D01*
X69254Y284943D01*
X70596Y287267D01*
X71290Y289858D01*
Y292542D01*
X70596Y295133D01*
X69254Y297457D01*
X67357Y299354D01*
X65033Y300696D01*
X62442Y301390D01*
D02*
G37*
G36*
X37042D02*
X34358D01*
X31767Y300696D01*
X29443Y299354D01*
X27546Y297457D01*
X26204Y295133D01*
X25510Y292542D01*
Y289858D01*
X26204Y287267D01*
X27546Y284943D01*
X29443Y283046D01*
X31767Y281704D01*
X34358Y281010D01*
X37042D01*
X39633Y281704D01*
X41957Y283046D01*
X43854Y284943D01*
X45196Y287267D01*
X45890Y289858D01*
Y292542D01*
X45196Y295133D01*
X43854Y297457D01*
X41957Y299354D01*
X39633Y300696D01*
X37042Y301390D01*
D02*
G37*
G36*
X857327Y275842D02*
X841833D01*
Y274532D01*
X835229D01*
X834003Y275040D01*
X831998D01*
X830145Y274273D01*
X828727Y272855D01*
X827960Y271003D01*
Y268997D01*
X828727Y267145D01*
X830145Y265727D01*
X831998Y264960D01*
X834003D01*
X835229Y265468D01*
X841833D01*
Y264158D01*
X857327D01*
Y275842D01*
D02*
G37*
G36*
Y260842D02*
X841833D01*
Y259532D01*
X835229D01*
X834003Y260040D01*
X831998D01*
X830145Y259273D01*
X828727Y257855D01*
X827960Y256003D01*
Y253997D01*
X828727Y252145D01*
X830145Y250727D01*
X831998Y249960D01*
X834003D01*
X835229Y250468D01*
X841833D01*
Y249158D01*
X857327D01*
Y260842D01*
D02*
G37*
G36*
X113242Y275990D02*
X110559D01*
X107967Y275296D01*
X105643Y273954D01*
X103746Y272057D01*
X102404Y269733D01*
X101710Y267142D01*
Y264459D01*
X102404Y261867D01*
X103746Y259543D01*
X105643Y257646D01*
X107967Y256304D01*
X110559Y255610D01*
X113242D01*
X115833Y256304D01*
X118157Y257646D01*
X120054Y259543D01*
X121396Y261867D01*
X122090Y264459D01*
Y267142D01*
X121396Y269733D01*
X120054Y272057D01*
X118157Y273954D01*
X115833Y275296D01*
X113242Y275990D01*
D02*
G37*
G36*
X87842D02*
X85159D01*
X82567Y275296D01*
X80243Y273954D01*
X78346Y272057D01*
X77004Y269733D01*
X76310Y267142D01*
Y264459D01*
X77004Y261867D01*
X78346Y259543D01*
X80243Y257646D01*
X82567Y256304D01*
X85159Y255610D01*
X87842D01*
X90433Y256304D01*
X92757Y257646D01*
X94654Y259543D01*
X95996Y261867D01*
X96690Y264459D01*
Y267142D01*
X95996Y269733D01*
X94654Y272057D01*
X92757Y273954D01*
X90433Y275296D01*
X87842Y275990D01*
D02*
G37*
G36*
X62442D02*
X59759D01*
X57167Y275296D01*
X54843Y273954D01*
X52946Y272057D01*
X51604Y269733D01*
X50910Y267142D01*
Y264459D01*
X51604Y261867D01*
X52946Y259543D01*
X54843Y257646D01*
X57167Y256304D01*
X59759Y255610D01*
X62442D01*
X65033Y256304D01*
X67357Y257646D01*
X69254Y259543D01*
X70596Y261867D01*
X71290Y264459D01*
Y267142D01*
X70596Y269733D01*
X69254Y272057D01*
X67357Y273954D01*
X65033Y275296D01*
X62442Y275990D01*
D02*
G37*
G36*
X37042D02*
X34358D01*
X31767Y275296D01*
X29443Y273954D01*
X27546Y272057D01*
X26204Y269733D01*
X25510Y267142D01*
Y264459D01*
X26204Y261867D01*
X27546Y259543D01*
X29443Y257646D01*
X31767Y256304D01*
X34358Y255610D01*
X37042D01*
X39633Y256304D01*
X41957Y257646D01*
X43854Y259543D01*
X45196Y261867D01*
X45890Y264459D01*
Y267142D01*
X45196Y269733D01*
X43854Y272057D01*
X41957Y273954D01*
X39633Y275296D01*
X37042Y275990D01*
D02*
G37*
G36*
X857327Y245842D02*
X850850D01*
Y241270D01*
X857327D01*
Y245842D01*
D02*
G37*
G36*
X848310D02*
X841833D01*
Y241270D01*
X848310D01*
Y245842D01*
D02*
G37*
G36*
X857327Y238730D02*
X850850D01*
Y234158D01*
X857327D01*
Y238730D01*
D02*
G37*
G36*
X848310D02*
X841833D01*
Y234158D01*
X848310D01*
Y238730D01*
D02*
G37*
G36*
X113242Y250590D02*
X110559D01*
X107967Y249896D01*
X105643Y248554D01*
X103746Y246657D01*
X102404Y244333D01*
X101710Y241742D01*
Y239058D01*
X102404Y236467D01*
X103746Y234143D01*
X105643Y232246D01*
X107967Y230904D01*
X110559Y230210D01*
X113242D01*
X115833Y230904D01*
X118157Y232246D01*
X120054Y234143D01*
X121396Y236467D01*
X122090Y239058D01*
Y241742D01*
X121396Y244333D01*
X120054Y246657D01*
X118157Y248554D01*
X115833Y249896D01*
X113242Y250590D01*
D02*
G37*
G36*
X87842D02*
X85159D01*
X82567Y249896D01*
X80243Y248554D01*
X78346Y246657D01*
X77004Y244333D01*
X76310Y241742D01*
Y239058D01*
X77004Y236467D01*
X78346Y234143D01*
X80243Y232246D01*
X82567Y230904D01*
X85159Y230210D01*
X87842D01*
X90433Y230904D01*
X92757Y232246D01*
X94654Y234143D01*
X95996Y236467D01*
X96690Y239058D01*
Y241742D01*
X95996Y244333D01*
X94654Y246657D01*
X92757Y248554D01*
X90433Y249896D01*
X87842Y250590D01*
D02*
G37*
G36*
X62442D02*
X59759D01*
X57167Y249896D01*
X54843Y248554D01*
X52946Y246657D01*
X51604Y244333D01*
X50910Y241742D01*
Y239058D01*
X51604Y236467D01*
X52946Y234143D01*
X54843Y232246D01*
X57167Y230904D01*
X59759Y230210D01*
X62442D01*
X65033Y230904D01*
X67357Y232246D01*
X69254Y234143D01*
X70596Y236467D01*
X71290Y239058D01*
Y241742D01*
X70596Y244333D01*
X69254Y246657D01*
X67357Y248554D01*
X65033Y249896D01*
X62442Y250590D01*
D02*
G37*
G36*
X37042D02*
X34358D01*
X31767Y249896D01*
X29443Y248554D01*
X27546Y246657D01*
X26204Y244333D01*
X25510Y241742D01*
Y239058D01*
X26204Y236467D01*
X27546Y234143D01*
X29443Y232246D01*
X31767Y230904D01*
X34358Y230210D01*
X37042D01*
X39633Y230904D01*
X41957Y232246D01*
X43854Y234143D01*
X45196Y236467D01*
X45890Y239058D01*
Y241742D01*
X45196Y244333D01*
X43854Y246657D01*
X41957Y248554D01*
X39633Y249896D01*
X37042Y250590D01*
D02*
G37*
G36*
X857327Y230842D02*
X841833D01*
Y229532D01*
X835229D01*
X834003Y230040D01*
X831998D01*
X830145Y229273D01*
X828727Y227855D01*
X827960Y226003D01*
Y223997D01*
X828727Y222145D01*
X830145Y220727D01*
X831998Y219960D01*
X834003D01*
X835229Y220468D01*
X841833D01*
Y219158D01*
X857327D01*
Y230842D01*
D02*
G37*
G36*
Y215842D02*
X841833D01*
Y214532D01*
X835229D01*
X834003Y215040D01*
X831998D01*
X830145Y214273D01*
X828727Y212855D01*
X827960Y211003D01*
Y208997D01*
X828727Y207145D01*
X830145Y205727D01*
X831998Y204960D01*
X834003D01*
X835229Y205468D01*
X841833D01*
Y204158D01*
X857327D01*
Y215842D01*
D02*
G37*
G36*
X113242Y225190D02*
X110559D01*
X107967Y224496D01*
X105643Y223154D01*
X103746Y221257D01*
X102404Y218933D01*
X101710Y216342D01*
Y213658D01*
X102404Y211067D01*
X103746Y208743D01*
X105643Y206846D01*
X107967Y205504D01*
X110559Y204810D01*
X113242D01*
X115833Y205504D01*
X118157Y206846D01*
X120054Y208743D01*
X121396Y211067D01*
X122090Y213658D01*
Y216342D01*
X121396Y218933D01*
X120054Y221257D01*
X118157Y223154D01*
X115833Y224496D01*
X113242Y225190D01*
D02*
G37*
G36*
X87842D02*
X85159D01*
X82567Y224496D01*
X80243Y223154D01*
X78346Y221257D01*
X77004Y218933D01*
X76310Y216342D01*
Y213658D01*
X77004Y211067D01*
X78346Y208743D01*
X80243Y206846D01*
X82567Y205504D01*
X85159Y204810D01*
X87842D01*
X90433Y205504D01*
X92757Y206846D01*
X94654Y208743D01*
X95996Y211067D01*
X96690Y213658D01*
Y216342D01*
X95996Y218933D01*
X94654Y221257D01*
X92757Y223154D01*
X90433Y224496D01*
X87842Y225190D01*
D02*
G37*
G36*
X62442D02*
X59759D01*
X57167Y224496D01*
X54843Y223154D01*
X52946Y221257D01*
X51604Y218933D01*
X50910Y216342D01*
Y213658D01*
X51604Y211067D01*
X52946Y208743D01*
X54843Y206846D01*
X57167Y205504D01*
X59759Y204810D01*
X62442D01*
X65033Y205504D01*
X67357Y206846D01*
X69254Y208743D01*
X70596Y211067D01*
X71290Y213658D01*
Y216342D01*
X70596Y218933D01*
X69254Y221257D01*
X67357Y223154D01*
X65033Y224496D01*
X62442Y225190D01*
D02*
G37*
G36*
X37042D02*
X34358D01*
X31767Y224496D01*
X29443Y223154D01*
X27546Y221257D01*
X26204Y218933D01*
X25510Y216342D01*
Y213658D01*
X26204Y211067D01*
X27546Y208743D01*
X29443Y206846D01*
X31767Y205504D01*
X34358Y204810D01*
X37042D01*
X39633Y205504D01*
X41957Y206846D01*
X43854Y208743D01*
X45196Y211067D01*
X45890Y213658D01*
Y216342D01*
X45196Y218933D01*
X43854Y221257D01*
X41957Y223154D01*
X39633Y224496D01*
X37042Y225190D01*
D02*
G37*
G36*
X857327Y200842D02*
X841833D01*
Y199532D01*
X835229D01*
X834003Y200040D01*
X831998D01*
X830145Y199273D01*
X828727Y197855D01*
X827960Y196003D01*
Y193997D01*
X828727Y192145D01*
X830145Y190727D01*
X831998Y189960D01*
X834003D01*
X835229Y190468D01*
X841833D01*
Y189158D01*
X857327D01*
Y200842D01*
D02*
G37*
G36*
Y185842D02*
X841833D01*
Y184532D01*
X835229D01*
X834003Y185040D01*
X831998D01*
X830145Y184273D01*
X828727Y182855D01*
X827960Y181003D01*
Y178997D01*
X828727Y177145D01*
X830145Y175727D01*
X831998Y174960D01*
X834003D01*
X835229Y175468D01*
X841833D01*
Y174158D01*
X857327D01*
Y185842D01*
D02*
G37*
G36*
X113242Y199790D02*
X110559D01*
X107967Y199096D01*
X105643Y197754D01*
X103746Y195857D01*
X102404Y193533D01*
X101710Y190942D01*
Y188258D01*
X102404Y185667D01*
X103746Y183343D01*
X105643Y181446D01*
X107967Y180104D01*
X110559Y179410D01*
X113242D01*
X115833Y180104D01*
X118157Y181446D01*
X120054Y183343D01*
X121396Y185667D01*
X122090Y188258D01*
Y190942D01*
X121396Y193533D01*
X120054Y195857D01*
X118157Y197754D01*
X115833Y199096D01*
X113242Y199790D01*
D02*
G37*
G36*
X87842D02*
X85159D01*
X82567Y199096D01*
X80243Y197754D01*
X78346Y195857D01*
X77004Y193533D01*
X76310Y190942D01*
Y188258D01*
X77004Y185667D01*
X78346Y183343D01*
X80243Y181446D01*
X82567Y180104D01*
X85159Y179410D01*
X87842D01*
X90433Y180104D01*
X92757Y181446D01*
X94654Y183343D01*
X95996Y185667D01*
X96690Y188258D01*
Y190942D01*
X95996Y193533D01*
X94654Y195857D01*
X92757Y197754D01*
X90433Y199096D01*
X87842Y199790D01*
D02*
G37*
G36*
X62442D02*
X59759D01*
X57167Y199096D01*
X54843Y197754D01*
X52946Y195857D01*
X51604Y193533D01*
X50910Y190942D01*
Y188258D01*
X51604Y185667D01*
X52946Y183343D01*
X54843Y181446D01*
X57167Y180104D01*
X59759Y179410D01*
X62442D01*
X65033Y180104D01*
X67357Y181446D01*
X69254Y183343D01*
X70596Y185667D01*
X71290Y188258D01*
Y190942D01*
X70596Y193533D01*
X69254Y195857D01*
X67357Y197754D01*
X65033Y199096D01*
X62442Y199790D01*
D02*
G37*
G36*
X37042D02*
X34358D01*
X31767Y199096D01*
X29443Y197754D01*
X27546Y195857D01*
X26204Y193533D01*
X25510Y190942D01*
Y188258D01*
X26204Y185667D01*
X27546Y183343D01*
X29443Y181446D01*
X31767Y180104D01*
X34358Y179410D01*
X37042D01*
X39633Y180104D01*
X41957Y181446D01*
X43854Y183343D01*
X45196Y185667D01*
X45890Y188258D01*
Y190942D01*
X45196Y193533D01*
X43854Y195857D01*
X41957Y197754D01*
X39633Y199096D01*
X37042Y199790D01*
D02*
G37*
G36*
X900210Y165967D02*
X889669D01*
Y158220D01*
X900210D01*
Y165967D01*
D02*
G37*
G36*
X87842Y174390D02*
X85159D01*
X82567Y173696D01*
X80243Y172354D01*
X78346Y170457D01*
X77004Y168133D01*
X76310Y165542D01*
Y162858D01*
X77004Y160267D01*
X78346Y157943D01*
X80243Y156046D01*
X82567Y154704D01*
X85159Y154010D01*
X87842D01*
X90433Y154704D01*
X92757Y156046D01*
X94654Y157943D01*
X95996Y160267D01*
X96690Y162858D01*
Y165542D01*
X95996Y168133D01*
X94654Y170457D01*
X92757Y172354D01*
X90433Y173696D01*
X87842Y174390D01*
D02*
G37*
G36*
X62442D02*
X59759D01*
X57167Y173696D01*
X54843Y172354D01*
X52946Y170457D01*
X51604Y168133D01*
X50910Y165542D01*
Y162858D01*
X51604Y160267D01*
X52946Y157943D01*
X54843Y156046D01*
X57167Y154704D01*
X59759Y154010D01*
X62442D01*
X65033Y154704D01*
X67357Y156046D01*
X69254Y157943D01*
X70596Y160267D01*
X71290Y162858D01*
Y165542D01*
X70596Y168133D01*
X69254Y170457D01*
X67357Y172354D01*
X65033Y173696D01*
X62442Y174390D01*
D02*
G37*
G36*
X37042D02*
X34358D01*
X31767Y173696D01*
X29443Y172354D01*
X27546Y170457D01*
X26204Y168133D01*
X25510Y165542D01*
Y162858D01*
X26204Y160267D01*
X27546Y157943D01*
X29443Y156046D01*
X31767Y154704D01*
X34358Y154010D01*
X37042D01*
X39633Y154704D01*
X41957Y156046D01*
X43854Y157943D01*
X45196Y160267D01*
X45890Y162858D01*
Y165542D01*
X45196Y168133D01*
X43854Y170457D01*
X41957Y172354D01*
X39633Y173696D01*
X37042Y174390D01*
D02*
G37*
G36*
X900210Y155680D02*
X889669D01*
Y147933D01*
X900210D01*
Y155680D01*
D02*
G37*
G36*
X113242Y174390D02*
X110559D01*
X107967Y173696D01*
X105643Y172354D01*
X103746Y170457D01*
X102404Y168133D01*
X101710Y165542D01*
Y162858D01*
X102404Y160267D01*
X103746Y157943D01*
X105643Y156046D01*
X107967Y154704D01*
X110559Y154010D01*
X113242D01*
X115833Y154704D01*
X118157Y156046D01*
X120054Y157943D01*
X121050Y159668D01*
X124923D01*
X129595Y154995D01*
X131066Y154013D01*
X132800Y153668D01*
X132800Y153668D01*
X137789D01*
X138762Y152212D01*
X139283Y151864D01*
Y150336D01*
X138762Y149988D01*
X137789Y148532D01*
X132800D01*
X131066Y148187D01*
X129595Y147205D01*
X129595Y147205D01*
X125723Y143332D01*
X122090D01*
Y148990D01*
X101710D01*
Y128610D01*
X122090D01*
Y134268D01*
X127600D01*
X129334Y134613D01*
X130805Y135595D01*
X134677Y139468D01*
X137789D01*
X138762Y138012D01*
X140305Y136981D01*
X142125Y136619D01*
X146375D01*
X148195Y136981D01*
X149738Y138012D01*
X150769Y139555D01*
X151131Y141375D01*
Y146625D01*
X150769Y148445D01*
X149738Y149988D01*
X149218Y150336D01*
Y151864D01*
X149738Y152212D01*
X150769Y153755D01*
X151131Y155575D01*
Y160825D01*
X150769Y162645D01*
X149738Y164188D01*
X148195Y165219D01*
X146375Y165581D01*
X142125D01*
X140305Y165219D01*
X138762Y164188D01*
X137789Y162732D01*
X134677D01*
X130005Y167405D01*
X128534Y168387D01*
X126800Y168732D01*
X121050D01*
X120054Y170457D01*
X118157Y172354D01*
X115833Y173696D01*
X113242Y174390D01*
D02*
G37*
G36*
X87842Y148990D02*
X85159D01*
X82567Y148296D01*
X80243Y146954D01*
X78346Y145057D01*
X77004Y142733D01*
X76310Y140142D01*
Y137458D01*
X77004Y134867D01*
X78346Y132543D01*
X80243Y130646D01*
X82567Y129304D01*
X85159Y128610D01*
X87842D01*
X90433Y129304D01*
X92757Y130646D01*
X94654Y132543D01*
X95996Y134867D01*
X96690Y137458D01*
Y140142D01*
X95996Y142733D01*
X94654Y145057D01*
X92757Y146954D01*
X90433Y148296D01*
X87842Y148990D01*
D02*
G37*
G36*
X71290D02*
X50910D01*
Y128610D01*
X71290D01*
Y148990D01*
D02*
G37*
G36*
X37042D02*
X34358D01*
X31767Y148296D01*
X29443Y146954D01*
X27546Y145057D01*
X26204Y142733D01*
X25510Y140142D01*
Y137458D01*
X26204Y134867D01*
X27546Y132543D01*
X29443Y130646D01*
X31767Y129304D01*
X34358Y128610D01*
X37042D01*
X39633Y129304D01*
X41957Y130646D01*
X43854Y132543D01*
X45196Y134867D01*
X45890Y137458D01*
Y140142D01*
X45196Y142733D01*
X43854Y145057D01*
X41957Y146954D01*
X39633Y148296D01*
X37042Y148990D01*
D02*
G37*
G36*
X631087Y129916D02*
X630936D01*
Y120396D01*
X640456D01*
Y120547D01*
X639721Y123291D01*
X638300Y125751D01*
X636291Y127760D01*
X633831Y129181D01*
X631087Y129916D01*
D02*
G37*
G36*
X628396D02*
X628246D01*
X625501Y129181D01*
X623041Y127760D01*
X621032Y125751D01*
X619611Y123291D01*
X618876Y120547D01*
Y120396D01*
X628396D01*
Y129916D01*
D02*
G37*
G36*
X707287D02*
X704445D01*
X701701Y129181D01*
X699241Y127760D01*
X697232Y125751D01*
X695811Y123291D01*
X695076Y120547D01*
Y117705D01*
X695811Y114961D01*
X697232Y112501D01*
X699241Y110492D01*
X701701Y109071D01*
X704445Y108336D01*
X707287D01*
X710031Y109071D01*
X712491Y110492D01*
X714500Y112501D01*
X715921Y114961D01*
X716656Y117705D01*
Y120547D01*
X715921Y123291D01*
X714500Y125751D01*
X712491Y127760D01*
X710031Y129181D01*
X707287Y129916D01*
D02*
G37*
G36*
X681887D02*
X679045D01*
X676301Y129181D01*
X673841Y127760D01*
X671832Y125751D01*
X670411Y123291D01*
X669676Y120547D01*
Y117705D01*
X670411Y114961D01*
X671832Y112501D01*
X673841Y110492D01*
X676301Y109071D01*
X679045Y108336D01*
X681887D01*
X684631Y109071D01*
X687091Y110492D01*
X689100Y112501D01*
X690521Y114961D01*
X691256Y117705D01*
Y120547D01*
X690521Y123291D01*
X689100Y125751D01*
X687091Y127760D01*
X684631Y129181D01*
X681887Y129916D01*
D02*
G37*
G36*
X656487D02*
X653645D01*
X650901Y129181D01*
X648441Y127760D01*
X646432Y125751D01*
X645011Y123291D01*
X644276Y120547D01*
Y117705D01*
X645011Y114961D01*
X646432Y112501D01*
X648441Y110492D01*
X650901Y109071D01*
X653645Y108336D01*
X656487D01*
X659231Y109071D01*
X661691Y110492D01*
X663700Y112501D01*
X665121Y114961D01*
X665856Y117705D01*
Y120547D01*
X665121Y123291D01*
X663700Y125751D01*
X661691Y127760D01*
X659231Y129181D01*
X656487Y129916D01*
D02*
G37*
G36*
X640456Y117856D02*
X630936D01*
Y108336D01*
X631087D01*
X633831Y109071D01*
X636291Y110492D01*
X638300Y112501D01*
X639721Y114961D01*
X640456Y117705D01*
Y117856D01*
D02*
G37*
G36*
X628396D02*
X618876D01*
Y117705D01*
X619611Y114961D01*
X621032Y112501D01*
X623041Y110492D01*
X625501Y109071D01*
X628246Y108336D01*
X628396D01*
Y117856D01*
D02*
G37*
G36*
X735391Y129973D02*
X727141D01*
X725401Y129744D01*
X723780Y129073D01*
X722387Y128005D01*
X721319Y126612D01*
X720648Y124991D01*
X720418Y123251D01*
Y115001D01*
X720648Y113261D01*
X721319Y111640D01*
X722387Y110247D01*
X723780Y109179D01*
X725401Y108508D01*
X727141Y108279D01*
X735391D01*
X737131Y108508D01*
X738752Y109179D01*
X740145Y110247D01*
X741213Y111640D01*
X741884Y113261D01*
X742113Y115001D01*
Y123251D01*
X741884Y124991D01*
X741213Y126612D01*
X740145Y128005D01*
X738752Y129073D01*
X737131Y129744D01*
X735391Y129973D01*
D02*
G37*
G36*
X38261Y120540D02*
X36970D01*
Y89270D01*
X68240D01*
Y90561D01*
X67439Y95620D01*
X65856Y100491D01*
X63531Y105055D01*
X60520Y109198D01*
X56898Y112820D01*
X52755Y115831D01*
X48191Y118156D01*
X43320Y119739D01*
X38261Y120540D01*
D02*
G37*
G36*
X732686Y104516D02*
X729846D01*
X727101Y103781D01*
X724641Y102360D01*
X722632Y100351D01*
X721211Y97891D01*
X720476Y95147D01*
Y92305D01*
X721211Y89561D01*
X722632Y87101D01*
X724641Y85092D01*
X727101Y83671D01*
X729846Y82936D01*
X732686D01*
X735431Y83671D01*
X737891Y85092D01*
X739900Y87101D01*
X741321Y89561D01*
X742056Y92305D01*
Y95147D01*
X741321Y97891D01*
X739900Y100351D01*
X737891Y102360D01*
X735431Y103781D01*
X732686Y104516D01*
D02*
G37*
G36*
X707287D02*
X704445D01*
X701701Y103781D01*
X699241Y102360D01*
X697232Y100351D01*
X695811Y97891D01*
X695076Y95147D01*
Y92305D01*
X695811Y89561D01*
X697232Y87101D01*
X699241Y85092D01*
X701701Y83671D01*
X704445Y82936D01*
X707287D01*
X710031Y83671D01*
X712491Y85092D01*
X714500Y87101D01*
X715921Y89561D01*
X716656Y92305D01*
Y95147D01*
X715921Y97891D01*
X714500Y100351D01*
X712491Y102360D01*
X710031Y103781D01*
X707287Y104516D01*
D02*
G37*
G36*
X681887D02*
X679045D01*
X676301Y103781D01*
X673841Y102360D01*
X671832Y100351D01*
X670411Y97891D01*
X669676Y95147D01*
Y92305D01*
X670411Y89561D01*
X671832Y87101D01*
X673841Y85092D01*
X676301Y83671D01*
X679045Y82936D01*
X681887D01*
X684631Y83671D01*
X687091Y85092D01*
X689100Y87101D01*
X690521Y89561D01*
X691256Y92305D01*
Y95147D01*
X690521Y97891D01*
X689100Y100351D01*
X687091Y102360D01*
X684631Y103781D01*
X681887Y104516D01*
D02*
G37*
G36*
X656487D02*
X653645D01*
X650901Y103781D01*
X648441Y102360D01*
X646432Y100351D01*
X645011Y97891D01*
X644276Y95147D01*
Y92305D01*
X645011Y89561D01*
X646432Y87101D01*
X648441Y85092D01*
X650901Y83671D01*
X653645Y82936D01*
X656487D01*
X659231Y83671D01*
X661691Y85092D01*
X663700Y87101D01*
X665121Y89561D01*
X665856Y92305D01*
Y95147D01*
X665121Y97891D01*
X663700Y100351D01*
X661691Y102360D01*
X659231Y103781D01*
X656487Y104516D01*
D02*
G37*
G36*
X631087D02*
X628246D01*
X625501Y103781D01*
X623041Y102360D01*
X621032Y100351D01*
X619611Y97891D01*
X618876Y95147D01*
Y92305D01*
X619611Y89561D01*
X621032Y87101D01*
X623041Y85092D01*
X625501Y83671D01*
X628246Y82936D01*
X631087D01*
X633831Y83671D01*
X636291Y85092D01*
X638300Y87101D01*
X639721Y89561D01*
X640456Y92305D01*
Y95147D01*
X639721Y97891D01*
X638300Y100351D01*
X636291Y102360D01*
X633831Y103781D01*
X631087Y104516D01*
D02*
G37*
G36*
X265842Y88167D02*
X261270D01*
Y81690D01*
X265842D01*
Y88167D01*
D02*
G37*
G36*
X258730D02*
X254158D01*
Y81690D01*
X258730D01*
Y88167D01*
D02*
G37*
G36*
X325842D02*
X314158D01*
Y72673D01*
X325842D01*
Y88167D01*
D02*
G37*
G36*
X310842D02*
X299158D01*
Y72673D01*
X310842D01*
Y88167D01*
D02*
G37*
G36*
X295842D02*
X284158D01*
Y72673D01*
X295842D01*
Y88167D01*
D02*
G37*
G36*
X280842D02*
X269158D01*
Y72673D01*
X280842D01*
Y88167D01*
D02*
G37*
G36*
X265842Y79150D02*
X261270D01*
Y72673D01*
X265842D01*
Y79150D01*
D02*
G37*
G36*
X258730D02*
X254158D01*
Y72673D01*
X258730D01*
Y79150D01*
D02*
G37*
G36*
X250842Y88167D02*
X239158D01*
Y72673D01*
X250842D01*
Y88167D01*
D02*
G37*
G36*
X235842D02*
X224158D01*
Y72673D01*
X235842D01*
Y88167D01*
D02*
G37*
G36*
X220842D02*
X209158D01*
Y72673D01*
X220842D01*
Y88167D01*
D02*
G37*
G36*
X205842D02*
X194158D01*
Y72673D01*
X205842D01*
Y88167D01*
D02*
G37*
G36*
X440730Y71862D02*
X437460D01*
Y63842D01*
X440730D01*
Y71862D01*
D02*
G37*
G36*
X497540Y69862D02*
X488270D01*
Y61592D01*
X497540D01*
Y69862D01*
D02*
G37*
G36*
X485730D02*
X476460D01*
Y61592D01*
X485730D01*
Y69862D01*
D02*
G37*
G36*
X433540D02*
X424270D01*
Y61592D01*
X433540D01*
Y69862D01*
D02*
G37*
G36*
X421730D02*
X412460D01*
Y61592D01*
X421730D01*
Y69862D01*
D02*
G37*
G36*
X68240Y86730D02*
X36970D01*
Y55460D01*
X38261D01*
X43320Y56261D01*
X48191Y57844D01*
X52755Y60169D01*
X56898Y63180D01*
X60520Y66802D01*
X63531Y70945D01*
X65856Y75509D01*
X67439Y80380D01*
X68240Y85439D01*
Y86730D01*
D02*
G37*
G36*
X450374Y115022D02*
X448369D01*
X446517Y114255D01*
X445099Y112837D01*
X444332Y110984D01*
Y108980D01*
X445099Y107127D01*
X446517Y105709D01*
X447194Y105429D01*
X450468Y102155D01*
Y71862D01*
X443270D01*
Y62572D01*
Y53282D01*
X472540D01*
Y71862D01*
X466032D01*
Y101283D01*
X469629Y104879D01*
X470855Y105387D01*
X472273Y106805D01*
X473040Y108658D01*
Y110662D01*
X472273Y112515D01*
X470855Y113933D01*
X469002Y114700D01*
X466997D01*
X465145Y113933D01*
X463727Y112515D01*
X463219Y111289D01*
X459385Y107454D01*
X457788Y107653D01*
X454380Y111061D01*
X453645Y112837D01*
X452227Y114255D01*
X450374Y115022D01*
D02*
G37*
G36*
X440730Y61302D02*
X437460D01*
Y53282D01*
X440730D01*
Y61302D01*
D02*
G37*
G36*
X895561Y82540D02*
X894270D01*
Y51270D01*
X925540D01*
Y52561D01*
X924739Y57620D01*
X923156Y62491D01*
X920831Y67055D01*
X917820Y71198D01*
X914198Y74820D01*
X910055Y77831D01*
X905491Y80156D01*
X900620Y81739D01*
X895561Y82540D01*
D02*
G37*
G36*
X891730D02*
X890439D01*
X885380Y81739D01*
X880509Y80156D01*
X875945Y77831D01*
X871802Y74820D01*
X868180Y71198D01*
X865169Y67055D01*
X862844Y62491D01*
X861261Y57620D01*
X860460Y52561D01*
Y51270D01*
X891730D01*
Y82540D01*
D02*
G37*
G36*
X497540Y59052D02*
X488270D01*
Y50782D01*
X497540D01*
Y59052D01*
D02*
G37*
G36*
X485730D02*
X476460D01*
Y50782D01*
X485730D01*
Y59052D01*
D02*
G37*
G36*
X433540D02*
X424270D01*
Y50782D01*
X433540D01*
Y59052D01*
D02*
G37*
G36*
X421730D02*
X412460D01*
Y50782D01*
X421730D01*
Y59052D01*
D02*
G37*
G36*
X490520Y44862D02*
Y37092D01*
X499040D01*
Y44862D01*
X490520D01*
D02*
G37*
G36*
X419480D02*
X410960D01*
Y37092D01*
X419480D01*
Y44862D01*
D02*
G37*
G36*
X185967Y40331D02*
X178220D01*
Y29790D01*
X185967D01*
Y40331D01*
D02*
G37*
G36*
X352067D02*
X344320D01*
Y29790D01*
X352067D01*
Y40331D01*
D02*
G37*
G36*
X341780D02*
X334033D01*
Y29790D01*
X341780D01*
Y40331D01*
D02*
G37*
G36*
X175680D02*
X167933D01*
Y29790D01*
X175680D01*
Y40331D01*
D02*
G37*
G36*
X499040Y34552D02*
X490520D01*
Y26782D01*
X499040D01*
Y34552D01*
D02*
G37*
G36*
X419480D02*
X410960D01*
Y26782D01*
X419480D01*
Y34552D01*
D02*
G37*
G36*
X925540Y48730D02*
X894270D01*
Y17460D01*
X895561D01*
X900620Y18261D01*
X905491Y19844D01*
X910055Y22169D01*
X914198Y25180D01*
X917820Y28802D01*
X920831Y32945D01*
X923156Y37509D01*
X924739Y42380D01*
X925540Y47439D01*
Y48730D01*
D02*
G37*
G36*
X891730D02*
X860460D01*
Y47439D01*
X861261Y42380D01*
X862844Y37509D01*
X865169Y32945D01*
X868180Y28802D01*
X871802Y25180D01*
X875945Y22169D01*
X880509Y19844D01*
X885380Y18261D01*
X890439Y17460D01*
X891730D01*
Y48730D01*
D02*
G37*
%LPD*%
G36*
X500830Y480962D02*
X501513Y480278D01*
X503127Y479610D01*
X504873D01*
X506487Y480278D01*
X507170Y480962D01*
X508000Y481375D01*
X508830Y480962D01*
X509513Y480278D01*
X511127Y479610D01*
X512873D01*
X514487Y480278D01*
X515170Y480962D01*
X516000Y481375D01*
X516830Y480962D01*
X516962Y480830D01*
X517375Y480000D01*
X516962Y479170D01*
X516278Y478487D01*
X515610Y476873D01*
Y475127D01*
X516278Y473513D01*
X516962Y472830D01*
X517375Y472000D01*
X516962Y471170D01*
X516278Y470487D01*
X515610Y468873D01*
Y467127D01*
X516278Y465513D01*
X516962Y464830D01*
X517375Y464000D01*
X516962Y463170D01*
X516278Y462487D01*
X515610Y460873D01*
Y459127D01*
X516278Y457513D01*
X516962Y456830D01*
X517375Y456000D01*
X516962Y455170D01*
X516278Y454487D01*
X515610Y452873D01*
Y451127D01*
X516278Y449513D01*
X516962Y448830D01*
X517375Y448000D01*
X516962Y447170D01*
X516278Y446487D01*
X515610Y444873D01*
Y443127D01*
X516278Y441513D01*
X516962Y440830D01*
X517375Y440000D01*
X516962Y439170D01*
X516278Y438487D01*
X515610Y436873D01*
Y435127D01*
X516278Y433513D01*
X516962Y432830D01*
X517375Y432000D01*
X516962Y431170D01*
X516278Y430487D01*
X515610Y428873D01*
Y427127D01*
X516278Y425513D01*
X516962Y424830D01*
X517159Y424434D01*
X516628Y423094D01*
X515790Y422730D01*
X515170Y423038D01*
X514487Y423722D01*
X512873Y424390D01*
X511127D01*
X509513Y423722D01*
X508830Y423038D01*
X508000Y422625D01*
X507170Y423038D01*
X506487Y423722D01*
X504873Y424390D01*
X503127D01*
X501513Y423722D01*
X500830Y423038D01*
X500000Y422625D01*
X499170Y423038D01*
X498487Y423722D01*
X496873Y424390D01*
X495127D01*
X493513Y423722D01*
X492830Y423038D01*
X492000Y422625D01*
X491170Y423038D01*
X490487Y423722D01*
X488873Y424390D01*
X487127D01*
X485513Y423722D01*
X484830Y423038D01*
X484000Y422625D01*
X483170Y423038D01*
X482487Y423722D01*
X480873Y424390D01*
X479127D01*
X477513Y423722D01*
X476830Y423038D01*
X476000Y422625D01*
X475170Y423038D01*
X474487Y423722D01*
X472873Y424390D01*
X471127D01*
X469513Y423722D01*
X468830Y423038D01*
X468000Y422625D01*
X467170Y423038D01*
X466487Y423722D01*
X464873Y424390D01*
X463127D01*
X461513Y423722D01*
X460830Y423038D01*
X460000Y422625D01*
X459170Y423038D01*
X459038Y423170D01*
X458625Y424000D01*
X459038Y424830D01*
X459722Y425513D01*
X460390Y427127D01*
Y428873D01*
X459722Y430487D01*
X459038Y431170D01*
X458625Y432000D01*
X459038Y432830D01*
X459722Y433513D01*
X460390Y435127D01*
Y436873D01*
X459722Y438487D01*
X459038Y439170D01*
X458625Y440000D01*
X459038Y440830D01*
X459722Y441513D01*
X460390Y443127D01*
Y444873D01*
X459722Y446487D01*
X459038Y447170D01*
X458625Y448000D01*
X459038Y448830D01*
X459722Y449513D01*
X460390Y451127D01*
Y452873D01*
X459722Y454487D01*
X459038Y455170D01*
X458625Y456000D01*
X459038Y456830D01*
X459722Y457513D01*
X460390Y459127D01*
Y460873D01*
X459722Y462487D01*
X459038Y463170D01*
X458625Y464000D01*
X459038Y464830D01*
X459722Y465513D01*
X460390Y467127D01*
Y468873D01*
X459722Y470487D01*
X459038Y471170D01*
X458625Y472000D01*
X459038Y472830D01*
X459722Y473513D01*
X460390Y475127D01*
Y476873D01*
X459722Y478487D01*
X459038Y479170D01*
X458841Y479566D01*
X459371Y480906D01*
X460210Y481270D01*
X460830Y480962D01*
X461513Y480278D01*
X463127Y479610D01*
X464873D01*
X466487Y480278D01*
X467170Y480962D01*
X468000Y481375D01*
X468830Y480962D01*
X469513Y480278D01*
X471127Y479610D01*
X472873D01*
X474487Y480278D01*
X475170Y480962D01*
X476000Y481375D01*
X476830Y480962D01*
X477513Y480278D01*
X479127Y479610D01*
X480873D01*
X482487Y480278D01*
X483170Y480962D01*
X484000Y481375D01*
X484830Y480962D01*
X485513Y480278D01*
X487127Y479610D01*
X488873D01*
X490487Y480278D01*
X491170Y480962D01*
X492000Y481375D01*
X492830Y480962D01*
X493513Y480278D01*
X495127Y479610D01*
X496873D01*
X498487Y480278D01*
X499170Y480962D01*
X500000Y481375D01*
X500830Y480962D01*
D02*
G37*
%LPC*%
G36*
X502730Y472226D02*
X501513Y471722D01*
X500830Y471038D01*
X500000Y470625D01*
X499170Y471038D01*
X498487Y471722D01*
X497270Y472226D01*
Y468000D01*
X494730D01*
Y472226D01*
X493513Y471722D01*
X492830Y471038D01*
X492000Y470625D01*
X491170Y471038D01*
X490487Y471722D01*
X489270Y472226D01*
Y468000D01*
X486730D01*
Y472226D01*
X485513Y471722D01*
X484830Y471038D01*
X484000Y470625D01*
X483170Y471038D01*
X482487Y471722D01*
X481270Y472226D01*
Y468000D01*
X478730D01*
Y472226D01*
X477513Y471722D01*
X476830Y471038D01*
X476000Y470625D01*
X475170Y471038D01*
X474487Y471722D01*
X473270Y472226D01*
Y468000D01*
X472000D01*
Y466730D01*
X467774D01*
X468278Y465513D01*
X468962Y464830D01*
X469375Y464000D01*
X468962Y463170D01*
X468278Y462487D01*
X467774Y461270D01*
X472000D01*
Y458730D01*
X467774D01*
X468278Y457513D01*
X468962Y456830D01*
X469375Y456000D01*
X468962Y455170D01*
X468278Y454487D01*
X467774Y453270D01*
X472000D01*
Y450730D01*
X467774D01*
X468278Y449513D01*
X468962Y448830D01*
X469375Y448000D01*
X468962Y447170D01*
X468278Y446487D01*
X467774Y445270D01*
X472000D01*
Y442730D01*
X467774D01*
X468278Y441513D01*
X468962Y440830D01*
X469375Y440000D01*
X468962Y439170D01*
X468278Y438487D01*
X467774Y437270D01*
X472000D01*
Y436000D01*
X473270D01*
Y431774D01*
X474487Y432278D01*
X475170Y432962D01*
X476000Y433375D01*
X476830Y432962D01*
X477513Y432278D01*
X478730Y431774D01*
Y436000D01*
X481270D01*
Y431774D01*
X482487Y432278D01*
X483170Y432962D01*
X484000Y433375D01*
X484830Y432962D01*
X485513Y432278D01*
X486730Y431774D01*
Y436000D01*
X489270D01*
Y431774D01*
X490487Y432278D01*
X491170Y432962D01*
X492000Y433375D01*
X492830Y432962D01*
X493513Y432278D01*
X494730Y431774D01*
Y436000D01*
X497270D01*
Y431774D01*
X498487Y432278D01*
X499170Y432962D01*
X500000Y433375D01*
X500830Y432962D01*
X501513Y432278D01*
X502730Y431774D01*
Y436000D01*
X504000D01*
Y437270D01*
X508226D01*
X507722Y438487D01*
X507038Y439170D01*
X506625Y440000D01*
X507038Y440830D01*
X507722Y441513D01*
X508226Y442730D01*
X504000D01*
Y445270D01*
X508226D01*
X507722Y446487D01*
X507038Y447170D01*
X506625Y448000D01*
X507038Y448830D01*
X507722Y449513D01*
X508226Y450730D01*
X504000D01*
Y453270D01*
X508226D01*
X507722Y454487D01*
X507038Y455170D01*
X506625Y456000D01*
X507038Y456830D01*
X507722Y457513D01*
X508226Y458730D01*
X504000D01*
Y461270D01*
X508226D01*
X507722Y462487D01*
X507038Y463170D01*
X506625Y464000D01*
X507038Y464830D01*
X507722Y465513D01*
X508226Y466730D01*
X504000D01*
Y468000D01*
X502730D01*
Y472226D01*
D02*
G37*
G36*
X505270D02*
Y469270D01*
X508226D01*
X507722Y470487D01*
X506487Y471722D01*
X505270Y472226D01*
D02*
G37*
G36*
X470730D02*
X469513Y471722D01*
X468278Y470487D01*
X467774Y469270D01*
X470730D01*
Y472226D01*
D02*
G37*
G36*
X508226Y434730D02*
X505270D01*
Y431774D01*
X506487Y432278D01*
X507722Y433513D01*
X508226Y434730D01*
D02*
G37*
G36*
X470730D02*
X467774D01*
X468278Y433513D01*
X469513Y432278D01*
X470730Y431774D01*
Y434730D01*
D02*
G37*
%LPD*%
G36*
X888000Y411000D02*
X827000D01*
Y427000D01*
X868000D01*
Y651000D01*
X827000Y651000D01*
Y682000D01*
X888000D01*
Y411000D01*
D02*
G37*
%LPC*%
G36*
X857327Y680842D02*
X850850D01*
Y676270D01*
X857327D01*
Y680842D01*
D02*
G37*
G36*
X848310D02*
X841833D01*
Y676270D01*
X848310D01*
Y680842D01*
D02*
G37*
G36*
X857327Y673730D02*
X850850D01*
Y669158D01*
X857327D01*
Y673730D01*
D02*
G37*
G36*
X848310D02*
X841833D01*
Y669158D01*
X848310D01*
Y673730D01*
D02*
G37*
G36*
X857327Y665842D02*
X850850D01*
Y661270D01*
X857327D01*
Y665842D01*
D02*
G37*
G36*
X848310D02*
X841833D01*
Y661270D01*
X848310D01*
Y665842D01*
D02*
G37*
G36*
X857327Y658730D02*
X850850D01*
Y654158D01*
X857327D01*
Y658730D01*
D02*
G37*
G36*
X848310D02*
X841833D01*
Y654158D01*
X848310D01*
Y658730D01*
D02*
G37*
G36*
X876967Y447540D02*
X874962D01*
X873110Y446773D01*
X871692Y445355D01*
X870925Y443503D01*
Y441497D01*
X871692Y439645D01*
X873110Y438227D01*
X874962Y437460D01*
X876967D01*
X878820Y438227D01*
X880238Y439645D01*
X881005Y441497D01*
Y443503D01*
X880238Y445355D01*
X878820Y446773D01*
X876967Y447540D01*
D02*
G37*
G36*
X857327Y425842D02*
X850850D01*
Y421270D01*
X857327D01*
Y425842D01*
D02*
G37*
G36*
X848310D02*
X841833D01*
Y421270D01*
X848310D01*
Y425842D01*
D02*
G37*
G36*
X857327Y418730D02*
X850850D01*
Y414158D01*
X857327D01*
Y418730D01*
D02*
G37*
G36*
X848310D02*
X841833D01*
Y414158D01*
X848310D01*
Y418730D01*
D02*
G37*
%LPD*%
D20*
X487000Y60322D02*
D03*
X423000D02*
D03*
D21*
X489250Y35822D02*
D03*
X420750D02*
D03*
D22*
X467000D02*
D03*
X443000D02*
D03*
D23*
X468000Y62572D02*
D03*
X461500D02*
D03*
X455000D02*
D03*
X448500D02*
D03*
X442000D02*
D03*
D24*
X552000Y388000D02*
D03*
X544000D02*
D03*
X536000D02*
D03*
X528000D02*
D03*
X520000D02*
D03*
X512000D02*
D03*
X504000D02*
D03*
X496000D02*
D03*
X488000D02*
D03*
X480000D02*
D03*
X472000D02*
D03*
X464000D02*
D03*
X456000D02*
D03*
X448000D02*
D03*
X440000D02*
D03*
X432000D02*
D03*
X424000D02*
D03*
X552000Y396000D02*
D03*
X544000D02*
D03*
X536000D02*
D03*
X528000D02*
D03*
X520000D02*
D03*
X512000D02*
D03*
X504000D02*
D03*
X496000D02*
D03*
X488000D02*
D03*
X480000D02*
D03*
X472000D02*
D03*
X464000D02*
D03*
X456000D02*
D03*
X448000D02*
D03*
X440000D02*
D03*
X432000D02*
D03*
X424000D02*
D03*
X552000Y404000D02*
D03*
X544000D02*
D03*
X536000D02*
D03*
X528000D02*
D03*
X520000D02*
D03*
X512000D02*
D03*
X504000D02*
D03*
X496000D02*
D03*
X488000D02*
D03*
X480000D02*
D03*
X472000D02*
D03*
X464000D02*
D03*
X456000D02*
D03*
X448000D02*
D03*
X440000D02*
D03*
X432000D02*
D03*
X424000D02*
D03*
X552000Y412000D02*
D03*
X544000D02*
D03*
X536000D02*
D03*
X528000D02*
D03*
X520000D02*
D03*
X512000D02*
D03*
X504000D02*
D03*
X496000D02*
D03*
X488000D02*
D03*
X480000D02*
D03*
X472000D02*
D03*
X464000D02*
D03*
X456000D02*
D03*
X448000D02*
D03*
X440000D02*
D03*
X432000D02*
D03*
X424000D02*
D03*
X552000Y420000D02*
D03*
X544000D02*
D03*
X536000D02*
D03*
X528000D02*
D03*
X520000D02*
D03*
X512000D02*
D03*
X504000D02*
D03*
X496000D02*
D03*
X488000D02*
D03*
X480000D02*
D03*
X472000D02*
D03*
X464000D02*
D03*
X456000D02*
D03*
X448000D02*
D03*
X440000D02*
D03*
X432000D02*
D03*
X424000D02*
D03*
X552000Y428000D02*
D03*
X544000D02*
D03*
X536000D02*
D03*
X528000D02*
D03*
X520000D02*
D03*
X456000D02*
D03*
X448000D02*
D03*
X440000D02*
D03*
X432000D02*
D03*
X424000D02*
D03*
X552000Y436000D02*
D03*
X544000D02*
D03*
X536000D02*
D03*
X528000D02*
D03*
X520000D02*
D03*
X504000D02*
D03*
X496000D02*
D03*
X488000D02*
D03*
X480000D02*
D03*
X472000D02*
D03*
X456000D02*
D03*
X448000D02*
D03*
X440000D02*
D03*
X432000D02*
D03*
X424000D02*
D03*
X552000Y444000D02*
D03*
X544000D02*
D03*
X536000D02*
D03*
X528000D02*
D03*
X520000D02*
D03*
X504000D02*
D03*
X496000D02*
D03*
X488000D02*
D03*
X480000D02*
D03*
X472000D02*
D03*
X456000D02*
D03*
X448000D02*
D03*
X440000D02*
D03*
X432000D02*
D03*
X424000D02*
D03*
X552000Y452000D02*
D03*
X544000D02*
D03*
X536000D02*
D03*
X528000D02*
D03*
X520000D02*
D03*
X504000D02*
D03*
X496000D02*
D03*
X488000D02*
D03*
X480000D02*
D03*
X472000D02*
D03*
X456000D02*
D03*
X448000D02*
D03*
X440000D02*
D03*
X432000D02*
D03*
X424000D02*
D03*
X552000Y460000D02*
D03*
X544000D02*
D03*
X536000D02*
D03*
X528000D02*
D03*
X520000D02*
D03*
X504000D02*
D03*
X496000D02*
D03*
X488000D02*
D03*
X480000D02*
D03*
X472000D02*
D03*
X456000D02*
D03*
X448000D02*
D03*
X440000D02*
D03*
X432000D02*
D03*
X424000D02*
D03*
X552000Y468000D02*
D03*
X544000D02*
D03*
X536000D02*
D03*
X528000D02*
D03*
X520000D02*
D03*
X504000D02*
D03*
X496000D02*
D03*
X488000D02*
D03*
X480000D02*
D03*
X472000D02*
D03*
X456000D02*
D03*
X448000D02*
D03*
X440000D02*
D03*
X432000D02*
D03*
X424000D02*
D03*
X552000Y476000D02*
D03*
X544000D02*
D03*
X536000D02*
D03*
X528000D02*
D03*
X520000D02*
D03*
X456000D02*
D03*
X448000D02*
D03*
X440000D02*
D03*
X432000D02*
D03*
X424000D02*
D03*
X552000Y484000D02*
D03*
X544000D02*
D03*
X536000D02*
D03*
X528000D02*
D03*
X520000D02*
D03*
X512000D02*
D03*
X504000D02*
D03*
X496000D02*
D03*
X488000D02*
D03*
X480000D02*
D03*
X472000D02*
D03*
X464000D02*
D03*
X456000D02*
D03*
X448000D02*
D03*
X440000D02*
D03*
X432000D02*
D03*
X424000D02*
D03*
X552000Y492000D02*
D03*
X544000D02*
D03*
X536000D02*
D03*
X528000D02*
D03*
X520000D02*
D03*
X512000D02*
D03*
X504000D02*
D03*
X496000D02*
D03*
X488000D02*
D03*
X480000D02*
D03*
X472000D02*
D03*
X464000D02*
D03*
X456000D02*
D03*
X448000D02*
D03*
X440000D02*
D03*
X432000D02*
D03*
X424000D02*
D03*
X552000Y500000D02*
D03*
X544000D02*
D03*
X536000D02*
D03*
X528000D02*
D03*
X520000D02*
D03*
X512000D02*
D03*
X504000D02*
D03*
X496000D02*
D03*
X488000D02*
D03*
X480000D02*
D03*
X472000D02*
D03*
X464000D02*
D03*
X456000D02*
D03*
X448000D02*
D03*
X440000D02*
D03*
X432000D02*
D03*
X424000D02*
D03*
X552000Y508000D02*
D03*
X544000D02*
D03*
X536000D02*
D03*
X528000D02*
D03*
X520000D02*
D03*
X512000D02*
D03*
X504000D02*
D03*
X496000D02*
D03*
X488000D02*
D03*
X480000D02*
D03*
X472000D02*
D03*
X464000D02*
D03*
X456000D02*
D03*
X448000D02*
D03*
X440000D02*
D03*
X432000D02*
D03*
X424000D02*
D03*
X552000Y516000D02*
D03*
X544000D02*
D03*
X536000D02*
D03*
X528000D02*
D03*
X520000D02*
D03*
X512000D02*
D03*
X504000D02*
D03*
X496000D02*
D03*
X488000D02*
D03*
X480000D02*
D03*
X472000D02*
D03*
X464000D02*
D03*
X456000D02*
D03*
X448000D02*
D03*
X440000D02*
D03*
X432000D02*
D03*
X424000D02*
D03*
D25*
X144250Y158200D02*
D03*
X159750D02*
D03*
X144250Y144000D02*
D03*
X159750D02*
D03*
X159750Y680000D02*
D03*
X144250D02*
D03*
X159750Y652000D02*
D03*
X144250D02*
D03*
Y638000D02*
D03*
X159750D02*
D03*
X144250Y666000D02*
D03*
X159750D02*
D03*
X396690Y469873D02*
D03*
X381190D02*
D03*
X577250Y468862D02*
D03*
X592750D02*
D03*
X577250Y484390D02*
D03*
X592750D02*
D03*
X577250Y453335D02*
D03*
X592750D02*
D03*
X396690Y454345D02*
D03*
X381190D02*
D03*
X396690Y423290D02*
D03*
X381190D02*
D03*
X396690Y438818D02*
D03*
X381190D02*
D03*
X396690Y485400D02*
D03*
X381190D02*
D03*
X577250Y422280D02*
D03*
X592750D02*
D03*
X577250Y437808D02*
D03*
X592750D02*
D03*
D26*
X488000Y537080D02*
D03*
Y552580D02*
D03*
X457520Y360750D02*
D03*
Y345250D02*
D03*
X503240Y537080D02*
D03*
Y552580D02*
D03*
X457520Y537080D02*
D03*
Y552580D02*
D03*
X518480Y537080D02*
D03*
Y552580D02*
D03*
X472760Y537080D02*
D03*
Y552580D02*
D03*
X518480Y360750D02*
D03*
Y345250D02*
D03*
X472760Y360750D02*
D03*
Y345250D02*
D03*
X488000Y360750D02*
D03*
Y345250D02*
D03*
X503240Y360750D02*
D03*
Y345250D02*
D03*
D27*
X901480Y396950D02*
D03*
Y563050D02*
D03*
Y156950D02*
D03*
Y323050D02*
D03*
X901480Y636950D02*
D03*
Y743050D02*
D03*
D28*
X849580Y540000D02*
D03*
Y525000D02*
D03*
Y510000D02*
D03*
Y495000D02*
D03*
Y480000D02*
D03*
Y465000D02*
D03*
Y450000D02*
D03*
Y435000D02*
D03*
Y420000D02*
D03*
Y300000D02*
D03*
Y285000D02*
D03*
Y270000D02*
D03*
Y255000D02*
D03*
Y240000D02*
D03*
Y225000D02*
D03*
Y210000D02*
D03*
Y195000D02*
D03*
Y180000D02*
D03*
X849580Y720000D02*
D03*
Y705000D02*
D03*
Y690000D02*
D03*
Y675000D02*
D03*
Y660000D02*
D03*
D29*
X200000Y80420D02*
D03*
X215000D02*
D03*
X230000D02*
D03*
X245000D02*
D03*
X260000D02*
D03*
X275000D02*
D03*
X290000D02*
D03*
X305000D02*
D03*
X320000D02*
D03*
D30*
X343050Y28520D02*
D03*
X176950D02*
D03*
D49*
X720000Y41864D02*
D03*
X700000D02*
D03*
X680000D02*
D03*
X660000D02*
D03*
X640000D02*
D03*
D50*
X503240Y552580D02*
X518480D01*
X488000D02*
X503240D01*
X472760D02*
X488000D01*
X457520D02*
X472760D01*
X592750Y468862D02*
Y484390D01*
Y453335D02*
Y468862D01*
Y437808D02*
Y453335D01*
Y422280D02*
Y437808D01*
X381190Y469873D02*
Y485400D01*
Y454345D02*
Y469873D01*
Y438818D02*
Y454345D01*
Y423290D02*
Y438818D01*
X503240Y345250D02*
X518480D01*
X488000D02*
X503240D01*
X472760D02*
X488000D01*
X457520D02*
X472760D01*
X442000Y62572D02*
Y93976D01*
X441792Y94184D02*
X442000Y93976D01*
X449372Y109660D02*
Y109982D01*
X455000Y62572D02*
Y104032D01*
X449372Y109660D02*
X455000Y104032D01*
X461500Y62572D02*
Y103160D01*
X468000Y109660D01*
X125795Y659220D02*
X132575Y666000D01*
X99480Y659220D02*
X125795D01*
X86500Y672200D02*
X99480Y659220D01*
X129039Y633943D02*
X133096Y638000D01*
X144250D01*
X99357Y633943D02*
X129039D01*
X132575Y666000D02*
X144250D01*
X132908Y681000D02*
X143250D01*
X111900Y672200D02*
X124108D01*
X132908Y681000D01*
X801342Y432639D02*
X833703Y465000D01*
X800274Y326171D02*
X801342Y327239D01*
Y432639D01*
X793453Y437819D02*
X820100Y464466D01*
X793453Y328330D02*
Y437819D01*
X619814Y154691D02*
X793453Y328330D01*
X800274Y324274D02*
Y326171D01*
X623000Y147000D02*
X800274Y324274D01*
X833703Y465000D02*
X849580D01*
X179000Y147000D02*
X623000D01*
X175679Y158200D02*
X179188Y154691D01*
X619814D01*
X159750Y158200D02*
X175679D01*
X176000Y144000D02*
X179000Y147000D01*
X159750Y144000D02*
X176000D01*
X857753Y451397D02*
X861356Y455000D01*
X861678D01*
X849580Y450000D02*
X850977Y451397D01*
X857753D01*
X858985Y465129D02*
X861356Y467500D01*
X849708Y465129D02*
X858985D01*
X861356Y467500D02*
X861678D01*
X111900Y138800D02*
X127600D01*
X132800Y144000D01*
X144250D01*
X132800Y158200D02*
X144250D01*
X126800Y164200D02*
X132800Y158200D01*
X111900Y164200D02*
X126800D01*
X798056Y488944D02*
X816821D01*
X631324Y655677D02*
X798056Y488944D01*
X197772Y655677D02*
X631324D01*
X836783Y480000D02*
X849580D01*
X819783Y497000D02*
X836783Y480000D01*
X800219Y497000D02*
X819783D01*
X634317Y662903D02*
X800219Y497000D01*
X167654Y680000D02*
X173749Y673905D01*
X159750Y680000D02*
X167654D01*
X173640Y673041D02*
X187136D01*
X160009Y666259D02*
X167483D01*
X187136Y673041D02*
X197274Y662903D01*
X167483Y666259D02*
X173551Y672327D01*
X197274Y662903D02*
X634317D01*
X159750Y666000D02*
X160009Y666259D01*
X187136Y645041D02*
X197772Y655677D01*
X173640Y645041D02*
X187136D01*
X159750Y652000D02*
X167654D01*
X173749Y645905D01*
X167483Y638259D02*
X173551Y644327D01*
X159750Y638000D02*
X160009Y638259D01*
X167483D01*
X858678Y495000D02*
X861678Y492000D01*
X849580Y495000D02*
X858678D01*
X861678Y492000D02*
X862000D01*
X849580Y480000D02*
X862000D01*
X111900Y646800D02*
X125940D01*
X131211Y652071D01*
X144179D01*
X86500Y646800D02*
X99357Y633943D01*
X143250Y681000D02*
X144250Y680000D01*
X838658Y420654D02*
X848926D01*
X849580Y420000D01*
X833504Y425808D02*
X838658Y420654D01*
X833182Y425808D02*
X833504D01*
X833368Y659591D02*
X833776Y660000D01*
X849580D01*
X833046Y659591D02*
X833368D01*
X833674Y673071D02*
X835602Y675000D01*
X849580D01*
X833352Y673071D02*
X833674D01*
X833016Y440647D02*
X838663Y435000D01*
X849580D01*
X838658Y540000D02*
X849580D01*
X834357Y535820D02*
X834478D01*
X838658Y540000D01*
X834247Y521000D02*
X838247Y525000D01*
X849580D01*
X833925Y521000D02*
X834247D01*
X836919Y510000D02*
X849580D01*
X834247Y507328D02*
X836919Y510000D01*
X833925Y507328D02*
X834247D01*
X260000Y80420D02*
X260000Y80420D01*
X260000Y80420D02*
Y97000D01*
X849580Y705000D02*
X849580Y705000D01*
X833000Y705000D02*
X849580D01*
Y720000D02*
X849580Y720000D01*
X833000Y720000D02*
X849580D01*
X833000Y180000D02*
X849580D01*
X849580Y180000D01*
X833000Y195000D02*
X849580D01*
X849580Y195000D01*
X833000Y210000D02*
X849580D01*
X849580Y210000D01*
X833000Y225000D02*
X849580D01*
X849580Y225000D01*
X833000Y240000D02*
X849580D01*
X849580Y240000D01*
X833000Y255000D02*
X849580D01*
X849580Y255000D01*
X833000Y270000D02*
X849580D01*
X849580Y270000D01*
X833000Y285000D02*
X849580D01*
X849580Y285000D01*
X833000Y300000D02*
X849580D01*
X849580Y300000D01*
D51*
X61100Y291200D02*
D03*
Y316600D02*
D03*
X35700D02*
D03*
X61100Y342000D02*
D03*
X35700D02*
D03*
X61100Y367400D02*
D03*
X35700D02*
D03*
X61100Y392800D02*
D03*
X35700D02*
D03*
X61100Y418200D02*
D03*
X35700Y443600D02*
D03*
Y418200D02*
D03*
Y469000D02*
D03*
X61100Y443600D02*
D03*
Y469000D02*
D03*
Y494400D02*
D03*
X35700D02*
D03*
X61100Y519800D02*
D03*
X35700D02*
D03*
X61100Y545200D02*
D03*
X35700D02*
D03*
X61100Y570600D02*
D03*
Y596000D02*
D03*
X35700D02*
D03*
Y570600D02*
D03*
Y621400D02*
D03*
X61100D02*
D03*
Y646800D02*
D03*
X35700D02*
D03*
X61100Y672200D02*
D03*
X35700D02*
D03*
X61100Y697600D02*
D03*
X35700D02*
D03*
X61100Y723000D02*
D03*
X35700D02*
D03*
X61100Y748400D02*
D03*
X35700D02*
D03*
X61100Y773800D02*
D03*
X35700D02*
D03*
Y138800D02*
D03*
X61100Y164200D02*
D03*
X35700D02*
D03*
X61100Y189600D02*
D03*
X35700D02*
D03*
X61100Y215000D02*
D03*
X35700D02*
D03*
X61100Y240400D02*
D03*
Y265800D02*
D03*
X35700D02*
D03*
Y291200D02*
D03*
Y240400D02*
D03*
X86500D02*
D03*
Y291200D02*
D03*
Y265800D02*
D03*
X111900D02*
D03*
Y240400D02*
D03*
X86500Y215000D02*
D03*
X111900D02*
D03*
X86500Y189600D02*
D03*
X111900D02*
D03*
X86500Y164200D02*
D03*
X111900D02*
D03*
X86500Y138800D02*
D03*
Y773800D02*
D03*
X111900D02*
D03*
X86500Y748400D02*
D03*
X111900D02*
D03*
X86500Y723000D02*
D03*
X111900D02*
D03*
X86500Y697600D02*
D03*
X111900D02*
D03*
X86500Y672200D02*
D03*
X111900D02*
D03*
X86500Y646800D02*
D03*
X111900D02*
D03*
Y621400D02*
D03*
X86500D02*
D03*
Y570600D02*
D03*
Y596000D02*
D03*
X111900D02*
D03*
Y570600D02*
D03*
X86500Y545200D02*
D03*
X111900D02*
D03*
X86500Y519800D02*
D03*
X111900D02*
D03*
X86500Y494400D02*
D03*
X111900D02*
D03*
Y469000D02*
D03*
Y443600D02*
D03*
X86500Y469000D02*
D03*
Y418200D02*
D03*
Y443600D02*
D03*
X111900Y418200D02*
D03*
X86500Y392800D02*
D03*
X111900D02*
D03*
X86500Y367400D02*
D03*
X111900D02*
D03*
X86500Y342000D02*
D03*
X111900D02*
D03*
X86500Y316600D02*
D03*
X111900D02*
D03*
Y291200D02*
D03*
D52*
X61100Y138800D02*
D03*
X111900D02*
D03*
D53*
X705866Y93726D02*
D03*
Y119126D02*
D03*
X731266Y93726D02*
D03*
X680466Y119126D02*
D03*
Y93726D02*
D03*
X655066Y119126D02*
D03*
X629666D02*
D03*
X655066Y93726D02*
D03*
X629666D02*
D03*
D54*
X731266Y119126D02*
D03*
D55*
X893000Y50000D02*
D03*
Y850000D02*
D03*
X35700Y88000D02*
D03*
Y824600D02*
D03*
D56*
X893000Y73250D02*
D03*
X869750Y50000D02*
D03*
X893000Y27140D02*
D03*
X916250Y50000D02*
D03*
X909440Y66440D02*
D03*
X876560Y33560D02*
D03*
X909440D02*
D03*
X876560Y66440D02*
D03*
X893000Y873250D02*
D03*
X869750Y850000D02*
D03*
X893000Y827140D02*
D03*
X916250Y850000D02*
D03*
X909440Y866440D02*
D03*
X876560Y833560D02*
D03*
X909440D02*
D03*
X876560Y866440D02*
D03*
X35700Y111250D02*
D03*
X12450Y88000D02*
D03*
X35700Y65140D02*
D03*
X58950Y88000D02*
D03*
X52140Y104440D02*
D03*
X19260Y71560D02*
D03*
X52140D02*
D03*
X19260Y104440D02*
D03*
Y841040D02*
D03*
X52140Y808160D02*
D03*
X19260D02*
D03*
X52140Y841040D02*
D03*
X58950Y824600D02*
D03*
X35700Y801740D02*
D03*
X12450Y824600D02*
D03*
X35700Y847850D02*
D03*
D57*
X441792Y94184D02*
D03*
X449372Y109982D02*
D03*
X468000Y109660D02*
D03*
X820100Y464466D02*
D03*
X861678Y455000D02*
D03*
Y467500D02*
D03*
X816821Y488944D02*
D03*
X862000Y492000D02*
D03*
Y480000D02*
D03*
X833046Y659591D02*
D03*
X833352Y673071D02*
D03*
X833016Y440647D02*
D03*
X833182Y425808D02*
D03*
X834357Y535820D02*
D03*
X833925Y521000D02*
D03*
Y507328D02*
D03*
X875965Y240000D02*
D03*
Y442500D02*
D03*
X876000Y696250D02*
D03*
Y708750D02*
D03*
Y721250D02*
D03*
X833000Y705000D02*
D03*
Y720000D02*
D03*
X260000Y97000D02*
D03*
X833000Y180000D02*
D03*
Y195000D02*
D03*
Y210000D02*
D03*
Y225000D02*
D03*
Y240000D02*
D03*
Y255000D02*
D03*
Y270000D02*
D03*
Y285000D02*
D03*
Y300000D02*
D03*
M02*
