G04*
G04 #@! TF.GenerationSoftware,Altium Limited,Altium Designer,24.1.2 (44)*
G04*
G04 Layer_Color=8421504*
%FSLAX44Y44*%
%MOMM*%
G71*
G04*
G04 #@! TF.SameCoordinates,C9DB49E7-4425-42DB-94E5-CA624B14DC79*
G04*
G04*
G04 #@! TF.FilePolarity,Positive*
G04*
G01*
G75*
%ADD20R,1.6000X1.4000*%
%ADD21R,1.4500X1.3000*%
%ADD22R,1.9000X1.9000*%
%ADD23R,0.4000X1.3500*%
%ADD24C,0.3700*%
G04:AMPARAMS|DCode=25|XSize=0.95mm|YSize=0.85mm|CornerRadius=0.2125mm|HoleSize=0mm|Usage=FLASHONLY|Rotation=270.000|XOffset=0mm|YOffset=0mm|HoleType=Round|Shape=RoundedRectangle|*
%AMROUNDEDRECTD25*
21,1,0.9500,0.4250,0,0,270.0*
21,1,0.5250,0.8500,0,0,270.0*
1,1,0.4250,-0.2125,-0.2625*
1,1,0.4250,-0.2125,0.2625*
1,1,0.4250,0.2125,0.2625*
1,1,0.4250,0.2125,-0.2625*
%
%ADD25ROUNDEDRECTD25*%
G04:AMPARAMS|DCode=26|XSize=0.95mm|YSize=0.85mm|CornerRadius=0.2125mm|HoleSize=0mm|Usage=FLASHONLY|Rotation=0.000|XOffset=0mm|YOffset=0mm|HoleType=Round|Shape=RoundedRectangle|*
%AMROUNDEDRECTD26*
21,1,0.9500,0.4250,0,0,0.0*
21,1,0.5250,0.8500,0,0,0.0*
1,1,0.4250,0.2625,-0.2125*
1,1,0.4250,-0.2625,-0.2125*
1,1,0.4250,-0.2625,0.2125*
1,1,0.4250,0.2625,0.2125*
%
%ADD26ROUNDEDRECTD26*%
%ADD27R,1.8542X1.2954*%
%ADD28R,1.0414X0.6604*%
%ADD29R,0.6604X1.0414*%
%ADD30R,1.2954X1.8542*%
D20*
X487000Y60322D02*
D03*
X423000D02*
D03*
D21*
X489250Y35822D02*
D03*
X420750D02*
D03*
D22*
X467000D02*
D03*
X443000D02*
D03*
D23*
X468000Y62572D02*
D03*
X461500D02*
D03*
X455000D02*
D03*
X448500D02*
D03*
X442000D02*
D03*
D24*
X552000Y388000D02*
D03*
X544000D02*
D03*
X536000D02*
D03*
X528000D02*
D03*
X520000D02*
D03*
X512000D02*
D03*
X504000D02*
D03*
X496000D02*
D03*
X488000D02*
D03*
X480000D02*
D03*
X472000D02*
D03*
X464000D02*
D03*
X456000D02*
D03*
X448000D02*
D03*
X440000D02*
D03*
X432000D02*
D03*
X424000D02*
D03*
X552000Y396000D02*
D03*
X544000D02*
D03*
X536000D02*
D03*
X528000D02*
D03*
X520000D02*
D03*
X512000D02*
D03*
X504000D02*
D03*
X496000D02*
D03*
X488000D02*
D03*
X480000D02*
D03*
X472000D02*
D03*
X464000D02*
D03*
X456000D02*
D03*
X448000D02*
D03*
X440000D02*
D03*
X432000D02*
D03*
X424000D02*
D03*
X552000Y404000D02*
D03*
X544000D02*
D03*
X536000D02*
D03*
X528000D02*
D03*
X520000D02*
D03*
X512000D02*
D03*
X504000D02*
D03*
X496000D02*
D03*
X488000D02*
D03*
X480000D02*
D03*
X472000D02*
D03*
X464000D02*
D03*
X456000D02*
D03*
X448000D02*
D03*
X440000D02*
D03*
X432000D02*
D03*
X424000D02*
D03*
X552000Y412000D02*
D03*
X544000D02*
D03*
X536000D02*
D03*
X528000D02*
D03*
X520000D02*
D03*
X512000D02*
D03*
X504000D02*
D03*
X496000D02*
D03*
X488000D02*
D03*
X480000D02*
D03*
X472000D02*
D03*
X464000D02*
D03*
X456000D02*
D03*
X448000D02*
D03*
X440000D02*
D03*
X432000D02*
D03*
X424000D02*
D03*
X552000Y420000D02*
D03*
X544000D02*
D03*
X536000D02*
D03*
X528000D02*
D03*
X520000D02*
D03*
X512000D02*
D03*
X504000D02*
D03*
X496000D02*
D03*
X488000D02*
D03*
X480000D02*
D03*
X472000D02*
D03*
X464000D02*
D03*
X456000D02*
D03*
X448000D02*
D03*
X440000D02*
D03*
X432000D02*
D03*
X424000D02*
D03*
X552000Y428000D02*
D03*
X544000D02*
D03*
X536000D02*
D03*
X528000D02*
D03*
X520000D02*
D03*
X456000D02*
D03*
X448000D02*
D03*
X440000D02*
D03*
X432000D02*
D03*
X424000D02*
D03*
X552000Y436000D02*
D03*
X544000D02*
D03*
X536000D02*
D03*
X528000D02*
D03*
X520000D02*
D03*
X504000D02*
D03*
X496000D02*
D03*
X488000D02*
D03*
X480000D02*
D03*
X472000D02*
D03*
X456000D02*
D03*
X448000D02*
D03*
X440000D02*
D03*
X432000D02*
D03*
X424000D02*
D03*
X552000Y444000D02*
D03*
X544000D02*
D03*
X536000D02*
D03*
X528000D02*
D03*
X520000D02*
D03*
X504000D02*
D03*
X496000D02*
D03*
X488000D02*
D03*
X480000D02*
D03*
X472000D02*
D03*
X456000D02*
D03*
X448000D02*
D03*
X440000D02*
D03*
X432000D02*
D03*
X424000D02*
D03*
X552000Y452000D02*
D03*
X544000D02*
D03*
X536000D02*
D03*
X528000D02*
D03*
X520000D02*
D03*
X504000D02*
D03*
X496000D02*
D03*
X488000D02*
D03*
X480000D02*
D03*
X472000D02*
D03*
X456000D02*
D03*
X448000D02*
D03*
X440000D02*
D03*
X432000D02*
D03*
X424000D02*
D03*
X552000Y460000D02*
D03*
X544000D02*
D03*
X536000D02*
D03*
X528000D02*
D03*
X520000D02*
D03*
X504000D02*
D03*
X496000D02*
D03*
X488000D02*
D03*
X480000D02*
D03*
X472000D02*
D03*
X456000D02*
D03*
X448000D02*
D03*
X440000D02*
D03*
X432000D02*
D03*
X424000D02*
D03*
X552000Y468000D02*
D03*
X544000D02*
D03*
X536000D02*
D03*
X528000D02*
D03*
X520000D02*
D03*
X504000D02*
D03*
X496000D02*
D03*
X488000D02*
D03*
X480000D02*
D03*
X472000D02*
D03*
X456000D02*
D03*
X448000D02*
D03*
X440000D02*
D03*
X432000D02*
D03*
X424000D02*
D03*
X552000Y476000D02*
D03*
X544000D02*
D03*
X536000D02*
D03*
X528000D02*
D03*
X520000D02*
D03*
X456000D02*
D03*
X448000D02*
D03*
X440000D02*
D03*
X432000D02*
D03*
X424000D02*
D03*
X552000Y484000D02*
D03*
X544000D02*
D03*
X536000D02*
D03*
X528000D02*
D03*
X520000D02*
D03*
X512000D02*
D03*
X504000D02*
D03*
X496000D02*
D03*
X488000D02*
D03*
X480000D02*
D03*
X472000D02*
D03*
X464000D02*
D03*
X456000D02*
D03*
X448000D02*
D03*
X440000D02*
D03*
X432000D02*
D03*
X424000D02*
D03*
X552000Y492000D02*
D03*
X544000D02*
D03*
X536000D02*
D03*
X528000D02*
D03*
X520000D02*
D03*
X512000D02*
D03*
X504000D02*
D03*
X496000D02*
D03*
X488000D02*
D03*
X480000D02*
D03*
X472000D02*
D03*
X464000D02*
D03*
X456000D02*
D03*
X448000D02*
D03*
X440000D02*
D03*
X432000D02*
D03*
X424000D02*
D03*
X552000Y500000D02*
D03*
X544000D02*
D03*
X536000D02*
D03*
X528000D02*
D03*
X520000D02*
D03*
X512000D02*
D03*
X504000D02*
D03*
X496000D02*
D03*
X488000D02*
D03*
X480000D02*
D03*
X472000D02*
D03*
X464000D02*
D03*
X456000D02*
D03*
X448000D02*
D03*
X440000D02*
D03*
X432000D02*
D03*
X424000D02*
D03*
X552000Y508000D02*
D03*
X544000D02*
D03*
X536000D02*
D03*
X528000D02*
D03*
X520000D02*
D03*
X512000D02*
D03*
X504000D02*
D03*
X496000D02*
D03*
X488000D02*
D03*
X480000D02*
D03*
X472000D02*
D03*
X464000D02*
D03*
X456000D02*
D03*
X448000D02*
D03*
X440000D02*
D03*
X432000D02*
D03*
X424000D02*
D03*
X552000Y516000D02*
D03*
X544000D02*
D03*
X536000D02*
D03*
X528000D02*
D03*
X520000D02*
D03*
X512000D02*
D03*
X504000D02*
D03*
X496000D02*
D03*
X488000D02*
D03*
X480000D02*
D03*
X472000D02*
D03*
X464000D02*
D03*
X456000D02*
D03*
X448000D02*
D03*
X440000D02*
D03*
X432000D02*
D03*
X424000D02*
D03*
D25*
X144250Y158200D02*
D03*
X159750D02*
D03*
X144250Y144000D02*
D03*
X159750D02*
D03*
X159750Y680000D02*
D03*
X144250D02*
D03*
X159750Y652000D02*
D03*
X144250D02*
D03*
Y638000D02*
D03*
X159750D02*
D03*
X144250Y666000D02*
D03*
X159750D02*
D03*
X396690Y469873D02*
D03*
X381190D02*
D03*
X577250Y468862D02*
D03*
X592750D02*
D03*
X577250Y484390D02*
D03*
X592750D02*
D03*
X577250Y453335D02*
D03*
X592750D02*
D03*
X396690Y454345D02*
D03*
X381190D02*
D03*
X396690Y423290D02*
D03*
X381190D02*
D03*
X396690Y438818D02*
D03*
X381190D02*
D03*
X396690Y485400D02*
D03*
X381190D02*
D03*
X577250Y422280D02*
D03*
X592750D02*
D03*
X577250Y437808D02*
D03*
X592750D02*
D03*
D26*
X488000Y537080D02*
D03*
Y552580D02*
D03*
X457520Y360750D02*
D03*
Y345250D02*
D03*
X503240Y537080D02*
D03*
Y552580D02*
D03*
X457520Y537080D02*
D03*
Y552580D02*
D03*
X518480Y537080D02*
D03*
Y552580D02*
D03*
X472760Y537080D02*
D03*
Y552580D02*
D03*
X518480Y360750D02*
D03*
Y345250D02*
D03*
X472760Y360750D02*
D03*
Y345250D02*
D03*
X488000Y360750D02*
D03*
Y345250D02*
D03*
X503240Y360750D02*
D03*
Y345250D02*
D03*
D27*
X901480Y396950D02*
D03*
Y563050D02*
D03*
Y156950D02*
D03*
Y323050D02*
D03*
X901480Y636950D02*
D03*
Y743050D02*
D03*
D28*
X849580Y540000D02*
D03*
Y525000D02*
D03*
Y510000D02*
D03*
Y495000D02*
D03*
Y480000D02*
D03*
Y465000D02*
D03*
Y450000D02*
D03*
Y435000D02*
D03*
Y420000D02*
D03*
Y300000D02*
D03*
Y285000D02*
D03*
Y270000D02*
D03*
Y255000D02*
D03*
Y240000D02*
D03*
Y225000D02*
D03*
Y210000D02*
D03*
Y195000D02*
D03*
Y180000D02*
D03*
X849580Y720000D02*
D03*
Y705000D02*
D03*
Y690000D02*
D03*
Y675000D02*
D03*
Y660000D02*
D03*
D29*
X200000Y80420D02*
D03*
X215000D02*
D03*
X230000D02*
D03*
X245000D02*
D03*
X260000D02*
D03*
X275000D02*
D03*
X290000D02*
D03*
X305000D02*
D03*
X320000D02*
D03*
D30*
X343050Y28520D02*
D03*
X176950D02*
D03*
M02*
