G04*
G04 #@! TF.GenerationSoftware,Altium Limited,Altium Designer,24.1.2 (44)*
G04*
G04 Layer_Color=128*
%FSLAX44Y44*%
%MOMM*%
G71*
G04*
G04 #@! TF.SameCoordinates,57DE949D-1DFD-4F9B-A04E-7280B0EA9DD5*
G04*
G04*
G04 #@! TF.FilePolarity,Positive*
G04*
G01*
G75*
G04:AMPARAMS|DCode=33|XSize=0.95mm|YSize=0.85mm|CornerRadius=0.2125mm|HoleSize=0mm|Usage=FLASHONLY|Rotation=90.000|XOffset=0mm|YOffset=0mm|HoleType=Round|Shape=RoundedRectangle|*
%AMROUNDEDRECTD33*
21,1,0.9500,0.4250,0,0,90.0*
21,1,0.5250,0.8500,0,0,90.0*
1,1,0.4250,0.2125,0.2625*
1,1,0.4250,0.2125,-0.2625*
1,1,0.4250,-0.2125,-0.2625*
1,1,0.4250,-0.2125,0.2625*
%
%ADD33ROUNDEDRECTD33*%
G04:AMPARAMS|DCode=39|XSize=0.95mm|YSize=0.85mm|CornerRadius=0.2125mm|HoleSize=0mm|Usage=FLASHONLY|Rotation=0.000|XOffset=0mm|YOffset=0mm|HoleType=Round|Shape=RoundedRectangle|*
%AMROUNDEDRECTD39*
21,1,0.9500,0.4250,0,0,0.0*
21,1,0.5250,0.8500,0,0,0.0*
1,1,0.4250,0.2625,-0.2125*
1,1,0.4250,-0.2625,-0.2125*
1,1,0.4250,-0.2625,0.2125*
1,1,0.4250,0.2625,0.2125*
%
%ADD39ROUNDEDRECTD39*%
%ADD107R,3.0000X2.1000*%
%ADD108R,1.6000X0.8000*%
G04:AMPARAMS|DCode=109|XSize=1.21mm|YSize=0.59mm|CornerRadius=0.1475mm|HoleSize=0mm|Usage=FLASHONLY|Rotation=0.000|XOffset=0mm|YOffset=0mm|HoleType=Round|Shape=RoundedRectangle|*
%AMROUNDEDRECTD109*
21,1,1.2100,0.2950,0,0,0.0*
21,1,0.9150,0.5900,0,0,0.0*
1,1,0.2950,0.4575,-0.1475*
1,1,0.2950,-0.4575,-0.1475*
1,1,0.2950,-0.4575,0.1475*
1,1,0.2950,0.4575,0.1475*
%
%ADD109ROUNDEDRECTD109*%
%ADD110R,0.6096X1.3208*%
%ADD111R,2.1000X3.0000*%
%ADD112R,0.8000X1.6000*%
D33*
X329078Y233645D02*
D03*
X313578D02*
D03*
X329060Y247650D02*
D03*
X313560D02*
D03*
X329060Y261620D02*
D03*
X313560D02*
D03*
X329060Y275590D02*
D03*
X313560D02*
D03*
Y289560D02*
D03*
X329060D02*
D03*
X313560Y303530D02*
D03*
X329060D02*
D03*
X313560Y317500D02*
D03*
X329060D02*
D03*
X329255Y331470D02*
D03*
X313755D02*
D03*
X313560Y345440D02*
D03*
X329060D02*
D03*
Y359410D02*
D03*
X313560D02*
D03*
X329060Y373380D02*
D03*
X313560D02*
D03*
Y387350D02*
D03*
X329060D02*
D03*
Y401320D02*
D03*
X313560D02*
D03*
X329060Y415290D02*
D03*
X313560D02*
D03*
X329060Y429260D02*
D03*
X313560D02*
D03*
X329060Y443230D02*
D03*
X313560D02*
D03*
X329060Y457200D02*
D03*
X313560D02*
D03*
X329060Y471170D02*
D03*
X313560D02*
D03*
X608200Y303530D02*
D03*
X623700D02*
D03*
X608200Y317500D02*
D03*
X623700D02*
D03*
X608200Y331470D02*
D03*
X623700D02*
D03*
X608200Y345440D02*
D03*
X623700D02*
D03*
X608200Y359410D02*
D03*
X623700D02*
D03*
X608200Y373380D02*
D03*
X623700D02*
D03*
Y387350D02*
D03*
X608200D02*
D03*
Y401324D02*
D03*
X623700D02*
D03*
X608200Y415290D02*
D03*
X623700D02*
D03*
Y429260D02*
D03*
X608200D02*
D03*
Y443230D02*
D03*
X623700D02*
D03*
Y457200D02*
D03*
X608200D02*
D03*
Y471170D02*
D03*
X623700D02*
D03*
X360550Y605790D02*
D03*
X376050D02*
D03*
X360550Y619760D02*
D03*
X376050D02*
D03*
X530990Y591820D02*
D03*
X515490D02*
D03*
X530990Y605790D02*
D03*
X515490D02*
D03*
X530990Y619760D02*
D03*
X515490D02*
D03*
X530990Y633730D02*
D03*
X515490D02*
D03*
X796020Y796670D02*
D03*
X780520D02*
D03*
X714740D02*
D03*
X699240D02*
D03*
X757149Y504330D02*
D03*
X772649D02*
D03*
X756790Y519430D02*
D03*
X772290D02*
D03*
X717680Y504330D02*
D03*
X702180D02*
D03*
Y519430D02*
D03*
X717680D02*
D03*
X813940Y461010D02*
D03*
X829440D02*
D03*
X813940Y476250D02*
D03*
X829440D02*
D03*
X813940Y491490D02*
D03*
X829440D02*
D03*
X813940Y506730D02*
D03*
X829440D02*
D03*
D39*
X861877Y352930D02*
D03*
Y368430D02*
D03*
X138883Y446910D02*
D03*
Y462410D02*
D03*
X466090Y424050D02*
D03*
Y439550D02*
D03*
X452120D02*
D03*
Y424050D02*
D03*
X438150Y439550D02*
D03*
Y424050D02*
D03*
X424180D02*
D03*
Y439550D02*
D03*
X410210Y424050D02*
D03*
Y439550D02*
D03*
X396240D02*
D03*
Y424050D02*
D03*
X580390Y500510D02*
D03*
Y485010D02*
D03*
X594360D02*
D03*
Y500510D02*
D03*
X566420Y485010D02*
D03*
Y500510D02*
D03*
X552450Y485010D02*
D03*
Y500510D02*
D03*
X538480D02*
D03*
Y485010D02*
D03*
X524510Y500510D02*
D03*
Y485010D02*
D03*
X510540D02*
D03*
Y500510D02*
D03*
X496570Y485010D02*
D03*
Y500510D02*
D03*
X482600Y485010D02*
D03*
Y500510D02*
D03*
X468630Y485010D02*
D03*
Y500510D02*
D03*
X454660Y485010D02*
D03*
Y500510D02*
D03*
X440690Y485010D02*
D03*
Y500510D02*
D03*
X426720Y485010D02*
D03*
Y500510D02*
D03*
X412750Y485010D02*
D03*
Y500510D02*
D03*
X398780Y485010D02*
D03*
Y500510D02*
D03*
X384810Y485010D02*
D03*
Y500510D02*
D03*
X370840Y485010D02*
D03*
Y500510D02*
D03*
X356870Y485010D02*
D03*
Y500510D02*
D03*
X342900Y485010D02*
D03*
Y500510D02*
D03*
X452120Y538350D02*
D03*
Y553850D02*
D03*
X422275Y538350D02*
D03*
Y553850D02*
D03*
X392430Y538350D02*
D03*
Y553850D02*
D03*
X500380Y666880D02*
D03*
Y651380D02*
D03*
X486410Y666880D02*
D03*
Y651380D02*
D03*
X441960Y666880D02*
D03*
Y651380D02*
D03*
X427990Y666880D02*
D03*
Y651380D02*
D03*
X414020Y666880D02*
D03*
Y651380D02*
D03*
X400311Y730380D02*
D03*
Y714880D02*
D03*
X756520Y763290D02*
D03*
Y778791D02*
D03*
X738740Y763520D02*
D03*
Y779020D02*
D03*
X676038Y763290D02*
D03*
Y778791D02*
D03*
X658258Y763290D02*
D03*
Y778791D02*
D03*
X702310Y656720D02*
D03*
Y641220D02*
D03*
X716280Y656720D02*
D03*
Y641220D02*
D03*
X730250D02*
D03*
Y656720D02*
D03*
X744220Y641220D02*
D03*
Y656720D02*
D03*
X758190Y641220D02*
D03*
Y656720D02*
D03*
X772160D02*
D03*
Y641220D02*
D03*
X788670Y551050D02*
D03*
Y566550D02*
D03*
X684530Y551050D02*
D03*
Y566550D02*
D03*
X683260Y476380D02*
D03*
Y460880D02*
D03*
X698681Y476380D02*
D03*
Y460880D02*
D03*
X714103Y476380D02*
D03*
Y460880D02*
D03*
X729524Y476380D02*
D03*
Y460880D02*
D03*
X744946Y476380D02*
D03*
Y460880D02*
D03*
X760367Y476380D02*
D03*
Y460880D02*
D03*
X775788Y476380D02*
D03*
Y460880D02*
D03*
X791210Y476380D02*
D03*
Y460880D02*
D03*
D107*
X886730Y296750D02*
D03*
Y183250D02*
D03*
X886695Y404500D02*
D03*
Y555500D02*
D03*
X886730Y746750D02*
D03*
Y633250D02*
D03*
D108*
X857730Y208750D02*
D03*
Y221250D02*
D03*
Y233750D02*
D03*
Y246250D02*
D03*
Y258750D02*
D03*
Y271250D02*
D03*
X857695Y430000D02*
D03*
Y442500D02*
D03*
Y455000D02*
D03*
Y467500D02*
D03*
Y480000D02*
D03*
Y492500D02*
D03*
Y505000D02*
D03*
Y517500D02*
D03*
Y530000D02*
D03*
X857730Y721250D02*
D03*
Y708750D02*
D03*
Y696250D02*
D03*
Y671250D02*
D03*
Y658750D02*
D03*
Y683750D02*
D03*
D109*
X800820Y761770D02*
D03*
Y780770D02*
D03*
X775720D02*
D03*
Y771270D02*
D03*
Y761770D02*
D03*
X694440D02*
D03*
Y771270D02*
D03*
Y780770D02*
D03*
X719540D02*
D03*
Y761770D02*
D03*
D110*
X834390Y371721D02*
D03*
X824890Y351417D02*
D03*
X843890D02*
D03*
X166370Y443619D02*
D03*
X175870Y463923D02*
D03*
X156870D02*
D03*
X382324Y713367D02*
D03*
X363324D02*
D03*
X372824Y733671D02*
D03*
D111*
X805500Y856730D02*
D03*
X654500D02*
D03*
D112*
X780000Y827730D02*
D03*
X767500D02*
D03*
X755000D02*
D03*
X742500D02*
D03*
X730000D02*
D03*
X717500D02*
D03*
X705000D02*
D03*
X692500D02*
D03*
X680000D02*
D03*
M02*
