G04*
G04 #@! TF.GenerationSoftware,Altium Limited,Altium Designer,24.1.2 (44)*
G04*
G04 Layer_Color=0*
%FSLAX44Y44*%
%MOMM*%
G71*
G04*
G04 #@! TF.SameCoordinates,3F855F41-FE18-4592-AD49-C0ABD27C799F*
G04*
G04*
G04 #@! TF.FilePolarity,Positive*
G04*
G01*
G75*
%ADD121C,0.0254*%
D121*
X0Y32000D02*
X-1Y123302D01*
D02*
G02*
X7999Y131302I8000J0D01*
G01*
X9999Y131297D01*
D02*
G03*
X17999Y139297I0J8000D01*
G01*
Y773499D01*
D02*
G03*
X10000Y781500I-8000J1D01*
G01*
Y781495D01*
X8000Y781500D01*
D02*
G02*
X0Y789500I-0J8000D01*
G01*
Y868000D01*
D02*
G02*
X31929Y900000I32000J0D01*
G01*
X32000Y900000D01*
X618000Y900000D01*
D02*
G02*
X626000Y892000I-0J-8000D01*
G01*
D02*
G03*
X634000Y884000I8000J0D01*
G01*
X826000Y884000D01*
D02*
G03*
X834000Y892000I0J8000D01*
G01*
D02*
G02*
X842000Y900000I8000J0D01*
G01*
X898000D01*
X898071Y900000D01*
D02*
G02*
X930000Y868071I-71J-32000D01*
G01*
Y773071D01*
D02*
G02*
X922000Y765071I-8000J0D01*
G01*
D02*
G03*
X914000Y757071I0J-8000D01*
G01*
X914000Y148000D01*
D02*
G03*
X922000Y140000I8000J0D01*
G01*
D02*
G02*
X930000Y132000I0J-8000D01*
G01*
Y32000D01*
D02*
G02*
X898000Y0I-32000J0D01*
G01*
X788000D01*
D02*
G02*
X780000Y8000I0J8000D01*
G01*
D02*
G03*
X772000Y16000I-8000J0D01*
G01*
X675000Y16000D01*
D02*
G02*
X673000Y18000I0J2000D01*
G01*
X672996D01*
Y43868D01*
D02*
G03*
X666996Y43868I-3000J0D01*
G01*
Y18000D01*
D02*
G02*
X664996Y16000I-2000J0D01*
G01*
X510000Y16000D01*
X158000D01*
D02*
G03*
X150000Y8000I0J-8000D01*
G01*
D02*
G02*
X142000Y0I-8000J-0D01*
G01*
X32000D01*
D02*
G02*
X0Y32000I0J32000D01*
G01*
M02*
