G04*
G04 #@! TF.GenerationSoftware,Altium Limited,Altium Designer,24.1.2 (44)*
G04*
G04 Layer_Color=8388736*
%FSLAX44Y44*%
%MOMM*%
G71*
G04*
G04 #@! TF.SameCoordinates,C9DB49E7-4425-42DB-94E5-CA624B14DC79*
G04*
G04*
G04 #@! TF.FilePolarity,Negative*
G04*
G01*
G75*
%ADD31R,1.8032X1.6032*%
%ADD32R,1.6532X1.5032*%
%ADD33R,2.1032X2.1032*%
%ADD34R,0.6032X1.5532*%
%ADD35C,0.5732*%
G04:AMPARAMS|DCode=36|XSize=1.1532mm|YSize=1.0532mm|CornerRadius=0.3141mm|HoleSize=0mm|Usage=FLASHONLY|Rotation=270.000|XOffset=0mm|YOffset=0mm|HoleType=Round|Shape=RoundedRectangle|*
%AMROUNDEDRECTD36*
21,1,1.1532,0.4250,0,0,270.0*
21,1,0.5250,1.0532,0,0,270.0*
1,1,0.6282,-0.2125,-0.2625*
1,1,0.6282,-0.2125,0.2625*
1,1,0.6282,0.2125,0.2625*
1,1,0.6282,0.2125,-0.2625*
%
%ADD36ROUNDEDRECTD36*%
G04:AMPARAMS|DCode=37|XSize=1.1532mm|YSize=1.0532mm|CornerRadius=0.3141mm|HoleSize=0mm|Usage=FLASHONLY|Rotation=0.000|XOffset=0mm|YOffset=0mm|HoleType=Round|Shape=RoundedRectangle|*
%AMROUNDEDRECTD37*
21,1,1.1532,0.4250,0,0,0.0*
21,1,0.5250,1.0532,0,0,0.0*
1,1,0.6282,0.2625,-0.2125*
1,1,0.6282,-0.2625,-0.2125*
1,1,0.6282,-0.2625,0.2125*
1,1,0.6282,0.2625,0.2125*
%
%ADD37ROUNDEDRECTD37*%
%ADD38R,1.2032X4.2032*%
%ADD39R,2.0574X1.4986*%
%ADD40R,1.2446X0.8636*%
%ADD41R,0.8636X1.2446*%
%ADD42R,1.4986X2.0574*%
%ADD43C,1.7332*%
%ADD44R,1.7332X1.7332*%
%ADD45C,1.8532*%
G04:AMPARAMS|DCode=46|XSize=1.8532mm|YSize=1.8532mm|CornerRadius=0.5141mm|HoleSize=0mm|Usage=FLASHONLY|Rotation=180.000|XOffset=0mm|YOffset=0mm|HoleType=Round|Shape=RoundedRectangle|*
%AMROUNDEDRECTD46*
21,1,1.8532,0.8250,0,0,180.0*
21,1,0.8250,1.8532,0,0,180.0*
1,1,1.0282,-0.4125,0.4125*
1,1,1.0282,0.4125,0.4125*
1,1,1.0282,0.4125,-0.4125*
1,1,1.0282,-0.4125,-0.4125*
%
%ADD46ROUNDEDRECTD46*%
%ADD47C,6.2032*%
%ADD48C,1.2032*%
G36*
X437537Y79519D02*
X472408D01*
X472438Y79489D01*
Y64000D01*
X437537D01*
Y79519D01*
D02*
G37*
D31*
X487000Y60322D02*
D03*
X423000D02*
D03*
D32*
X489250Y35822D02*
D03*
X420750D02*
D03*
D33*
X467000D02*
D03*
X443000D02*
D03*
D34*
X468000Y62572D02*
D03*
X461500D02*
D03*
X455000D02*
D03*
X448500D02*
D03*
X442000D02*
D03*
D35*
X552000Y388000D02*
D03*
X544000D02*
D03*
X536000D02*
D03*
X528000D02*
D03*
X520000D02*
D03*
X512000D02*
D03*
X504000D02*
D03*
X496000D02*
D03*
X488000D02*
D03*
X480000D02*
D03*
X472000D02*
D03*
X464000D02*
D03*
X456000D02*
D03*
X448000D02*
D03*
X440000D02*
D03*
X432000D02*
D03*
X424000D02*
D03*
X552000Y396000D02*
D03*
X544000D02*
D03*
X536000D02*
D03*
X528000D02*
D03*
X520000D02*
D03*
X512000D02*
D03*
X504000D02*
D03*
X496000D02*
D03*
X488000D02*
D03*
X480000D02*
D03*
X472000D02*
D03*
X464000D02*
D03*
X456000D02*
D03*
X448000D02*
D03*
X440000D02*
D03*
X432000D02*
D03*
X424000D02*
D03*
X552000Y404000D02*
D03*
X544000D02*
D03*
X536000D02*
D03*
X528000D02*
D03*
X520000D02*
D03*
X512000D02*
D03*
X504000D02*
D03*
X496000D02*
D03*
X488000D02*
D03*
X480000D02*
D03*
X472000D02*
D03*
X464000D02*
D03*
X456000D02*
D03*
X448000D02*
D03*
X440000D02*
D03*
X432000D02*
D03*
X424000D02*
D03*
X552000Y412000D02*
D03*
X544000D02*
D03*
X536000D02*
D03*
X528000D02*
D03*
X520000D02*
D03*
X512000D02*
D03*
X504000D02*
D03*
X496000D02*
D03*
X488000D02*
D03*
X480000D02*
D03*
X472000D02*
D03*
X464000D02*
D03*
X456000D02*
D03*
X448000D02*
D03*
X440000D02*
D03*
X432000D02*
D03*
X424000D02*
D03*
X552000Y420000D02*
D03*
X544000D02*
D03*
X536000D02*
D03*
X528000D02*
D03*
X520000D02*
D03*
X512000D02*
D03*
X504000D02*
D03*
X496000D02*
D03*
X488000D02*
D03*
X480000D02*
D03*
X472000D02*
D03*
X464000D02*
D03*
X456000D02*
D03*
X448000D02*
D03*
X440000D02*
D03*
X432000D02*
D03*
X424000D02*
D03*
X552000Y428000D02*
D03*
X544000D02*
D03*
X536000D02*
D03*
X528000D02*
D03*
X520000D02*
D03*
X456000D02*
D03*
X448000D02*
D03*
X440000D02*
D03*
X432000D02*
D03*
X424000D02*
D03*
X552000Y436000D02*
D03*
X544000D02*
D03*
X536000D02*
D03*
X528000D02*
D03*
X520000D02*
D03*
X504000D02*
D03*
X496000D02*
D03*
X488000D02*
D03*
X480000D02*
D03*
X472000D02*
D03*
X456000D02*
D03*
X448000D02*
D03*
X440000D02*
D03*
X432000D02*
D03*
X424000D02*
D03*
X552000Y444000D02*
D03*
X544000D02*
D03*
X536000D02*
D03*
X528000D02*
D03*
X520000D02*
D03*
X504000D02*
D03*
X496000D02*
D03*
X488000D02*
D03*
X480000D02*
D03*
X472000D02*
D03*
X456000D02*
D03*
X448000D02*
D03*
X440000D02*
D03*
X432000D02*
D03*
X424000D02*
D03*
X552000Y452000D02*
D03*
X544000D02*
D03*
X536000D02*
D03*
X528000D02*
D03*
X520000D02*
D03*
X504000D02*
D03*
X496000D02*
D03*
X488000D02*
D03*
X480000D02*
D03*
X472000D02*
D03*
X456000D02*
D03*
X448000D02*
D03*
X440000D02*
D03*
X432000D02*
D03*
X424000D02*
D03*
X552000Y460000D02*
D03*
X544000D02*
D03*
X536000D02*
D03*
X528000D02*
D03*
X520000D02*
D03*
X504000D02*
D03*
X496000D02*
D03*
X488000D02*
D03*
X480000D02*
D03*
X472000D02*
D03*
X456000D02*
D03*
X448000D02*
D03*
X440000D02*
D03*
X432000D02*
D03*
X424000D02*
D03*
X552000Y468000D02*
D03*
X544000D02*
D03*
X536000D02*
D03*
X528000D02*
D03*
X520000D02*
D03*
X504000D02*
D03*
X496000D02*
D03*
X488000D02*
D03*
X480000D02*
D03*
X472000D02*
D03*
X456000D02*
D03*
X448000D02*
D03*
X440000D02*
D03*
X432000D02*
D03*
X424000D02*
D03*
X552000Y476000D02*
D03*
X544000D02*
D03*
X536000D02*
D03*
X528000D02*
D03*
X520000D02*
D03*
X456000D02*
D03*
X448000D02*
D03*
X440000D02*
D03*
X432000D02*
D03*
X424000D02*
D03*
X552000Y484000D02*
D03*
X544000D02*
D03*
X536000D02*
D03*
X528000D02*
D03*
X520000D02*
D03*
X512000D02*
D03*
X504000D02*
D03*
X496000D02*
D03*
X488000D02*
D03*
X480000D02*
D03*
X472000D02*
D03*
X464000D02*
D03*
X456000D02*
D03*
X448000D02*
D03*
X440000D02*
D03*
X432000D02*
D03*
X424000D02*
D03*
X552000Y492000D02*
D03*
X544000D02*
D03*
X536000D02*
D03*
X528000D02*
D03*
X520000D02*
D03*
X512000D02*
D03*
X504000D02*
D03*
X496000D02*
D03*
X488000D02*
D03*
X480000D02*
D03*
X472000D02*
D03*
X464000D02*
D03*
X456000D02*
D03*
X448000D02*
D03*
X440000D02*
D03*
X432000D02*
D03*
X424000D02*
D03*
X552000Y500000D02*
D03*
X544000D02*
D03*
X536000D02*
D03*
X528000D02*
D03*
X520000D02*
D03*
X512000D02*
D03*
X504000D02*
D03*
X496000D02*
D03*
X488000D02*
D03*
X480000D02*
D03*
X472000D02*
D03*
X464000D02*
D03*
X456000D02*
D03*
X448000D02*
D03*
X440000D02*
D03*
X432000D02*
D03*
X424000D02*
D03*
X552000Y508000D02*
D03*
X544000D02*
D03*
X536000D02*
D03*
X528000D02*
D03*
X520000D02*
D03*
X512000D02*
D03*
X504000D02*
D03*
X496000D02*
D03*
X488000D02*
D03*
X480000D02*
D03*
X472000D02*
D03*
X464000D02*
D03*
X456000D02*
D03*
X448000D02*
D03*
X440000D02*
D03*
X432000D02*
D03*
X424000D02*
D03*
X552000Y516000D02*
D03*
X544000D02*
D03*
X536000D02*
D03*
X528000D02*
D03*
X520000D02*
D03*
X512000D02*
D03*
X504000D02*
D03*
X496000D02*
D03*
X488000D02*
D03*
X480000D02*
D03*
X472000D02*
D03*
X464000D02*
D03*
X456000D02*
D03*
X448000D02*
D03*
X440000D02*
D03*
X432000D02*
D03*
X424000D02*
D03*
D36*
X144250Y158200D02*
D03*
X159750D02*
D03*
X144250Y144000D02*
D03*
X159750D02*
D03*
X159750Y680000D02*
D03*
X144250D02*
D03*
X159750Y652000D02*
D03*
X144250D02*
D03*
Y638000D02*
D03*
X159750D02*
D03*
X144250Y666000D02*
D03*
X159750D02*
D03*
X396690Y469873D02*
D03*
X381190D02*
D03*
X577250Y468862D02*
D03*
X592750D02*
D03*
X577250Y484390D02*
D03*
X592750D02*
D03*
X577250Y453335D02*
D03*
X592750D02*
D03*
X396690Y454345D02*
D03*
X381190D02*
D03*
X396690Y423290D02*
D03*
X381190D02*
D03*
X396690Y438818D02*
D03*
X381190D02*
D03*
X396690Y485400D02*
D03*
X381190D02*
D03*
X577250Y422280D02*
D03*
X592750D02*
D03*
X577250Y437808D02*
D03*
X592750D02*
D03*
D37*
X488000Y537080D02*
D03*
Y552580D02*
D03*
X457520Y360750D02*
D03*
Y345250D02*
D03*
X503240Y537080D02*
D03*
Y552580D02*
D03*
X457520Y537080D02*
D03*
Y552580D02*
D03*
X518480Y537080D02*
D03*
Y552580D02*
D03*
X472760Y537080D02*
D03*
Y552580D02*
D03*
X518480Y360750D02*
D03*
Y345250D02*
D03*
X472760Y360750D02*
D03*
Y345250D02*
D03*
X488000Y360750D02*
D03*
Y345250D02*
D03*
X503240Y360750D02*
D03*
Y345250D02*
D03*
D38*
X720000Y41864D02*
D03*
X700000D02*
D03*
X680000D02*
D03*
X660000D02*
D03*
X640000D02*
D03*
D39*
X901480Y396950D02*
D03*
Y563050D02*
D03*
Y156950D02*
D03*
Y323050D02*
D03*
X901480Y636950D02*
D03*
Y743050D02*
D03*
D40*
X849580Y540000D02*
D03*
Y525000D02*
D03*
Y510000D02*
D03*
Y495000D02*
D03*
Y480000D02*
D03*
Y465000D02*
D03*
Y450000D02*
D03*
Y435000D02*
D03*
Y420000D02*
D03*
Y300000D02*
D03*
Y285000D02*
D03*
Y270000D02*
D03*
Y255000D02*
D03*
Y240000D02*
D03*
Y225000D02*
D03*
Y210000D02*
D03*
Y195000D02*
D03*
Y180000D02*
D03*
X849580Y720000D02*
D03*
Y705000D02*
D03*
Y690000D02*
D03*
Y675000D02*
D03*
Y660000D02*
D03*
D41*
X200000Y80420D02*
D03*
X215000D02*
D03*
X230000D02*
D03*
X245000D02*
D03*
X260000D02*
D03*
X275000D02*
D03*
X290000D02*
D03*
X305000D02*
D03*
X320000D02*
D03*
D42*
X343050Y28520D02*
D03*
X176950D02*
D03*
D43*
X61100Y291200D02*
D03*
Y316600D02*
D03*
X35700D02*
D03*
X61100Y342000D02*
D03*
X35700D02*
D03*
X61100Y367400D02*
D03*
X35700D02*
D03*
X61100Y392800D02*
D03*
X35700D02*
D03*
X61100Y418200D02*
D03*
X35700Y443600D02*
D03*
Y418200D02*
D03*
Y469000D02*
D03*
X61100Y443600D02*
D03*
Y469000D02*
D03*
Y494400D02*
D03*
X35700D02*
D03*
X61100Y519800D02*
D03*
X35700D02*
D03*
X61100Y545200D02*
D03*
X35700D02*
D03*
X61100Y570600D02*
D03*
Y596000D02*
D03*
X35700D02*
D03*
Y570600D02*
D03*
Y621400D02*
D03*
X61100D02*
D03*
Y646800D02*
D03*
X35700D02*
D03*
X61100Y672200D02*
D03*
X35700D02*
D03*
X61100Y697600D02*
D03*
X35700D02*
D03*
X61100Y723000D02*
D03*
X35700D02*
D03*
X61100Y748400D02*
D03*
X35700D02*
D03*
X61100Y773800D02*
D03*
X35700D02*
D03*
Y138800D02*
D03*
X61100Y164200D02*
D03*
X35700D02*
D03*
X61100Y189600D02*
D03*
X35700D02*
D03*
X61100Y215000D02*
D03*
X35700D02*
D03*
X61100Y240400D02*
D03*
Y265800D02*
D03*
X35700D02*
D03*
Y291200D02*
D03*
Y240400D02*
D03*
X86500D02*
D03*
Y291200D02*
D03*
Y265800D02*
D03*
X111900D02*
D03*
Y240400D02*
D03*
X86500Y215000D02*
D03*
X111900D02*
D03*
X86500Y189600D02*
D03*
X111900D02*
D03*
X86500Y164200D02*
D03*
X111900D02*
D03*
X86500Y138800D02*
D03*
Y773800D02*
D03*
X111900D02*
D03*
X86500Y748400D02*
D03*
X111900D02*
D03*
X86500Y723000D02*
D03*
X111900D02*
D03*
X86500Y697600D02*
D03*
X111900D02*
D03*
X86500Y672200D02*
D03*
X111900D02*
D03*
X86500Y646800D02*
D03*
X111900D02*
D03*
Y621400D02*
D03*
X86500D02*
D03*
Y570600D02*
D03*
Y596000D02*
D03*
X111900D02*
D03*
Y570600D02*
D03*
X86500Y545200D02*
D03*
X111900D02*
D03*
X86500Y519800D02*
D03*
X111900D02*
D03*
X86500Y494400D02*
D03*
X111900D02*
D03*
Y469000D02*
D03*
Y443600D02*
D03*
X86500Y469000D02*
D03*
Y418200D02*
D03*
Y443600D02*
D03*
X111900Y418200D02*
D03*
X86500Y392800D02*
D03*
X111900D02*
D03*
X86500Y367400D02*
D03*
X111900D02*
D03*
X86500Y342000D02*
D03*
X111900D02*
D03*
X86500Y316600D02*
D03*
X111900D02*
D03*
Y291200D02*
D03*
D44*
X61100Y138800D02*
D03*
X111900D02*
D03*
D45*
X705866Y93726D02*
D03*
Y119126D02*
D03*
X731266Y93726D02*
D03*
X680466Y119126D02*
D03*
Y93726D02*
D03*
X655066Y119126D02*
D03*
X629666D02*
D03*
X655066Y93726D02*
D03*
X629666D02*
D03*
D46*
X731266Y119126D02*
D03*
D47*
X893000Y50000D02*
D03*
Y850000D02*
D03*
X35700Y88000D02*
D03*
Y824600D02*
D03*
D48*
X893000Y73250D02*
D03*
X869750Y50000D02*
D03*
X893000Y27140D02*
D03*
X916250Y50000D02*
D03*
X909440Y66440D02*
D03*
X876560Y33560D02*
D03*
X909440D02*
D03*
X876560Y66440D02*
D03*
X893000Y873250D02*
D03*
X869750Y850000D02*
D03*
X893000Y827140D02*
D03*
X916250Y850000D02*
D03*
X909440Y866440D02*
D03*
X876560Y833560D02*
D03*
X909440D02*
D03*
X876560Y866440D02*
D03*
X35700Y111250D02*
D03*
X12450Y88000D02*
D03*
X35700Y65140D02*
D03*
X58950Y88000D02*
D03*
X52140Y104440D02*
D03*
X19260Y71560D02*
D03*
X52140D02*
D03*
X19260Y104440D02*
D03*
Y841040D02*
D03*
X52140Y808160D02*
D03*
X19260D02*
D03*
X52140Y841040D02*
D03*
X58950Y824600D02*
D03*
X35700Y801740D02*
D03*
X12450Y824600D02*
D03*
X35700Y847850D02*
D03*
M02*
