M48
;Layer_Color=9474304
;FILE_FORMAT=4:2
METRIC,TZ
;TYPE=PLATED
T01F00S00C0.20
T02F00S00C0.50
T03F00S00C0.90
T04F00S00C1.10
T05F00S00C3.30
%
T01
X250Y250
X500
X750
X1000
X1250
X1500
X1750
X2000
X2250
X2500
X2750
X2862Y372
X2875Y500
X2625
X2500Y750
X2250
X2403Y940
X2375Y1000
X2125
X2043Y940
X1875Y1000
X1625
X1750Y750
X1500
X1250
X1000
X750
X875Y1000
X1125
X1250Y1250
X1000
X750
X500
X250
X375Y1500
X625
X875
X1125
X1424Y1594
X1703Y1583
Y1453
X1757Y1289
X1750Y1750
X2057Y1746
X2084Y1582
X2091Y1456
X2375Y1500
X2500Y1750
X2567Y2020
X2631Y2036
X2614Y1976
X2553Y2115
X2848Y2118
X2927
X2875Y2500
X2750Y2750
X2819Y2858
X2864Y2899
X2500Y2750
X1993Y2493
X2005Y2163
X1500Y2250
X1250
X1000
X750
X500
X250
Y2750
X500
X750
X1000
X1250
X1500
X1375Y2500
Y2000
X750Y1750
X500
X250
X375Y500
X625
X875
X1125
X1375
X1625
X1875
X2125
X2763Y940
X2750Y1250
X2500
X3000
X3123Y940
X3000Y750
X3250
X3375Y500
X3625
X3875
X4125
X4250Y750
X4500
X4625Y1000
X4375
X4801Y914
X4782Y852
X4864Y978
X4928Y1041
X4991Y1105
X5055Y1168
X5118Y1232
X5182Y1295
X5250Y1250
X5245Y1359
X5309Y1422
X5500Y1250
X5750
X5731Y1359
X5758Y1676
X5750Y1750
X5709Y1717
X6000Y1750
X6186Y1650
X6239Y1600
X6375Y1500
X6625
X6875
X6750Y1750
X6500
X6375Y2000
X6125
X6147Y1905
X6250Y2250
X6000
X5956Y2553
X6000Y2750
X6020Y2871
X6250Y2750
X6237Y2565
X6375Y2500
X6625
X6875
X6750Y2750
X6500
X6875Y2000
X5985Y1454
X6000Y1250
X6125Y1000
X5875
X5625
X5375
X5125
X5250Y750
X5500
X5750
X6000
X6250
X6277Y692
X6500Y750
Y250
X6250
X6000
X5750
X5500
X5250
X5375Y500
X5625
X5875
X6125
X5125
X5000Y750
X4625Y500
X4000Y750
X3750
X3591Y852
X3651Y1131
X3650Y1301
X3651Y1474
Y1652
Y1830
X3650Y2001
X3717Y2108
X3857
X3996
X4135
X4276
X4283Y1999
X4281Y1830
Y1652
Y1474
X3965
Y1301
X4000Y1250
X3965Y1652
Y1829
X4597Y1833
Y1652
X4911Y1830
X4913Y2000
X4974Y2108
X4834
X4695Y2107
X4555
X4415Y2108
X4447Y2594
X4447Y2674
X4367
X4447Y2754
X4445Y2832
X4366Y2836
Y2914
X4447Y2915
X4687
Y2836
X4608Y2831
Y2754
Y2594
X4687Y2536
Y2452
X4565Y2500
X4807Y2537
X4886Y2579
X4914Y2522
X4927Y2754
X5007
X5010Y2915
X4928Y2915
X4847Y2914
X4846Y2834
X4766Y2912
X4774Y2676
X5167Y2674
X5171Y2596
X5303Y2674
X5347Y2714
X5427Y2872
X5454Y2318
X5114Y2331
X5207Y2184
X5182Y1833
X4834Y2299
X4087Y2523
X3955
X3872Y2633
X3866Y2879
X3875Y2932
X4127Y2914
X4207
X4208Y2835
X4124
X3213Y2826
Y2966
X3214Y2683
X3213Y2547
X2972Y2565
X3007Y2614
Y2692
X3011Y2752
X3005Y2337
X3064Y2341
X3570Y2457
X3416Y1658
X3416Y1480
X3416Y1303
Y1138
X3262Y1434
X3264Y1592
X3250Y1750
X3000
Y250
X3250
X3226Y368
X3500Y250
X3750
X4000
X7500
X7750
X8000
X8250
X8500
X8375Y500
X8125
X7875
X7625
X7375
X7321Y687
X7500Y750
X7750
X7648Y967
X7750Y1250
X7875Y1500
X8125
X8375
X8625
X8875
X9000Y1250
X8750
X8500
X8250
X8375Y1000
X8625
X8875
X9125
X8500Y750
X8250
Y1750
X8500
X8625Y2000
X8875
X9000Y2250
X8750
X8875Y2500
X9000Y2750
X8750
X8344Y2708
X8250Y2752
X8375Y2500
Y2324
X8250Y2250
X8344Y2108
X8375Y2000
X8125
X7875
X7625
X7375
X7125
X7000Y2250
X7500
X7750
X7875Y2500
X8125
X7625
X7375
X7500Y2750
X7750
Y1750
X8000
X7500
X7625Y1500
X7375
X7125
X7000Y1750
X7125Y3000
X7375
X7875
X8125
X8375
X8625
X8750Y3250
X9000
X8875Y3500
X8712Y3529
Y3684
X8750Y3750
X9000
Y4250
X8816Y4336
X8738Y4267
X8703Y4425
X8404Y4343
X8408Y4524
Y4621
X8408Y4789
X8408Y4887
X8399Y5018
X8387Y5112
X8356Y5156
X8353Y5206
X8354Y5276
X8250Y5250
X8375Y5500
X8509Y5397
X8500Y5750
X8375Y6000
X8500Y6250
X8738Y6553
Y6680
X8816Y6622
Y6749
X9000Y6750
X8250
X8000
X7722Y6642
X7582
X7442
X7303
X7163
X7023
X7165Y6272
X7177Y6172
X7077
X6977
Y6072
Y5972
X7077
Y6072
X7177
X7277
Y6172
X7466Y6171
X7566
X7666
Y6071
X7566
X7466
X7666Y5971
X7766
Y6071
Y6171
X7763Y5673
X7572Y5669
X7569Y5572
X7372Y5573
X7179Y5572
Y5674
X7170Y5766
X7277Y5872
X7570Y5769
X7620Y5333
X7723Y5354
X7722Y5283
X7887Y5423
X7861Y4864
X7962Y4851
X7728Y4864
Y4937
X7375Y5000
X7252Y4859
X7166Y4853
X7000
X7023Y5279
X7023Y5353
X7122Y5335
X7321Y5255
X7423Y5257
X7375Y4500
X7250Y4524
X7192Y4518
X7175Y4465
X7103Y4507
X7066Y4322
X6973Y4179
X7020Y4044
Y3987
X7375Y4000
X7500Y4250
X7500Y4524
X7557Y4507
X7645Y4508
X7728
X7823
X7875Y4500
X7861Y4432
X7925
X8193Y4339
Y4238
Y4136
Y4034
Y3933
Y3831
Y3730
X8500Y3750
X8625Y4000
X8375
X8125
X7875
X7750Y3750
X7760Y3632
X7658
X7557
X7455
X7500Y3750
X7625Y3500
X7875
X7861Y3632
X7375Y3500
X7000Y3250
X8250
X8248Y3380
X8375Y3500
X8500Y3250
X9000Y4750
Y5250
Y5750
X6975Y5672
X6845Y5429
X6628Y5145
X6625Y5079
X6514Y5014
X6475Y4961
X6477Y4852
X6474Y4785
X6664Y4764
X6662Y4710
X6772Y4524
X6856Y4518
X6923Y4521
X6859Y4408
X6918Y4037
X6915Y3987
X6907Y3814
X6771Y3774
X6785Y3706
X6837Y3658
X6625Y3494
X6750Y3250
X6875Y3000
X6375
X5919Y3318
X5889Y3451
X5864Y3706
X6161Y3801
X6161Y3991
X5974Y4114
X6007Y4156
X5982Y4267
X5956Y4369
X6000Y4750
X6016Y5070
X5982Y5114
X6311Y5305
X6388Y5303
X6358Y5500
X6282Y5507
X6285Y5608
X6332Y5656
X6282Y5732
X6229Y5780
X6223Y5863
Y5948
X6268Y5987
X6313Y5929
X6223Y6139
X6268Y6185
X6250Y6250
X6038Y6240
X6038Y6185
X6038Y6124
X6125Y6500
X6375
X6625
X6750Y6750
X6500
X6250
X6000
X5750
X5765Y6655
X5782Y6557
X5777Y6498
X5750Y6391
X5689Y6386
X5575Y6392
Y6325
X5586Y6460
Y6579
X5659Y6574
X5586Y6707
Y6763
X5486Y6769
X5427Y6762
X5250Y6750
X5005Y6763
X4862Y6763
X4750Y6750
X4674Y6898
X4500Y6750
X4420Y6744
X4280
X4140
X4156Y6407
X4236
X4316
X4396
X4476Y6407
X4517Y6361
X4596Y6360
Y6280
X4518Y6282
X4438
Y6201
X4436Y6125
X4355Y6122
X4160Y6086
X4080Y6083
X3864
X3867Y6164
X3864Y6226
X3538Y6185
X3510Y6086
X3500Y6750
X4570Y6452
X4712Y6506
X4718Y6401
X4796
X4873Y6402
X4952
X4990Y6198
X5070
X5151
X5397Y6200
Y5977
X5181Y5841
X5072Y5720
X4924Y5712
X4913Y5650
X4676Y5640
X4673Y5719
X4596Y5720
X4513Y5798
X4436Y5800
Y5723
X4436Y5640
X4356
X4276
X4198Y5641
X4250Y5729
X4333Y5728
X4359Y5884
X4435Y5882
X4594Y5881
X4664Y5885
X4636Y5929
X4760Y5936
X4814Y5962
X4843Y5894
X4834Y6121
X4750Y6122
X4676Y6125
X4676Y6280
X5313Y6409
X6500Y6250
X6625Y6000
X6500Y5750
X6833Y4853
X5000Y4750
X4940Y4479
X4661
X4519
X4448Y4476
X4380Y4479
X4312Y4477
X4240Y4479
X4173Y4479
X4100Y4479
X3960
X3977Y4630
X3988Y5080
Y5316
X4321Y5385
X4436
X4506Y5258
X4469Y5204
X4683Y5406
X4723Y5454
X4743Y5505
X4516Y5640
X4115Y5715
X4035Y5721
X4071Y4091
X4084Y4018
X4167Y4011
X4046Y3948
X3995Y4031
X4242Y4121
X4380Y4151
X4469Y4080
X4426Y4019
X4367Y3874
X4368Y3798
X4367Y3714
X4287
X4284Y3634
X4127
X4052Y3634
X4127Y3714
Y3795
X4208Y3720
X4207Y3554
Y3474
X4127
Y3553
Y3394
X4128Y3315
X4207Y3314
Y3394
X4367
Y3472
X4447
Y3394
Y3314
X4367
Y3154
X4447
Y3074
X4407Y3034
X4367Y3074
X4287Y2998
X4207Y2996
Y3078
Y3154
X4126Y3150
X4131Y3079
X4050Y3154
X3967
X3886Y3151
X3965Y2996
X4051Y2998
X4051Y3238
X4126Y3233
X4047Y3473
X3967
X3967Y3554
X3887
X3888Y3470
X3463Y3336
X3469Y3172
X3061Y3137
X3008Y3106
X3025Y3011
X2969Y3006
X3003Y3596
Y3672
Y3835
Y3925
X3213Y4088
Y4227
X3673Y4088
X4653Y4066
X4705Y4075
X4672Y4113
X4719Y4165
X4771Y3952
X4767Y3874
X4928
X4929Y3952
X4928Y3795
X5010Y3794
X5089
X5167Y3795
Y3874
X5089
X5247
X5288Y3753
X5245Y3711
X5167Y3714
X5010Y3637
X5009Y3556
X4926
X4848Y3556
X4847Y3634
X4767Y3634
X4931Y3634
Y3714
Y3471
Y3391
Y3316
Y3236
Y3154
Y3076
X5091Y3074
X5089Y2998
X5091Y3152
X5089Y3236
X5167Y3317
X5247
X5410Y3327
X5412Y3468
X5167Y3471
X5008Y3400
X4842Y3391
Y3316
X4687Y3317
X4684Y3388
X4608Y3400
X4608Y3314
X4527
Y3394
X4519Y3466
X4527Y3552
X4522Y3634
X4608Y3717
X4608Y3230
X4608Y3154
Y3078
X4690
Y3152
Y3236
X4527Y3154
Y3074
Y2998
X4487Y3034
X4605Y2996
X5171Y3074
X5304Y2997
X5174Y4033
Y4097
X5129Y4060
X5131Y4001
X5010Y4051
X4964Y4095
X3093Y4707
X3011Y4678
X2549Y4505
Y4445
X2397Y4470
Y4529
X2288Y4192
X2284Y4115
X2113Y4232
X2042
X1991Y4437
X1575Y4394
X1387Y4366
X1500Y4250
X1250
X1000
X750
X500
X250
Y4750
X500
X750
X1000
X1250
X1389Y4712
X1500Y4750
X1375Y5000
X1500Y5250
X1750
X2000
X1972Y5031
X2248Y4978
Y4915
X2250Y5750
X2248Y5994
X2181Y6000
X2095Y5955
Y5880
X2248Y6101
X2250Y6250
X2000
X1750
X1500
X1250
X1000
X750
X500
X250
Y6750
X500
X750
X1000
X1500
X1750
X2000
X2250
X2489Y6769
X2750Y6750
X2875Y6500
X2625
X2489Y6414
X2375Y6500
X2125
X1875
X1625
Y6000
X1575Y5937
X1715
X1500Y5750
X1585Y5588
X1375Y5500
X1250Y5750
X1000
X750
X500
X250
X500Y5250
X750
X1000
X1250
X1375Y6000
X2375
X2625
X2875
X2750Y6250
Y5750
X2603Y4153
X2551Y4198
X2802Y4013
X2791Y3961
X2953Y3879
X2964Y3779
Y3724
X2743Y3460
Y3404
X2600Y3401
X2598Y3338
X2426Y3378
X2449Y3429
X2625Y3000
X1625
X1375
X1500Y3250
X1250
X1000
X750
X500
X250
Y3750
X500
X750
X1000
X1250
X1500
X1590Y3897
X1375Y4000
Y3500
X1596Y3573
X2139Y3753
X2140Y3823
X2133Y3880
X2195Y3881
X2133Y3947
X2125Y7000
X2375
X2625
X2875
X2750Y7250
X2500
X2250
X2000
X1750
X1500
X1250
X1000
X750
Y7750
X1000
X1250
X1500
X1749Y7743
X1843
X1944
X1943Y7902
X1841
X1748
X1746Y8060
X1840
X1942
X1940Y8218
X1839
X1745
X1744Y8376
X1837
X1939
X1938Y8534
X1836
X1743
X1741Y8693
X1835
X1936
X1500Y8750
X1250
X1000
X750
X500
X250
X625Y8500
X875
X1125
X1375
X1500Y8250
X1250
X1000
X750
X875Y8000
X1125
X1375
Y7500
X1750Y7585
X1844
X1946
X2098Y7569
X2367Y7633
X2606Y7636
X2098Y7938
X1875Y7000
X1625
X1375
X500Y7750
X250
X625Y8000
X3591Y7887
Y7757
X3721
X3851
X3981
Y7887
X3851
X3721
X3976Y8331
Y8534
X3722Y8725
X4244Y8166
X4473Y8268
X4689Y8255
X4981Y8192
X5045
X5057Y8141
X5108Y8192
X5095Y8242
X5159
X5032
X5232Y8420
X5337Y8572
X5121Y8572
X4906Y8572
X4689Y7861
X4500Y7750
X4473Y7442
X4375Y7500
X4244Y7442
X4250Y7250
X4178Y7308
Y7150
X4375Y7000
X4674Y6998
X4813
X4805Y6945
X4875Y7000
X5125
X5375
X5625
X5875
X6125
X6375
X6625
X6583Y7535
Y7876
X6625Y8000
X6700Y8110
X6850
X6875Y8000
X6760Y7876
X6857Y7713
X6500Y8250
X6250
Y8750
X6750
X5667Y8268
X5762Y7810
X5750Y7750
X6000
X5500
X5337Y7747
X5121Y7455
X4905
X4689Y7442
X5563Y7436
X3500Y7250
X3625Y7000
X7625
Y7500
X7875
X8010Y7535
X8000Y7250
X8250
X8375Y7500
X8500Y7750
X8250
X8375Y8000
X8250Y8250
X7978Y8056
X7908Y8057
X7858
X7788Y8058
X7625Y8000
X7600Y8110
X7450
X7300
X7167Y8088
X7097Y8089
X7047Y8090
X6977Y8089
X7375Y8000
X7387Y7878
X7565Y7876
X7670Y7713
X7387Y7535
X7210
X7125Y7500
X7250Y8750
X7500
X7750
X8250
X8500
X9125Y8000
X9000Y7750
Y7250
X8375Y7000
X7000Y8750
T02
X193Y716
X357Y651
X521Y716
X589Y880
X521Y1044
X357Y1112
X193Y1044
X125Y880
X8766Y664
X8930Y732
X9094Y664
X9162Y500
X9094Y336
X8930Y271
X8766Y336
X8697Y500
X521Y8082
X357Y8017
X193Y8082
X125Y8246
X193Y8410
X357Y8479
X521Y8410
X589Y8246
X8766Y8336
X8930Y8271
X9094Y8336
X9162Y8500
X9094Y8664
X8930Y8732
X8766Y8664
X8697Y8500
T03
X357Y1388
X611
Y1642
X357
Y1896
X611
Y2150
X357
Y2404
X611
Y2658
Y2912
X357
Y2658
X865
X1119
Y2912
X865
Y2404
Y2150
Y1896
Y1642
X1119
Y1388
X865
X1119Y1896
Y2150
Y2404
Y3166
X865
X611
X357
Y3420
X611
Y3674
X357
Y3928
X611
Y4182
X357
Y4436
Y4690
X611
Y4436
X865
Y4182
Y3928
Y3674
Y3420
X1119
Y3674
Y3928
Y4182
Y4436
Y4690
X865
Y4944
X611
Y5198
Y5452
X357
Y5706
X611
Y5960
X357
Y6214
X611
Y6468
X357
Y6722
X611
X865
Y6468
X1119
Y6722
Y6214
Y5960
Y5706
Y5452
Y5198
Y4944
X865Y5198
Y5452
Y5706
Y5960
Y6214
X357Y5198
Y4944
Y6976
X611
Y7230
Y7484
X357
Y7738
X611
X865
Y7484
Y7230
Y6976
X1119
Y7230
Y7484
Y7738
X357Y7230
T04
X6297Y937
Y1191
X6551
Y937
X6805
Y1191
X7059
X7313
Y937
X7059
T05
X357Y880
X8930Y500
X357Y8246
X8930Y8500
M30
