G04*
G04 #@! TF.GenerationSoftware,Altium Limited,Altium Designer,24.1.2 (44)*
G04*
G04 Layer_Color=255*
%FSLAX44Y44*%
%MOMM*%
G71*
G04*
G04 #@! TF.SameCoordinates,A01663C4-2129-4C4F-A198-2F760A56CFF4*
G04*
G04*
G04 #@! TF.FilePolarity,Positive*
G04*
G01*
G75*
G04:AMPARAMS|DCode=36|XSize=0.95mm|YSize=0.85mm|CornerRadius=0.2125mm|HoleSize=0mm|Usage=FLASHONLY|Rotation=90.000|XOffset=0mm|YOffset=0mm|HoleType=Round|Shape=RoundedRectangle|*
%AMROUNDEDRECTD36*
21,1,0.9500,0.4250,0,0,90.0*
21,1,0.5250,0.8500,0,0,90.0*
1,1,0.4250,0.2125,0.2625*
1,1,0.4250,0.2125,-0.2625*
1,1,0.4250,-0.2125,-0.2625*
1,1,0.4250,-0.2125,0.2625*
%
%ADD36ROUNDEDRECTD36*%
G04:AMPARAMS|DCode=42|XSize=0.95mm|YSize=0.85mm|CornerRadius=0.2125mm|HoleSize=0mm|Usage=FLASHONLY|Rotation=0.000|XOffset=0mm|YOffset=0mm|HoleType=Round|Shape=RoundedRectangle|*
%AMROUNDEDRECTD42*
21,1,0.9500,0.4250,0,0,0.0*
21,1,0.5250,0.8500,0,0,0.0*
1,1,0.4250,0.2625,-0.2125*
1,1,0.4250,-0.2625,-0.2125*
1,1,0.4250,-0.2625,0.2125*
1,1,0.4250,0.2625,0.2125*
%
%ADD42ROUNDEDRECTD42*%
%ADD92R,1.0000X4.0000*%
%ADD106C,1.5300*%
%ADD107R,1.5300X1.5300*%
%ADD108C,0.3000*%
%ADD109C,1.6500*%
G04:AMPARAMS|DCode=110|XSize=1.65mm|YSize=1.65mm|CornerRadius=0.4125mm|HoleSize=0mm|Usage=FLASHONLY|Rotation=180.000|XOffset=0mm|YOffset=0mm|HoleType=Round|Shape=RoundedRectangle|*
%AMROUNDEDRECTD110*
21,1,1.6500,0.8250,0,0,180.0*
21,1,0.8250,1.6500,0,0,180.0*
1,1,0.8250,-0.4125,0.4125*
1,1,0.8250,0.4125,0.4125*
1,1,0.8250,0.4125,-0.4125*
1,1,0.8250,-0.4125,-0.4125*
%
%ADD110ROUNDEDRECTD110*%
%ADD111C,6.0000*%
%ADD112C,1.0000*%
%ADD115R,3.0000X2.1000*%
%ADD116R,1.6000X0.8000*%
G04:AMPARAMS|DCode=117|XSize=1.21mm|YSize=0.59mm|CornerRadius=0.1475mm|HoleSize=0mm|Usage=FLASHONLY|Rotation=0.000|XOffset=0mm|YOffset=0mm|HoleType=Round|Shape=RoundedRectangle|*
%AMROUNDEDRECTD117*
21,1,1.2100,0.2950,0,0,0.0*
21,1,0.9150,0.5900,0,0,0.0*
1,1,0.2950,0.4575,-0.1475*
1,1,0.2950,-0.4575,-0.1475*
1,1,0.2950,-0.4575,0.1475*
1,1,0.2950,0.4575,0.1475*
%
%ADD117ROUNDEDRECTD117*%
%ADD118R,0.6096X1.3208*%
%ADD119R,2.1000X3.0000*%
%ADD120R,0.8000X1.6000*%
D36*
X515490Y605790D02*
D03*
X530990D02*
D03*
X329078Y233645D02*
D03*
X313578D02*
D03*
X329060Y247650D02*
D03*
X313560D02*
D03*
X329060Y261620D02*
D03*
X313560D02*
D03*
X329060Y275590D02*
D03*
X313560D02*
D03*
Y289560D02*
D03*
X329060D02*
D03*
X313560Y303530D02*
D03*
X329060D02*
D03*
X313560Y317500D02*
D03*
X329060D02*
D03*
X329255Y331470D02*
D03*
X313755D02*
D03*
X313560Y345440D02*
D03*
X329060D02*
D03*
Y359410D02*
D03*
X313560D02*
D03*
X329060Y373380D02*
D03*
X313560D02*
D03*
Y387350D02*
D03*
X329060D02*
D03*
Y401320D02*
D03*
X313560D02*
D03*
X329060Y415290D02*
D03*
X313560D02*
D03*
X329060Y429260D02*
D03*
X313560D02*
D03*
X329060Y443230D02*
D03*
X313560D02*
D03*
X329060Y457200D02*
D03*
X313560D02*
D03*
X329060Y471170D02*
D03*
X313560D02*
D03*
X608200Y303530D02*
D03*
X623700D02*
D03*
X608200Y317500D02*
D03*
X623700D02*
D03*
X608200Y331470D02*
D03*
X623700D02*
D03*
X608200Y345440D02*
D03*
X623700D02*
D03*
X608200Y359410D02*
D03*
X623700D02*
D03*
X608200Y373380D02*
D03*
X623700D02*
D03*
Y387350D02*
D03*
X608200D02*
D03*
Y401324D02*
D03*
X623700D02*
D03*
X608200Y415290D02*
D03*
X623700D02*
D03*
Y429260D02*
D03*
X608200D02*
D03*
Y443230D02*
D03*
X623700D02*
D03*
Y457200D02*
D03*
X608200D02*
D03*
Y471170D02*
D03*
X623700D02*
D03*
X360550Y605790D02*
D03*
X376050D02*
D03*
X360550Y619760D02*
D03*
X376050D02*
D03*
X530990Y591820D02*
D03*
X515490D02*
D03*
X530990Y619760D02*
D03*
X515490D02*
D03*
X530990Y633730D02*
D03*
X515490D02*
D03*
X796020Y796670D02*
D03*
X780520D02*
D03*
X714740D02*
D03*
X699240D02*
D03*
X757149Y504330D02*
D03*
X772649D02*
D03*
X756790Y519430D02*
D03*
X772290D02*
D03*
X717680Y504330D02*
D03*
X702180D02*
D03*
Y519430D02*
D03*
X717680D02*
D03*
X813940Y461010D02*
D03*
X829440D02*
D03*
X813940Y476250D02*
D03*
X829440D02*
D03*
X813940Y491490D02*
D03*
X829440D02*
D03*
X813940Y506730D02*
D03*
X829440D02*
D03*
D42*
X861877Y352930D02*
D03*
Y368430D02*
D03*
X138883Y446910D02*
D03*
Y462410D02*
D03*
X466090Y424050D02*
D03*
Y439550D02*
D03*
X452120D02*
D03*
Y424050D02*
D03*
X438150Y439550D02*
D03*
Y424050D02*
D03*
X424180D02*
D03*
Y439550D02*
D03*
X410210Y424050D02*
D03*
Y439550D02*
D03*
X396240D02*
D03*
Y424050D02*
D03*
X580390Y500510D02*
D03*
Y485010D02*
D03*
X594360D02*
D03*
Y500510D02*
D03*
X566420Y485010D02*
D03*
Y500510D02*
D03*
X552450Y485010D02*
D03*
Y500510D02*
D03*
X538480D02*
D03*
Y485010D02*
D03*
X524510Y500510D02*
D03*
Y485010D02*
D03*
X510540D02*
D03*
Y500510D02*
D03*
X496570Y485010D02*
D03*
Y500510D02*
D03*
X482600Y485010D02*
D03*
Y500510D02*
D03*
X468630Y485010D02*
D03*
Y500510D02*
D03*
X454660Y485010D02*
D03*
Y500510D02*
D03*
X440690Y485010D02*
D03*
Y500510D02*
D03*
X426720Y485010D02*
D03*
Y500510D02*
D03*
X412750Y485010D02*
D03*
Y500510D02*
D03*
X398780Y485010D02*
D03*
Y500510D02*
D03*
X384810Y485010D02*
D03*
Y500510D02*
D03*
X370840Y485010D02*
D03*
Y500510D02*
D03*
X356870Y485010D02*
D03*
Y500510D02*
D03*
X342900Y485010D02*
D03*
Y500510D02*
D03*
X452120Y538350D02*
D03*
Y553850D02*
D03*
X422275Y538350D02*
D03*
Y553850D02*
D03*
X392430Y538350D02*
D03*
Y553850D02*
D03*
X500380Y666880D02*
D03*
Y651380D02*
D03*
X486410Y666880D02*
D03*
Y651380D02*
D03*
X441960Y666880D02*
D03*
Y651380D02*
D03*
X427990Y666880D02*
D03*
Y651380D02*
D03*
X414020Y666880D02*
D03*
Y651380D02*
D03*
X400311Y730380D02*
D03*
Y714880D02*
D03*
X756520Y763290D02*
D03*
Y778791D02*
D03*
X738740Y763520D02*
D03*
Y779020D02*
D03*
X676038Y763290D02*
D03*
Y778791D02*
D03*
X658258Y763290D02*
D03*
Y778791D02*
D03*
X702310Y656720D02*
D03*
Y641220D02*
D03*
X716280Y656720D02*
D03*
Y641220D02*
D03*
X730250D02*
D03*
Y656720D02*
D03*
X744220Y641220D02*
D03*
Y656720D02*
D03*
X758190Y641220D02*
D03*
Y656720D02*
D03*
X772160D02*
D03*
Y641220D02*
D03*
X788670Y551050D02*
D03*
Y566550D02*
D03*
X684530Y551050D02*
D03*
Y566550D02*
D03*
X683260Y476380D02*
D03*
Y460880D02*
D03*
X698681Y476380D02*
D03*
Y460880D02*
D03*
X714103Y476380D02*
D03*
Y460880D02*
D03*
X729524Y476380D02*
D03*
Y460880D02*
D03*
X744946Y476380D02*
D03*
Y460880D02*
D03*
X760367Y476380D02*
D03*
Y460880D02*
D03*
X775788Y476380D02*
D03*
Y460880D02*
D03*
X791210Y476380D02*
D03*
Y460880D02*
D03*
D92*
X720000Y41864D02*
D03*
X700000D02*
D03*
X680000D02*
D03*
X660000D02*
D03*
X640000D02*
D03*
D106*
X61100Y291200D02*
D03*
Y316600D02*
D03*
X35700D02*
D03*
X61100Y342000D02*
D03*
X35700D02*
D03*
X61100Y367400D02*
D03*
X35700D02*
D03*
X61100Y392800D02*
D03*
X35700D02*
D03*
X61100Y418200D02*
D03*
X35700Y443600D02*
D03*
Y418200D02*
D03*
Y469000D02*
D03*
X61100Y443600D02*
D03*
Y469000D02*
D03*
Y545200D02*
D03*
X35700D02*
D03*
X61100Y570600D02*
D03*
Y596000D02*
D03*
X35700D02*
D03*
Y570600D02*
D03*
Y621400D02*
D03*
X61100D02*
D03*
Y646800D02*
D03*
X35700D02*
D03*
X61100Y672200D02*
D03*
X35700D02*
D03*
X61100Y697600D02*
D03*
X35700D02*
D03*
X61100Y748400D02*
D03*
X35700D02*
D03*
X61100Y773800D02*
D03*
X35700D02*
D03*
Y138800D02*
D03*
X61100Y164200D02*
D03*
X35700D02*
D03*
X61100Y189600D02*
D03*
X35700D02*
D03*
X61100Y215000D02*
D03*
X35700D02*
D03*
X61100Y240400D02*
D03*
Y265800D02*
D03*
X35700D02*
D03*
Y291200D02*
D03*
Y240400D02*
D03*
Y723000D02*
D03*
X61100D02*
D03*
X35700Y519800D02*
D03*
X61100D02*
D03*
X35700Y494400D02*
D03*
X61100D02*
D03*
X111900Y164200D02*
D03*
X86500Y646800D02*
D03*
Y672200D02*
D03*
X111900D02*
D03*
Y646800D02*
D03*
Y291200D02*
D03*
Y316600D02*
D03*
X86500D02*
D03*
X111900Y342000D02*
D03*
X86500D02*
D03*
X111900Y367400D02*
D03*
X86500D02*
D03*
X111900Y392800D02*
D03*
X86500D02*
D03*
X111900Y418200D02*
D03*
X86500Y443600D02*
D03*
Y418200D02*
D03*
Y469000D02*
D03*
X111900Y443600D02*
D03*
Y469000D02*
D03*
Y494400D02*
D03*
X86500D02*
D03*
X111900Y519800D02*
D03*
X86500D02*
D03*
X111900Y545200D02*
D03*
X86500D02*
D03*
X111900Y570600D02*
D03*
Y596000D02*
D03*
X86500D02*
D03*
Y570600D02*
D03*
Y621400D02*
D03*
X111900D02*
D03*
Y697600D02*
D03*
X86500D02*
D03*
X111900Y723000D02*
D03*
X86500D02*
D03*
X111900Y748400D02*
D03*
X86500D02*
D03*
X111900Y773800D02*
D03*
X86500D02*
D03*
Y138800D02*
D03*
Y164200D02*
D03*
X111900Y189600D02*
D03*
X86500D02*
D03*
X111900Y215000D02*
D03*
X86500D02*
D03*
X111900Y240400D02*
D03*
Y265800D02*
D03*
X86500D02*
D03*
Y291200D02*
D03*
Y240400D02*
D03*
D107*
X61100Y138800D02*
D03*
X111900D02*
D03*
D108*
X359071Y788670D02*
D03*
X398071D02*
D03*
Y775670D02*
D03*
X385071Y788670D02*
D03*
Y775670D02*
D03*
X359071D02*
D03*
X372071Y788670D02*
D03*
Y775670D02*
D03*
D109*
X629666Y119126D02*
D03*
X705866D02*
D03*
X655066Y93726D02*
D03*
Y119126D02*
D03*
X680466Y93726D02*
D03*
Y119126D02*
D03*
X705866Y93726D02*
D03*
X731266D02*
D03*
X629666D02*
D03*
D110*
X731266Y119126D02*
D03*
D111*
X893000Y50000D02*
D03*
Y850000D02*
D03*
X35700Y88000D02*
D03*
Y824600D02*
D03*
D112*
X893000Y73250D02*
D03*
X869750Y50000D02*
D03*
X893000Y27140D02*
D03*
X916250Y50000D02*
D03*
X909440Y66440D02*
D03*
X876560Y33560D02*
D03*
X909440D02*
D03*
X876560Y66440D02*
D03*
X893000Y873250D02*
D03*
X869750Y850000D02*
D03*
X893000Y827140D02*
D03*
X916250Y850000D02*
D03*
X909440Y866440D02*
D03*
X876560Y833560D02*
D03*
X909440D02*
D03*
X876560Y866440D02*
D03*
X35700Y111250D02*
D03*
X12450Y88000D02*
D03*
X35700Y65140D02*
D03*
X58950Y88000D02*
D03*
X52140Y104440D02*
D03*
X19260Y71560D02*
D03*
X52140D02*
D03*
X19260Y104440D02*
D03*
Y841040D02*
D03*
X52140Y808160D02*
D03*
X19260D02*
D03*
X52140Y841040D02*
D03*
X58950Y824600D02*
D03*
X35700Y801740D02*
D03*
X12450Y824600D02*
D03*
X35700Y847850D02*
D03*
D115*
X886730Y296750D02*
D03*
Y183250D02*
D03*
X886695Y404500D02*
D03*
Y555500D02*
D03*
X886730Y746750D02*
D03*
Y633250D02*
D03*
D116*
X857730Y208750D02*
D03*
Y221250D02*
D03*
Y233750D02*
D03*
Y246250D02*
D03*
Y258750D02*
D03*
Y271250D02*
D03*
X857695Y430000D02*
D03*
Y442500D02*
D03*
Y455000D02*
D03*
Y467500D02*
D03*
Y480000D02*
D03*
Y492500D02*
D03*
Y505000D02*
D03*
Y517500D02*
D03*
Y530000D02*
D03*
X857730Y721250D02*
D03*
Y708750D02*
D03*
Y696250D02*
D03*
Y671250D02*
D03*
Y658750D02*
D03*
Y683750D02*
D03*
D117*
X800820Y761770D02*
D03*
Y780770D02*
D03*
X775720D02*
D03*
Y771270D02*
D03*
Y761770D02*
D03*
X694440D02*
D03*
Y771270D02*
D03*
Y780770D02*
D03*
X719540D02*
D03*
Y761770D02*
D03*
D118*
X834390Y371721D02*
D03*
X824890Y351417D02*
D03*
X843890D02*
D03*
X166370Y443619D02*
D03*
X175870Y463923D02*
D03*
X156870D02*
D03*
X382324Y713367D02*
D03*
X363324D02*
D03*
X372824Y733671D02*
D03*
D119*
X805500Y856730D02*
D03*
X654500D02*
D03*
D120*
X780000Y827730D02*
D03*
X767500D02*
D03*
X755000D02*
D03*
X742500D02*
D03*
X730000D02*
D03*
X717500D02*
D03*
X705000D02*
D03*
X692500D02*
D03*
X680000D02*
D03*
M02*
